<svg width="400" height="277" viewBox="0 0 400 277" fill="none" xmlns="http://www.w3.org/2000/svg">
<path d="M117.889 12.152L122.411 30.92L126.933 12.152H129.993L134.515 30.92L139.037 12.152H142.301L136.215 35H132.815L128.463 18.102L124.111 35H120.711L114.625 12.152H117.889ZM144.582 15.45V12.152H147.642V15.45H144.582ZM144.582 35V18.51H147.642V35H144.582ZM150.164 18.51H152.782V14.192H155.842V18.51H159.889V21.196H155.842V31.022C155.842 32.11 156.25 32.348 157.372 32.348H159.889V35H157.032C154.788 35 152.782 33.98 152.782 31.328V21.196H150.164V18.51ZM165.61 35H162.584V12.152H165.61V20.516C166.732 18.986 168.534 18.068 170.914 18.068C174.994 18.068 177.476 20.958 177.476 25.242V35H174.45V25.004C174.45 22.012 173.124 20.822 170.098 20.822C167.038 20.822 165.61 22.012 165.61 25.004V35Z" fill="#262626"/>
<path d="M200.024 12.152H203.798V35H200.5L200.228 33.096C198.97 34.626 197.168 35.476 194.924 35.476C190.47 35.476 187.036 31.906 187.036 26.67C187.036 21.502 190.47 17.966 194.924 17.966C197.032 17.966 198.766 18.714 200.024 20.074V12.152ZM190.776 26.67C190.776 30.614 192.17 32.144 195.468 32.144C198.8 32.144 200.194 30.614 200.194 26.67C200.194 22.794 198.8 21.264 195.468 21.264C192.17 21.264 190.776 22.794 190.776 26.67ZM222.917 30.172C221.795 33.504 218.701 35.476 215.029 35.476C210.235 35.476 206.529 31.974 206.529 26.67C206.529 21.434 210.235 17.966 214.927 17.966C219.109 17.966 223.223 20.856 223.223 26.738V27.792H210.303C210.575 31.09 212.003 32.144 215.029 32.144C217.341 32.144 218.463 31.6 219.143 30.172H222.917ZM210.371 25.004H219.517C219.211 22.318 217.851 21.264 214.927 21.264C212.173 21.264 210.745 22.216 210.371 25.004ZM235.705 30.478C235.705 29.322 234.991 28.846 233.291 28.438L230.469 27.792C227.171 27.01 225.471 25.65 225.471 22.794C225.471 19.836 228.565 17.966 232.237 17.966C235.909 17.966 238.833 19.836 239.309 23.202H235.603C235.365 21.672 234.345 21.128 232.237 21.128C230.163 21.128 229.211 21.706 229.211 22.794C229.211 23.712 229.653 24.188 231.387 24.596L234.311 25.344C237.677 26.16 239.411 27.384 239.411 30.376C239.411 33.708 236.181 35.476 232.339 35.476C228.769 35.476 225.471 33.81 224.927 29.832H228.633C228.973 31.804 230.061 32.28 232.339 32.28C234.549 32.28 235.705 31.702 235.705 30.478ZM242.12 15.858V12.152H245.894V15.858H242.12ZM242.12 35V18.408H245.894V35H242.12ZM256.428 34.864C252.008 34.864 248.574 31.464 248.574 26.364C248.574 21.332 252.008 17.966 256.428 17.966C258.638 17.966 260.44 18.782 261.698 20.244L261.936 18.408H265.268V34.252C265.132 38.604 261.868 41.596 257.074 41.596C252.654 41.596 249.9 39.386 248.982 36.224H252.96C253.606 37.822 254.592 38.468 257.244 38.468C260.032 38.468 261.494 37.142 261.494 34.83V32.824C260.236 34.15 258.502 34.864 256.428 34.864ZM252.314 26.364C252.314 30.172 253.776 31.532 256.972 31.532C260.202 31.532 261.664 30.172 261.664 26.364C261.664 22.624 260.202 21.264 256.972 21.264C253.776 21.264 252.314 22.624 252.314 26.364ZM280.31 24.97C280.31 22.318 279.222 21.264 276.536 21.264C273.85 21.264 272.694 22.318 272.694 24.97V35H268.988V18.408H272.218L272.49 20.448C273.68 18.884 275.448 17.966 277.726 17.966C281.568 17.966 284.05 20.856 284.05 25.038V35H280.31V24.97Z" fill="#FD312E"/>
<rect x="42.5" y="71" width="315" height="1" fill="#4A4946"/>
<circle cx="324" cy="72.5" r="11.5" fill="#F6F3EB"/>
<circle cx="324" cy="72.5" r="11.125" stroke="#4A4946" stroke-opacity="0.8" stroke-width="0.75"/>
<rect x="0.5" y="127" width="399" height="150" rx="10" fill="#F9F8F3"/>
<path d="M38.5576 173.312C38.5576 173.6 38.5036 173.87 38.3956 174.122C38.2876 174.374 38.1376 174.596 37.9456 174.788C37.7656 174.968 37.5496 175.112 37.2976 175.22C37.0576 175.316 36.7936 175.364 36.5056 175.364C36.2176 175.364 35.9476 175.316 35.6956 175.22C35.4436 175.112 35.2216 174.968 35.0296 174.788C34.8496 174.608 34.7056 174.392 34.5976 174.14C34.4896 173.888 34.4356 173.612 34.4356 173.312C34.4356 173.024 34.4896 172.754 34.5976 172.502C34.7056 172.25 34.8496 172.034 35.0296 171.854C35.2216 171.662 35.4436 171.518 35.6956 171.422C35.9476 171.314 36.2176 171.26 36.5056 171.26C36.7936 171.26 37.0576 171.314 37.2976 171.422C37.5496 171.518 37.7656 171.662 37.9456 171.854C38.1376 172.034 38.2876 172.25 38.3956 172.502C38.5036 172.754 38.5576 173.024 38.5576 173.312ZM58.622 177.83V179H51.458V166.904H52.844V177.83H58.622ZM66.2946 179H65.2686L65.0526 178.19C64.6926 178.502 64.2666 178.748 63.7746 178.928C63.2946 179.096 62.7666 179.18 62.1906 179.18C61.2906 179.18 60.6126 178.952 60.1566 178.496C59.7126 178.028 59.4906 177.362 59.4906 176.498C59.4906 175.61 59.7666 174.956 60.3186 174.536C60.8706 174.104 61.7946 173.888 63.0906 173.888C63.4746 173.888 63.8106 173.894 64.0986 173.906C64.3986 173.918 64.6746 173.942 64.9266 173.978V173.492C64.9266 172.688 64.7706 172.118 64.4586 171.782C64.1466 171.434 63.5946 171.26 62.8026 171.26C62.4306 171.26 62.0226 171.326 61.5786 171.458C61.1466 171.578 60.7086 171.758 60.2646 171.998L59.8506 170.954C60.3306 170.69 60.8406 170.486 61.3806 170.342C61.9206 170.186 62.4786 170.108 63.0546 170.108C63.6666 170.108 64.1766 170.168 64.5846 170.288C65.0046 170.408 65.3406 170.606 65.5926 170.882C65.8446 171.146 66.0246 171.488 66.1326 171.908C66.2406 172.328 66.2946 172.844 66.2946 173.456V179ZM62.5686 178.046C62.9646 178.046 63.3726 177.962 63.7926 177.794C64.2246 177.614 64.6026 177.38 64.9266 177.092V175.094C64.6146 175.058 64.3026 175.034 63.9906 175.022C63.6786 174.998 63.3306 174.986 62.9466 174.986C62.1906 174.986 61.6506 175.1 61.3266 175.328C61.0146 175.556 60.8586 175.94 60.8586 176.48C60.8586 176.996 60.9906 177.386 61.2546 177.65C61.5186 177.914 61.9566 178.046 62.5686 178.046ZM74.257 178.136C73.849 178.46 73.399 178.718 72.907 178.91C72.415 179.09 71.899 179.18 71.359 179.18C70.351 179.18 69.625 178.94 69.181 178.46C68.737 177.98 68.515 177.194 68.515 176.102V170.288H69.901V175.724C69.901 176.588 70.039 177.188 70.315 177.524C70.603 177.86 71.041 178.028 71.629 178.028C72.469 178.028 73.303 177.722 74.131 177.11V170.288H75.517V179H74.473L74.257 178.136ZM79.1968 171.17C79.6048 170.846 80.0548 170.588 80.5468 170.396C81.0388 170.204 81.5548 170.108 82.0948 170.108C83.1028 170.108 83.8228 170.354 84.2548 170.846C84.6988 171.326 84.9208 172.112 84.9208 173.204V179H83.5528V173.582C83.5528 172.718 83.4088 172.118 83.1208 171.782C82.8448 171.446 82.4128 171.278 81.8248 171.278C80.9848 171.278 80.1448 171.584 79.3048 172.196V179H77.9368V170.288H78.9628L79.1968 171.17ZM90.9596 178.028C91.7996 178.028 92.5496 177.818 93.2096 177.398L93.6056 178.496C93.2576 178.7 92.8556 178.868 92.3996 179C91.9556 179.12 91.4756 179.18 90.9596 179.18C89.5316 179.18 88.4876 178.826 87.8276 178.118C87.1676 177.398 86.8376 176.24 86.8376 174.644C86.8376 173.084 87.1556 171.938 87.7916 171.206C88.4276 170.474 89.4236 170.108 90.7796 170.108C91.9436 170.108 92.8976 170.462 93.6416 171.17L92.8856 172.106C92.6216 171.842 92.3096 171.638 91.9496 171.494C91.6016 171.338 91.2236 171.26 90.8156 171.26C89.9516 171.26 89.2976 171.524 88.8536 172.052C88.4216 172.568 88.2056 173.432 88.2056 174.644C88.2056 175.856 88.4336 176.726 88.8896 177.254C89.3456 177.77 90.0356 178.028 90.9596 178.028ZM96.7381 171.08C97.5661 170.432 98.4961 170.108 99.5281 170.108C100.536 170.108 101.256 170.348 101.688 170.828C102.132 171.296 102.354 172.088 102.354 173.204V179H100.986V173.582C100.986 172.718 100.842 172.118 100.554 171.782C100.278 171.446 99.8461 171.278 99.2581 171.278C98.4181 171.278 97.5781 171.584 96.7381 172.196V179H95.3701V166.472L96.7381 166.292V171.08ZM104.865 170.288H106.233V179H104.865V170.288ZM104.847 166.544H106.233V168.344H104.847V166.544ZM110.091 171.17C110.499 170.846 110.949 170.588 111.441 170.396C111.933 170.204 112.449 170.108 112.989 170.108C113.997 170.108 114.717 170.354 115.149 170.846C115.593 171.326 115.815 172.112 115.815 173.204V179H114.447V173.582C114.447 172.718 114.303 172.118 114.015 171.782C113.739 171.446 113.307 171.278 112.719 171.278C111.879 171.278 111.039 171.584 110.199 172.196V179H108.831V170.288H109.857L110.091 171.17ZM125.021 170.288V179.108C125.021 180.44 124.697 181.406 124.049 182.006C123.413 182.618 122.459 182.924 121.187 182.924C120.683 182.924 120.203 182.882 119.747 182.798C119.291 182.726 118.889 182.624 118.541 182.492L118.829 181.358C119.513 181.622 120.293 181.754 121.169 181.754C122.033 181.754 122.657 181.556 123.041 181.16C123.437 180.764 123.635 180.116 123.635 179.216V178.316C123.335 178.592 122.969 178.808 122.537 178.964C122.117 179.108 121.655 179.18 121.151 179.18C120.023 179.18 119.165 178.814 118.577 178.082C118.001 177.35 117.713 176.204 117.713 174.644C117.713 173.096 118.013 171.956 118.613 171.224C119.213 170.48 120.107 170.108 121.295 170.108C121.799 170.108 122.261 170.192 122.681 170.36C123.101 170.528 123.467 170.756 123.779 171.044L123.995 170.288H125.021ZM121.511 171.26C120.683 171.26 120.071 171.524 119.675 172.052C119.291 172.58 119.099 173.444 119.099 174.644C119.099 175.856 119.291 176.726 119.675 177.254C120.071 177.782 120.683 178.046 121.511 178.046C121.931 178.046 122.321 177.962 122.681 177.794C123.053 177.626 123.371 177.398 123.635 177.11V172.196C123.371 171.908 123.053 171.68 122.681 171.512C122.321 171.344 121.931 171.26 121.511 171.26ZM138.733 179H137.707L137.491 178.19C137.131 178.502 136.705 178.748 136.213 178.928C135.733 179.096 135.205 179.18 134.629 179.18C133.729 179.18 133.051 178.952 132.595 178.496C132.151 178.028 131.929 177.362 131.929 176.498C131.929 175.61 132.205 174.956 132.757 174.536C133.309 174.104 134.233 173.888 135.529 173.888C135.913 173.888 136.249 173.894 136.537 173.906C136.837 173.918 137.113 173.942 137.365 173.978V173.492C137.365 172.688 137.209 172.118 136.897 171.782C136.585 171.434 136.033 171.26 135.241 171.26C134.869 171.26 134.461 171.326 134.017 171.458C133.585 171.578 133.147 171.758 132.703 171.998L132.289 170.954C132.769 170.69 133.279 170.486 133.819 170.342C134.359 170.186 134.917 170.108 135.493 170.108C136.105 170.108 136.615 170.168 137.023 170.288C137.443 170.408 137.779 170.606 138.031 170.882C138.283 171.146 138.463 171.488 138.571 171.908C138.679 172.328 138.733 172.844 138.733 173.456V179ZM135.007 178.046C135.403 178.046 135.811 177.962 136.231 177.794C136.663 177.614 137.041 177.38 137.365 177.092V175.094C137.053 175.058 136.741 175.034 136.429 175.022C136.117 174.998 135.769 174.986 135.385 174.986C134.629 174.986 134.089 175.1 133.765 175.328C133.453 175.556 133.297 175.94 133.297 176.48C133.297 176.996 133.429 177.386 133.693 177.65C133.957 177.914 134.395 178.046 135.007 178.046ZM147.24 171.098C147.66 170.786 148.092 170.546 148.536 170.378C148.98 170.198 149.454 170.108 149.958 170.108C150.57 170.108 151.056 170.198 151.416 170.378C151.788 170.558 152.064 170.858 152.244 171.278C152.664 170.93 153.12 170.648 153.612 170.432C154.116 170.216 154.638 170.108 155.178 170.108C155.682 170.108 156.102 170.168 156.438 170.288C156.774 170.396 157.044 170.576 157.248 170.828C157.464 171.08 157.614 171.404 157.698 171.8C157.782 172.184 157.824 172.652 157.824 173.204V179H156.456V173.582C156.456 172.718 156.336 172.118 156.096 171.782C155.868 171.446 155.478 171.278 154.926 171.278C154.134 171.278 153.336 171.602 152.532 172.25C152.568 172.526 152.586 172.844 152.586 173.204V179H151.218V173.582C151.218 172.73 151.11 172.136 150.894 171.8C150.678 171.452 150.276 171.278 149.688 171.278C149.292 171.278 148.908 171.356 148.536 171.512C148.164 171.656 147.774 171.884 147.366 172.196V179H145.998V170.288H147.024L147.24 171.098ZM160.327 170.288H161.695V179H160.327V170.288ZM160.309 166.544H161.695V168.344H160.309V166.544ZM168.019 178.028C168.859 178.028 169.609 177.818 170.269 177.398L170.665 178.496C170.317 178.7 169.915 178.868 169.459 179C169.015 179.12 168.535 179.18 168.019 179.18C166.591 179.18 165.547 178.826 164.887 178.118C164.227 177.398 163.897 176.24 163.897 174.644C163.897 173.084 164.215 171.938 164.851 171.206C165.487 170.474 166.483 170.108 167.839 170.108C169.003 170.108 169.957 170.462 170.701 171.17L169.945 172.106C169.681 171.842 169.369 171.638 169.009 171.494C168.661 171.338 168.283 171.26 167.875 171.26C167.011 171.26 166.357 171.524 165.913 172.052C165.481 172.568 165.265 173.432 165.265 174.644C165.265 175.856 165.493 176.726 165.949 177.254C166.405 177.77 167.095 178.028 168.019 178.028ZM173.473 170.288L173.635 171.44C174.031 171.008 174.475 170.678 174.967 170.45C175.459 170.222 175.957 170.108 176.461 170.108C176.665 170.108 176.839 170.126 176.983 170.162C177.139 170.186 177.301 170.228 177.469 170.288V171.512C177.109 171.368 176.731 171.296 176.335 171.296C175.879 171.296 175.423 171.422 174.967 171.674C174.511 171.926 174.121 172.244 173.797 172.628V179H172.429V170.288H173.473ZM178.165 174.644C178.165 173.084 178.477 171.938 179.101 171.206C179.737 170.474 180.745 170.108 182.125 170.108C183.493 170.108 184.489 170.474 185.113 171.206C185.749 171.938 186.067 173.084 186.067 174.644C186.067 176.204 185.749 177.35 185.113 178.082C184.477 178.814 183.481 179.18 182.125 179.18C180.757 179.18 179.755 178.814 179.119 178.082C178.483 177.35 178.165 176.204 178.165 174.644ZM179.551 174.644C179.551 175.832 179.755 176.696 180.163 177.236C180.571 177.764 181.225 178.028 182.125 178.028C183.025 178.028 183.679 177.764 184.087 177.236C184.495 176.696 184.699 175.832 184.699 174.644C184.699 173.48 184.495 172.628 184.087 172.088C183.679 171.548 183.025 171.278 182.125 171.278C181.225 171.278 180.571 171.548 180.163 172.088C179.755 172.628 179.551 173.48 179.551 174.644ZM192.605 174.14H188.015V172.952H192.605V174.14ZM197.064 173.6C197.34 173.708 197.682 173.828 198.09 173.96C198.51 174.092 198.924 174.236 199.332 174.392C200.496 174.824 201.078 175.598 201.078 176.714C201.078 177.506 200.802 178.118 200.25 178.55C199.698 178.982 198.81 179.198 197.586 179.198C196.902 179.198 196.32 179.12 195.84 178.964C195.36 178.808 194.928 178.622 194.544 178.406L194.994 177.326C195.342 177.53 195.738 177.704 196.182 177.848C196.626 177.992 197.1 178.064 197.604 178.064C198.372 178.064 198.912 177.962 199.224 177.758C199.536 177.542 199.692 177.218 199.692 176.786C199.692 176.21 199.35 175.784 198.666 175.508C198.282 175.352 197.88 175.208 197.46 175.076C197.052 174.944 196.662 174.812 196.29 174.68C195.81 174.512 195.426 174.254 195.138 173.906C194.862 173.546 194.724 173.078 194.724 172.502C194.724 171.806 194.994 171.23 195.534 170.774C196.086 170.318 196.908 170.09 198 170.09C198.576 170.09 199.092 170.15 199.548 170.27C200.004 170.378 200.388 170.51 200.7 170.666L200.286 171.71C199.938 171.542 199.59 171.422 199.242 171.35C198.894 171.266 198.468 171.224 197.964 171.224C197.604 171.224 197.304 171.26 197.064 171.332C196.824 171.404 196.632 171.5 196.488 171.62C196.356 171.728 196.26 171.854 196.2 171.998C196.14 172.142 196.11 172.286 196.11 172.43C196.11 172.718 196.182 172.952 196.326 173.132C196.47 173.312 196.716 173.468 197.064 173.6ZM203.205 170.288H204.573V179H203.205V170.288ZM203.187 166.544H204.573V168.344H203.187V166.544ZM209.115 171.458V175.76C209.115 176.156 209.133 176.498 209.169 176.786C209.205 177.074 209.277 177.314 209.385 177.506C209.505 177.686 209.667 177.818 209.871 177.902C210.087 177.986 210.375 178.028 210.735 178.028C210.999 178.028 211.257 177.998 211.509 177.938C211.773 177.878 212.025 177.806 212.265 177.722L212.535 178.766C211.815 179.042 211.089 179.18 210.357 179.18C209.829 179.18 209.391 179.108 209.043 178.964C208.707 178.82 208.437 178.622 208.233 178.37C208.041 178.106 207.909 177.794 207.837 177.434C207.765 177.062 207.729 176.654 207.729 176.21V171.458H206.307V170.288H207.729V168.452L209.115 168.2V170.288H212.193V171.458H209.115ZM217.481 179.18C216.065 179.18 215.057 178.814 214.457 178.082C213.869 177.338 213.575 176.192 213.575 174.644C213.575 173.084 213.875 171.938 214.475 171.206C215.075 170.474 215.993 170.108 217.229 170.108C218.465 170.108 219.383 170.468 219.983 171.188C220.583 171.896 220.883 173.024 220.883 174.572V175.148H214.979C215.027 176.18 215.249 176.918 215.645 177.362C216.041 177.806 216.659 178.028 217.499 178.028C218.003 178.028 218.495 177.956 218.975 177.812C219.467 177.656 219.923 177.446 220.343 177.182L220.793 178.28C220.337 178.556 219.821 178.778 219.245 178.946C218.681 179.102 218.093 179.18 217.481 179.18ZM219.479 174.032C219.419 173.096 219.209 172.406 218.849 171.962C218.489 171.506 217.949 171.278 217.229 171.278C216.509 171.278 215.969 171.506 215.609 171.962C215.249 172.406 215.039 173.096 214.979 174.032H219.479ZM38.5576 203.312C38.5576 203.6 38.5036 203.87 38.3956 204.122C38.2876 204.374 38.1376 204.596 37.9456 204.788C37.7656 204.968 37.5496 205.112 37.2976 205.22C37.0576 205.316 36.7936 205.364 36.5056 205.364C36.2176 205.364 35.9476 205.316 35.6956 205.22C35.4436 205.112 35.2216 204.968 35.0296 204.788C34.8496 204.608 34.7056 204.392 34.5976 204.14C34.4896 203.888 34.4356 203.612 34.4356 203.312C34.4356 203.024 34.4896 202.754 34.5976 202.502C34.7056 202.25 34.8496 202.034 35.0296 201.854C35.2216 201.662 35.4436 201.518 35.6956 201.422C35.9476 201.314 36.2176 201.26 36.5056 201.26C36.7936 201.26 37.0576 201.314 37.2976 201.422C37.5496 201.518 37.7656 201.662 37.9456 201.854C38.1376 202.034 38.2876 202.25 38.3956 202.502C38.5036 202.754 38.5576 203.024 38.5576 203.312ZM52.844 204.302V209H51.458V196.904H55.526C58.25 196.904 59.612 198.11 59.612 200.522C59.612 201.758 59.288 202.7 58.64 203.348C57.992 203.984 57.014 204.302 55.706 204.302H52.844ZM52.844 198.092V203.132H55.742C56.546 203.132 57.158 202.916 57.578 202.484C58.01 202.04 58.226 201.386 58.226 200.522C58.226 199.73 58.01 199.13 57.578 198.722C57.158 198.302 56.546 198.092 55.742 198.092H52.844ZM67.1927 208.136C66.7847 208.46 66.3347 208.718 65.8427 208.91C65.3507 209.09 64.8347 209.18 64.2947 209.18C63.2867 209.18 62.5607 208.94 62.1167 208.46C61.6727 207.98 61.4507 207.194 61.4507 206.102V200.288H62.8367V205.724C62.8367 206.588 62.9747 207.188 63.2507 207.524C63.5387 207.86 63.9767 208.028 64.5647 208.028C65.4047 208.028 66.2387 207.722 67.0667 207.11V200.288H68.4527V209H67.4087L67.1927 208.136ZM74.3825 208.046C75.2105 208.046 75.8225 207.782 76.2185 207.254C76.6145 206.726 76.8125 205.856 76.8125 204.644C76.8125 203.444 76.6145 202.58 76.2185 202.052C75.8225 201.524 75.2105 201.26 74.3825 201.26C73.9625 201.26 73.5665 201.344 73.1945 201.512C72.8345 201.68 72.5225 201.908 72.2585 202.196V207.11C72.5225 207.398 72.8345 207.626 73.1945 207.794C73.5665 207.962 73.9625 208.046 74.3825 208.046ZM71.8985 209H70.8725V196.454L72.2585 196.292V200.99C72.5585 200.714 72.9185 200.498 73.3385 200.342C73.7705 200.186 74.2385 200.108 74.7425 200.108C75.8705 200.108 76.7225 200.48 77.2985 201.224C77.8865 201.956 78.1805 203.096 78.1805 204.644C78.1805 206.204 77.8805 207.35 77.2805 208.082C76.6805 208.814 75.7865 209.18 74.5985 209.18C74.0945 209.18 73.6325 209.102 73.2125 208.946C72.8045 208.778 72.4445 208.55 72.1325 208.262L71.8985 209ZM82.6168 209.126C82.5568 209.15 82.4728 209.162 82.3648 209.162C82.2568 209.174 82.1668 209.18 82.0948 209.18C81.4828 209.18 81.0388 209 80.7628 208.64C80.4988 208.268 80.3668 207.704 80.3668 206.948V196.508L81.7348 196.292V206.75C81.7348 207.026 81.7468 207.248 81.7708 207.416C81.7948 207.584 81.8368 207.716 81.8968 207.812C81.9688 207.908 82.0588 207.974 82.1668 208.01C82.2868 208.034 82.4368 208.046 82.6168 208.046V209.126ZM84.6542 200.288H86.0222V209H84.6542V200.288ZM84.6362 196.544H86.0222V198.344H84.6362V196.544ZM90.7261 203.6C91.0021 203.708 91.3441 203.828 91.7521 203.96C92.1721 204.092 92.5861 204.236 92.9941 204.392C94.1581 204.824 94.7401 205.598 94.7401 206.714C94.7401 207.506 94.4641 208.118 93.9121 208.55C93.3601 208.982 92.4721 209.198 91.2481 209.198C90.5641 209.198 89.9821 209.12 89.5021 208.964C89.0221 208.808 88.5901 208.622 88.2061 208.406L88.6561 207.326C89.0041 207.53 89.4001 207.704 89.8441 207.848C90.2881 207.992 90.7621 208.064 91.2661 208.064C92.0341 208.064 92.5741 207.962 92.8861 207.758C93.1981 207.542 93.3541 207.218 93.3541 206.786C93.3541 206.21 93.0121 205.784 92.3281 205.508C91.9441 205.352 91.5421 205.208 91.1221 205.076C90.7141 204.944 90.3241 204.812 89.9521 204.68C89.4721 204.512 89.0881 204.254 88.8001 203.906C88.5241 203.546 88.3861 203.078 88.3861 202.502C88.3861 201.806 88.6561 201.23 89.1961 200.774C89.7481 200.318 90.5701 200.09 91.6621 200.09C92.2381 200.09 92.7541 200.15 93.2101 200.27C93.6661 200.378 94.0501 200.51 94.3621 200.666L93.9481 201.71C93.6001 201.542 93.2521 201.422 92.9041 201.35C92.5561 201.266 92.1301 201.224 91.6261 201.224C91.2661 201.224 90.9661 201.26 90.7261 201.332C90.4861 201.404 90.2941 201.5 90.1501 201.62C90.0181 201.728 89.9221 201.854 89.8621 201.998C89.8021 202.142 89.7721 202.286 89.7721 202.43C89.7721 202.718 89.8441 202.952 89.9881 203.132C90.1321 203.312 90.3781 203.468 90.7261 203.6ZM98.0368 201.08C98.8648 200.432 99.7948 200.108 100.827 200.108C101.835 200.108 102.555 200.348 102.987 200.828C103.431 201.296 103.653 202.088 103.653 203.204V209H102.285V203.582C102.285 202.718 102.141 202.118 101.853 201.782C101.577 201.446 101.145 201.278 100.557 201.278C99.7168 201.278 98.8768 201.584 98.0368 202.196V209H96.6688V196.472L98.0368 196.292V201.08ZM106.164 200.288H107.532V209H106.164V200.288ZM106.146 196.544H107.532V198.344H106.146V196.544ZM111.389 201.17C111.797 200.846 112.247 200.588 112.739 200.396C113.231 200.204 113.747 200.108 114.287 200.108C115.295 200.108 116.015 200.354 116.447 200.846C116.891 201.326 117.113 202.112 117.113 203.204V209H115.745V203.582C115.745 202.718 115.601 202.118 115.313 201.782C115.037 201.446 114.605 201.278 114.017 201.278C113.177 201.278 112.337 201.584 111.497 202.196V209H110.129V200.288H111.155L111.389 201.17ZM126.32 200.288V209.108C126.32 210.44 125.996 211.406 125.348 212.006C124.712 212.618 123.758 212.924 122.486 212.924C121.982 212.924 121.502 212.882 121.046 212.798C120.59 212.726 120.188 212.624 119.84 212.492L120.128 211.358C120.812 211.622 121.592 211.754 122.468 211.754C123.332 211.754 123.956 211.556 124.34 211.16C124.736 210.764 124.934 210.116 124.934 209.216V208.316C124.634 208.592 124.268 208.808 123.836 208.964C123.416 209.108 122.954 209.18 122.45 209.18C121.322 209.18 120.464 208.814 119.876 208.082C119.3 207.35 119.012 206.204 119.012 204.644C119.012 203.096 119.312 201.956 119.912 201.224C120.512 200.48 121.406 200.108 122.594 200.108C123.098 200.108 123.56 200.192 123.98 200.36C124.4 200.528 124.766 200.756 125.078 201.044L125.294 200.288H126.32ZM122.81 201.26C121.982 201.26 121.37 201.524 120.974 202.052C120.59 202.58 120.398 203.444 120.398 204.644C120.398 205.856 120.59 206.726 120.974 207.254C121.37 207.782 121.982 208.046 122.81 208.046C123.23 208.046 123.62 207.962 123.98 207.794C124.352 207.626 124.67 207.398 124.934 207.11V202.196C124.67 201.908 124.352 201.68 123.98 201.512C123.62 201.344 123.23 201.26 122.81 201.26ZM140.031 209H139.005L138.789 208.19C138.429 208.502 138.003 208.748 137.511 208.928C137.031 209.096 136.503 209.18 135.927 209.18C135.027 209.18 134.349 208.952 133.893 208.496C133.449 208.028 133.227 207.362 133.227 206.498C133.227 205.61 133.503 204.956 134.055 204.536C134.607 204.104 135.531 203.888 136.827 203.888C137.211 203.888 137.547 203.894 137.835 203.906C138.135 203.918 138.411 203.942 138.663 203.978V203.492C138.663 202.688 138.507 202.118 138.195 201.782C137.883 201.434 137.331 201.26 136.539 201.26C136.167 201.26 135.759 201.326 135.315 201.458C134.883 201.578 134.445 201.758 134.001 201.998L133.587 200.954C134.067 200.69 134.577 200.486 135.117 200.342C135.657 200.186 136.215 200.108 136.791 200.108C137.403 200.108 137.913 200.168 138.321 200.288C138.741 200.408 139.077 200.606 139.329 200.882C139.581 201.146 139.761 201.488 139.869 201.908C139.977 202.328 140.031 202.844 140.031 203.456V209ZM136.305 208.046C136.701 208.046 137.109 207.962 137.529 207.794C137.961 207.614 138.339 207.38 138.663 207.092V205.094C138.351 205.058 138.039 205.034 137.727 205.022C137.415 204.998 137.067 204.986 136.683 204.986C135.927 204.986 135.387 205.1 135.063 205.328C134.751 205.556 134.595 205.94 134.595 206.48C134.595 206.996 134.727 207.386 134.991 207.65C135.255 207.914 135.693 208.046 136.305 208.046ZM147.297 209V196.472L148.683 196.292V203.69H149.529L152.787 200.288H154.461L150.627 204.284L154.569 209H152.895L149.511 204.86H148.683V209H147.297ZM158.978 209.18C157.562 209.18 156.554 208.814 155.954 208.082C155.366 207.338 155.072 206.192 155.072 204.644C155.072 203.084 155.372 201.938 155.972 201.206C156.572 200.474 157.49 200.108 158.726 200.108C159.962 200.108 160.88 200.468 161.48 201.188C162.08 201.896 162.38 203.024 162.38 204.572V205.148H156.476C156.524 206.18 156.746 206.918 157.142 207.362C157.538 207.806 158.156 208.028 158.996 208.028C159.5 208.028 159.992 207.956 160.472 207.812C160.964 207.656 161.42 207.446 161.84 207.182L162.29 208.28C161.834 208.556 161.318 208.778 160.742 208.946C160.178 209.102 159.59 209.18 158.978 209.18ZM160.976 204.032C160.916 203.096 160.706 202.406 160.346 201.962C159.986 201.506 159.446 201.278 158.726 201.278C158.006 201.278 157.466 201.506 157.106 201.962C156.746 202.406 156.536 203.096 156.476 204.032H160.976ZM163.424 200.288H164.864L167.384 207.11H167.438L169.796 200.288H171.218L167.69 210.116C167.51 210.644 167.312 211.082 167.096 211.43C166.88 211.79 166.634 212.078 166.358 212.294C166.094 212.522 165.788 212.684 165.44 212.78C165.104 212.876 164.714 212.924 164.27 212.924C163.934 212.924 163.67 212.888 163.478 212.816L163.676 211.682C163.868 211.73 164.102 211.754 164.378 211.754C164.63 211.754 164.852 211.712 165.044 211.628C165.248 211.544 165.422 211.436 165.566 211.304C165.722 211.172 165.854 211.022 165.962 210.854C166.07 210.686 166.16 210.512 166.232 210.332L166.772 208.892L163.424 200.288ZM178.817 201.098C179.237 200.786 179.669 200.546 180.113 200.378C180.557 200.198 181.031 200.108 181.535 200.108C182.147 200.108 182.633 200.198 182.993 200.378C183.365 200.558 183.641 200.858 183.821 201.278C184.241 200.93 184.697 200.648 185.189 200.432C185.693 200.216 186.215 200.108 186.755 200.108C187.259 200.108 187.679 200.168 188.015 200.288C188.351 200.396 188.621 200.576 188.825 200.828C189.041 201.08 189.191 201.404 189.275 201.8C189.359 202.184 189.401 202.652 189.401 203.204V209H188.033V203.582C188.033 202.718 187.913 202.118 187.673 201.782C187.445 201.446 187.055 201.278 186.503 201.278C185.711 201.278 184.913 201.602 184.109 202.25C184.145 202.526 184.163 202.844 184.163 203.204V209H182.795V203.582C182.795 202.73 182.687 202.136 182.471 201.8C182.255 201.452 181.853 201.278 181.265 201.278C180.869 201.278 180.485 201.356 180.113 201.512C179.741 201.656 179.351 201.884 178.943 202.196V209H177.575V200.288H178.601L178.817 201.098ZM195.198 209.18C193.782 209.18 192.774 208.814 192.174 208.082C191.586 207.338 191.292 206.192 191.292 204.644C191.292 203.084 191.592 201.938 192.192 201.206C192.792 200.474 193.71 200.108 194.946 200.108C196.182 200.108 197.1 200.468 197.7 201.188C198.3 201.896 198.6 203.024 198.6 204.572V205.148H192.696C192.744 206.18 192.966 206.918 193.362 207.362C193.758 207.806 194.376 208.028 195.216 208.028C195.72 208.028 196.212 207.956 196.692 207.812C197.184 207.656 197.64 207.446 198.06 207.182L198.51 208.28C198.054 208.556 197.538 208.778 196.962 208.946C196.398 209.102 195.81 209.18 195.198 209.18ZM197.196 204.032C197.136 203.096 196.926 202.406 196.566 201.962C196.206 201.506 195.666 201.278 194.946 201.278C194.226 201.278 193.686 201.506 193.326 201.962C192.966 202.406 192.756 203.096 192.696 204.032H197.196ZM202.722 203.6C202.998 203.708 203.34 203.828 203.748 203.96C204.168 204.092 204.582 204.236 204.99 204.392C206.154 204.824 206.736 205.598 206.736 206.714C206.736 207.506 206.46 208.118 205.908 208.55C205.356 208.982 204.468 209.198 203.244 209.198C202.56 209.198 201.978 209.12 201.498 208.964C201.018 208.808 200.586 208.622 200.202 208.406L200.652 207.326C201 207.53 201.396 207.704 201.84 207.848C202.284 207.992 202.758 208.064 203.262 208.064C204.03 208.064 204.57 207.962 204.882 207.758C205.194 207.542 205.35 207.218 205.35 206.786C205.35 206.21 205.008 205.784 204.324 205.508C203.94 205.352 203.538 205.208 203.118 205.076C202.71 204.944 202.32 204.812 201.948 204.68C201.468 204.512 201.084 204.254 200.796 203.906C200.52 203.546 200.382 203.078 200.382 202.502C200.382 201.806 200.652 201.23 201.192 200.774C201.744 200.318 202.566 200.09 203.658 200.09C204.234 200.09 204.75 200.15 205.206 200.27C205.662 200.378 206.046 200.51 206.358 200.666L205.944 201.71C205.596 201.542 205.248 201.422 204.9 201.35C204.552 201.266 204.126 201.224 203.622 201.224C203.262 201.224 202.962 201.26 202.722 201.332C202.482 201.404 202.29 201.5 202.146 201.62C202.014 201.728 201.918 201.854 201.858 201.998C201.798 202.142 201.768 202.286 201.768 202.43C201.768 202.718 201.84 202.952 201.984 203.132C202.128 203.312 202.374 203.468 202.722 203.6ZM210.771 203.6C211.047 203.708 211.389 203.828 211.797 203.96C212.217 204.092 212.631 204.236 213.039 204.392C214.203 204.824 214.785 205.598 214.785 206.714C214.785 207.506 214.509 208.118 213.957 208.55C213.405 208.982 212.517 209.198 211.293 209.198C210.609 209.198 210.027 209.12 209.547 208.964C209.067 208.808 208.635 208.622 208.251 208.406L208.701 207.326C209.049 207.53 209.445 207.704 209.889 207.848C210.333 207.992 210.807 208.064 211.311 208.064C212.079 208.064 212.619 207.962 212.931 207.758C213.243 207.542 213.399 207.218 213.399 206.786C213.399 206.21 213.057 205.784 212.373 205.508C211.989 205.352 211.587 205.208 211.167 205.076C210.759 204.944 210.369 204.812 209.997 204.68C209.517 204.512 209.133 204.254 208.845 203.906C208.569 203.546 208.431 203.078 208.431 202.502C208.431 201.806 208.701 201.23 209.241 200.774C209.793 200.318 210.615 200.09 211.707 200.09C212.283 200.09 212.799 200.15 213.255 200.27C213.711 200.378 214.095 200.51 214.407 200.666L213.993 201.71C213.645 201.542 213.297 201.422 212.949 201.35C212.601 201.266 212.175 201.224 211.671 201.224C211.311 201.224 211.011 201.26 210.771 201.332C210.531 201.404 210.339 201.5 210.195 201.62C210.063 201.728 209.967 201.854 209.907 201.998C209.847 202.142 209.817 202.286 209.817 202.43C209.817 202.718 209.889 202.952 210.033 203.132C210.177 203.312 210.423 203.468 210.771 203.6ZM223.049 209H222.023L221.807 208.19C221.447 208.502 221.021 208.748 220.529 208.928C220.049 209.096 219.521 209.18 218.945 209.18C218.045 209.18 217.367 208.952 216.911 208.496C216.467 208.028 216.245 207.362 216.245 206.498C216.245 205.61 216.521 204.956 217.073 204.536C217.625 204.104 218.549 203.888 219.845 203.888C220.229 203.888 220.565 203.894 220.853 203.906C221.153 203.918 221.429 203.942 221.681 203.978V203.492C221.681 202.688 221.525 202.118 221.213 201.782C220.901 201.434 220.349 201.26 219.557 201.26C219.185 201.26 218.777 201.326 218.333 201.458C217.901 201.578 217.463 201.758 217.019 201.998L216.605 200.954C217.085 200.69 217.595 200.486 218.135 200.342C218.675 200.186 219.233 200.108 219.809 200.108C220.421 200.108 220.931 200.168 221.339 200.288C221.759 200.408 222.095 200.606 222.347 200.882C222.599 201.146 222.779 201.488 222.887 201.908C222.995 202.328 223.049 202.844 223.049 203.456V209ZM219.323 208.046C219.719 208.046 220.127 207.962 220.547 207.794C220.979 207.614 221.357 207.38 221.681 207.092V205.094C221.369 205.058 221.057 205.034 220.745 205.022C220.433 204.998 220.085 204.986 219.701 204.986C218.945 204.986 218.405 205.1 218.081 205.328C217.769 205.556 217.613 205.94 217.613 206.48C217.613 206.996 217.745 207.386 218.009 207.65C218.273 207.914 218.711 208.046 219.323 208.046ZM232.254 200.288V209.108C232.254 210.44 231.93 211.406 231.282 212.006C230.646 212.618 229.692 212.924 228.42 212.924C227.916 212.924 227.436 212.882 226.98 212.798C226.524 212.726 226.122 212.624 225.774 212.492L226.062 211.358C226.746 211.622 227.526 211.754 228.402 211.754C229.266 211.754 229.89 211.556 230.274 211.16C230.67 210.764 230.868 210.116 230.868 209.216V208.316C230.568 208.592 230.202 208.808 229.77 208.964C229.35 209.108 228.888 209.18 228.384 209.18C227.256 209.18 226.398 208.814 225.81 208.082C225.234 207.35 224.946 206.204 224.946 204.644C224.946 203.096 225.246 201.956 225.846 201.224C226.446 200.48 227.34 200.108 228.528 200.108C229.032 200.108 229.494 200.192 229.914 200.36C230.334 200.528 230.7 200.756 231.012 201.044L231.228 200.288H232.254ZM228.744 201.26C227.916 201.26 227.304 201.524 226.908 202.052C226.524 202.58 226.332 203.444 226.332 204.644C226.332 205.856 226.524 206.726 226.908 207.254C227.304 207.782 227.916 208.046 228.744 208.046C229.164 208.046 229.554 207.962 229.914 207.794C230.286 207.626 230.604 207.398 230.868 207.11V202.196C230.604 201.908 230.286 201.68 229.914 201.512C229.554 201.344 229.164 201.26 228.744 201.26ZM238.166 209.18C236.75 209.18 235.742 208.814 235.142 208.082C234.554 207.338 234.26 206.192 234.26 204.644C234.26 203.084 234.56 201.938 235.16 201.206C235.76 200.474 236.678 200.108 237.914 200.108C239.15 200.108 240.068 200.468 240.668 201.188C241.268 201.896 241.568 203.024 241.568 204.572V205.148H235.664C235.712 206.18 235.934 206.918 236.33 207.362C236.726 207.806 237.344 208.028 238.184 208.028C238.688 208.028 239.18 207.956 239.66 207.812C240.152 207.656 240.608 207.446 241.028 207.182L241.478 208.28C241.022 208.556 240.506 208.778 239.93 208.946C239.366 209.102 238.778 209.18 238.166 209.18ZM240.164 204.032C240.104 203.096 239.894 202.406 239.534 201.962C239.174 201.506 238.634 201.278 237.914 201.278C237.194 201.278 236.654 201.506 236.294 201.962C235.934 202.406 235.724 203.096 235.664 204.032H240.164ZM253.849 200.288L255.235 205.202L255.811 207.362H255.847L256.297 205.202L257.431 200.288H258.799L256.495 209H255.163L254.119 205.202L253.237 202.016H253.201L252.337 205.202L251.275 209H249.961L247.639 200.288H249.025L250.141 205.202L250.609 207.362H250.645L251.203 205.202L252.589 200.288H253.849ZM259.883 204.644C259.883 203.084 260.195 201.938 260.819 201.206C261.455 200.474 262.463 200.108 263.843 200.108C265.211 200.108 266.207 200.474 266.831 201.206C267.467 201.938 267.785 203.084 267.785 204.644C267.785 206.204 267.467 207.35 266.831 208.082C266.195 208.814 265.199 209.18 263.843 209.18C262.475 209.18 261.473 208.814 260.837 208.082C260.201 207.35 259.883 206.204 259.883 204.644ZM261.269 204.644C261.269 205.832 261.473 206.696 261.881 207.236C262.289 207.764 262.943 208.028 263.843 208.028C264.743 208.028 265.397 207.764 265.805 207.236C266.213 206.696 266.417 205.832 266.417 204.644C266.417 203.48 266.213 202.628 265.805 202.088C265.397 201.548 264.743 201.278 263.843 201.278C262.943 201.278 262.289 201.548 261.881 202.088C261.473 202.628 261.269 203.48 261.269 204.644ZM270.831 200.288L270.993 201.44C271.389 201.008 271.833 200.678 272.325 200.45C272.817 200.222 273.315 200.108 273.819 200.108C274.023 200.108 274.197 200.126 274.341 200.162C274.497 200.186 274.659 200.228 274.827 200.288V201.512C274.467 201.368 274.089 201.296 273.693 201.296C273.237 201.296 272.781 201.422 272.325 201.674C271.869 201.926 271.479 202.244 271.155 202.628V209H269.787V200.288H270.831ZM278.496 201.458V205.76C278.496 206.156 278.514 206.498 278.55 206.786C278.586 207.074 278.658 207.314 278.766 207.506C278.886 207.686 279.048 207.818 279.252 207.902C279.468 207.986 279.756 208.028 280.116 208.028C280.38 208.028 280.638 207.998 280.89 207.938C281.154 207.878 281.406 207.806 281.646 207.722L281.916 208.766C281.196 209.042 280.47 209.18 279.738 209.18C279.21 209.18 278.772 209.108 278.424 208.964C278.088 208.82 277.818 208.622 277.614 208.37C277.422 208.106 277.29 207.794 277.218 207.434C277.146 207.062 277.11 206.654 277.11 206.21V201.458H275.688V200.288H277.11V198.452L278.496 198.2V200.288H281.574V201.458H278.496ZM284.844 201.08C285.672 200.432 286.602 200.108 287.634 200.108C288.642 200.108 289.362 200.348 289.794 200.828C290.238 201.296 290.46 202.088 290.46 203.204V209H289.092V203.582C289.092 202.718 288.948 202.118 288.66 201.782C288.384 201.446 287.952 201.278 287.364 201.278C286.524 201.278 285.684 201.584 284.844 202.196V209H283.476V196.472L284.844 196.292V201.08ZM301.453 208.028C302.293 208.028 303.043 207.818 303.703 207.398L304.099 208.496C303.751 208.7 303.349 208.868 302.893 209C302.449 209.12 301.969 209.18 301.453 209.18C300.025 209.18 298.981 208.826 298.321 208.118C297.661 207.398 297.331 206.24 297.331 204.644C297.331 203.084 297.649 201.938 298.285 201.206C298.921 200.474 299.917 200.108 301.273 200.108C302.437 200.108 303.391 200.462 304.135 201.17L303.379 202.106C303.115 201.842 302.803 201.638 302.443 201.494C302.095 201.338 301.717 201.26 301.309 201.26C300.445 201.26 299.791 201.524 299.347 202.052C298.915 202.568 298.699 203.432 298.699 204.644C298.699 205.856 298.927 206.726 299.383 207.254C299.839 207.77 300.529 208.028 301.453 208.028ZM311.989 209H310.963L310.747 208.19C310.387 208.502 309.961 208.748 309.469 208.928C308.989 209.096 308.461 209.18 307.885 209.18C306.985 209.18 306.307 208.952 305.851 208.496C305.407 208.028 305.185 207.362 305.185 206.498C305.185 205.61 305.461 204.956 306.013 204.536C306.565 204.104 307.489 203.888 308.785 203.888C309.169 203.888 309.505 203.894 309.793 203.906C310.093 203.918 310.369 203.942 310.621 203.978V203.492C310.621 202.688 310.465 202.118 310.153 201.782C309.841 201.434 309.289 201.26 308.497 201.26C308.125 201.26 307.717 201.326 307.273 201.458C306.841 201.578 306.403 201.758 305.959 201.998L305.545 200.954C306.025 200.69 306.535 200.486 307.075 200.342C307.615 200.186 308.173 200.108 308.749 200.108C309.361 200.108 309.871 200.168 310.279 200.288C310.699 200.408 311.035 200.606 311.287 200.882C311.539 201.146 311.719 201.488 311.827 201.908C311.935 202.328 311.989 202.844 311.989 203.456V209ZM308.263 208.046C308.659 208.046 309.067 207.962 309.487 207.794C309.919 207.614 310.297 207.38 310.621 207.092V205.094C310.309 205.058 309.997 205.034 309.685 205.022C309.373 204.998 309.025 204.986 308.641 204.986C307.885 204.986 307.345 205.1 307.021 205.328C306.709 205.556 306.553 205.94 306.553 206.48C306.553 206.996 306.685 207.386 306.949 207.65C307.213 207.914 307.651 208.046 308.263 208.046ZM315.325 200.288L315.559 201.044C315.871 200.756 316.231 200.528 316.639 200.36C317.059 200.192 317.521 200.108 318.025 200.108C319.213 200.108 320.107 200.48 320.707 201.224C321.307 201.956 321.607 203.096 321.607 204.644C321.607 206.204 321.313 207.35 320.725 208.082C320.149 208.814 319.297 209.18 318.169 209.18C317.689 209.18 317.227 209.108 316.783 208.964C316.339 208.808 315.973 208.592 315.685 208.316V212.744H314.299V200.288H315.325ZM317.809 201.26C317.389 201.26 316.993 201.344 316.621 201.512C316.261 201.68 315.949 201.908 315.685 202.196V207.11C315.949 207.398 316.261 207.626 316.621 207.794C316.993 207.962 317.389 208.046 317.809 208.046C318.637 208.046 319.249 207.782 319.645 207.254C320.041 206.726 320.239 205.856 320.239 204.644C320.239 203.444 320.041 202.58 319.645 202.052C319.249 201.524 318.637 201.26 317.809 201.26ZM325.347 201.458V205.76C325.347 206.156 325.365 206.498 325.401 206.786C325.437 207.074 325.509 207.314 325.617 207.506C325.737 207.686 325.899 207.818 326.103 207.902C326.319 207.986 326.607 208.028 326.967 208.028C327.231 208.028 327.489 207.998 327.741 207.938C328.005 207.878 328.257 207.806 328.497 207.722L328.767 208.766C328.047 209.042 327.321 209.18 326.589 209.18C326.061 209.18 325.623 209.108 325.275 208.964C324.939 208.82 324.669 208.622 324.465 208.37C324.273 208.106 324.141 207.794 324.069 207.434C323.997 207.062 323.961 206.654 323.961 206.21V201.458H322.539V200.288H323.961V198.452L325.347 198.2V200.288H328.425V201.458H325.347ZM335.978 208.136C335.57 208.46 335.12 208.718 334.628 208.91C334.136 209.09 333.62 209.18 333.08 209.18C332.072 209.18 331.346 208.94 330.902 208.46C330.458 207.98 330.236 207.194 330.236 206.102V200.288H331.622V205.724C331.622 206.588 331.76 207.188 332.036 207.524C332.324 207.86 332.762 208.028 333.35 208.028C334.19 208.028 335.024 207.722 335.852 207.11V200.288H337.238V209H336.194L335.978 208.136ZM340.702 200.288L340.864 201.44C341.26 201.008 341.704 200.678 342.196 200.45C342.688 200.222 343.186 200.108 343.69 200.108C343.894 200.108 344.068 200.126 344.212 200.162C344.368 200.186 344.53 200.228 344.698 200.288V201.512C344.338 201.368 343.96 201.296 343.564 201.296C343.108 201.296 342.652 201.422 342.196 201.674C341.74 201.926 341.35 202.244 341.026 202.628V209H339.658V200.288H340.702ZM349.3 209.18C347.884 209.18 346.876 208.814 346.276 208.082C345.688 207.338 345.394 206.192 345.394 204.644C345.394 203.084 345.694 201.938 346.294 201.206C346.894 200.474 347.812 200.108 349.048 200.108C350.284 200.108 351.202 200.468 351.802 201.188C352.402 201.896 352.702 203.024 352.702 204.572V205.148H346.798C346.846 206.18 347.068 206.918 347.464 207.362C347.86 207.806 348.478 208.028 349.318 208.028C349.822 208.028 350.314 207.956 350.794 207.812C351.286 207.656 351.742 207.446 352.162 207.182L352.612 208.28C352.156 208.556 351.64 208.778 351.064 208.946C350.5 209.102 349.912 209.18 349.3 209.18ZM351.298 204.032C351.238 203.096 351.028 202.406 350.668 201.962C350.308 201.506 349.768 201.278 349.048 201.278C348.328 201.278 347.788 201.506 347.428 201.962C347.068 202.406 346.858 203.096 346.798 204.032H351.298ZM354.916 200.288H356.284V209H354.916V200.288ZM354.898 196.544H356.284V198.344H354.898V196.544ZM360.142 201.17C360.55 200.846 361 200.588 361.492 200.396C361.984 200.204 362.5 200.108 363.04 200.108C364.048 200.108 364.768 200.354 365.2 200.846C365.644 201.326 365.866 202.112 365.866 203.204V209H364.498V203.582C364.498 202.718 364.354 202.118 364.066 201.782C363.79 201.446 363.358 201.278 362.77 201.278C361.93 201.278 361.09 201.584 360.25 202.196V209H358.882V200.288H359.908L360.142 201.17ZM375.073 200.288V209.108C375.073 210.44 374.749 211.406 374.101 212.006C373.465 212.618 372.511 212.924 371.239 212.924C370.735 212.924 370.255 212.882 369.799 212.798C369.343 212.726 368.941 212.624 368.593 212.492L368.881 211.358C369.565 211.622 370.345 211.754 371.221 211.754C372.085 211.754 372.709 211.556 373.093 211.16C373.489 210.764 373.687 210.116 373.687 209.216V208.316C373.387 208.592 373.021 208.808 372.589 208.964C372.169 209.108 371.707 209.18 371.203 209.18C370.075 209.18 369.217 208.814 368.629 208.082C368.053 207.35 367.765 206.204 367.765 204.644C367.765 203.096 368.065 201.956 368.665 201.224C369.265 200.48 370.159 200.108 371.347 200.108C371.851 200.108 372.313 200.192 372.733 200.36C373.153 200.528 373.519 200.756 373.831 201.044L374.047 200.288H375.073ZM371.563 201.26C370.735 201.26 370.123 201.524 369.727 202.052C369.343 202.58 369.151 203.444 369.151 204.644C369.151 205.856 369.343 206.726 369.727 207.254C370.123 207.782 370.735 208.046 371.563 208.046C371.983 208.046 372.373 207.962 372.733 207.794C373.105 207.626 373.423 207.398 373.687 207.11V202.196C373.423 201.908 373.105 201.68 372.733 201.512C372.373 201.344 371.983 201.26 371.563 201.26ZM38.5576 233.312C38.5576 233.6 38.5036 233.87 38.3956 234.122C38.2876 234.374 38.1376 234.596 37.9456 234.788C37.7656 234.968 37.5496 235.112 37.2976 235.22C37.0576 235.316 36.7936 235.364 36.5056 235.364C36.2176 235.364 35.9476 235.316 35.6956 235.22C35.4436 235.112 35.2216 234.968 35.0296 234.788C34.8496 234.608 34.7056 234.392 34.5976 234.14C34.4896 233.888 34.4356 233.612 34.4356 233.312C34.4356 233.024 34.4896 232.754 34.5976 232.502C34.7056 232.25 34.8496 232.034 35.0296 231.854C35.2216 231.662 35.4436 231.518 35.6956 231.422C35.9476 231.314 36.2176 231.26 36.5056 231.26C36.7936 231.26 37.0576 231.314 37.2976 231.422C37.5496 231.518 37.7656 231.662 37.9456 231.854C38.1376 232.034 38.2876 232.25 38.3956 232.502C38.5036 232.754 38.5576 233.024 38.5576 233.312ZM51.638 226.904H53.024V239H51.638V226.904ZM57.0878 231.17C57.4958 230.846 57.9458 230.588 58.4378 230.396C58.9298 230.204 59.4458 230.108 59.9858 230.108C60.9938 230.108 61.7138 230.354 62.1458 230.846C62.5898 231.326 62.8118 232.112 62.8118 233.204V239H61.4438V233.582C61.4438 232.718 61.2998 232.118 61.0118 231.782C60.7358 231.446 60.3038 231.278 59.7158 231.278C58.8758 231.278 58.0358 231.584 57.1958 232.196V239H55.8278V230.288H56.8538L57.0878 231.17ZM67.0685 231.458V235.76C67.0685 236.156 67.0865 236.498 67.1225 236.786C67.1585 237.074 67.2305 237.314 67.3385 237.506C67.4585 237.686 67.6205 237.818 67.8245 237.902C68.0405 237.986 68.3285 238.028 68.6885 238.028C68.9525 238.028 69.2105 237.998 69.4625 237.938C69.7265 237.878 69.9785 237.806 70.2185 237.722L70.4885 238.766C69.7685 239.042 69.0425 239.18 68.3105 239.18C67.7825 239.18 67.3445 239.108 66.9965 238.964C66.6605 238.82 66.3905 238.622 66.1865 238.37C65.9945 238.106 65.8625 237.794 65.7905 237.434C65.7185 237.062 65.6825 236.654 65.6825 236.21V231.458H64.2605V230.288H65.6825V228.452L67.0685 228.2V230.288H70.1465V231.458H67.0685ZM73.0922 230.288L73.2542 231.44C73.6502 231.008 74.0942 230.678 74.5862 230.45C75.0782 230.222 75.5762 230.108 76.0802 230.108C76.2842 230.108 76.4582 230.126 76.6022 230.162C76.7582 230.186 76.9202 230.228 77.0882 230.288V231.512C76.7282 231.368 76.3502 231.296 75.9542 231.296C75.4982 231.296 75.0422 231.422 74.5862 231.674C74.1302 231.926 73.7402 232.244 73.4162 232.628V239H72.0482V230.288H73.0922ZM77.7844 234.644C77.7844 233.084 78.0964 231.938 78.7204 231.206C79.3564 230.474 80.3644 230.108 81.7444 230.108C83.1124 230.108 84.1084 230.474 84.7324 231.206C85.3684 231.938 85.6864 233.084 85.6864 234.644C85.6864 236.204 85.3684 237.35 84.7324 238.082C84.0964 238.814 83.1004 239.18 81.7444 239.18C80.3764 239.18 79.3744 238.814 78.7384 238.082C78.1024 237.35 77.7844 236.204 77.7844 234.644ZM79.1704 234.644C79.1704 235.832 79.3744 236.696 79.7824 237.236C80.1904 237.764 80.8444 238.028 81.7444 238.028C82.6444 238.028 83.2984 237.764 83.7064 237.236C84.1144 236.696 84.3184 235.832 84.3184 234.644C84.3184 233.48 84.1144 232.628 83.7064 232.088C83.2984 231.548 82.6444 231.278 81.7444 231.278C80.8444 231.278 80.1904 231.548 79.7824 232.088C79.3744 232.628 79.1704 233.48 79.1704 234.644ZM94.5825 226.292V239H93.5565L93.3405 238.262C93.0285 238.55 92.6625 238.778 92.2425 238.946C91.8225 239.102 91.3605 239.18 90.8565 239.18C89.6685 239.18 88.7745 238.814 88.1745 238.082C87.5745 237.35 87.2745 236.204 87.2745 234.644C87.2745 233.096 87.5625 231.956 88.1385 231.224C88.7265 230.48 89.5845 230.108 90.7125 230.108C91.2165 230.108 91.6785 230.186 92.0985 230.342C92.5305 230.498 92.8965 230.714 93.1965 230.99V226.472L94.5825 226.292ZM91.0725 238.046C91.4925 238.046 91.8825 237.962 92.2425 237.794C92.6145 237.626 92.9325 237.398 93.1965 237.11V232.196C92.9325 231.908 92.6145 231.68 92.2425 231.512C91.8825 231.344 91.4925 231.26 91.0725 231.26C90.2445 231.26 89.6325 231.524 89.2365 232.052C88.8525 232.58 88.6605 233.444 88.6605 234.644C88.6605 235.856 88.8525 236.726 89.2365 237.254C89.6325 237.782 90.2445 238.046 91.0725 238.046ZM102.655 238.136C102.247 238.46 101.797 238.718 101.305 238.91C100.813 239.09 100.297 239.18 99.7568 239.18C98.7488 239.18 98.0228 238.94 97.5788 238.46C97.1348 237.98 96.9128 237.194 96.9128 236.102V230.288H98.2988V235.724C98.2988 236.588 98.4368 237.188 98.7128 237.524C99.0008 237.86 99.4388 238.028 100.027 238.028C100.867 238.028 101.701 237.722 102.529 237.11V230.288H103.915V239H102.871L102.655 238.136ZM110.061 238.028C110.901 238.028 111.651 237.818 112.311 237.398L112.707 238.496C112.359 238.7 111.957 238.868 111.501 239C111.057 239.12 110.577 239.18 110.061 239.18C108.633 239.18 107.589 238.826 106.929 238.118C106.269 237.398 105.939 236.24 105.939 234.644C105.939 233.084 106.257 231.938 106.893 231.206C107.529 230.474 108.525 230.108 109.881 230.108C111.045 230.108 111.999 230.462 112.743 231.17L111.987 232.106C111.723 231.842 111.411 231.638 111.051 231.494C110.703 231.338 110.325 231.26 109.917 231.26C109.053 231.26 108.399 231.524 107.955 232.052C107.523 232.568 107.307 233.432 107.307 234.644C107.307 235.856 107.535 236.726 107.991 237.254C108.447 237.77 109.137 238.028 110.061 238.028ZM114.669 230.288H116.037V239H114.669V230.288ZM114.651 226.544H116.037V228.344H114.651V226.544ZM119.895 231.17C120.303 230.846 120.753 230.588 121.245 230.396C121.737 230.204 122.253 230.108 122.793 230.108C123.801 230.108 124.521 230.354 124.953 230.846C125.397 231.326 125.619 232.112 125.619 233.204V239H124.251V233.582C124.251 232.718 124.107 232.118 123.819 231.782C123.543 231.446 123.111 231.278 122.523 231.278C121.683 231.278 120.843 231.584 120.003 232.196V239H118.635V230.288H119.661L119.895 231.17ZM134.826 230.288V239.108C134.826 240.44 134.502 241.406 133.854 242.006C133.218 242.618 132.264 242.924 130.992 242.924C130.488 242.924 130.008 242.882 129.552 242.798C129.096 242.726 128.694 242.624 128.346 242.492L128.634 241.358C129.318 241.622 130.098 241.754 130.974 241.754C131.838 241.754 132.462 241.556 132.846 241.16C133.242 240.764 133.44 240.116 133.44 239.216V238.316C133.14 238.592 132.774 238.808 132.342 238.964C131.922 239.108 131.46 239.18 130.956 239.18C129.828 239.18 128.97 238.814 128.382 238.082C127.806 237.35 127.518 236.204 127.518 234.644C127.518 233.096 127.818 231.956 128.418 231.224C129.018 230.48 129.912 230.108 131.1 230.108C131.604 230.108 132.066 230.192 132.486 230.36C132.906 230.528 133.272 230.756 133.584 231.044L133.8 230.288H134.826ZM131.316 231.26C130.488 231.26 129.876 231.524 129.48 232.052C129.096 232.58 128.904 233.444 128.904 234.644C128.904 235.856 129.096 236.726 129.48 237.254C129.876 237.782 130.488 238.046 131.316 238.046C131.736 238.046 132.126 237.962 132.486 237.794C132.858 237.626 133.176 237.398 133.44 237.11V232.196C133.176 231.908 132.858 231.68 132.486 231.512C132.126 231.344 131.736 231.26 131.316 231.26ZM148.537 239H147.511L147.295 238.19C146.935 238.502 146.509 238.748 146.017 238.928C145.537 239.096 145.009 239.18 144.433 239.18C143.533 239.18 142.855 238.952 142.399 238.496C141.955 238.028 141.733 237.362 141.733 236.498C141.733 235.61 142.009 234.956 142.561 234.536C143.113 234.104 144.037 233.888 145.333 233.888C145.717 233.888 146.053 233.894 146.341 233.906C146.641 233.918 146.917 233.942 147.169 233.978V233.492C147.169 232.688 147.013 232.118 146.701 231.782C146.389 231.434 145.837 231.26 145.045 231.26C144.673 231.26 144.265 231.326 143.821 231.458C143.389 231.578 142.951 231.758 142.507 231.998L142.093 230.954C142.573 230.69 143.083 230.486 143.623 230.342C144.163 230.186 144.721 230.108 145.297 230.108C145.909 230.108 146.419 230.168 146.827 230.288C147.247 230.408 147.583 230.606 147.835 230.882C148.087 231.146 148.267 231.488 148.375 231.908C148.483 232.328 148.537 232.844 148.537 233.456V239ZM144.811 238.046C145.207 238.046 145.615 237.962 146.035 237.794C146.467 237.614 146.845 237.38 147.169 237.092V235.094C146.857 235.058 146.545 235.034 146.233 235.022C145.921 234.998 145.573 234.986 145.189 234.986C144.433 234.986 143.893 235.1 143.569 235.328C143.257 235.556 143.101 235.94 143.101 236.48C143.101 236.996 143.233 237.386 143.497 237.65C143.761 237.914 144.199 238.046 144.811 238.046ZM158.79 237.416L159.726 234.608L161.256 230.288H162.714L159.438 239H158.124L154.83 230.288H156.288L157.818 234.608L158.754 237.416H158.79ZM164.348 230.288H165.716V239H164.348V230.288ZM164.33 226.544H165.716V228.344H164.33V226.544ZM170.42 233.6C170.696 233.708 171.038 233.828 171.446 233.96C171.866 234.092 172.28 234.236 172.688 234.392C173.852 234.824 174.434 235.598 174.434 236.714C174.434 237.506 174.158 238.118 173.606 238.55C173.054 238.982 172.166 239.198 170.942 239.198C170.258 239.198 169.676 239.12 169.196 238.964C168.716 238.808 168.284 238.622 167.9 238.406L168.35 237.326C168.698 237.53 169.094 237.704 169.538 237.848C169.982 237.992 170.456 238.064 170.96 238.064C171.728 238.064 172.268 237.962 172.58 237.758C172.892 237.542 173.048 237.218 173.048 236.786C173.048 236.21 172.706 235.784 172.022 235.508C171.638 235.352 171.236 235.208 170.816 235.076C170.408 234.944 170.018 234.812 169.646 234.68C169.166 234.512 168.782 234.254 168.494 233.906C168.218 233.546 168.08 233.078 168.08 232.502C168.08 231.806 168.35 231.23 168.89 230.774C169.442 230.318 170.264 230.09 171.356 230.09C171.932 230.09 172.448 230.15 172.904 230.27C173.36 230.378 173.744 230.51 174.056 230.666L173.642 231.71C173.294 231.542 172.946 231.422 172.598 231.35C172.25 231.266 171.824 231.224 171.32 231.224C170.96 231.224 170.66 231.26 170.42 231.332C170.18 231.404 169.988 231.5 169.844 231.62C169.712 231.728 169.616 231.854 169.556 231.998C169.496 232.142 169.466 232.286 169.466 232.43C169.466 232.718 169.538 232.952 169.682 233.132C169.826 233.312 170.072 233.468 170.42 233.6ZM176.56 230.288H177.928V239H176.56V230.288ZM176.542 226.544H177.928V228.344H176.542V226.544ZM180.112 234.644C180.112 233.084 180.424 231.938 181.048 231.206C181.684 230.474 182.692 230.108 184.072 230.108C185.44 230.108 186.436 230.474 187.06 231.206C187.696 231.938 188.014 233.084 188.014 234.644C188.014 236.204 187.696 237.35 187.06 238.082C186.424 238.814 185.428 239.18 184.072 239.18C182.704 239.18 181.702 238.814 181.066 238.082C180.43 237.35 180.112 236.204 180.112 234.644ZM181.498 234.644C181.498 235.832 181.702 236.696 182.11 237.236C182.518 237.764 183.172 238.028 184.072 238.028C184.972 238.028 185.626 237.764 186.034 237.236C186.442 236.696 186.646 235.832 186.646 234.644C186.646 233.48 186.442 232.628 186.034 232.088C185.626 231.548 184.972 231.278 184.072 231.278C183.172 231.278 182.518 231.548 182.11 232.088C181.702 232.628 181.498 233.48 181.498 234.644ZM191.276 231.17C191.684 230.846 192.134 230.588 192.626 230.396C193.118 230.204 193.634 230.108 194.174 230.108C195.182 230.108 195.902 230.354 196.334 230.846C196.778 231.326 197 232.112 197 233.204V239H195.632V233.582C195.632 232.718 195.488 232.118 195.2 231.782C194.924 231.446 194.492 231.278 193.904 231.278C193.064 231.278 192.224 231.584 191.384 232.196V239H190.016V230.288H191.042L191.276 231.17ZM205.649 239H204.623L204.407 238.19C204.047 238.502 203.621 238.748 203.129 238.928C202.649 239.096 202.121 239.18 201.545 239.18C200.645 239.18 199.967 238.952 199.511 238.496C199.067 238.028 198.845 237.362 198.845 236.498C198.845 235.61 199.121 234.956 199.673 234.536C200.225 234.104 201.149 233.888 202.445 233.888C202.829 233.888 203.165 233.894 203.453 233.906C203.753 233.918 204.029 233.942 204.281 233.978V233.492C204.281 232.688 204.125 232.118 203.813 231.782C203.501 231.434 202.949 231.26 202.157 231.26C201.785 231.26 201.377 231.326 200.933 231.458C200.501 231.578 200.063 231.758 199.619 231.998L199.205 230.954C199.685 230.69 200.195 230.486 200.735 230.342C201.275 230.186 201.833 230.108 202.409 230.108C203.021 230.108 203.531 230.168 203.939 230.288C204.359 230.408 204.695 230.606 204.947 230.882C205.199 231.146 205.379 231.488 205.487 231.908C205.595 232.328 205.649 232.844 205.649 233.456V239ZM201.923 238.046C202.319 238.046 202.727 237.962 203.147 237.794C203.579 237.614 203.957 237.38 204.281 237.092V235.094C203.969 235.058 203.657 235.034 203.345 235.022C203.033 234.998 202.685 234.986 202.301 234.986C201.545 234.986 201.005 235.1 200.681 235.328C200.369 235.556 200.213 235.94 200.213 236.48C200.213 236.996 200.345 237.386 200.609 237.65C200.873 237.914 201.311 238.046 201.923 238.046ZM209.003 230.288L209.165 231.44C209.561 231.008 210.005 230.678 210.497 230.45C210.989 230.222 211.487 230.108 211.991 230.108C212.195 230.108 212.369 230.126 212.513 230.162C212.669 230.186 212.831 230.228 212.999 230.288V231.512C212.639 231.368 212.261 231.296 211.865 231.296C211.409 231.296 210.953 231.422 210.497 231.674C210.041 231.926 209.651 232.244 209.327 232.628V239H207.959V230.288H209.003ZM213.823 230.288H215.263L217.783 237.11H217.837L220.195 230.288H221.617L218.089 240.116C217.909 240.644 217.711 241.082 217.495 241.43C217.279 241.79 217.033 242.078 216.757 242.294C216.493 242.522 216.187 242.684 215.839 242.78C215.503 242.876 215.113 242.924 214.669 242.924C214.333 242.924 214.069 242.888 213.877 242.816L214.075 241.682C214.267 241.73 214.501 241.754 214.777 241.754C215.029 241.754 215.251 241.712 215.443 241.628C215.647 241.544 215.821 241.436 215.965 241.304C216.121 241.172 216.253 241.022 216.361 240.854C216.469 240.686 216.559 240.512 216.631 240.332L217.171 238.892L213.823 230.288ZM229.235 231.17C229.643 230.846 230.093 230.588 230.585 230.396C231.077 230.204 231.593 230.108 232.133 230.108C233.141 230.108 233.861 230.354 234.293 230.846C234.737 231.326 234.959 232.112 234.959 233.204V239H233.591V233.582C233.591 232.718 233.447 232.118 233.159 231.782C232.883 231.446 232.451 231.278 231.863 231.278C231.023 231.278 230.183 231.584 229.343 232.196V239H227.975V230.288H229.001L229.235 231.17ZM240.763 239.18C239.347 239.18 238.339 238.814 237.739 238.082C237.151 237.338 236.857 236.192 236.857 234.644C236.857 233.084 237.157 231.938 237.757 231.206C238.357 230.474 239.275 230.108 240.511 230.108C241.747 230.108 242.665 230.468 243.265 231.188C243.865 231.896 244.165 233.024 244.165 234.572V235.148H238.261C238.309 236.18 238.531 236.918 238.927 237.362C239.323 237.806 239.941 238.028 240.781 238.028C241.285 238.028 241.777 237.956 242.257 237.812C242.749 237.656 243.205 237.446 243.625 237.182L244.075 238.28C243.619 238.556 243.103 238.778 242.527 238.946C241.963 239.102 241.375 239.18 240.763 239.18ZM242.761 234.032C242.701 233.096 242.491 232.406 242.131 231.962C241.771 231.506 241.231 231.278 240.511 231.278C239.791 231.278 239.251 231.506 238.891 231.962C238.531 232.406 238.321 233.096 238.261 234.032H242.761ZM251.491 230.288L252.877 235.202L253.453 237.362H253.489L253.939 235.202L255.073 230.288H256.441L254.137 239H252.805L251.761 235.202L250.879 232.016H250.843L249.979 235.202L248.917 239H247.603L245.281 230.288H246.667L247.783 235.202L248.251 237.362H248.287L248.845 235.202L250.231 230.288H251.491ZM266.62 238.028C267.46 238.028 268.21 237.818 268.87 237.398L269.266 238.496C268.918 238.7 268.516 238.868 268.06 239C267.616 239.12 267.136 239.18 266.62 239.18C265.192 239.18 264.148 238.826 263.488 238.118C262.828 237.398 262.498 236.24 262.498 234.644C262.498 233.084 262.816 231.938 263.452 231.206C264.088 230.474 265.084 230.108 266.44 230.108C267.604 230.108 268.558 230.462 269.302 231.17L268.546 232.106C268.282 231.842 267.97 231.638 267.61 231.494C267.262 231.338 266.884 231.26 266.476 231.26C265.612 231.26 264.958 231.524 264.514 232.052C264.082 232.568 263.866 233.432 263.866 234.644C263.866 235.856 264.094 236.726 264.55 237.254C265.006 237.77 265.696 238.028 266.62 238.028ZM270.159 234.644C270.159 233.084 270.471 231.938 271.095 231.206C271.731 230.474 272.739 230.108 274.119 230.108C275.487 230.108 276.483 230.474 277.107 231.206C277.743 231.938 278.061 233.084 278.061 234.644C278.061 236.204 277.743 237.35 277.107 238.082C276.471 238.814 275.475 239.18 274.119 239.18C272.751 239.18 271.749 238.814 271.113 238.082C270.477 237.35 270.159 236.204 270.159 234.644ZM271.545 234.644C271.545 235.832 271.749 236.696 272.157 237.236C272.565 237.764 273.219 238.028 274.119 238.028C275.019 238.028 275.673 237.764 276.081 237.236C276.489 236.696 276.693 235.832 276.693 234.644C276.693 233.48 276.489 232.628 276.081 232.088C275.673 231.548 275.019 231.278 274.119 231.278C273.219 231.278 272.565 231.548 272.157 232.088C271.749 232.628 271.545 233.48 271.545 234.644ZM281.323 231.17C281.731 230.846 282.181 230.588 282.673 230.396C283.165 230.204 283.681 230.108 284.221 230.108C285.229 230.108 285.949 230.354 286.381 230.846C286.825 231.326 287.047 232.112 287.047 233.204V239H285.679V233.582C285.679 232.718 285.535 232.118 285.247 231.782C284.971 231.446 284.539 231.278 283.951 231.278C283.111 231.278 282.271 231.584 281.431 232.196V239H280.063V230.288H281.089L281.323 231.17ZM293.086 238.028C293.926 238.028 294.676 237.818 295.336 237.398L295.732 238.496C295.384 238.7 294.982 238.868 294.526 239C294.082 239.12 293.602 239.18 293.086 239.18C291.658 239.18 290.614 238.826 289.954 238.118C289.294 237.398 288.964 236.24 288.964 234.644C288.964 233.084 289.282 231.938 289.918 231.206C290.554 230.474 291.55 230.108 292.906 230.108C294.07 230.108 295.024 230.462 295.768 231.17L295.012 232.106C294.748 231.842 294.436 231.638 294.076 231.494C293.728 231.338 293.35 231.26 292.942 231.26C292.078 231.26 291.424 231.524 290.98 232.052C290.548 232.568 290.332 233.432 290.332 234.644C290.332 235.856 290.56 236.726 291.016 237.254C291.472 237.77 292.162 238.028 293.086 238.028ZM300.532 239.18C299.116 239.18 298.108 238.814 297.508 238.082C296.92 237.338 296.626 236.192 296.626 234.644C296.626 233.084 296.926 231.938 297.526 231.206C298.126 230.474 299.044 230.108 300.28 230.108C301.516 230.108 302.434 230.468 303.034 231.188C303.634 231.896 303.934 233.024 303.934 234.572V235.148H298.03C298.078 236.18 298.3 236.918 298.696 237.362C299.092 237.806 299.71 238.028 300.55 238.028C301.054 238.028 301.546 237.956 302.026 237.812C302.518 237.656 302.974 237.446 303.394 237.182L303.844 238.28C303.388 238.556 302.872 238.778 302.296 238.946C301.732 239.102 301.144 239.18 300.532 239.18ZM302.53 234.032C302.47 233.096 302.26 232.406 301.9 231.962C301.54 231.506 301 231.278 300.28 231.278C299.56 231.278 299.02 231.506 298.66 231.962C298.3 232.406 298.09 233.096 298.03 234.032H302.53ZM306.976 230.288L307.21 231.044C307.522 230.756 307.882 230.528 308.29 230.36C308.71 230.192 309.172 230.108 309.676 230.108C310.864 230.108 311.758 230.48 312.358 231.224C312.958 231.956 313.258 233.096 313.258 234.644C313.258 236.204 312.964 237.35 312.376 238.082C311.8 238.814 310.948 239.18 309.82 239.18C309.34 239.18 308.878 239.108 308.434 238.964C307.99 238.808 307.624 238.592 307.336 238.316V242.744H305.95V230.288H306.976ZM309.46 231.26C309.04 231.26 308.644 231.344 308.272 231.512C307.912 231.68 307.6 231.908 307.336 232.196V237.11C307.6 237.398 307.912 237.626 308.272 237.794C308.644 237.962 309.04 238.046 309.46 238.046C310.288 238.046 310.9 237.782 311.296 237.254C311.692 236.726 311.89 235.856 311.89 234.644C311.89 233.444 311.692 232.58 311.296 232.052C310.9 231.524 310.288 231.26 309.46 231.26ZM316.997 231.458V235.76C316.997 236.156 317.015 236.498 317.051 236.786C317.087 237.074 317.159 237.314 317.267 237.506C317.387 237.686 317.549 237.818 317.753 237.902C317.969 237.986 318.257 238.028 318.617 238.028C318.881 238.028 319.139 237.998 319.391 237.938C319.655 237.878 319.907 237.806 320.147 237.722L320.417 238.766C319.697 239.042 318.971 239.18 318.239 239.18C317.711 239.18 317.273 239.108 316.925 238.964C316.589 238.82 316.319 238.622 316.115 238.37C315.923 238.106 315.791 237.794 315.719 237.434C315.647 237.062 315.611 236.654 315.611 236.21V231.458H314.189V230.288H315.611V228.452L316.997 228.2V230.288H320.075V231.458H316.997Z" fill="#4A4946"/>
</svg>
