<svg width="370" height="277" viewBox="0 0 370 277" fill="none" xmlns="http://www.w3.org/2000/svg">
<path d="M101.976 12.152L106.498 30.92L111.02 12.152H114.08L118.602 30.92L123.124 12.152H126.388L120.302 35H116.902L112.55 18.102L108.198 35H104.798L98.7125 12.152H101.976ZM128.669 15.45V12.152H131.729V15.45H128.669ZM128.669 35V18.51H131.729V35H128.669ZM134.252 18.51H136.87V14.192H139.93V18.51H143.976V21.196H139.93V31.022C139.93 32.11 140.338 32.348 141.46 32.348H143.976V35H141.12C138.876 35 136.87 33.98 136.87 31.328V21.196H134.252V18.51ZM149.698 35H146.672V12.152H149.698V20.516C150.82 18.986 152.622 18.068 155.002 18.068C159.082 18.068 161.564 20.958 161.564 25.242V35H158.538V25.004C158.538 22.012 157.212 20.822 154.186 20.822C151.126 20.822 149.698 22.012 149.698 25.004V35ZM179.011 35.408C174.625 35.408 171.191 31.872 171.191 26.738C171.191 21.638 174.625 18.068 179.011 18.068C181.323 18.068 183.193 18.986 184.451 20.584V18.51H187.511V35H184.893L184.621 32.688C183.329 34.422 181.425 35.408 179.011 35.408ZM174.251 26.738C174.251 30.92 175.985 32.654 179.453 32.654C182.887 32.654 184.621 30.92 184.621 26.738C184.621 22.556 182.887 20.822 179.453 20.822C175.985 20.822 174.251 22.556 174.251 26.738Z" fill="#262626"/>
<path d="M208.005 30.478C208.005 29.322 207.291 28.846 205.591 28.438L202.769 27.792C199.471 27.01 197.771 25.65 197.771 22.794C197.771 19.836 200.865 17.966 204.537 17.966C208.209 17.966 211.133 19.836 211.609 23.202H207.903C207.665 21.672 206.645 21.128 204.537 21.128C202.463 21.128 201.511 21.706 201.511 22.794C201.511 23.712 201.953 24.188 203.687 24.596L206.611 25.344C209.977 26.16 211.711 27.384 211.711 30.376C211.711 33.708 208.481 35.476 204.639 35.476C201.069 35.476 197.771 33.81 197.227 29.832H200.933C201.273 31.804 202.361 32.28 204.639 32.28C206.849 32.28 208.005 31.702 208.005 30.478ZM218.126 35H214.42V18.408H217.65L217.888 20.244C218.874 18.782 220.268 17.966 222.24 17.966C224.518 17.966 226.082 19.19 226.932 20.992C227.918 19.088 229.482 17.966 231.76 17.966C235.296 17.966 237.166 20.618 237.166 24.732V35H233.46V24.392C233.46 22.318 232.746 21.264 230.57 21.264C228.428 21.264 227.646 22.318 227.646 24.392V24.494V35H223.94V24.392C223.94 22.318 223.226 21.264 221.05 21.264C218.908 21.264 218.126 22.318 218.126 24.392V35ZM240.72 15.858V12.152H244.494V15.858H240.72ZM240.72 35V18.408H244.494V35H240.72ZM252.478 35.34C249.86 35.34 248.194 34.286 248.194 31.464V12.152H251.968V30.818C251.968 31.906 252.308 32.144 253.294 32.144H253.94V35.34H252.478ZM271.468 30.172C270.346 33.504 267.252 35.476 263.58 35.476C258.786 35.476 255.08 31.974 255.08 26.67C255.08 21.434 258.786 17.966 263.478 17.966C267.66 17.966 271.774 20.856 271.774 26.738V27.792H258.854C259.126 31.09 260.554 32.144 263.58 32.144C265.892 32.144 267.014 31.6 267.694 30.172H271.468ZM258.922 25.004H268.068C267.762 22.318 266.402 21.264 263.478 21.264C260.724 21.264 259.296 22.216 258.922 25.004Z" fill="#FD312E"/>
<rect x="28" y="71" width="315" height="1" fill="#4A4946"/>
<circle cx="309.5" cy="72.5" r="11.5" fill="#FD312E"/>
<circle cx="309.5" cy="72.5" r="11.125" stroke="#4A4946" stroke-opacity="0.8" stroke-width="0.75"/>
<rect x="0.5" y="127" width="369" height="150" rx="10" fill="#F9F8F3"/>
<path d="M43.0576 173.312C43.0576 173.6 43.0036 173.87 42.8956 174.122C42.7876 174.374 42.6376 174.596 42.4456 174.788C42.2656 174.968 42.0496 175.112 41.7976 175.22C41.5576 175.316 41.2936 175.364 41.0056 175.364C40.7176 175.364 40.4476 175.316 40.1956 175.22C39.9436 175.112 39.7216 174.968 39.5296 174.788C39.3496 174.608 39.2056 174.392 39.0976 174.14C38.9896 173.888 38.9356 173.612 38.9356 173.312C38.9356 173.024 38.9896 172.754 39.0976 172.502C39.2056 172.25 39.3496 172.034 39.5296 171.854C39.7216 171.662 39.9436 171.518 40.1956 171.422C40.4476 171.314 40.7176 171.26 41.0056 171.26C41.2936 171.26 41.5576 171.314 41.7976 171.422C42.0496 171.518 42.2656 171.662 42.4456 171.854C42.6376 172.034 42.7876 172.25 42.8956 172.502C43.0036 172.754 43.0576 173.024 43.0576 173.312ZM62.258 176.084C62.258 175.796 62.216 175.538 62.132 175.31C62.048 175.082 61.898 174.872 61.682 174.68C61.466 174.488 61.166 174.302 60.782 174.122C60.41 173.942 59.936 173.75 59.36 173.546C58.652 173.294 58.058 173.048 57.578 172.808C57.098 172.556 56.714 172.286 56.426 171.998C56.138 171.71 55.928 171.392 55.796 171.044C55.676 170.696 55.616 170.294 55.616 169.838C55.616 168.89 55.964 168.134 56.66 167.57C57.356 167.006 58.376 166.724 59.72 166.724C60.38 166.724 60.986 166.808 61.538 166.976C62.09 167.132 62.618 167.354 63.122 167.642L62.582 168.758C62.138 168.482 61.676 168.272 61.196 168.128C60.716 167.972 60.224 167.894 59.72 167.894C58.784 167.894 58.094 168.062 57.65 168.398C57.218 168.722 57.002 169.172 57.002 169.748C57.002 170.048 57.05 170.312 57.146 170.54C57.242 170.768 57.398 170.978 57.614 171.17C57.842 171.362 58.142 171.554 58.514 171.746C58.886 171.926 59.354 172.124 59.918 172.34C60.614 172.604 61.196 172.85 61.664 173.078C62.144 173.306 62.528 173.558 62.816 173.834C63.116 174.098 63.326 174.404 63.446 174.752C63.578 175.088 63.644 175.496 63.644 175.976C63.644 176.96 63.284 177.74 62.564 178.316C61.856 178.892 60.758 179.18 59.27 179.18C58.514 179.18 57.794 179.09 57.11 178.91C56.426 178.73 55.844 178.496 55.364 178.208L55.868 177.128C56.384 177.404 56.918 177.626 57.47 177.794C58.022 177.95 58.604 178.028 59.216 178.028C60.236 178.028 60.998 177.86 61.502 177.524C62.006 177.176 62.258 176.696 62.258 176.084ZM66.6624 170.288L66.8964 171.044C67.2084 170.756 67.5684 170.528 67.9764 170.36C68.3964 170.192 68.8584 170.108 69.3624 170.108C70.5504 170.108 71.4444 170.48 72.0444 171.224C72.6444 171.956 72.9444 173.096 72.9444 174.644C72.9444 176.204 72.6504 177.35 72.0624 178.082C71.4864 178.814 70.6344 179.18 69.5064 179.18C69.0264 179.18 68.5644 179.108 68.1204 178.964C67.6764 178.808 67.3104 178.592 67.0224 178.316V182.744H65.6364V170.288H66.6624ZM69.1464 171.26C68.7264 171.26 68.3304 171.344 67.9584 171.512C67.5984 171.68 67.2864 171.908 67.0224 172.196V177.11C67.2864 177.398 67.5984 177.626 67.9584 177.794C68.3304 177.962 68.7264 178.046 69.1464 178.046C69.9744 178.046 70.5864 177.782 70.9824 177.254C71.3784 176.726 71.5764 175.856 71.5764 174.644C71.5764 173.444 71.3784 172.58 70.9824 172.052C70.5864 171.524 69.9744 171.26 69.1464 171.26ZM78.4427 179.18C77.0267 179.18 76.0187 178.814 75.4187 178.082C74.8307 177.338 74.5367 176.192 74.5367 174.644C74.5367 173.084 74.8367 171.938 75.4367 171.206C76.0367 170.474 76.9547 170.108 78.1907 170.108C79.4267 170.108 80.3447 170.468 80.9447 171.188C81.5447 171.896 81.8447 173.024 81.8447 174.572V175.148H75.9407C75.9887 176.18 76.2107 176.918 76.6067 177.362C77.0027 177.806 77.6207 178.028 78.4607 178.028C78.9647 178.028 79.4567 177.956 79.9367 177.812C80.4287 177.656 80.8847 177.446 81.3047 177.182L81.7547 178.28C81.2987 178.556 80.7827 178.778 80.2067 178.946C79.6427 179.102 79.0547 179.18 78.4427 179.18ZM80.4407 174.032C80.3807 173.096 80.1707 172.406 79.8107 171.962C79.4507 171.506 78.9107 171.278 78.1907 171.278C77.4707 171.278 76.9307 171.506 76.5707 171.962C76.2107 172.406 76.0007 173.096 75.9407 174.032H80.4407ZM90.1967 179H89.1707L88.9547 178.19C88.5947 178.502 88.1687 178.748 87.6767 178.928C87.1967 179.096 86.6687 179.18 86.0927 179.18C85.1927 179.18 84.5147 178.952 84.0587 178.496C83.6147 178.028 83.3927 177.362 83.3927 176.498C83.3927 175.61 83.6687 174.956 84.2207 174.536C84.7727 174.104 85.6967 173.888 86.9927 173.888C87.3767 173.888 87.7127 173.894 88.0007 173.906C88.3007 173.918 88.5767 173.942 88.8287 173.978V173.492C88.8287 172.688 88.6727 172.118 88.3607 171.782C88.0487 171.434 87.4967 171.26 86.7047 171.26C86.3327 171.26 85.9247 171.326 85.4807 171.458C85.0487 171.578 84.6107 171.758 84.1667 171.998L83.7527 170.954C84.2327 170.69 84.7427 170.486 85.2827 170.342C85.8227 170.186 86.3807 170.108 86.9567 170.108C87.5687 170.108 88.0787 170.168 88.4867 170.288C88.9067 170.408 89.2427 170.606 89.4947 170.882C89.7467 171.146 89.9267 171.488 90.0347 171.908C90.1427 172.328 90.1967 172.844 90.1967 173.456V179ZM86.4707 178.046C86.8667 178.046 87.2747 177.962 87.6947 177.794C88.1267 177.614 88.5047 177.38 88.8287 177.092V175.094C88.5167 175.058 88.2047 175.034 87.8927 175.022C87.5807 174.998 87.2327 174.986 86.8487 174.986C86.0927 174.986 85.5527 175.1 85.2287 175.328C84.9167 175.556 84.7607 175.94 84.7607 176.48C84.7607 176.996 84.8927 177.386 85.1567 177.65C85.4207 177.914 85.8587 178.046 86.4707 178.046ZM92.507 179V166.472L93.893 166.292V173.69H94.739L97.997 170.288H99.671L95.837 174.284L99.779 179H98.105L94.721 174.86H93.893V179H92.507ZM101.351 170.288H102.719V179H101.351V170.288ZM101.333 166.544H102.719V168.344H101.333V166.544ZM106.577 171.17C106.985 170.846 107.435 170.588 107.927 170.396C108.419 170.204 108.935 170.108 109.475 170.108C110.483 170.108 111.203 170.354 111.635 170.846C112.079 171.326 112.301 172.112 112.301 173.204V179H110.933V173.582C110.933 172.718 110.789 172.118 110.501 171.782C110.225 171.446 109.793 171.278 109.205 171.278C108.365 171.278 107.525 171.584 106.685 172.196V179H105.317V170.288H106.343L106.577 171.17ZM121.508 170.288V179.108C121.508 180.44 121.184 181.406 120.536 182.006C119.9 182.618 118.946 182.924 117.674 182.924C117.17 182.924 116.69 182.882 116.234 182.798C115.778 182.726 115.376 182.624 115.028 182.492L115.316 181.358C116 181.622 116.78 181.754 117.656 181.754C118.52 181.754 119.144 181.556 119.528 181.16C119.924 180.764 120.122 180.116 120.122 179.216V178.316C119.822 178.592 119.456 178.808 119.024 178.964C118.604 179.108 118.142 179.18 117.638 179.18C116.51 179.18 115.652 178.814 115.064 178.082C114.488 177.35 114.2 176.204 114.2 174.644C114.2 173.096 114.5 171.956 115.1 171.224C115.7 170.48 116.594 170.108 117.782 170.108C118.286 170.108 118.748 170.192 119.168 170.36C119.588 170.528 119.954 170.756 120.266 171.044L120.482 170.288H121.508ZM117.998 171.26C117.17 171.26 116.558 171.524 116.162 172.052C115.778 172.58 115.586 173.444 115.586 174.644C115.586 175.856 115.778 176.726 116.162 177.254C116.558 177.782 117.17 178.046 117.998 178.046C118.418 178.046 118.808 177.962 119.168 177.794C119.54 177.626 119.858 177.398 120.122 177.11V172.196C119.858 171.908 119.54 171.68 119.168 171.512C118.808 171.344 118.418 171.26 117.998 171.26ZM130.827 171.458V175.76C130.827 176.156 130.845 176.498 130.881 176.786C130.917 177.074 130.989 177.314 131.097 177.506C131.217 177.686 131.379 177.818 131.583 177.902C131.799 177.986 132.087 178.028 132.447 178.028C132.711 178.028 132.969 177.998 133.221 177.938C133.485 177.878 133.737 177.806 133.977 177.722L134.247 178.766C133.527 179.042 132.801 179.18 132.069 179.18C131.541 179.18 131.103 179.108 130.755 178.964C130.419 178.82 130.149 178.622 129.945 178.37C129.753 178.106 129.621 177.794 129.549 177.434C129.477 177.062 129.441 176.654 129.441 176.21V171.458H128.019V170.288H129.441V168.452L130.827 168.2V170.288H133.905V171.458H130.827ZM135.287 174.644C135.287 173.084 135.599 171.938 136.223 171.206C136.859 170.474 137.867 170.108 139.247 170.108C140.615 170.108 141.611 170.474 142.235 171.206C142.871 171.938 143.189 173.084 143.189 174.644C143.189 176.204 142.871 177.35 142.235 178.082C141.599 178.814 140.603 179.18 139.247 179.18C137.879 179.18 136.877 178.814 136.241 178.082C135.605 177.35 135.287 176.204 135.287 174.644ZM136.673 174.644C136.673 175.832 136.877 176.696 137.285 177.236C137.693 177.764 138.347 178.028 139.247 178.028C140.147 178.028 140.801 177.764 141.209 177.236C141.617 176.696 141.821 175.832 141.821 174.644C141.821 173.48 141.617 172.628 141.209 172.088C140.801 171.548 140.147 171.278 139.247 171.278C138.347 171.278 137.693 171.548 137.285 172.088C136.877 172.628 136.673 173.48 136.673 174.644ZM155.402 178.01C155.882 178.01 156.344 177.98 156.788 177.92C157.244 177.848 157.676 177.746 158.084 177.614V173.978H154.988V172.808H159.452V178.406C158.912 178.61 158.276 178.79 157.544 178.946C156.812 179.102 156.086 179.18 155.366 179.18C154.37 179.18 153.518 179.048 152.81 178.784C152.114 178.508 151.544 178.112 151.1 177.596C150.656 177.068 150.332 176.42 150.128 175.652C149.936 174.872 149.84 173.972 149.84 172.952C149.84 170.816 150.278 169.244 151.154 168.236C152.042 167.228 153.35 166.724 155.078 166.724C156.05 166.724 156.89 166.874 157.598 167.174C158.306 167.462 158.894 167.858 159.362 168.362L158.534 169.298C158.09 168.83 157.592 168.482 157.04 168.254C156.488 168.026 155.834 167.912 155.078 167.912C153.794 167.912 152.828 168.32 152.18 169.136C151.544 169.94 151.226 171.212 151.226 172.952C151.226 174.68 151.55 175.958 152.198 176.786C152.846 177.602 153.914 178.01 155.402 178.01ZM165.502 179.18C164.086 179.18 163.078 178.814 162.478 178.082C161.89 177.338 161.596 176.192 161.596 174.644C161.596 173.084 161.896 171.938 162.496 171.206C163.096 170.474 164.014 170.108 165.25 170.108C166.486 170.108 167.404 170.468 168.004 171.188C168.604 171.896 168.904 173.024 168.904 174.572V175.148H163C163.048 176.18 163.27 176.918 163.666 177.362C164.062 177.806 164.68 178.028 165.52 178.028C166.024 178.028 166.516 177.956 166.996 177.812C167.488 177.656 167.944 177.446 168.364 177.182L168.814 178.28C168.358 178.556 167.842 178.778 167.266 178.946C166.702 179.102 166.114 179.18 165.502 179.18ZM167.5 174.032C167.44 173.096 167.23 172.406 166.87 171.962C166.51 171.506 165.97 171.278 165.25 171.278C164.53 171.278 163.99 171.506 163.63 171.962C163.27 172.406 163.06 173.096 163 174.032H167.5ZM172.18 171.17C172.588 170.846 173.038 170.588 173.53 170.396C174.022 170.204 174.538 170.108 175.078 170.108C176.086 170.108 176.806 170.354 177.238 170.846C177.682 171.326 177.904 172.112 177.904 173.204V179H176.536V173.582C176.536 172.718 176.392 172.118 176.104 171.782C175.828 171.446 175.396 171.278 174.808 171.278C173.968 171.278 173.128 171.584 172.288 172.196V179H170.92V170.288H171.946L172.18 171.17ZM193.307 167.84L186.251 177.848H193.289V179H184.487V178.064L191.543 168.074H184.919V166.904H193.307V167.84ZM43.0576 203.312C43.0576 203.6 43.0036 203.87 42.8956 204.122C42.7876 204.374 42.6376 204.596 42.4456 204.788C42.2656 204.968 42.0496 205.112 41.7976 205.22C41.5576 205.316 41.2936 205.364 41.0056 205.364C40.7176 205.364 40.4476 205.316 40.1956 205.22C39.9436 205.112 39.7216 204.968 39.5296 204.788C39.3496 204.608 39.2056 204.392 39.0976 204.14C38.9896 203.888 38.9356 203.612 38.9356 203.312C38.9356 203.024 38.9896 202.754 39.0976 202.502C39.2056 202.25 39.3496 202.034 39.5296 201.854C39.7216 201.662 39.9436 201.518 40.1956 201.422C40.4476 201.314 40.7176 201.26 41.0056 201.26C41.2936 201.26 41.5576 201.314 41.7976 201.422C42.0496 201.518 42.2656 201.662 42.4456 201.854C42.6376 202.034 42.7876 202.25 42.8956 202.502C43.0036 202.754 43.0576 203.024 43.0576 203.312ZM56.138 196.904H57.524V209H56.138V196.904ZM61.5878 201.17C61.9958 200.846 62.4458 200.588 62.9378 200.396C63.4298 200.204 63.9458 200.108 64.4858 200.108C65.4938 200.108 66.2138 200.354 66.6458 200.846C67.0898 201.326 67.3118 202.112 67.3118 203.204V209H65.9438V203.582C65.9438 202.718 65.7998 202.118 65.5118 201.782C65.2358 201.446 64.8038 201.278 64.2158 201.278C63.3758 201.278 62.5358 201.584 61.6958 202.196V209H60.3278V200.288H61.3538L61.5878 201.17ZM71.5685 201.458V205.76C71.5685 206.156 71.5865 206.498 71.6225 206.786C71.6585 207.074 71.7305 207.314 71.8385 207.506C71.9585 207.686 72.1205 207.818 72.3245 207.902C72.5405 207.986 72.8285 208.028 73.1885 208.028C73.4525 208.028 73.7105 207.998 73.9625 207.938C74.2265 207.878 74.4785 207.806 74.7185 207.722L74.9885 208.766C74.2685 209.042 73.5425 209.18 72.8105 209.18C72.2825 209.18 71.8445 209.108 71.4965 208.964C71.1605 208.82 70.8905 208.622 70.6865 208.37C70.4945 208.106 70.3625 207.794 70.2905 207.434C70.2185 207.062 70.1825 206.654 70.1825 206.21V201.458H68.7605V200.288H70.1825V198.452L71.5685 198.2V200.288H74.6465V201.458H71.5685ZM77.5922 200.288L77.7542 201.44C78.1502 201.008 78.5942 200.678 79.0862 200.45C79.5782 200.222 80.0762 200.108 80.5802 200.108C80.7842 200.108 80.9582 200.126 81.1022 200.162C81.2582 200.186 81.4202 200.228 81.5882 200.288V201.512C81.2282 201.368 80.8502 201.296 80.4542 201.296C79.9982 201.296 79.5422 201.422 79.0862 201.674C78.6302 201.926 78.2402 202.244 77.9162 202.628V209H76.5482V200.288H77.5922ZM82.2844 204.644C82.2844 203.084 82.5964 201.938 83.2204 201.206C83.8564 200.474 84.8644 200.108 86.2444 200.108C87.6124 200.108 88.6084 200.474 89.2324 201.206C89.8684 201.938 90.1864 203.084 90.1864 204.644C90.1864 206.204 89.8684 207.35 89.2324 208.082C88.5964 208.814 87.6004 209.18 86.2444 209.18C84.8764 209.18 83.8744 208.814 83.2384 208.082C82.6024 207.35 82.2844 206.204 82.2844 204.644ZM83.6704 204.644C83.6704 205.832 83.8744 206.696 84.2824 207.236C84.6904 207.764 85.3444 208.028 86.2444 208.028C87.1444 208.028 87.7984 207.764 88.2064 207.236C88.6144 206.696 88.8184 205.832 88.8184 204.644C88.8184 203.48 88.6144 202.628 88.2064 202.088C87.7984 201.548 87.1444 201.278 86.2444 201.278C85.3444 201.278 84.6904 201.548 84.2824 202.088C83.8744 202.628 83.6704 203.48 83.6704 204.644ZM97.8405 208.136C97.4325 208.46 96.9825 208.718 96.4905 208.91C95.9985 209.09 95.4825 209.18 94.9425 209.18C93.9345 209.18 93.2085 208.94 92.7645 208.46C92.3205 207.98 92.0985 207.194 92.0985 206.102V200.288H93.4845V205.724C93.4845 206.588 93.6225 207.188 93.8985 207.524C94.1865 207.86 94.6245 208.028 95.2125 208.028C96.0525 208.028 96.8865 207.722 97.7145 207.11V200.288H99.1005V209H98.0565L97.8405 208.136ZM105.246 208.028C106.086 208.028 106.836 207.818 107.496 207.398L107.892 208.496C107.544 208.7 107.142 208.868 106.686 209C106.242 209.12 105.762 209.18 105.246 209.18C103.818 209.18 102.774 208.826 102.114 208.118C101.454 207.398 101.124 206.24 101.124 204.644C101.124 203.084 101.442 201.938 102.078 201.206C102.714 200.474 103.71 200.108 105.066 200.108C106.23 200.108 107.184 200.462 107.928 201.17L107.172 202.106C106.908 201.842 106.596 201.638 106.236 201.494C105.888 201.338 105.51 201.26 105.102 201.26C104.238 201.26 103.584 201.524 103.14 202.052C102.708 202.568 102.492 203.432 102.492 204.644C102.492 205.856 102.72 206.726 103.176 207.254C103.632 207.77 104.322 208.028 105.246 208.028ZM109.855 200.288H111.223V209H109.855V200.288ZM109.837 196.544H111.223V198.344H109.837V196.544ZM115.081 201.17C115.489 200.846 115.939 200.588 116.431 200.396C116.923 200.204 117.439 200.108 117.979 200.108C118.987 200.108 119.707 200.354 120.139 200.846C120.583 201.326 120.805 202.112 120.805 203.204V209H119.437V203.582C119.437 202.718 119.293 202.118 119.005 201.782C118.729 201.446 118.297 201.278 117.709 201.278C116.869 201.278 116.029 201.584 115.189 202.196V209H113.821V200.288H114.847L115.081 201.17ZM130.012 200.288V209.108C130.012 210.44 129.688 211.406 129.04 212.006C128.404 212.618 127.45 212.924 126.178 212.924C125.674 212.924 125.194 212.882 124.738 212.798C124.282 212.726 123.88 212.624 123.532 212.492L123.82 211.358C124.504 211.622 125.284 211.754 126.16 211.754C127.024 211.754 127.648 211.556 128.032 211.16C128.428 210.764 128.626 210.116 128.626 209.216V208.316C128.326 208.592 127.96 208.808 127.528 208.964C127.108 209.108 126.646 209.18 126.142 209.18C125.014 209.18 124.156 208.814 123.568 208.082C122.992 207.35 122.704 206.204 122.704 204.644C122.704 203.096 123.004 201.956 123.604 201.224C124.204 200.48 125.098 200.108 126.286 200.108C126.79 200.108 127.252 200.192 127.672 200.36C128.092 200.528 128.458 200.756 128.77 201.044L128.986 200.288H130.012ZM126.502 201.26C125.674 201.26 125.062 201.524 124.666 202.052C124.282 202.58 124.09 203.444 124.09 204.644C124.09 205.856 124.282 206.726 124.666 207.254C125.062 207.782 125.674 208.046 126.502 208.046C126.922 208.046 127.312 207.962 127.672 207.794C128.044 207.626 128.362 207.398 128.626 207.11V202.196C128.362 201.908 128.044 201.68 127.672 201.512C127.312 201.344 126.922 201.26 126.502 201.26ZM136.973 204.644C136.973 203.084 137.285 201.938 137.909 201.206C138.545 200.474 139.553 200.108 140.933 200.108C142.301 200.108 143.297 200.474 143.921 201.206C144.557 201.938 144.875 203.084 144.875 204.644C144.875 206.204 144.557 207.35 143.921 208.082C143.285 208.814 142.289 209.18 140.933 209.18C139.565 209.18 138.563 208.814 137.927 208.082C137.291 207.35 136.973 206.204 136.973 204.644ZM138.359 204.644C138.359 205.832 138.563 206.696 138.971 207.236C139.379 207.764 140.033 208.028 140.933 208.028C141.833 208.028 142.487 207.764 142.895 207.236C143.303 206.696 143.507 205.832 143.507 204.644C143.507 203.48 143.303 202.628 142.895 202.088C142.487 201.548 141.833 201.278 140.933 201.278C140.033 201.278 139.379 201.548 138.971 202.088C138.563 202.628 138.359 203.48 138.359 204.644ZM152.529 208.136C152.121 208.46 151.671 208.718 151.179 208.91C150.687 209.09 150.171 209.18 149.631 209.18C148.623 209.18 147.897 208.94 147.453 208.46C147.009 207.98 146.787 207.194 146.787 206.102V200.288H148.173V205.724C148.173 206.588 148.311 207.188 148.587 207.524C148.875 207.86 149.313 208.028 149.901 208.028C150.741 208.028 151.575 207.722 152.403 207.11V200.288H153.789V209H152.745L152.529 208.136ZM157.253 200.288L157.415 201.44C157.811 201.008 158.255 200.678 158.747 200.45C159.239 200.222 159.737 200.108 160.241 200.108C160.445 200.108 160.619 200.126 160.763 200.162C160.919 200.186 161.081 200.228 161.249 200.288V201.512C160.889 201.368 160.511 201.296 160.115 201.296C159.659 201.296 159.203 201.422 158.747 201.674C158.291 201.926 157.901 202.244 157.577 202.628V209H156.209V200.288H157.253ZM171.175 208.046C172.003 208.046 172.615 207.782 173.011 207.254C173.407 206.726 173.605 205.856 173.605 204.644C173.605 203.444 173.407 202.58 173.011 202.052C172.615 201.524 172.003 201.26 171.175 201.26C170.755 201.26 170.359 201.344 169.987 201.512C169.627 201.68 169.315 201.908 169.051 202.196V207.11C169.315 207.398 169.627 207.626 169.987 207.794C170.359 207.962 170.755 208.046 171.175 208.046ZM168.691 209H167.665V196.454L169.051 196.292V200.99C169.351 200.714 169.711 200.498 170.131 200.342C170.563 200.186 171.031 200.108 171.535 200.108C172.663 200.108 173.515 200.48 174.091 201.224C174.679 201.956 174.973 203.096 174.973 204.644C174.973 206.204 174.673 207.35 174.073 208.082C173.473 208.814 172.579 209.18 171.391 209.18C170.887 209.18 170.425 209.102 170.005 208.946C169.597 208.778 169.237 208.55 168.925 208.262L168.691 209ZM178.024 200.288L178.186 201.44C178.582 201.008 179.026 200.678 179.518 200.45C180.01 200.222 180.508 200.108 181.012 200.108C181.216 200.108 181.39 200.126 181.534 200.162C181.69 200.186 181.852 200.228 182.02 200.288V201.512C181.66 201.368 181.282 201.296 180.886 201.296C180.43 201.296 179.974 201.422 179.518 201.674C179.062 201.926 178.672 202.244 178.348 202.628V209H176.98V200.288H178.024ZM189.484 209H188.458L188.242 208.19C187.882 208.502 187.456 208.748 186.964 208.928C186.484 209.096 185.956 209.18 185.38 209.18C184.48 209.18 183.802 208.952 183.346 208.496C182.902 208.028 182.68 207.362 182.68 206.498C182.68 205.61 182.956 204.956 183.508 204.536C184.06 204.104 184.984 203.888 186.28 203.888C186.664 203.888 187 203.894 187.288 203.906C187.588 203.918 187.864 203.942 188.116 203.978V203.492C188.116 202.688 187.96 202.118 187.648 201.782C187.336 201.434 186.784 201.26 185.992 201.26C185.62 201.26 185.212 201.326 184.768 201.458C184.336 201.578 183.898 201.758 183.454 201.998L183.04 200.954C183.52 200.69 184.03 200.486 184.57 200.342C185.11 200.186 185.668 200.108 186.244 200.108C186.856 200.108 187.366 200.168 187.774 200.288C188.194 200.408 188.53 200.606 188.782 200.882C189.034 201.146 189.214 201.488 189.322 201.908C189.43 202.328 189.484 202.844 189.484 203.456V209ZM185.758 208.046C186.154 208.046 186.562 207.962 186.982 207.794C187.414 207.614 187.792 207.38 188.116 207.092V205.094C187.804 205.058 187.492 205.034 187.18 205.022C186.868 204.998 186.52 204.986 186.136 204.986C185.38 204.986 184.84 205.1 184.516 205.328C184.204 205.556 184.048 205.94 184.048 206.48C184.048 206.996 184.18 207.386 184.444 207.65C184.708 207.914 185.146 208.046 185.758 208.046ZM193.054 201.17C193.462 200.846 193.912 200.588 194.404 200.396C194.896 200.204 195.412 200.108 195.952 200.108C196.96 200.108 197.68 200.354 198.112 200.846C198.556 201.326 198.778 202.112 198.778 203.204V209H197.41V203.582C197.41 202.718 197.266 202.118 196.978 201.782C196.702 201.446 196.27 201.278 195.682 201.278C194.842 201.278 194.002 201.584 193.162 202.196V209H191.794V200.288H192.82L193.054 201.17ZM207.985 196.292V209H206.959L206.743 208.262C206.431 208.55 206.065 208.778 205.645 208.946C205.225 209.102 204.763 209.18 204.259 209.18C203.071 209.18 202.177 208.814 201.577 208.082C200.977 207.35 200.677 206.204 200.677 204.644C200.677 203.096 200.965 201.956 201.541 201.224C202.129 200.48 202.987 200.108 204.115 200.108C204.619 200.108 205.081 200.186 205.501 200.342C205.933 200.498 206.299 200.714 206.599 200.99V196.472L207.985 196.292ZM204.475 208.046C204.895 208.046 205.285 207.962 205.645 207.794C206.017 207.626 206.335 207.398 206.599 207.11V202.196C206.335 201.908 206.017 201.68 205.645 201.512C205.285 201.344 204.895 201.26 204.475 201.26C203.647 201.26 203.035 201.524 202.639 202.052C202.255 202.58 202.063 203.444 202.063 204.644C202.063 205.856 202.255 206.726 202.639 207.254C203.035 207.782 203.647 208.046 204.475 208.046ZM220.31 200.288V201.458H217.196V209H215.828V201.458H214.496V200.288H215.81V199.586C215.81 198.974 215.876 198.458 216.008 198.038C216.152 197.618 216.356 197.282 216.62 197.03C216.884 196.766 217.202 196.58 217.574 196.472C217.958 196.352 218.396 196.292 218.888 196.292C219.224 196.292 219.542 196.328 219.842 196.4C220.142 196.46 220.418 196.538 220.67 196.634L220.364 197.75C219.86 197.558 219.362 197.462 218.87 197.462C218.294 197.462 217.868 197.642 217.592 198.002C217.328 198.362 217.196 198.962 217.196 199.802V200.288H220.31ZM221.149 204.644C221.149 203.084 221.461 201.938 222.085 201.206C222.721 200.474 223.729 200.108 225.109 200.108C226.477 200.108 227.473 200.474 228.097 201.206C228.733 201.938 229.051 203.084 229.051 204.644C229.051 206.204 228.733 207.35 228.097 208.082C227.461 208.814 226.465 209.18 225.109 209.18C223.741 209.18 222.739 208.814 222.103 208.082C221.467 207.35 221.149 206.204 221.149 204.644ZM222.535 204.644C222.535 205.832 222.739 206.696 223.147 207.236C223.555 207.764 224.209 208.028 225.109 208.028C226.009 208.028 226.663 207.764 227.071 207.236C227.479 206.696 227.683 205.832 227.683 204.644C227.683 203.48 227.479 202.628 227.071 202.088C226.663 201.548 226.009 201.278 225.109 201.278C224.209 201.278 223.555 201.548 223.147 202.088C222.739 202.628 222.535 203.48 222.535 204.644ZM232.097 200.288L232.259 201.44C232.655 201.008 233.099 200.678 233.591 200.45C234.083 200.222 234.581 200.108 235.085 200.108C235.289 200.108 235.463 200.126 235.607 200.162C235.763 200.186 235.925 200.228 236.093 200.288V201.512C235.733 201.368 235.355 201.296 234.959 201.296C234.503 201.296 234.047 201.422 233.591 201.674C233.135 201.926 232.745 202.244 232.421 202.628V209H231.053V200.288H232.097ZM244.454 201.458V205.76C244.454 206.156 244.472 206.498 244.508 206.786C244.544 207.074 244.616 207.314 244.724 207.506C244.844 207.686 245.006 207.818 245.21 207.902C245.426 207.986 245.714 208.028 246.074 208.028C246.338 208.028 246.596 207.998 246.848 207.938C247.112 207.878 247.364 207.806 247.604 207.722L247.874 208.766C247.154 209.042 246.428 209.18 245.696 209.18C245.168 209.18 244.73 209.108 244.382 208.964C244.046 208.82 243.776 208.622 243.572 208.37C243.38 208.106 243.248 207.794 243.176 207.434C243.104 207.062 243.068 206.654 243.068 206.21V201.458H241.646V200.288H243.068V198.452L244.454 198.2V200.288H247.532V201.458H244.454ZM250.801 201.08C251.629 200.432 252.559 200.108 253.591 200.108C254.599 200.108 255.319 200.348 255.751 200.828C256.195 201.296 256.417 202.088 256.417 203.204V209H255.049V203.582C255.049 202.718 254.905 202.118 254.617 201.782C254.341 201.446 253.909 201.278 253.321 201.278C252.481 201.278 251.641 201.584 250.801 202.196V209H249.433V196.472L250.801 196.292V201.08ZM262.222 209.18C260.806 209.18 259.798 208.814 259.198 208.082C258.61 207.338 258.316 206.192 258.316 204.644C258.316 203.084 258.616 201.938 259.216 201.206C259.816 200.474 260.734 200.108 261.97 200.108C263.206 200.108 264.124 200.468 264.724 201.188C265.324 201.896 265.624 203.024 265.624 204.572V205.148H259.72C259.768 206.18 259.99 206.918 260.386 207.362C260.782 207.806 261.4 208.028 262.24 208.028C262.744 208.028 263.236 207.956 263.716 207.812C264.208 207.656 264.664 207.446 265.084 207.182L265.534 208.28C265.078 208.556 264.562 208.778 263.986 208.946C263.422 209.102 262.834 209.18 262.222 209.18ZM264.22 204.032C264.16 203.096 263.95 202.406 263.59 201.962C263.23 201.506 262.69 201.278 261.97 201.278C261.25 201.278 260.71 201.506 260.35 201.962C259.99 202.406 259.78 203.096 259.72 204.032H264.22ZM277.545 200.288V201.458H274.431V209H273.063V201.458H271.731V200.288H273.045V199.586C273.045 198.974 273.111 198.458 273.243 198.038C273.387 197.618 273.591 197.282 273.855 197.03C274.119 196.766 274.437 196.58 274.809 196.472C275.193 196.352 275.631 196.292 276.123 196.292C276.459 196.292 276.777 196.328 277.077 196.4C277.377 196.46 277.653 196.538 277.905 196.634L277.599 197.75C277.095 197.558 276.597 197.462 276.105 197.462C275.529 197.462 275.103 197.642 274.827 198.002C274.563 198.362 274.431 198.962 274.431 199.802V200.288H277.545ZM278.996 200.288H280.364V209H278.996V200.288ZM278.978 196.544H280.364V198.344H278.978V196.544ZM284.006 200.288L284.168 201.44C284.564 201.008 285.008 200.678 285.5 200.45C285.992 200.222 286.49 200.108 286.994 200.108C287.198 200.108 287.372 200.126 287.516 200.162C287.672 200.186 287.834 200.228 288.002 200.288V201.512C287.642 201.368 287.264 201.296 286.868 201.296C286.412 201.296 285.956 201.422 285.5 201.674C285.044 201.926 284.654 202.244 284.33 202.628V209H282.962V200.288H284.006ZM291.306 203.6C291.582 203.708 291.924 203.828 292.332 203.96C292.752 204.092 293.166 204.236 293.574 204.392C294.738 204.824 295.32 205.598 295.32 206.714C295.32 207.506 295.044 208.118 294.492 208.55C293.94 208.982 293.052 209.198 291.828 209.198C291.144 209.198 290.562 209.12 290.082 208.964C289.602 208.808 289.17 208.622 288.786 208.406L289.236 207.326C289.584 207.53 289.98 207.704 290.424 207.848C290.868 207.992 291.342 208.064 291.846 208.064C292.614 208.064 293.154 207.962 293.466 207.758C293.778 207.542 293.934 207.218 293.934 206.786C293.934 206.21 293.592 205.784 292.908 205.508C292.524 205.352 292.122 205.208 291.702 205.076C291.294 204.944 290.904 204.812 290.532 204.68C290.052 204.512 289.668 204.254 289.38 203.906C289.104 203.546 288.966 203.078 288.966 202.502C288.966 201.806 289.236 201.23 289.776 200.774C290.328 200.318 291.15 200.09 292.242 200.09C292.818 200.09 293.334 200.15 293.79 200.27C294.246 200.378 294.63 200.51 294.942 200.666L294.528 201.71C294.18 201.542 293.832 201.422 293.484 201.35C293.136 201.266 292.71 201.224 292.206 201.224C291.846 201.224 291.546 201.26 291.306 201.332C291.066 201.404 290.874 201.5 290.73 201.62C290.598 201.728 290.502 201.854 290.442 201.998C290.382 202.142 290.352 202.286 290.352 202.43C290.352 202.718 290.424 202.952 290.568 203.132C290.712 203.312 290.958 203.468 291.306 203.6ZM299.193 201.458V205.76C299.193 206.156 299.211 206.498 299.247 206.786C299.283 207.074 299.355 207.314 299.463 207.506C299.583 207.686 299.745 207.818 299.949 207.902C300.165 207.986 300.453 208.028 300.813 208.028C301.077 208.028 301.335 207.998 301.587 207.938C301.851 207.878 302.103 207.806 302.343 207.722L302.613 208.766C301.893 209.042 301.167 209.18 300.435 209.18C299.907 209.18 299.469 209.108 299.121 208.964C298.785 208.82 298.515 208.622 298.311 208.37C298.119 208.106 297.987 207.794 297.915 207.434C297.843 207.062 297.807 206.654 297.807 206.21V201.458H296.385V200.288H297.807V198.452L299.193 198.2V200.288H302.271V201.458H299.193ZM311.071 201.458V205.76C311.071 206.156 311.089 206.498 311.125 206.786C311.161 207.074 311.233 207.314 311.341 207.506C311.461 207.686 311.623 207.818 311.827 207.902C312.043 207.986 312.331 208.028 312.691 208.028C312.955 208.028 313.213 207.998 313.465 207.938C313.729 207.878 313.981 207.806 314.221 207.722L314.491 208.766C313.771 209.042 313.045 209.18 312.313 209.18C311.785 209.18 311.347 209.108 310.999 208.964C310.663 208.82 310.393 208.622 310.189 208.37C309.997 208.106 309.865 207.794 309.793 207.434C309.721 207.062 309.685 206.654 309.685 206.21V201.458H308.263V200.288H309.685V198.452L311.071 198.2V200.288H314.149V201.458H311.071ZM316.249 200.288H317.617V209H316.249V200.288ZM316.231 196.544H317.617V198.344H316.231V196.544ZM321.457 201.098C321.877 200.786 322.309 200.546 322.753 200.378C323.197 200.198 323.671 200.108 324.175 200.108C324.787 200.108 325.273 200.198 325.633 200.378C326.005 200.558 326.281 200.858 326.461 201.278C326.881 200.93 327.337 200.648 327.829 200.432C328.333 200.216 328.855 200.108 329.395 200.108C329.899 200.108 330.319 200.168 330.655 200.288C330.991 200.396 331.261 200.576 331.465 200.828C331.681 201.08 331.831 201.404 331.915 201.8C331.999 202.184 332.041 202.652 332.041 203.204V209H330.673V203.582C330.673 202.718 330.553 202.118 330.313 201.782C330.085 201.446 329.695 201.278 329.143 201.278C328.351 201.278 327.553 201.602 326.749 202.25C326.785 202.526 326.803 202.844 326.803 203.204V209H325.435V203.582C325.435 202.73 325.327 202.136 325.111 201.8C324.895 201.452 324.493 201.278 323.905 201.278C323.509 201.278 323.125 201.356 322.753 201.512C322.381 201.656 321.991 201.884 321.583 202.196V209H320.215V200.288H321.241L321.457 201.098ZM337.837 209.18C336.421 209.18 335.413 208.814 334.813 208.082C334.225 207.338 333.931 206.192 333.931 204.644C333.931 203.084 334.231 201.938 334.831 201.206C335.431 200.474 336.349 200.108 337.585 200.108C338.821 200.108 339.739 200.468 340.339 201.188C340.939 201.896 341.239 203.024 341.239 204.572V205.148H335.335C335.383 206.18 335.605 206.918 336.001 207.362C336.397 207.806 337.015 208.028 337.855 208.028C338.359 208.028 338.851 207.956 339.331 207.812C339.823 207.656 340.279 207.446 340.699 207.182L341.149 208.28C340.693 208.556 340.177 208.778 339.601 208.946C339.037 209.102 338.449 209.18 337.837 209.18ZM339.835 204.032C339.775 203.096 339.565 202.406 339.205 201.962C338.845 201.506 338.305 201.278 337.585 201.278C336.865 201.278 336.325 201.506 335.965 201.962C335.605 202.406 335.395 203.096 335.335 204.032H339.835ZM43.0576 233.312C43.0576 233.6 43.0036 233.87 42.8956 234.122C42.7876 234.374 42.6376 234.596 42.4456 234.788C42.2656 234.968 42.0496 235.112 41.7976 235.22C41.5576 235.316 41.2936 235.364 41.0056 235.364C40.7176 235.364 40.4476 235.316 40.1956 235.22C39.9436 235.112 39.7216 234.968 39.5296 234.788C39.3496 234.608 39.2056 234.392 39.0976 234.14C38.9896 233.888 38.9356 233.612 38.9356 233.312C38.9356 233.024 38.9896 232.754 39.0976 232.502C39.2056 232.25 39.3496 232.034 39.5296 231.854C39.7216 231.662 39.9436 231.518 40.1956 231.422C40.4476 231.314 40.7176 231.26 41.0056 231.26C41.2936 231.26 41.5576 231.314 41.7976 231.422C42.0496 231.518 42.2656 231.662 42.4456 231.854C42.6376 232.034 42.7876 232.25 42.8956 232.502C43.0036 232.754 43.0576 233.024 43.0576 233.312ZM70.25 226.904L66.776 239H65.354L63.482 232.034L62.582 228.434H62.546L61.646 232.034L59.756 239H58.352L54.86 226.904H56.354L58.352 234.572L59.018 237.164H59.054L59.702 234.572L61.808 226.904H63.32L65.426 234.572L66.092 237.164H66.128L66.776 234.572L68.774 226.904H70.25ZM72.8327 230.288L72.9947 231.44C73.3907 231.008 73.8347 230.678 74.3267 230.45C74.8187 230.222 75.3167 230.108 75.8207 230.108C76.0247 230.108 76.1987 230.126 76.3427 230.162C76.4987 230.186 76.6607 230.228 76.8287 230.288V231.512C76.4687 231.368 76.0907 231.296 75.6947 231.296C75.2387 231.296 74.7827 231.422 74.3267 231.674C73.8707 231.926 73.4807 232.244 73.1567 232.628V239H71.7887V230.288H72.8327ZM78.2776 230.288H79.6456V239H78.2776V230.288ZM78.2596 226.544H79.6456V228.344H78.2596V226.544ZM84.1875 231.458V235.76C84.1875 236.156 84.2055 236.498 84.2415 236.786C84.2775 237.074 84.3495 237.314 84.4575 237.506C84.5775 237.686 84.7395 237.818 84.9435 237.902C85.1595 237.986 85.4475 238.028 85.8075 238.028C86.0715 238.028 86.3295 237.998 86.5815 237.938C86.8455 237.878 87.0975 237.806 87.3375 237.722L87.6075 238.766C86.8875 239.042 86.1615 239.18 85.4295 239.18C84.9015 239.18 84.4635 239.108 84.1155 238.964C83.7795 238.82 83.5095 238.622 83.3055 238.37C83.1135 238.106 82.9815 237.794 82.9095 237.434C82.8375 237.062 82.8015 236.654 82.8015 236.21V231.458H81.3795V230.288H82.8015V228.452L84.1875 228.2V230.288H87.2655V231.458H84.1875ZM89.3652 230.288H90.7332V239H89.3652V230.288ZM89.3472 226.544H90.7332V228.344H89.3472V226.544ZM94.5911 231.17C94.9991 230.846 95.4491 230.588 95.9411 230.396C96.4331 230.204 96.9491 230.108 97.4891 230.108C98.4971 230.108 99.2171 230.354 99.6491 230.846C100.093 231.326 100.315 232.112 100.315 233.204V239H98.9471V233.582C98.9471 232.718 98.8031 232.118 98.5151 231.782C98.2391 231.446 97.8071 231.278 97.2191 231.278C96.3791 231.278 95.5391 231.584 94.6991 232.196V239H93.3311V230.288H94.3571L94.5911 231.17ZM109.522 230.288V239.108C109.522 240.44 109.198 241.406 108.55 242.006C107.914 242.618 106.96 242.924 105.688 242.924C105.184 242.924 104.704 242.882 104.248 242.798C103.792 242.726 103.39 242.624 103.042 242.492L103.33 241.358C104.014 241.622 104.794 241.754 105.67 241.754C106.534 241.754 107.158 241.556 107.542 241.16C107.938 240.764 108.136 240.116 108.136 239.216V238.316C107.836 238.592 107.47 238.808 107.038 238.964C106.618 239.108 106.156 239.18 105.652 239.18C104.524 239.18 103.666 238.814 103.078 238.082C102.502 237.35 102.214 236.204 102.214 234.644C102.214 233.096 102.514 231.956 103.114 231.224C103.714 230.48 104.608 230.108 105.796 230.108C106.3 230.108 106.762 230.192 107.182 230.36C107.602 230.528 107.968 230.756 108.28 231.044L108.496 230.288H109.522ZM106.012 231.26C105.184 231.26 104.572 231.524 104.176 232.052C103.792 232.58 103.6 233.444 103.6 234.644C103.6 235.856 103.792 236.726 104.176 237.254C104.572 237.782 105.184 238.046 106.012 238.046C106.432 238.046 106.822 237.962 107.182 237.794C107.554 237.626 107.872 237.398 108.136 237.11V232.196C107.872 231.908 107.554 231.68 107.182 231.512C106.822 231.344 106.432 231.26 106.012 231.26ZM117.095 230.288H118.463V239H117.095V230.288ZM117.077 226.544H118.463V228.344H117.077V226.544ZM122.321 231.17C122.729 230.846 123.179 230.588 123.671 230.396C124.163 230.204 124.679 230.108 125.219 230.108C126.227 230.108 126.947 230.354 127.379 230.846C127.823 231.326 128.045 232.112 128.045 233.204V239H126.677V233.582C126.677 232.718 126.533 232.118 126.245 231.782C125.969 231.446 125.537 231.278 124.949 231.278C124.109 231.278 123.269 231.584 122.429 232.196V239H121.061V230.288H122.087L122.321 231.17ZM137.257 231.458V235.76C137.257 236.156 137.275 236.498 137.311 236.786C137.347 237.074 137.419 237.314 137.527 237.506C137.647 237.686 137.809 237.818 138.013 237.902C138.229 237.986 138.517 238.028 138.877 238.028C139.141 238.028 139.399 237.998 139.651 237.938C139.915 237.878 140.167 237.806 140.407 237.722L140.677 238.766C139.957 239.042 139.231 239.18 138.499 239.18C137.971 239.18 137.533 239.108 137.185 238.964C136.849 238.82 136.579 238.622 136.375 238.37C136.183 238.106 136.051 237.794 135.979 237.434C135.907 237.062 135.871 236.654 135.871 236.21V231.458H134.449V230.288H135.871V228.452L137.257 228.2V230.288H140.335V231.458H137.257ZM143.604 231.08C144.432 230.432 145.362 230.108 146.394 230.108C147.402 230.108 148.122 230.348 148.554 230.828C148.998 231.296 149.22 232.088 149.22 233.204V239H147.852V233.582C147.852 232.718 147.708 232.118 147.42 231.782C147.144 231.446 146.712 231.278 146.124 231.278C145.284 231.278 144.444 231.584 143.604 232.196V239H142.236V226.472L143.604 226.292V231.08ZM155.025 239.18C153.609 239.18 152.601 238.814 152.001 238.082C151.413 237.338 151.119 236.192 151.119 234.644C151.119 233.084 151.419 231.938 152.019 231.206C152.619 230.474 153.537 230.108 154.773 230.108C156.009 230.108 156.927 230.468 157.527 231.188C158.127 231.896 158.427 233.024 158.427 234.572V235.148H152.523C152.571 236.18 152.793 236.918 153.189 237.362C153.585 237.806 154.203 238.028 155.043 238.028C155.547 238.028 156.039 237.956 156.519 237.812C157.011 237.656 157.467 237.446 157.887 237.182L158.337 238.28C157.881 238.556 157.365 238.778 156.789 238.946C156.225 239.102 155.637 239.18 155.025 239.18ZM157.023 234.032C156.963 233.096 156.753 232.406 156.393 231.962C156.033 231.506 155.493 231.278 154.773 231.278C154.053 231.278 153.513 231.506 153.153 231.962C152.793 232.406 152.583 233.096 152.523 234.032H157.023ZM168.386 237.416L169.322 234.608L170.852 230.288H172.31L169.034 239H167.72L164.426 230.288H165.884L167.414 234.608L168.35 237.416H168.386ZM173.12 234.644C173.12 233.084 173.432 231.938 174.056 231.206C174.692 230.474 175.7 230.108 177.08 230.108C178.448 230.108 179.444 230.474 180.068 231.206C180.704 231.938 181.022 233.084 181.022 234.644C181.022 236.204 180.704 237.35 180.068 238.082C179.432 238.814 178.436 239.18 177.08 239.18C175.712 239.18 174.71 238.814 174.074 238.082C173.438 237.35 173.12 236.204 173.12 234.644ZM174.506 234.644C174.506 235.832 174.71 236.696 175.118 237.236C175.526 237.764 176.18 238.028 177.08 238.028C177.98 238.028 178.634 237.764 179.042 237.236C179.45 236.696 179.654 235.832 179.654 234.644C179.654 233.48 179.45 232.628 179.042 232.088C178.634 231.548 177.98 231.278 177.08 231.278C176.18 231.278 175.526 231.548 175.118 232.088C174.71 232.628 174.506 233.48 174.506 234.644ZM183.223 230.288H184.591V239H183.223V230.288ZM183.205 226.544H184.591V228.344H183.205V226.544ZM190.914 238.028C191.754 238.028 192.504 237.818 193.164 237.398L193.56 238.496C193.212 238.7 192.81 238.868 192.354 239C191.91 239.12 191.43 239.18 190.914 239.18C189.486 239.18 188.442 238.826 187.782 238.118C187.122 237.398 186.792 236.24 186.792 234.644C186.792 233.084 187.11 231.938 187.746 231.206C188.382 230.474 189.378 230.108 190.734 230.108C191.898 230.108 192.852 230.462 193.596 231.17L192.84 232.106C192.576 231.842 192.264 231.638 191.904 231.494C191.556 231.338 191.178 231.26 190.77 231.26C189.906 231.26 189.252 231.524 188.808 232.052C188.376 232.568 188.16 233.432 188.16 234.644C188.16 235.856 188.388 236.726 188.844 237.254C189.3 237.77 189.99 238.028 190.914 238.028ZM198.36 239.18C196.944 239.18 195.936 238.814 195.336 238.082C194.748 237.338 194.454 236.192 194.454 234.644C194.454 233.084 194.754 231.938 195.354 231.206C195.954 230.474 196.872 230.108 198.108 230.108C199.344 230.108 200.262 230.468 200.862 231.188C201.462 231.896 201.762 233.024 201.762 234.572V235.148H195.858C195.906 236.18 196.128 236.918 196.524 237.362C196.92 237.806 197.538 238.028 198.378 238.028C198.882 238.028 199.374 237.956 199.854 237.812C200.346 237.656 200.802 237.446 201.222 237.182L201.672 238.28C201.216 238.556 200.7 238.778 200.124 238.946C199.56 239.102 198.972 239.18 198.36 239.18ZM200.358 234.032C200.298 233.096 200.088 232.406 199.728 231.962C199.368 231.506 198.828 231.278 198.108 231.278C197.388 231.278 196.848 231.506 196.488 231.962C196.128 232.406 195.918 233.096 195.858 234.032H200.358ZM208.319 234.644C208.319 233.084 208.631 231.938 209.255 231.206C209.891 230.474 210.899 230.108 212.279 230.108C213.647 230.108 214.643 230.474 215.267 231.206C215.903 231.938 216.221 233.084 216.221 234.644C216.221 236.204 215.903 237.35 215.267 238.082C214.631 238.814 213.635 239.18 212.279 239.18C210.911 239.18 209.909 238.814 209.273 238.082C208.637 237.35 208.319 236.204 208.319 234.644ZM209.705 234.644C209.705 235.832 209.909 236.696 210.317 237.236C210.725 237.764 211.379 238.028 212.279 238.028C213.179 238.028 213.833 237.764 214.241 237.236C214.649 236.696 214.853 235.832 214.853 234.644C214.853 233.48 214.649 232.628 214.241 232.088C213.833 231.548 213.179 231.278 212.279 231.278C211.379 231.278 210.725 231.548 210.317 232.088C209.909 232.628 209.705 233.48 209.705 234.644ZM223.067 230.288V231.458H219.953V239H218.585V231.458H217.253V230.288H218.567V229.586C218.567 228.974 218.633 228.458 218.765 228.038C218.909 227.618 219.113 227.282 219.377 227.03C219.641 226.766 219.959 226.58 220.331 226.472C220.715 226.352 221.153 226.292 221.645 226.292C221.981 226.292 222.299 226.328 222.599 226.4C222.899 226.46 223.175 226.538 223.427 226.634L223.121 227.75C222.617 227.558 222.119 227.462 221.627 227.462C221.051 227.462 220.625 227.642 220.349 228.002C220.085 228.362 219.953 228.962 219.953 229.802V230.288H223.067ZM228.861 234.644C228.861 233.084 229.173 231.938 229.797 231.206C230.433 230.474 231.441 230.108 232.821 230.108C234.189 230.108 235.185 230.474 235.809 231.206C236.445 231.938 236.763 233.084 236.763 234.644C236.763 236.204 236.445 237.35 235.809 238.082C235.173 238.814 234.177 239.18 232.821 239.18C231.453 239.18 230.451 238.814 229.815 238.082C229.179 237.35 228.861 236.204 228.861 234.644ZM230.247 234.644C230.247 235.832 230.451 236.696 230.859 237.236C231.267 237.764 231.921 238.028 232.821 238.028C233.721 238.028 234.375 237.764 234.783 237.236C235.191 236.696 235.395 235.832 235.395 234.644C235.395 233.48 235.191 232.628 234.783 232.088C234.375 231.548 233.721 231.278 232.821 231.278C231.921 231.278 231.267 231.548 230.859 232.088C230.451 232.628 230.247 233.48 230.247 234.644ZM244.417 238.136C244.009 238.46 243.559 238.718 243.067 238.91C242.575 239.09 242.059 239.18 241.519 239.18C240.511 239.18 239.785 238.94 239.341 238.46C238.897 237.98 238.675 237.194 238.675 236.102V230.288H240.061V235.724C240.061 236.588 240.199 237.188 240.475 237.524C240.763 237.86 241.201 238.028 241.789 238.028C242.629 238.028 243.463 237.722 244.291 237.11V230.288H245.677V239H244.633L244.417 238.136ZM249.141 230.288L249.303 231.44C249.699 231.008 250.143 230.678 250.635 230.45C251.127 230.222 251.625 230.108 252.129 230.108C252.333 230.108 252.507 230.126 252.651 230.162C252.807 230.186 252.969 230.228 253.137 230.288V231.512C252.777 231.368 252.399 231.296 252.003 231.296C251.547 231.296 251.091 231.422 250.635 231.674C250.179 231.926 249.789 232.244 249.465 232.628V239H248.097V230.288H249.141ZM260.58 230.288L260.814 231.044C261.126 230.756 261.486 230.528 261.894 230.36C262.314 230.192 262.776 230.108 263.28 230.108C264.468 230.108 265.362 230.48 265.962 231.224C266.562 231.956 266.862 233.096 266.862 234.644C266.862 236.204 266.568 237.35 265.98 238.082C265.404 238.814 264.552 239.18 263.424 239.18C262.944 239.18 262.482 239.108 262.038 238.964C261.594 238.808 261.228 238.592 260.94 238.316V242.744H259.554V230.288H260.58ZM263.064 231.26C262.644 231.26 262.248 231.344 261.876 231.512C261.516 231.68 261.204 231.908 260.94 232.196V237.11C261.204 237.398 261.516 237.626 261.876 237.794C262.248 237.962 262.644 238.046 263.064 238.046C263.892 238.046 264.504 237.782 264.9 237.254C265.296 236.726 265.494 235.856 265.494 234.644C265.494 233.444 265.296 232.58 264.9 232.052C264.504 231.524 263.892 231.26 263.064 231.26ZM272.36 239.18C270.944 239.18 269.936 238.814 269.336 238.082C268.748 237.338 268.454 236.192 268.454 234.644C268.454 233.084 268.754 231.938 269.354 231.206C269.954 230.474 270.872 230.108 272.108 230.108C273.344 230.108 274.262 230.468 274.862 231.188C275.462 231.896 275.762 233.024 275.762 234.572V235.148H269.858C269.906 236.18 270.128 236.918 270.524 237.362C270.92 237.806 271.538 238.028 272.378 238.028C272.882 238.028 273.374 237.956 273.854 237.812C274.346 237.656 274.802 237.446 275.222 237.182L275.672 238.28C275.216 238.556 274.7 238.778 274.124 238.946C273.56 239.102 272.972 239.18 272.36 239.18ZM274.358 234.032C274.298 233.096 274.088 232.406 273.728 231.962C273.368 231.506 272.828 231.278 272.108 231.278C271.388 231.278 270.848 231.506 270.488 231.962C270.128 232.406 269.918 233.096 269.858 234.032H274.358ZM277.364 234.644C277.364 233.084 277.676 231.938 278.3 231.206C278.936 230.474 279.944 230.108 281.324 230.108C282.692 230.108 283.688 230.474 284.312 231.206C284.948 231.938 285.266 233.084 285.266 234.644C285.266 236.204 284.948 237.35 284.312 238.082C283.676 238.814 282.68 239.18 281.324 239.18C279.956 239.18 278.954 238.814 278.318 238.082C277.682 237.35 277.364 236.204 277.364 234.644ZM278.75 234.644C278.75 235.832 278.954 236.696 279.362 237.236C279.77 237.764 280.424 238.028 281.324 238.028C282.224 238.028 282.878 237.764 283.286 237.236C283.694 236.696 283.898 235.832 283.898 234.644C283.898 233.48 283.694 232.628 283.286 232.088C282.878 231.548 282.224 231.278 281.324 231.278C280.424 231.278 279.77 231.548 279.362 232.088C278.954 232.628 278.75 233.48 278.75 234.644ZM288.294 230.288L288.528 231.044C288.84 230.756 289.2 230.528 289.608 230.36C290.028 230.192 290.49 230.108 290.994 230.108C292.182 230.108 293.076 230.48 293.676 231.224C294.276 231.956 294.576 233.096 294.576 234.644C294.576 236.204 294.282 237.35 293.694 238.082C293.118 238.814 292.266 239.18 291.138 239.18C290.658 239.18 290.196 239.108 289.752 238.964C289.308 238.808 288.942 238.592 288.654 238.316V242.744H287.268V230.288H288.294ZM290.778 231.26C290.358 231.26 289.962 231.344 289.59 231.512C289.23 231.68 288.918 231.908 288.654 232.196V237.11C288.918 237.398 289.23 237.626 289.59 237.794C289.962 237.962 290.358 238.046 290.778 238.046C291.606 238.046 292.218 237.782 292.614 237.254C293.01 236.726 293.208 235.856 293.208 234.644C293.208 233.444 293.01 232.58 292.614 232.052C292.218 231.524 291.606 231.26 290.778 231.26ZM299.013 239.126C298.953 239.15 298.869 239.162 298.761 239.162C298.653 239.174 298.563 239.18 298.491 239.18C297.879 239.18 297.435 239 297.159 238.64C296.895 238.268 296.763 237.704 296.763 236.948V226.508L298.131 226.292V236.75C298.131 237.026 298.143 237.248 298.167 237.416C298.191 237.584 298.233 237.716 298.293 237.812C298.365 237.908 298.455 237.974 298.563 238.01C298.683 238.034 298.833 238.046 299.013 238.046V239.126ZM304.344 239.18C302.928 239.18 301.92 238.814 301.32 238.082C300.732 237.338 300.438 236.192 300.438 234.644C300.438 233.084 300.738 231.938 301.338 231.206C301.938 230.474 302.856 230.108 304.092 230.108C305.328 230.108 306.246 230.468 306.846 231.188C307.446 231.896 307.746 233.024 307.746 234.572V235.148H301.842C301.89 236.18 302.112 236.918 302.508 237.362C302.904 237.806 303.522 238.028 304.362 238.028C304.866 238.028 305.358 237.956 305.838 237.812C306.33 237.656 306.786 237.446 307.206 237.182L307.656 238.28C307.2 238.556 306.684 238.778 306.108 238.946C305.544 239.102 304.956 239.18 304.344 239.18ZM306.342 234.032C306.282 233.096 306.072 232.406 305.712 231.962C305.352 231.506 304.812 231.278 304.092 231.278C303.372 231.278 302.832 231.506 302.472 231.962C302.112 232.406 301.902 233.096 301.842 234.032H306.342Z" fill="#4A4946"/>
</svg>
