<svg width="335" height="614" viewBox="0 0 335 614" fill="none" xmlns="http://www.w3.org/2000/svg">
<path d="M0 10C0 4.47715 4.47715 0 10 0H324C329.523 0 334 4.47715 334 10V307H0V10Z" fill="white"/>
<path d="M74.1432 123.16L78.2792 140.056L82.1512 123.16H86.0672L80.5672 144.5H76.4312L72.5152 128.704L68.5552 144.5H64.4192L58.9192 123.16H62.8352L66.7072 140.056L70.8432 123.16H74.1432ZM89.0069 119.2V114.932H92.9669V119.2H89.0069ZM89.0069 144.5V123.16H92.9669V144.5H89.0069ZM96.2315 123.16H99.6195V117.572H103.579V123.16H108.816V126.636H103.579V139.352C103.579 140.76 104.107 141.068 105.559 141.068H108.816V144.5H105.119C102.215 144.5 99.6195 143.18 99.6195 139.748V126.636H96.2315V123.16ZM116.22 144.5H112.304V114.932H116.22V125.756C117.672 123.776 120.004 122.588 123.084 122.588C128.364 122.588 131.576 126.328 131.576 131.872V144.5H127.66V131.564C127.66 127.692 125.944 126.152 122.028 126.152C118.068 126.152 116.22 127.692 116.22 131.564V144.5Z" fill="#262626"/>
<path d="M145.267 144.5V114.932H155.035C164.363 114.932 170.435 120.52 170.435 129.716C170.435 138.912 164.363 144.5 155.035 144.5H145.267ZM150.239 140.1H155.079C162.427 140.1 165.463 137.372 165.463 129.716C165.463 122.06 162.427 119.332 155.079 119.332H150.239V140.1ZM194.078 138.252C192.626 142.564 188.622 145.116 183.87 145.116C177.666 145.116 172.87 140.584 172.87 133.72C172.87 126.944 177.666 122.456 183.738 122.456C189.15 122.456 194.474 126.196 194.474 133.808V135.172H177.754C178.106 139.44 179.954 140.804 183.87 140.804C186.862 140.804 188.314 140.1 189.194 138.252H194.078ZM177.842 131.564H189.678C189.282 128.088 187.522 126.724 183.738 126.724C180.174 126.724 178.326 127.956 177.842 131.564ZM210.626 138.648C210.626 137.152 209.702 136.536 207.502 136.008L203.85 135.172C199.582 134.16 197.382 132.4 197.382 128.704C197.382 124.876 201.386 122.456 206.138 122.456C210.89 122.456 214.674 124.876 215.29 129.232H210.494C210.186 127.252 208.866 126.548 206.138 126.548C203.454 126.548 202.222 127.296 202.222 128.704C202.222 129.892 202.794 130.508 205.038 131.036L208.822 132.004C213.178 133.06 215.422 134.644 215.422 138.516C215.422 142.828 211.242 145.116 206.27 145.116C201.65 145.116 197.382 142.96 196.678 137.812H201.474C201.914 140.364 203.322 140.98 206.27 140.98C209.13 140.98 210.626 140.232 210.626 138.648ZM218.928 119.728V114.932H223.812V119.728H218.928ZM218.928 144.5V123.028H223.812V144.5H218.928ZM237.444 144.324C231.724 144.324 227.28 139.924 227.28 133.324C227.28 126.812 231.724 122.456 237.444 122.456C240.304 122.456 242.636 123.512 244.264 125.404L244.572 123.028H248.884V143.532C248.708 149.164 244.484 153.036 238.28 153.036C232.56 153.036 228.996 150.176 227.808 146.084H232.956C233.792 148.152 235.068 148.988 238.5 148.988C242.108 148.988 244 147.272 244 144.28V141.684C242.372 143.4 240.128 144.324 237.444 144.324ZM232.12 133.324C232.12 138.252 234.012 140.012 238.148 140.012C242.328 140.012 244.22 138.252 244.22 133.324C244.22 128.484 242.328 126.724 238.148 126.724C234.012 126.724 232.12 128.484 232.12 133.324ZM268.35 131.52C268.35 128.088 266.942 126.724 263.466 126.724C259.99 126.724 258.494 128.088 258.494 131.52V144.5H253.698V123.028H257.878L258.23 125.668C259.77 123.644 262.058 122.456 265.006 122.456C269.978 122.456 273.19 126.196 273.19 131.608V144.5H268.35V131.52Z" fill="#FF1C1B"/>
<path d="M17 188.5H317" stroke="#4A4946"/>
<circle cx="301" cy="188.5" r="10" fill="#262626"/>
<path d="M0 307H334V604C334 609.523 329.523 614 324 614H10C4.47716 614 0 609.523 0 604V307Z" fill="#E6E1D6"/>
<path d="M34.2862 397.18C34.2862 397.5 34.2263 397.8 34.1063 398.08C33.9863 398.36 33.8196 398.607 33.6063 398.82C33.4063 399.02 33.1663 399.18 32.8863 399.3C32.6196 399.407 32.3263 399.46 32.0063 399.46C31.6863 399.46 31.3863 399.407 31.1063 399.3C30.8263 399.18 30.5796 399.02 30.3663 398.82C30.1663 398.62 30.0063 398.38 29.8863 398.1C29.7663 397.82 29.7063 397.513 29.7063 397.18C29.7063 396.86 29.7663 396.56 29.8863 396.28C30.0063 396 30.1663 395.76 30.3663 395.56C30.5796 395.347 30.8263 395.187 31.1063 395.08C31.3863 394.96 31.6863 394.9 32.0063 394.9C32.3263 394.9 32.6196 394.96 32.8863 395.08C33.1663 395.187 33.4063 395.347 33.6063 395.56C33.8196 395.76 33.9863 396 34.1063 396.28C34.2263 396.56 34.2862 396.86 34.2862 397.18ZM56.58 402.2V403.5H48.62V390.06H50.16V402.2H56.58ZM65.1052 403.5H63.9652L63.7252 402.6C63.3252 402.947 62.8518 403.22 62.3052 403.42C61.7718 403.607 61.1852 403.7 60.5452 403.7C59.5452 403.7 58.7918 403.447 58.2852 402.94C57.7918 402.42 57.5452 401.68 57.5452 400.72C57.5452 399.733 57.8518 399.007 58.4652 398.54C59.0785 398.06 60.1052 397.82 61.5452 397.82C61.9718 397.82 62.3452 397.827 62.6652 397.84C62.9985 397.853 63.3052 397.88 63.5852 397.92V397.38C63.5852 396.487 63.4118 395.853 63.0652 395.48C62.7185 395.093 62.1052 394.9 61.2252 394.9C60.8118 394.9 60.3585 394.973 59.8652 395.12C59.3852 395.253 58.8985 395.453 58.4052 395.72L57.9452 394.56C58.4785 394.267 59.0452 394.04 59.6452 393.88C60.2452 393.707 60.8652 393.62 61.5052 393.62C62.1852 393.62 62.7518 393.687 63.2052 393.82C63.6718 393.953 64.0452 394.173 64.3252 394.48C64.6052 394.773 64.8052 395.153 64.9252 395.62C65.0452 396.087 65.1052 396.66 65.1052 397.34V403.5ZM60.9652 402.44C61.4052 402.44 61.8585 402.347 62.3252 402.16C62.8052 401.96 63.2252 401.7 63.5852 401.38V399.16C63.2385 399.12 62.8918 399.093 62.5452 399.08C62.1985 399.053 61.8118 399.04 61.3852 399.04C60.5452 399.04 59.9452 399.167 59.5852 399.42C59.2385 399.673 59.0652 400.1 59.0652 400.7C59.0652 401.273 59.2118 401.707 59.5052 402C59.7985 402.293 60.2852 402.44 60.9652 402.44ZM73.9522 402.54C73.4989 402.9 72.9989 403.187 72.4522 403.4C71.9055 403.6 71.3322 403.7 70.7322 403.7C69.6122 403.7 68.8055 403.433 68.3122 402.9C67.8189 402.367 67.5722 401.493 67.5722 400.28V393.82H69.1122V399.86C69.1122 400.82 69.2655 401.487 69.5722 401.86C69.8922 402.233 70.3789 402.42 71.0322 402.42C71.9655 402.42 72.8922 402.08 73.8122 401.4V393.82H75.3522V403.5H74.1922L73.9522 402.54ZM79.4409 394.8C79.8943 394.44 80.3943 394.153 80.9409 393.94C81.4876 393.727 82.0609 393.62 82.6609 393.62C83.7809 393.62 84.5809 393.893 85.0609 394.44C85.5543 394.973 85.8009 395.847 85.8009 397.06V403.5H84.2809V397.48C84.2809 396.52 84.1209 395.853 83.8009 395.48C83.4943 395.107 83.0143 394.92 82.3609 394.92C81.4276 394.92 80.4943 395.26 79.5609 395.94V403.5H78.0409V393.82H79.1809L79.4409 394.8ZM92.5106 402.42C93.444 402.42 94.2773 402.187 95.0106 401.72L95.4506 402.94C95.064 403.167 94.6173 403.353 94.1106 403.5C93.6173 403.633 93.084 403.7 92.5106 403.7C90.924 403.7 89.764 403.307 89.0306 402.52C88.2973 401.72 87.9306 400.433 87.9306 398.66C87.9306 396.927 88.284 395.653 88.9906 394.84C89.6973 394.027 90.804 393.62 92.3106 393.62C93.604 393.62 94.664 394.013 95.4906 394.8L94.6506 395.84C94.3573 395.547 94.0106 395.32 93.6106 395.16C93.224 394.987 92.804 394.9 92.3506 394.9C91.3906 394.9 90.664 395.193 90.1706 395.78C89.6906 396.353 89.4506 397.313 89.4506 398.66C89.4506 400.007 89.704 400.973 90.2106 401.56C90.7173 402.133 91.484 402.42 92.5106 402.42ZM98.9313 394.7C99.8513 393.98 100.885 393.62 102.031 393.62C103.151 393.62 103.951 393.887 104.431 394.42C104.925 394.94 105.171 395.82 105.171 397.06V403.5H103.651V397.48C103.651 396.52 103.491 395.853 103.171 395.48C102.865 395.107 102.385 394.92 101.731 394.92C100.798 394.92 99.8646 395.26 98.9313 395.94V403.5H97.4113V389.58L98.9313 389.38V394.7ZM107.961 393.82H109.481V403.5H107.961V393.82ZM107.941 389.66H109.481V391.66H107.941V389.66ZM113.768 394.8C114.221 394.44 114.721 394.153 115.268 393.94C115.814 393.727 116.388 393.62 116.988 393.62C118.108 393.62 118.908 393.893 119.388 394.44C119.881 394.973 120.128 395.847 120.128 397.06V403.5H118.608V397.48C118.608 396.52 118.448 395.853 118.128 395.48C117.821 395.107 117.341 394.92 116.688 394.92C115.754 394.92 114.821 395.26 113.888 395.94V403.5H112.368V393.82H113.508L113.768 394.8ZM130.357 393.82V403.62C130.357 405.1 129.997 406.173 129.277 406.84C128.571 407.52 127.511 407.86 126.097 407.86C125.537 407.86 125.004 407.813 124.497 407.72C123.991 407.64 123.544 407.527 123.157 407.38L123.477 406.12C124.237 406.413 125.104 406.56 126.077 406.56C127.037 406.56 127.731 406.34 128.157 405.9C128.597 405.46 128.817 404.74 128.817 403.74V402.74C128.484 403.047 128.077 403.287 127.597 403.46C127.131 403.62 126.617 403.7 126.057 403.7C124.804 403.7 123.851 403.293 123.197 402.48C122.557 401.667 122.237 400.393 122.237 398.66C122.237 396.94 122.571 395.673 123.237 394.86C123.904 394.033 124.897 393.62 126.217 393.62C126.777 393.62 127.291 393.713 127.757 393.9C128.224 394.087 128.631 394.34 128.977 394.66L129.217 393.82H130.357ZM126.457 394.9C125.537 394.9 124.857 395.193 124.417 395.78C123.991 396.367 123.777 397.327 123.777 398.66C123.777 400.007 123.991 400.973 124.417 401.56C124.857 402.147 125.537 402.44 126.457 402.44C126.924 402.44 127.357 402.347 127.757 402.16C128.171 401.973 128.524 401.72 128.817 401.4V395.94C128.524 395.62 128.171 395.367 127.757 395.18C127.357 394.993 126.924 394.9 126.457 394.9ZM145.592 403.5H144.452L144.212 402.6C143.812 402.947 143.339 403.22 142.792 403.42C142.259 403.607 141.672 403.7 141.032 403.7C140.032 403.7 139.279 403.447 138.772 402.94C138.279 402.42 138.032 401.68 138.032 400.72C138.032 399.733 138.339 399.007 138.952 398.54C139.565 398.06 140.592 397.82 142.032 397.82C142.459 397.82 142.832 397.827 143.152 397.84C143.485 397.853 143.792 397.88 144.072 397.92V397.38C144.072 396.487 143.899 395.853 143.552 395.48C143.205 395.093 142.592 394.9 141.712 394.9C141.299 394.9 140.845 394.973 140.352 395.12C139.872 395.253 139.385 395.453 138.892 395.72L138.432 394.56C138.965 394.267 139.532 394.04 140.132 393.88C140.732 393.707 141.352 393.62 141.992 393.62C142.672 393.62 143.239 393.687 143.692 393.82C144.159 393.953 144.532 394.173 144.812 394.48C145.092 394.773 145.292 395.153 145.412 395.62C145.532 396.087 145.592 396.66 145.592 397.34V403.5ZM141.452 402.44C141.892 402.44 142.345 402.347 142.812 402.16C143.292 401.96 143.712 401.7 144.072 401.38V399.16C143.725 399.12 143.379 399.093 143.032 399.08C142.685 399.053 142.299 399.04 141.872 399.04C141.032 399.04 140.432 399.167 140.072 399.42C139.725 399.673 139.552 400.1 139.552 400.7C139.552 401.273 139.699 401.707 139.992 402C140.285 402.293 140.772 402.44 141.452 402.44ZM155.044 394.72C155.511 394.373 155.991 394.107 156.484 393.92C156.978 393.72 157.504 393.62 158.064 393.62C158.744 393.62 159.284 393.72 159.684 393.92C160.098 394.12 160.404 394.453 160.604 394.92C161.071 394.533 161.578 394.22 162.124 393.98C162.684 393.74 163.264 393.62 163.864 393.62C164.424 393.62 164.891 393.687 165.264 393.82C165.638 393.94 165.938 394.14 166.164 394.42C166.404 394.7 166.571 395.06 166.664 395.5C166.758 395.927 166.804 396.447 166.804 397.06V403.5H165.284V397.48C165.284 396.52 165.151 395.853 164.884 395.48C164.631 395.107 164.198 394.92 163.584 394.92C162.704 394.92 161.818 395.28 160.924 396C160.964 396.307 160.984 396.66 160.984 397.06V403.5H159.464V397.48C159.464 396.533 159.344 395.873 159.104 395.5C158.864 395.113 158.418 394.92 157.764 394.92C157.324 394.92 156.898 395.007 156.484 395.18C156.071 395.34 155.638 395.593 155.184 395.94V403.5H153.664V393.82H154.804L155.044 394.72ZM169.585 393.82H171.105V403.5H169.585V393.82ZM169.565 389.66H171.105V391.66H169.565V389.66ZM178.132 402.42C179.065 402.42 179.898 402.187 180.632 401.72L181.072 402.94C180.685 403.167 180.238 403.353 179.732 403.5C179.238 403.633 178.705 403.7 178.132 403.7C176.545 403.7 175.385 403.307 174.652 402.52C173.918 401.72 173.552 400.433 173.552 398.66C173.552 396.927 173.905 395.653 174.612 394.84C175.318 394.027 176.425 393.62 177.932 393.62C179.225 393.62 180.285 394.013 181.112 394.8L180.272 395.84C179.978 395.547 179.632 395.32 179.232 395.16C178.845 394.987 178.425 394.9 177.972 394.9C177.012 394.9 176.285 395.193 175.792 395.78C175.312 396.353 175.072 397.313 175.072 398.66C175.072 400.007 175.325 400.973 175.832 401.56C176.338 402.133 177.105 402.42 178.132 402.42ZM184.192 393.82L184.372 395.1C184.812 394.62 185.306 394.253 185.852 394C186.399 393.747 186.952 393.62 187.512 393.62C187.739 393.62 187.932 393.64 188.092 393.68C188.266 393.707 188.446 393.753 188.632 393.82V395.18C188.232 395.02 187.812 394.94 187.372 394.94C186.866 394.94 186.359 395.08 185.852 395.36C185.346 395.64 184.912 395.993 184.552 396.42V403.5H183.032V393.82H184.192ZM189.406 398.66C189.406 396.927 189.753 395.653 190.446 394.84C191.153 394.027 192.273 393.62 193.806 393.62C195.326 393.62 196.433 394.027 197.126 394.84C197.833 395.653 198.186 396.927 198.186 398.66C198.186 400.393 197.833 401.667 197.126 402.48C196.419 403.293 195.313 403.7 193.806 403.7C192.286 403.7 191.173 403.293 190.466 402.48C189.759 401.667 189.406 400.393 189.406 398.66ZM190.946 398.66C190.946 399.98 191.173 400.94 191.626 401.54C192.079 402.127 192.806 402.42 193.806 402.42C194.806 402.42 195.533 402.127 195.986 401.54C196.439 400.94 196.666 399.98 196.666 398.66C196.666 397.367 196.439 396.42 195.986 395.82C195.533 395.22 194.806 394.92 193.806 394.92C192.806 394.92 192.079 395.22 191.626 395.82C191.173 396.42 190.946 397.367 190.946 398.66ZM205.45 398.1H200.35V396.78H205.45V398.1ZM210.404 397.5C210.711 397.62 211.091 397.753 211.544 397.9C212.011 398.047 212.471 398.207 212.924 398.38C214.218 398.86 214.864 399.72 214.864 400.96C214.864 401.84 214.558 402.52 213.944 403C213.331 403.48 212.344 403.72 210.984 403.72C210.224 403.72 209.578 403.633 209.044 403.46C208.511 403.287 208.031 403.08 207.604 402.84L208.104 401.64C208.491 401.867 208.931 402.06 209.424 402.22C209.918 402.38 210.444 402.46 211.004 402.46C211.858 402.46 212.458 402.347 212.804 402.12C213.151 401.88 213.324 401.52 213.324 401.04C213.324 400.4 212.944 399.927 212.184 399.62C211.758 399.447 211.311 399.287 210.844 399.14C210.391 398.993 209.958 398.847 209.544 398.7C209.011 398.513 208.584 398.227 208.264 397.84C207.958 397.44 207.804 396.92 207.804 396.28C207.804 395.507 208.104 394.867 208.704 394.36C209.318 393.853 210.231 393.6 211.444 393.6C212.084 393.6 212.658 393.667 213.164 393.8C213.671 393.92 214.098 394.067 214.444 394.24L213.984 395.4C213.598 395.213 213.211 395.08 212.824 395C212.438 394.907 211.964 394.86 211.404 394.86C211.004 394.86 210.671 394.9 210.404 394.98C210.138 395.06 209.924 395.167 209.764 395.3C209.618 395.42 209.511 395.56 209.444 395.72C209.378 395.88 209.344 396.04 209.344 396.2C209.344 396.52 209.424 396.78 209.584 396.98C209.744 397.18 210.018 397.353 210.404 397.5ZM217.227 393.82H218.747V403.5H217.227V393.82ZM217.207 389.66H218.747V391.66H217.207V389.66ZM223.794 395.12V399.9C223.794 400.34 223.814 400.72 223.854 401.04C223.894 401.36 223.974 401.627 224.094 401.84C224.227 402.04 224.407 402.187 224.634 402.28C224.874 402.373 225.194 402.42 225.594 402.42C225.887 402.42 226.174 402.387 226.454 402.32C226.747 402.253 227.027 402.173 227.294 402.08L227.594 403.24C226.794 403.547 225.987 403.7 225.174 403.7C224.587 403.7 224.101 403.62 223.714 403.46C223.341 403.3 223.041 403.08 222.814 402.8C222.601 402.507 222.454 402.16 222.374 401.76C222.294 401.347 222.254 400.893 222.254 400.4V395.12H220.674V393.82H222.254V391.78L223.794 391.5V393.82H227.214V395.12H223.794ZM233.09 403.7C231.516 403.7 230.396 403.293 229.73 402.48C229.076 401.653 228.75 400.38 228.75 398.66C228.75 396.927 229.083 395.653 229.75 394.84C230.416 394.027 231.436 393.62 232.81 393.62C234.183 393.62 235.203 394.02 235.87 394.82C236.536 395.607 236.87 396.86 236.87 398.58V399.22H230.31C230.363 400.367 230.61 401.187 231.05 401.68C231.49 402.173 232.176 402.42 233.11 402.42C233.67 402.42 234.216 402.34 234.75 402.18C235.296 402.007 235.803 401.773 236.27 401.48L236.77 402.7C236.263 403.007 235.69 403.253 235.05 403.44C234.423 403.613 233.77 403.7 233.09 403.7ZM235.31 397.98C235.243 396.94 235.01 396.173 234.61 395.68C234.21 395.173 233.61 394.92 232.81 394.92C232.01 394.92 231.41 395.173 231.01 395.68C230.61 396.173 230.376 396.94 230.31 397.98H235.31ZM34.2862 429.18C34.2862 429.5 34.2263 429.8 34.1063 430.08C33.9863 430.36 33.8196 430.607 33.6063 430.82C33.4063 431.02 33.1663 431.18 32.8863 431.3C32.6196 431.407 32.3263 431.46 32.0063 431.46C31.6863 431.46 31.3863 431.407 31.1063 431.3C30.8263 431.18 30.5796 431.02 30.3663 430.82C30.1663 430.62 30.0063 430.38 29.8863 430.1C29.7663 429.82 29.7063 429.513 29.7063 429.18C29.7063 428.86 29.7663 428.56 29.8863 428.28C30.0063 428 30.1663 427.76 30.3663 427.56C30.5796 427.347 30.8263 427.187 31.1063 427.08C31.3863 426.96 31.6863 426.9 32.0063 426.9C32.3263 426.9 32.6196 426.96 32.8863 427.08C33.1663 427.187 33.4063 427.347 33.6063 427.56C33.8196 427.76 33.9863 428 34.1063 428.28C34.2263 428.56 34.2862 428.86 34.2862 429.18ZM50.16 430.28V435.5H48.62V422.06H53.14C56.1667 422.06 57.68 423.4 57.68 426.08C57.68 427.453 57.32 428.5 56.6 429.22C55.88 429.927 54.7933 430.28 53.34 430.28H50.16ZM50.16 423.38V428.98H53.38C54.2733 428.98 54.9533 428.74 55.42 428.26C55.9 427.767 56.14 427.04 56.14 426.08C56.14 425.2 55.9 424.533 55.42 424.08C54.9533 423.613 54.2733 423.38 53.38 423.38H50.16ZM66.103 434.54C65.6496 434.9 65.1496 435.187 64.603 435.4C64.0563 435.6 63.483 435.7 62.883 435.7C61.763 435.7 60.9563 435.433 60.463 434.9C59.9696 434.367 59.723 433.493 59.723 432.28V425.82H61.263V431.86C61.263 432.82 61.4163 433.487 61.723 433.86C62.043 434.233 62.5296 434.42 63.183 434.42C64.1163 434.42 65.043 434.08 65.963 433.4V425.82H67.503V435.5H66.343L66.103 434.54ZM74.0917 434.44C75.0117 434.44 75.6917 434.147 76.1317 433.56C76.5717 432.973 76.7917 432.007 76.7917 430.66C76.7917 429.327 76.5717 428.367 76.1317 427.78C75.6917 427.193 75.0117 426.9 74.0917 426.9C73.6251 426.9 73.1851 426.993 72.7717 427.18C72.3717 427.367 72.0251 427.62 71.7317 427.94V433.4C72.0251 433.72 72.3717 433.973 72.7717 434.16C73.1851 434.347 73.6251 434.44 74.0917 434.44ZM71.3317 435.5H70.1917V421.56L71.7317 421.38V426.6C72.0651 426.293 72.4651 426.053 72.9317 425.88C73.4117 425.707 73.9317 425.62 74.4917 425.62C75.7451 425.62 76.6917 426.033 77.3317 426.86C77.9851 427.673 78.3117 428.94 78.3117 430.66C78.3117 432.393 77.9784 433.667 77.3117 434.48C76.6451 435.293 75.6517 435.7 74.3317 435.7C73.7717 435.7 73.2584 435.613 72.7917 435.44C72.3384 435.253 71.9384 435 71.5917 434.68L71.3317 435.5ZM83.2409 435.64C83.1743 435.667 83.0809 435.68 82.9609 435.68C82.8409 435.693 82.7409 435.7 82.6609 435.7C81.9809 435.7 81.4876 435.5 81.1809 435.1C80.8876 434.687 80.7409 434.06 80.7409 433.22V421.62L82.2609 421.38V433C82.2609 433.307 82.2743 433.553 82.3009 433.74C82.3276 433.927 82.3743 434.073 82.4409 434.18C82.5209 434.287 82.6209 434.36 82.7409 434.4C82.8743 434.427 83.0409 434.44 83.2409 434.44V435.64ZM85.5047 425.82H87.0247V435.5H85.5047V425.82ZM85.4847 421.66H87.0247V423.66H85.4847V421.66ZM92.2513 429.5C92.5579 429.62 92.9379 429.753 93.3913 429.9C93.8579 430.047 94.3179 430.207 94.7713 430.38C96.0646 430.86 96.7113 431.72 96.7113 432.96C96.7113 433.84 96.4046 434.52 95.7913 435C95.1779 435.48 94.1913 435.72 92.8313 435.72C92.0713 435.72 91.4246 435.633 90.8913 435.46C90.3579 435.287 89.8779 435.08 89.4513 434.84L89.9513 433.64C90.3379 433.867 90.7779 434.06 91.2713 434.22C91.7646 434.38 92.2913 434.46 92.8513 434.46C93.7046 434.46 94.3046 434.347 94.6513 434.12C94.9979 433.88 95.1713 433.52 95.1713 433.04C95.1713 432.4 94.7913 431.927 94.0313 431.62C93.6046 431.447 93.1579 431.287 92.6913 431.14C92.2379 430.993 91.8046 430.847 91.3913 430.7C90.8579 430.513 90.4313 430.227 90.1113 429.84C89.8046 429.44 89.6513 428.92 89.6513 428.28C89.6513 427.507 89.9513 426.867 90.5513 426.36C91.1646 425.853 92.0779 425.6 93.2913 425.6C93.9313 425.6 94.5046 425.667 95.0113 425.8C95.5179 425.92 95.9446 426.067 96.2913 426.24L95.8313 427.4C95.4446 427.213 95.0579 427.08 94.6713 427C94.2846 426.907 93.8113 426.86 93.2513 426.86C92.8513 426.86 92.5179 426.9 92.2513 426.98C91.9846 427.06 91.7713 427.167 91.6113 427.3C91.4646 427.42 91.3579 427.56 91.2913 427.72C91.2246 427.88 91.1913 428.04 91.1913 428.2C91.1913 428.52 91.2713 428.78 91.4313 428.98C91.5913 429.18 91.8646 429.353 92.2513 429.5ZM100.374 426.7C101.294 425.98 102.328 425.62 103.474 425.62C104.594 425.62 105.394 425.887 105.874 426.42C106.368 426.94 106.614 427.82 106.614 429.06V435.5H105.094V429.48C105.094 428.52 104.934 427.853 104.614 427.48C104.308 427.107 103.828 426.92 103.174 426.92C102.241 426.92 101.308 427.26 100.374 427.94V435.5H98.8542V421.58L100.374 421.38V426.7ZM109.404 425.82H110.924V435.5H109.404V425.82ZM109.384 421.66H110.924V423.66H109.384V421.66ZM115.21 426.8C115.664 426.44 116.164 426.153 116.71 425.94C117.257 425.727 117.83 425.62 118.43 425.62C119.55 425.62 120.35 425.893 120.83 426.44C121.324 426.973 121.57 427.847 121.57 429.06V435.5H120.05V429.48C120.05 428.52 119.89 427.853 119.57 427.48C119.264 427.107 118.784 426.92 118.13 426.92C117.197 426.92 116.264 427.26 115.33 427.94V435.5H113.81V425.82H114.95L115.21 426.8ZM131.8 425.82V435.62C131.8 437.1 131.44 438.173 130.72 438.84C130.013 439.52 128.953 439.86 127.54 439.86C126.98 439.86 126.447 439.813 125.94 439.72C125.433 439.64 124.987 439.527 124.6 439.38L124.92 438.12C125.68 438.413 126.547 438.56 127.52 438.56C128.48 438.56 129.173 438.34 129.6 437.9C130.04 437.46 130.26 436.74 130.26 435.74V434.74C129.927 435.047 129.52 435.287 129.04 435.46C128.573 435.62 128.06 435.7 127.5 435.7C126.247 435.7 125.293 435.293 124.64 434.48C124 433.667 123.68 432.393 123.68 430.66C123.68 428.94 124.013 427.673 124.68 426.86C125.347 426.033 126.34 425.62 127.66 425.62C128.22 425.62 128.733 425.713 129.2 425.9C129.667 426.087 130.073 426.34 130.42 426.66L130.66 425.82H131.8ZM127.9 426.9C126.98 426.9 126.3 427.193 125.86 427.78C125.433 428.367 125.22 429.327 125.22 430.66C125.22 432.007 125.433 432.973 125.86 433.56C126.3 434.147 126.98 434.44 127.9 434.44C128.367 434.44 128.8 434.347 129.2 434.16C129.613 433.973 129.967 433.72 130.26 433.4V427.94C129.967 427.62 129.613 427.367 129.2 427.18C128.8 426.993 128.367 426.9 127.9 426.9ZM147.035 435.5H145.895L145.655 434.6C145.255 434.947 144.782 435.22 144.235 435.42C143.702 435.607 143.115 435.7 142.475 435.7C141.475 435.7 140.722 435.447 140.215 434.94C139.722 434.42 139.475 433.68 139.475 432.72C139.475 431.733 139.782 431.007 140.395 430.54C141.008 430.06 142.035 429.82 143.475 429.82C143.902 429.82 144.275 429.827 144.595 429.84C144.928 429.853 145.235 429.88 145.515 429.92V429.38C145.515 428.487 145.342 427.853 144.995 427.48C144.648 427.093 144.035 426.9 143.155 426.9C142.742 426.9 142.288 426.973 141.795 427.12C141.315 427.253 140.828 427.453 140.335 427.72L139.875 426.56C140.408 426.267 140.975 426.04 141.575 425.88C142.175 425.707 142.795 425.62 143.435 425.62C144.115 425.62 144.682 425.687 145.135 425.82C145.602 425.953 145.975 426.173 146.255 426.48C146.535 426.773 146.735 427.153 146.855 427.62C146.975 428.087 147.035 428.66 147.035 429.34V435.5ZM142.895 434.44C143.335 434.44 143.788 434.347 144.255 434.16C144.735 433.96 145.155 433.7 145.515 433.38V431.16C145.168 431.12 144.822 431.093 144.475 431.08C144.128 431.053 143.742 431.04 143.315 431.04C142.475 431.04 141.875 431.167 141.515 431.42C141.168 431.673 140.995 432.1 140.995 432.7C140.995 433.273 141.142 433.707 141.435 434C141.728 434.293 142.215 434.44 142.895 434.44ZM155.107 435.5V421.58L156.647 421.38V429.6H157.587L161.207 425.82H163.067L158.807 430.26L163.187 435.5H161.327L157.567 430.9H156.647V435.5H155.107ZM168.087 435.7C166.513 435.7 165.393 435.293 164.727 434.48C164.073 433.653 163.747 432.38 163.747 430.66C163.747 428.927 164.08 427.653 164.747 426.84C165.413 426.027 166.433 425.62 167.807 425.62C169.18 425.62 170.2 426.02 170.867 426.82C171.533 427.607 171.867 428.86 171.867 430.58V431.22H165.307C165.36 432.367 165.607 433.187 166.047 433.68C166.487 434.173 167.173 434.42 168.107 434.42C168.667 434.42 169.213 434.34 169.747 434.18C170.293 434.007 170.8 433.773 171.267 433.48L171.767 434.7C171.26 435.007 170.687 435.253 170.047 435.44C169.42 435.613 168.767 435.7 168.087 435.7ZM170.307 429.98C170.24 428.94 170.007 428.173 169.607 427.68C169.207 427.173 168.607 426.92 167.807 426.92C167.007 426.92 166.407 427.173 166.007 427.68C165.607 428.173 165.373 428.94 165.307 429.98H170.307ZM173.027 425.82H174.627L177.427 433.4H177.487L180.107 425.82H181.687L177.767 436.74C177.567 437.327 177.347 437.813 177.107 438.2C176.867 438.6 176.593 438.92 176.287 439.16C175.993 439.413 175.653 439.593 175.267 439.7C174.893 439.807 174.46 439.86 173.967 439.86C173.593 439.86 173.3 439.82 173.087 439.74L173.307 438.48C173.52 438.533 173.78 438.56 174.087 438.56C174.367 438.56 174.613 438.513 174.827 438.42C175.053 438.327 175.247 438.207 175.407 438.06C175.58 437.913 175.727 437.747 175.847 437.56C175.967 437.373 176.067 437.18 176.147 436.98L176.747 435.38L173.027 425.82ZM190.13 426.72C190.597 426.373 191.077 426.107 191.57 425.92C192.064 425.72 192.59 425.62 193.15 425.62C193.83 425.62 194.37 425.72 194.77 425.92C195.184 426.12 195.49 426.453 195.69 426.92C196.157 426.533 196.664 426.22 197.21 425.98C197.77 425.74 198.35 425.62 198.95 425.62C199.51 425.62 199.977 425.687 200.35 425.82C200.724 425.94 201.024 426.14 201.25 426.42C201.49 426.7 201.657 427.06 201.75 427.5C201.844 427.927 201.89 428.447 201.89 429.06V435.5H200.37V429.48C200.37 428.52 200.237 427.853 199.97 427.48C199.717 427.107 199.284 426.92 198.67 426.92C197.79 426.92 196.904 427.28 196.01 428C196.05 428.307 196.07 428.66 196.07 429.06V435.5H194.55V429.48C194.55 428.533 194.43 427.873 194.19 427.5C193.95 427.113 193.504 426.92 192.85 426.92C192.41 426.92 191.984 427.007 191.57 427.18C191.157 427.34 190.724 427.593 190.27 427.94V435.5H188.75V425.82H189.89L190.13 426.72ZM208.331 435.7C206.758 435.7 205.638 435.293 204.971 434.48C204.318 433.653 203.991 432.38 203.991 430.66C203.991 428.927 204.324 427.653 204.991 426.84C205.658 426.027 206.678 425.62 208.051 425.62C209.424 425.62 210.444 426.02 211.111 426.82C211.778 427.607 212.111 428.86 212.111 430.58V431.22H205.551C205.604 432.367 205.851 433.187 206.291 433.68C206.731 434.173 207.418 434.42 208.351 434.42C208.911 434.42 209.458 434.34 209.991 434.18C210.538 434.007 211.044 433.773 211.511 433.48L212.011 434.7C211.504 435.007 210.931 435.253 210.291 435.44C209.664 435.613 209.011 435.7 208.331 435.7ZM210.551 429.98C210.484 428.94 210.251 428.173 209.851 427.68C209.451 427.173 208.851 426.92 208.051 426.92C207.251 426.92 206.651 427.173 206.251 427.68C205.851 428.173 205.618 428.94 205.551 429.98H210.551ZM216.691 429.5C216.998 429.62 217.378 429.753 217.831 429.9C218.298 430.047 218.758 430.207 219.211 430.38C220.504 430.86 221.151 431.72 221.151 432.96C221.151 433.84 220.844 434.52 220.231 435C219.618 435.48 218.631 435.72 217.271 435.72C216.511 435.72 215.864 435.633 215.331 435.46C214.798 435.287 214.318 435.08 213.891 434.84L214.391 433.64C214.778 433.867 215.218 434.06 215.711 434.22C216.204 434.38 216.731 434.46 217.291 434.46C218.144 434.46 218.744 434.347 219.091 434.12C219.438 433.88 219.611 433.52 219.611 433.04C219.611 432.4 219.231 431.927 218.471 431.62C218.044 431.447 217.598 431.287 217.131 431.14C216.678 430.993 216.244 430.847 215.831 430.7C215.298 430.513 214.871 430.227 214.551 429.84C214.244 429.44 214.091 428.92 214.091 428.28C214.091 427.507 214.391 426.867 214.991 426.36C215.604 425.853 216.518 425.6 217.731 425.6C218.371 425.6 218.944 425.667 219.451 425.8C219.958 425.92 220.384 426.067 220.731 426.24L220.271 427.4C219.884 427.213 219.498 427.08 219.111 427C218.724 426.907 218.251 426.86 217.691 426.86C217.291 426.86 216.958 426.9 216.691 426.98C216.424 427.06 216.211 427.167 216.051 427.3C215.904 427.42 215.798 427.56 215.731 427.72C215.664 427.88 215.631 428.04 215.631 428.2C215.631 428.52 215.711 428.78 215.871 428.98C216.031 429.18 216.304 429.353 216.691 429.5ZM225.634 429.5C225.941 429.62 226.321 429.753 226.774 429.9C227.241 430.047 227.701 430.207 228.154 430.38C229.447 430.86 230.094 431.72 230.094 432.96C230.094 433.84 229.787 434.52 229.174 435C228.561 435.48 227.574 435.72 226.214 435.72C225.454 435.72 224.807 435.633 224.274 435.46C223.741 435.287 223.261 435.08 222.834 434.84L223.334 433.64C223.721 433.867 224.161 434.06 224.654 434.22C225.147 434.38 225.674 434.46 226.234 434.46C227.087 434.46 227.687 434.347 228.034 434.12C228.381 433.88 228.554 433.52 228.554 433.04C228.554 432.4 228.174 431.927 227.414 431.62C226.987 431.447 226.541 431.287 226.074 431.14C225.621 430.993 225.187 430.847 224.774 430.7C224.241 430.513 223.814 430.227 223.494 429.84C223.187 429.44 223.034 428.92 223.034 428.28C223.034 427.507 223.334 426.867 223.934 426.36C224.547 425.853 225.461 425.6 226.674 425.6C227.314 425.6 227.887 425.667 228.394 425.8C228.901 425.92 229.327 426.067 229.674 426.24L229.214 427.4C228.827 427.213 228.441 427.08 228.054 427C227.667 426.907 227.194 426.86 226.634 426.86C226.234 426.86 225.901 426.9 225.634 426.98C225.367 427.06 225.154 427.167 224.994 427.3C224.847 427.42 224.741 427.56 224.674 427.72C224.607 427.88 224.574 428.04 224.574 428.2C224.574 428.52 224.654 428.78 224.814 428.98C224.974 429.18 225.247 429.353 225.634 429.5ZM239.277 435.5H238.137L237.897 434.6C237.497 434.947 237.024 435.22 236.477 435.42C235.944 435.607 235.357 435.7 234.717 435.7C233.717 435.7 232.964 435.447 232.457 434.94C231.964 434.42 231.717 433.68 231.717 432.72C231.717 431.733 232.024 431.007 232.637 430.54C233.25 430.06 234.277 429.82 235.717 429.82C236.144 429.82 236.517 429.827 236.837 429.84C237.17 429.853 237.477 429.88 237.757 429.92V429.38C237.757 428.487 237.584 427.853 237.237 427.48C236.89 427.093 236.277 426.9 235.397 426.9C234.984 426.9 234.53 426.973 234.037 427.12C233.557 427.253 233.07 427.453 232.577 427.72L232.117 426.56C232.65 426.267 233.217 426.04 233.817 425.88C234.417 425.707 235.037 425.62 235.677 425.62C236.357 425.62 236.924 425.687 237.377 425.82C237.844 425.953 238.217 426.173 238.497 426.48C238.777 426.773 238.977 427.153 239.097 427.62C239.217 428.087 239.277 428.66 239.277 429.34V435.5ZM235.137 434.44C235.577 434.44 236.03 434.347 236.497 434.16C236.977 433.96 237.397 433.7 237.757 433.38V431.16C237.41 431.12 237.064 431.093 236.717 431.08C236.37 431.053 235.984 431.04 235.557 431.04C234.717 431.04 234.117 431.167 233.757 431.42C233.41 431.673 233.237 432.1 233.237 432.7C233.237 433.273 233.384 433.707 233.677 434C233.97 434.293 234.457 434.44 235.137 434.44ZM249.504 425.82V435.62C249.504 437.1 249.144 438.173 248.424 438.84C247.717 439.52 246.657 439.86 245.244 439.86C244.684 439.86 244.151 439.813 243.644 439.72C243.137 439.64 242.691 439.527 242.304 439.38L242.624 438.12C243.384 438.413 244.251 438.56 245.224 438.56C246.184 438.56 246.877 438.34 247.304 437.9C247.744 437.46 247.964 436.74 247.964 435.74V434.74C247.631 435.047 247.224 435.287 246.744 435.46C246.277 435.62 245.764 435.7 245.204 435.7C243.951 435.7 242.997 435.293 242.344 434.48C241.704 433.667 241.384 432.393 241.384 430.66C241.384 428.94 241.717 427.673 242.384 426.86C243.051 426.033 244.044 425.62 245.364 425.62C245.924 425.62 246.437 425.713 246.904 425.9C247.371 426.087 247.777 426.34 248.124 426.66L248.364 425.82H249.504ZM245.604 426.9C244.684 426.9 244.004 427.193 243.564 427.78C243.137 428.367 242.924 429.327 242.924 430.66C242.924 432.007 243.137 432.973 243.564 433.56C244.004 434.147 244.684 434.44 245.604 434.44C246.071 434.44 246.504 434.347 246.904 434.16C247.317 433.973 247.671 433.72 247.964 433.4V427.94C247.671 427.62 247.317 427.367 246.904 427.18C246.504 426.993 246.071 426.9 245.604 426.9ZM256.073 435.7C254.5 435.7 253.38 435.293 252.713 434.48C252.06 433.653 251.733 432.38 251.733 430.66C251.733 428.927 252.067 427.653 252.733 426.84C253.4 426.027 254.42 425.62 255.793 425.62C257.167 425.62 258.187 426.02 258.853 426.82C259.52 427.607 259.853 428.86 259.853 430.58V431.22H253.293C253.347 432.367 253.593 433.187 254.033 433.68C254.473 434.173 255.16 434.42 256.093 434.42C256.653 434.42 257.2 434.34 257.733 434.18C258.28 434.007 258.787 433.773 259.253 433.48L259.753 434.7C259.247 435.007 258.673 435.253 258.033 435.44C257.407 435.613 256.753 435.7 256.073 435.7ZM258.293 429.98C258.227 428.94 257.993 428.173 257.593 427.68C257.193 427.173 256.593 426.92 255.793 426.92C254.993 426.92 254.393 427.173 253.993 427.68C253.593 428.173 253.36 428.94 253.293 429.98H258.293ZM273.499 425.82L275.039 431.28L275.679 433.68H275.719L276.219 431.28L277.479 425.82H278.999L276.439 435.5H274.959L273.799 431.28L272.819 427.74H272.779L271.819 431.28L270.639 435.5H269.179L266.599 425.82H268.139L269.379 431.28L269.899 433.68H269.939L270.559 431.28L272.099 425.82H273.499ZM280.203 430.66C280.203 428.927 280.549 427.653 281.243 426.84C281.949 426.027 283.069 425.62 284.603 425.62C286.123 425.62 287.229 426.027 287.923 426.84C288.629 427.653 288.983 428.927 288.983 430.66C288.983 432.393 288.629 433.667 287.923 434.48C287.216 435.293 286.109 435.7 284.603 435.7C283.083 435.7 281.969 435.293 281.263 434.48C280.556 433.667 280.203 432.393 280.203 430.66ZM281.743 430.66C281.743 431.98 281.969 432.94 282.423 433.54C282.876 434.127 283.603 434.42 284.603 434.42C285.603 434.42 286.329 434.127 286.783 433.54C287.236 432.94 287.463 431.98 287.463 430.66C287.463 429.367 287.236 428.42 286.783 427.82C286.329 427.22 285.603 426.92 284.603 426.92C283.603 426.92 282.876 427.22 282.423 427.82C281.969 428.42 281.743 429.367 281.743 430.66ZM292.367 425.82L292.547 427.1C292.987 426.62 293.481 426.253 294.027 426C294.574 425.747 295.127 425.62 295.687 425.62C295.914 425.62 296.107 425.64 296.267 425.68C296.441 425.707 296.621 425.753 296.807 425.82V427.18C296.407 427.02 295.987 426.94 295.547 426.94C295.041 426.94 294.534 427.08 294.027 427.36C293.521 427.64 293.087 427.993 292.727 428.42V435.5H291.207V425.82H292.367ZM300.885 427.12V431.9C300.885 432.34 300.905 432.72 300.945 433.04C300.985 433.36 301.065 433.627 301.185 433.84C301.318 434.04 301.498 434.187 301.725 434.28C301.965 434.373 302.285 434.42 302.685 434.42C302.978 434.42 303.265 434.387 303.545 434.32C303.838 434.253 304.118 434.173 304.385 434.08L304.685 435.24C303.885 435.547 303.078 435.7 302.265 435.7C301.678 435.7 301.191 435.62 300.805 435.46C300.431 435.3 300.131 435.08 299.905 434.8C299.691 434.507 299.545 434.16 299.465 433.76C299.385 433.347 299.345 432.893 299.345 432.4V427.12H297.765V425.82H299.345V423.78L300.885 423.5V425.82H304.305V427.12H300.885ZM307.938 426.7C308.858 425.98 309.891 425.62 311.038 425.62C312.158 425.62 312.958 425.887 313.438 426.42C313.931 426.94 314.178 427.82 314.178 429.06V435.5H312.658V429.48C312.658 428.52 312.498 427.853 312.178 427.48C311.871 427.107 311.391 426.92 310.738 426.92C309.804 426.92 308.871 427.26 307.938 427.94V435.5H306.418V421.58L307.938 421.38V426.7ZM52.52 466.42C53.4533 466.42 54.2867 466.187 55.02 465.72L55.46 466.94C55.0733 467.167 54.6267 467.353 54.12 467.5C53.6267 467.633 53.0933 467.7 52.52 467.7C50.9333 467.7 49.7733 467.307 49.04 466.52C48.3067 465.72 47.94 464.433 47.94 462.66C47.94 460.927 48.2933 459.653 49 458.84C49.7067 458.027 50.8133 457.62 52.32 457.62C53.6133 457.62 54.6733 458.013 55.5 458.8L54.66 459.84C54.3667 459.547 54.02 459.32 53.62 459.16C53.2333 458.987 52.8133 458.9 52.36 458.9C51.4 458.9 50.6733 459.193 50.18 459.78C49.7 460.353 49.46 461.313 49.46 462.66C49.46 464.007 49.7133 464.973 50.22 465.56C50.7267 466.133 51.4933 466.42 52.52 466.42ZM64.2263 467.5H63.0863L62.8463 466.6C62.4463 466.947 61.9729 467.22 61.4263 467.42C60.8929 467.607 60.3063 467.7 59.6663 467.7C58.6663 467.7 57.9129 467.447 57.4063 466.94C56.9129 466.42 56.6663 465.68 56.6663 464.72C56.6663 463.733 56.9729 463.007 57.5863 462.54C58.1996 462.06 59.2263 461.82 60.6663 461.82C61.0929 461.82 61.4663 461.827 61.7863 461.84C62.1196 461.853 62.4263 461.88 62.7063 461.92V461.38C62.7063 460.487 62.5329 459.853 62.1863 459.48C61.8396 459.093 61.2263 458.9 60.3463 458.9C59.9329 458.9 59.4796 458.973 58.9863 459.12C58.5063 459.253 58.0196 459.453 57.5263 459.72L57.0663 458.56C57.5996 458.267 58.1663 458.04 58.7663 457.88C59.3663 457.707 59.9863 457.62 60.6263 457.62C61.3063 457.62 61.8729 457.687 62.3263 457.82C62.7929 457.953 63.1663 458.173 63.4463 458.48C63.7263 458.773 63.9263 459.153 64.0463 459.62C64.1663 460.087 64.2263 460.66 64.2263 461.34V467.5ZM60.0863 466.44C60.5263 466.44 60.9796 466.347 61.4463 466.16C61.9263 465.96 62.3463 465.7 62.7063 465.38V463.16C62.3596 463.12 62.0129 463.093 61.6663 463.08C61.3196 463.053 60.9329 463.04 60.5063 463.04C59.6663 463.04 59.0663 463.167 58.7063 463.42C58.3596 463.673 58.1863 464.1 58.1863 464.7C58.1863 465.273 58.3329 465.707 58.6263 466C58.9196 466.293 59.4063 466.44 60.0863 466.44ZM67.9333 457.82L68.1933 458.66C68.5399 458.34 68.9399 458.087 69.3933 457.9C69.8599 457.713 70.3733 457.62 70.9333 457.62C72.2533 457.62 73.2466 458.033 73.9133 458.86C74.5799 459.673 74.9133 460.94 74.9133 462.66C74.9133 464.393 74.5866 465.667 73.9333 466.48C73.2933 467.293 72.3466 467.7 71.0933 467.7C70.5599 467.7 70.0466 467.62 69.5533 467.46C69.0599 467.287 68.6533 467.047 68.3333 466.74V471.66H66.7933V457.82H67.9333ZM70.6933 458.9C70.2266 458.9 69.7866 458.993 69.3733 459.18C68.9733 459.367 68.6266 459.62 68.3333 459.94V465.4C68.6266 465.72 68.9733 465.973 69.3733 466.16C69.7866 466.347 70.2266 466.44 70.6933 466.44C71.6133 466.44 72.2933 466.147 72.7333 465.56C73.1733 464.973 73.3933 464.007 73.3933 462.66C73.3933 461.327 73.1733 460.367 72.7333 459.78C72.2933 459.193 71.6133 458.9 70.6933 458.9ZM79.0681 459.12V463.9C79.0681 464.34 79.0881 464.72 79.1281 465.04C79.1681 465.36 79.2481 465.627 79.3681 465.84C79.5015 466.04 79.6815 466.187 79.9081 466.28C80.1481 466.373 80.4681 466.42 80.8681 466.42C81.1615 466.42 81.4481 466.387 81.7281 466.32C82.0215 466.253 82.3015 466.173 82.5681 466.08L82.8681 467.24C82.0681 467.547 81.2615 467.7 80.4481 467.7C79.8615 467.7 79.3748 467.62 78.9881 467.46C78.6148 467.3 78.3148 467.08 78.0881 466.8C77.8748 466.507 77.7281 466.16 77.6481 465.76C77.5681 465.347 77.5281 464.893 77.5281 464.4V459.12H75.9481V457.82H77.5281V455.78L79.0681 455.5V457.82H82.4881V459.12H79.0681ZM90.8811 466.54C90.4278 466.9 89.9278 467.187 89.3811 467.4C88.8344 467.6 88.2611 467.7 87.6611 467.7C86.5411 467.7 85.7344 467.433 85.2411 466.9C84.7478 466.367 84.5011 465.493 84.5011 464.28V457.82H86.0411V463.86C86.0411 464.82 86.1944 465.487 86.5011 465.86C86.8211 466.233 87.3078 466.42 87.9611 466.42C88.8944 466.42 89.8211 466.08 90.7411 465.4V457.82H92.2811V467.5H91.1211L90.8811 466.54ZM96.1298 457.82L96.3098 459.1C96.7498 458.62 97.2432 458.253 97.7898 458C98.3365 457.747 98.8898 457.62 99.4498 457.62C99.6765 457.62 99.8698 457.64 100.03 457.68C100.203 457.707 100.383 457.753 100.57 457.82V459.18C100.17 459.02 99.7498 458.94 99.3098 458.94C98.8032 458.94 98.2965 459.08 97.7898 459.36C97.2832 459.64 96.8498 459.993 96.4898 460.42V467.5H94.9698V457.82H96.1298ZM105.683 467.7C104.11 467.7 102.99 467.293 102.323 466.48C101.67 465.653 101.343 464.38 101.343 462.66C101.343 460.927 101.677 459.653 102.343 458.84C103.01 458.027 104.03 457.62 105.403 457.62C106.777 457.62 107.797 458.02 108.463 458.82C109.13 459.607 109.463 460.86 109.463 462.58V463.22H102.903C102.957 464.367 103.203 465.187 103.643 465.68C104.083 466.173 104.77 466.42 105.703 466.42C106.263 466.42 106.81 466.34 107.343 466.18C107.89 466.007 108.397 465.773 108.863 465.48L109.363 466.7C108.857 467.007 108.283 467.253 107.643 467.44C107.017 467.613 106.363 467.7 105.683 467.7ZM107.903 461.98C107.837 460.94 107.603 460.173 107.203 459.68C106.803 459.173 106.203 458.92 105.403 458.92C104.603 458.92 104.003 459.173 103.603 459.68C103.203 460.173 102.97 460.94 102.903 461.98H107.903ZM111.923 457.82H113.443V467.5H111.923V457.82ZM111.903 453.66H113.443V455.66H111.903V453.66ZM117.73 458.8C118.183 458.44 118.683 458.153 119.23 457.94C119.777 457.727 120.35 457.62 120.95 457.62C122.07 457.62 122.87 457.893 123.35 458.44C123.843 458.973 124.09 459.847 124.09 461.06V467.5H122.57V461.48C122.57 460.52 122.41 459.853 122.09 459.48C121.783 459.107 121.303 458.92 120.65 458.92C119.717 458.92 118.783 459.26 117.85 459.94V467.5H116.33V457.82H117.47L117.73 458.8ZM134.32 457.82V467.62C134.32 469.1 133.96 470.173 133.24 470.84C132.533 471.52 131.473 471.86 130.06 471.86C129.5 471.86 128.966 471.813 128.46 471.72C127.953 471.64 127.506 471.527 127.12 471.38L127.44 470.12C128.2 470.413 129.066 470.56 130.04 470.56C131 470.56 131.693 470.34 132.12 469.9C132.56 469.46 132.78 468.74 132.78 467.74V466.74C132.446 467.047 132.04 467.287 131.56 467.46C131.093 467.62 130.58 467.7 130.02 467.7C128.766 467.7 127.813 467.293 127.16 466.48C126.52 465.667 126.2 464.393 126.2 462.66C126.2 460.94 126.533 459.673 127.2 458.86C127.866 458.033 128.86 457.62 130.18 457.62C130.74 457.62 131.253 457.713 131.72 457.9C132.186 458.087 132.593 458.34 132.94 458.66L133.18 457.82H134.32ZM130.42 458.9C129.5 458.9 128.82 459.193 128.38 459.78C127.953 460.367 127.74 461.327 127.74 462.66C127.74 464.007 127.953 464.973 128.38 465.56C128.82 466.147 129.5 466.44 130.42 466.44C130.886 466.44 131.32 466.347 131.72 466.16C132.133 465.973 132.486 465.72 132.78 465.4V459.94C132.486 459.62 132.133 459.367 131.72 459.18C131.32 458.993 130.886 458.9 130.42 458.9ZM34.2862 493.18C34.2862 493.5 34.2263 493.8 34.1063 494.08C33.9863 494.36 33.8196 494.607 33.6063 494.82C33.4063 495.02 33.1663 495.18 32.8863 495.3C32.6196 495.407 32.3263 495.46 32.0063 495.46C31.6863 495.46 31.3863 495.407 31.1063 495.3C30.8263 495.18 30.5796 495.02 30.3663 494.82C30.1663 494.62 30.0063 494.38 29.8863 494.1C29.7663 493.82 29.7063 493.513 29.7063 493.18C29.7063 492.86 29.7663 492.56 29.8863 492.28C30.0063 492 30.1663 491.76 30.3663 491.56C30.5796 491.347 30.8263 491.187 31.1063 491.08C31.3863 490.96 31.6863 490.9 32.0063 490.9C32.3263 490.9 32.6196 490.96 32.8863 491.08C33.1663 491.187 33.4063 491.347 33.6063 491.56C33.8196 491.76 33.9863 492 34.1063 492.28C34.2263 492.56 34.2862 492.86 34.2862 493.18ZM48.82 486.06H50.36V499.5H48.82V486.06ZM54.8753 490.8C55.3286 490.44 55.8286 490.153 56.3753 489.94C56.922 489.727 57.4953 489.62 58.0953 489.62C59.2153 489.62 60.0153 489.893 60.4953 490.44C60.9886 490.973 61.2353 491.847 61.2353 493.06V499.5H59.7153V493.48C59.7153 492.52 59.5553 491.853 59.2353 491.48C58.9286 491.107 58.4486 490.92 57.7953 490.92C56.862 490.92 55.9286 491.26 54.9953 491.94V499.5H53.4753V489.82H54.6153L54.8753 490.8ZM65.965 491.12V495.9C65.965 496.34 65.985 496.72 66.025 497.04C66.065 497.36 66.145 497.627 66.265 497.84C66.3983 498.04 66.5783 498.187 66.805 498.28C67.045 498.373 67.365 498.42 67.765 498.42C68.0583 498.42 68.345 498.387 68.625 498.32C68.9183 498.253 69.1983 498.173 69.465 498.08L69.765 499.24C68.965 499.547 68.1583 499.7 67.345 499.7C66.7583 499.7 66.2717 499.62 65.885 499.46C65.5117 499.3 65.2117 499.08 64.985 498.8C64.7717 498.507 64.625 498.16 64.545 497.76C64.465 497.347 64.425 496.893 64.425 496.4V491.12H62.845V489.82H64.425V487.78L65.965 487.5V489.82H69.385V491.12H65.965ZM72.658 489.82L72.838 491.1C73.278 490.62 73.7713 490.253 74.318 490C74.8646 489.747 75.418 489.62 75.978 489.62C76.2046 489.62 76.398 489.64 76.558 489.68C76.7313 489.707 76.9113 489.753 77.098 489.82V491.18C76.698 491.02 76.278 490.94 75.838 490.94C75.3313 490.94 74.8246 491.08 74.318 491.36C73.8113 491.64 73.378 491.993 73.018 492.42V499.5H71.498V489.82H72.658ZM77.8716 494.66C77.8716 492.927 78.2182 491.653 78.9116 490.84C79.6182 490.027 80.7382 489.62 82.2716 489.62C83.7916 489.62 84.8982 490.027 85.5916 490.84C86.2982 491.653 86.6516 492.927 86.6516 494.66C86.6516 496.393 86.2982 497.667 85.5916 498.48C84.8849 499.293 83.7782 499.7 82.2716 499.7C80.7516 499.7 79.6382 499.293 78.9316 498.48C78.2249 497.667 77.8716 496.393 77.8716 494.66ZM79.4116 494.66C79.4116 495.98 79.6382 496.94 80.0916 497.54C80.5449 498.127 81.2716 498.42 82.2716 498.42C83.2716 498.42 83.9982 498.127 84.4516 497.54C84.9049 496.94 85.1316 495.98 85.1316 494.66C85.1316 493.367 84.9049 492.42 84.4516 491.82C83.9982 491.22 83.2716 490.92 82.2716 490.92C81.2716 490.92 80.5449 491.22 80.0916 491.82C79.6382 492.42 79.4116 493.367 79.4116 494.66ZM96.5361 485.38V499.5H95.3961L95.1561 498.68C94.8094 499 94.4028 499.253 93.9361 499.44C93.4694 499.613 92.9561 499.7 92.3961 499.7C91.0761 499.7 90.0828 499.293 89.4161 498.48C88.7494 497.667 88.4161 496.393 88.4161 494.66C88.4161 492.94 88.7361 491.673 89.3761 490.86C90.0294 490.033 90.9828 489.62 92.2361 489.62C92.7961 489.62 93.3094 489.707 93.7761 489.88C94.2561 490.053 94.6628 490.293 94.9961 490.6V485.58L96.5361 485.38ZM92.6361 498.44C93.1028 498.44 93.5361 498.347 93.9361 498.16C94.3494 497.973 94.7028 497.72 94.9961 497.4V491.94C94.7028 491.62 94.3494 491.367 93.9361 491.18C93.5361 490.993 93.1028 490.9 92.6361 490.9C91.7161 490.9 91.0361 491.193 90.5961 491.78C90.1694 492.367 89.9561 493.327 89.9561 494.66C89.9561 496.007 90.1694 496.973 90.5961 497.56C91.0361 498.147 91.7161 498.44 92.6361 498.44ZM105.505 498.54C105.052 498.9 104.552 499.187 104.005 499.4C103.459 499.6 102.885 499.7 102.285 499.7C101.165 499.7 100.359 499.433 99.8653 498.9C99.372 498.367 99.1253 497.493 99.1253 496.28V489.82H100.665V495.86C100.665 496.82 100.819 497.487 101.125 497.86C101.445 498.233 101.932 498.42 102.585 498.42C103.519 498.42 104.445 498.08 105.365 497.4V489.82H106.905V499.5H105.745L105.505 498.54ZM113.734 498.42C114.667 498.42 115.501 498.187 116.234 497.72L116.674 498.94C116.287 499.167 115.841 499.353 115.334 499.5C114.841 499.633 114.307 499.7 113.734 499.7C112.147 499.7 110.987 499.307 110.254 498.52C109.521 497.72 109.154 496.433 109.154 494.66C109.154 492.927 109.507 491.653 110.214 490.84C110.921 490.027 112.027 489.62 113.534 489.62C114.827 489.62 115.887 490.013 116.714 490.8L115.874 491.84C115.581 491.547 115.234 491.32 114.834 491.16C114.447 490.987 114.027 490.9 113.574 490.9C112.614 490.9 111.887 491.193 111.394 491.78C110.914 492.353 110.674 493.313 110.674 494.66C110.674 496.007 110.927 496.973 111.434 497.56C111.941 498.133 112.707 498.42 113.734 498.42ZM118.855 489.82H120.375V499.5H118.855V489.82ZM118.835 485.66H120.375V487.66H118.835V485.66ZM124.661 490.8C125.115 490.44 125.615 490.153 126.161 489.94C126.708 489.727 127.281 489.62 127.881 489.62C129.001 489.62 129.801 489.893 130.281 490.44C130.775 490.973 131.021 491.847 131.021 493.06V499.5H129.501V493.48C129.501 492.52 129.341 491.853 129.021 491.48C128.715 491.107 128.235 490.92 127.581 490.92C126.648 490.92 125.715 491.26 124.781 491.94V499.5H123.261V489.82H124.401L124.661 490.8ZM141.251 489.82V499.62C141.251 501.1 140.891 502.173 140.171 502.84C139.464 503.52 138.404 503.86 136.991 503.86C136.431 503.86 135.898 503.813 135.391 503.72C134.884 503.64 134.438 503.527 134.051 503.38L134.371 502.12C135.131 502.413 135.998 502.56 136.971 502.56C137.931 502.56 138.624 502.34 139.051 501.9C139.491 501.46 139.711 500.74 139.711 499.74V498.74C139.378 499.047 138.971 499.287 138.491 499.46C138.024 499.62 137.511 499.7 136.951 499.7C135.698 499.7 134.744 499.293 134.091 498.48C133.451 497.667 133.131 496.393 133.131 494.66C133.131 492.94 133.464 491.673 134.131 490.86C134.798 490.033 135.791 489.62 137.111 489.62C137.671 489.62 138.184 489.713 138.651 489.9C139.118 490.087 139.524 490.34 139.871 490.66L140.111 489.82H141.251ZM137.351 490.9C136.431 490.9 135.751 491.193 135.311 491.78C134.884 492.367 134.671 493.327 134.671 494.66C134.671 496.007 134.884 496.973 135.311 497.56C135.751 498.147 136.431 498.44 137.351 498.44C137.818 498.44 138.251 498.347 138.651 498.16C139.064 497.973 139.418 497.72 139.711 497.4V491.94C139.418 491.62 139.064 491.367 138.651 491.18C138.251 490.993 137.818 490.9 137.351 490.9ZM156.486 499.5H155.346L155.106 498.6C154.706 498.947 154.232 499.22 153.686 499.42C153.152 499.607 152.566 499.7 151.926 499.7C150.926 499.7 150.172 499.447 149.666 498.94C149.172 498.42 148.926 497.68 148.926 496.72C148.926 495.733 149.232 495.007 149.846 494.54C150.459 494.06 151.486 493.82 152.926 493.82C153.352 493.82 153.726 493.827 154.046 493.84C154.379 493.853 154.686 493.88 154.966 493.92V493.38C154.966 492.487 154.792 491.853 154.446 491.48C154.099 491.093 153.486 490.9 152.606 490.9C152.192 490.9 151.739 490.973 151.246 491.12C150.766 491.253 150.279 491.453 149.786 491.72L149.326 490.56C149.859 490.267 150.426 490.04 151.026 489.88C151.626 489.707 152.246 489.62 152.886 489.62C153.566 489.62 154.132 489.687 154.586 489.82C155.052 489.953 155.426 490.173 155.706 490.48C155.986 490.773 156.186 491.153 156.306 491.62C156.426 492.087 156.486 492.66 156.486 493.34V499.5ZM152.346 498.44C152.786 498.44 153.239 498.347 153.706 498.16C154.186 497.96 154.606 497.7 154.966 497.38V495.16C154.619 495.12 154.272 495.093 153.926 495.08C153.579 495.053 153.192 495.04 152.766 495.04C151.926 495.04 151.326 495.167 150.966 495.42C150.619 495.673 150.446 496.1 150.446 496.7C150.446 497.273 150.592 497.707 150.886 498C151.179 498.293 151.666 498.44 152.346 498.44ZM167.878 497.74L168.918 494.62L170.618 489.82H172.238L168.598 499.5H167.138L163.478 489.82H165.098L166.798 494.62L167.838 497.74H167.878ZM174.053 489.82H175.573V499.5H174.053V489.82ZM174.033 485.66H175.573V487.66H174.033V485.66ZM180.8 493.5C181.106 493.62 181.486 493.753 181.94 493.9C182.406 494.047 182.866 494.207 183.32 494.38C184.613 494.86 185.26 495.72 185.26 496.96C185.26 497.84 184.953 498.52 184.34 499C183.726 499.48 182.74 499.72 181.38 499.72C180.62 499.72 179.973 499.633 179.44 499.46C178.906 499.287 178.426 499.08 178 498.84L178.5 497.64C178.886 497.867 179.326 498.06 179.82 498.22C180.313 498.38 180.84 498.46 181.4 498.46C182.253 498.46 182.853 498.347 183.2 498.12C183.546 497.88 183.72 497.52 183.72 497.04C183.72 496.4 183.34 495.927 182.58 495.62C182.153 495.447 181.706 495.287 181.24 495.14C180.786 494.993 180.353 494.847 179.94 494.7C179.406 494.513 178.98 494.227 178.66 493.84C178.353 493.44 178.2 492.92 178.2 492.28C178.2 491.507 178.5 490.867 179.1 490.36C179.713 489.853 180.626 489.6 181.84 489.6C182.48 489.6 183.053 489.667 183.56 489.8C184.066 489.92 184.493 490.067 184.84 490.24L184.38 491.4C183.993 491.213 183.606 491.08 183.22 491C182.833 490.907 182.36 490.86 181.8 490.86C181.4 490.86 181.066 490.9 180.8 490.98C180.533 491.06 180.32 491.167 180.16 491.3C180.013 491.42 179.906 491.56 179.84 491.72C179.773 491.88 179.74 492.04 179.74 492.2C179.74 492.52 179.82 492.78 179.98 492.98C180.14 493.18 180.413 493.353 180.8 493.5ZM187.623 489.82H189.143V499.5H187.623V489.82ZM187.603 485.66H189.143V487.66H187.603V485.66ZM191.569 494.66C191.569 492.927 191.916 491.653 192.609 490.84C193.316 490.027 194.436 489.62 195.969 489.62C197.489 489.62 198.596 490.027 199.289 490.84C199.996 491.653 200.349 492.927 200.349 494.66C200.349 496.393 199.996 497.667 199.289 498.48C198.583 499.293 197.476 499.7 195.969 499.7C194.449 499.7 193.336 499.293 192.629 498.48C191.923 497.667 191.569 496.393 191.569 494.66ZM193.109 494.66C193.109 495.98 193.336 496.94 193.789 497.54C194.243 498.127 194.969 498.42 195.969 498.42C196.969 498.42 197.696 498.127 198.149 497.54C198.603 496.94 198.829 495.98 198.829 494.66C198.829 493.367 198.603 492.42 198.149 491.82C197.696 491.22 196.969 490.92 195.969 490.92C194.969 490.92 194.243 491.22 193.789 491.82C193.336 492.42 193.109 493.367 193.109 494.66ZM203.974 490.8C204.427 490.44 204.927 490.153 205.474 489.94C206.02 489.727 206.594 489.62 207.194 489.62C208.314 489.62 209.114 489.893 209.594 490.44C210.087 490.973 210.334 491.847 210.334 493.06V499.5H208.814V493.48C208.814 492.52 208.654 491.853 208.334 491.48C208.027 491.107 207.547 490.92 206.894 490.92C205.96 490.92 205.027 491.26 204.094 491.94V499.5H202.574V489.82H203.714L203.974 490.8ZM219.943 499.5H218.803L218.563 498.6C218.163 498.947 217.69 499.22 217.143 499.42C216.61 499.607 216.023 499.7 215.383 499.7C214.383 499.7 213.63 499.447 213.123 498.94C212.63 498.42 212.383 497.68 212.383 496.72C212.383 495.733 212.69 495.007 213.303 494.54C213.917 494.06 214.943 493.82 216.383 493.82C216.81 493.82 217.183 493.827 217.503 493.84C217.837 493.853 218.143 493.88 218.423 493.92V493.38C218.423 492.487 218.25 491.853 217.903 491.48C217.557 491.093 216.943 490.9 216.063 490.9C215.65 490.9 215.197 490.973 214.703 491.12C214.223 491.253 213.737 491.453 213.243 491.72L212.783 490.56C213.317 490.267 213.883 490.04 214.483 489.88C215.083 489.707 215.703 489.62 216.343 489.62C217.023 489.62 217.59 489.687 218.043 489.82C218.51 489.953 218.883 490.173 219.163 490.48C219.443 490.773 219.643 491.153 219.763 491.62C219.883 492.087 219.943 492.66 219.943 493.34V499.5ZM215.803 498.44C216.243 498.44 216.697 498.347 217.163 498.16C217.643 497.96 218.063 497.7 218.423 497.38V495.16C218.077 495.12 217.73 495.093 217.383 495.08C217.037 495.053 216.65 495.04 216.223 495.04C215.383 495.04 214.783 495.167 214.423 495.42C214.077 495.673 213.903 496.1 213.903 496.7C213.903 497.273 214.05 497.707 214.343 498C214.637 498.293 215.123 498.44 215.803 498.44ZM223.67 489.82L223.85 491.1C224.29 490.62 224.784 490.253 225.33 490C225.877 489.747 226.43 489.62 226.99 489.62C227.217 489.62 227.41 489.64 227.57 489.68C227.744 489.707 227.924 489.753 228.11 489.82V491.18C227.71 491.02 227.29 490.94 226.85 490.94C226.344 490.94 225.837 491.08 225.33 491.36C224.824 491.64 224.39 491.993 224.03 492.42V499.5H222.51V489.82H223.67ZM229.026 489.82H230.626L233.426 497.4H233.486L236.106 489.82H237.686L233.766 500.74C233.566 501.327 233.346 501.813 233.106 502.2C232.866 502.6 232.592 502.92 232.286 503.16C231.992 503.413 231.652 503.593 231.266 503.7C230.892 503.807 230.459 503.86 229.966 503.86C229.592 503.86 229.299 503.82 229.086 503.74L229.306 502.48C229.519 502.533 229.779 502.56 230.086 502.56C230.366 502.56 230.612 502.513 230.826 502.42C231.052 502.327 231.246 502.207 231.406 502.06C231.579 501.913 231.726 501.747 231.846 501.56C231.966 501.373 232.066 501.18 232.146 500.98L232.746 499.38L229.026 489.82ZM246.15 490.8C246.603 490.44 247.103 490.153 247.65 489.94C248.196 489.727 248.77 489.62 249.37 489.62C250.49 489.62 251.29 489.893 251.77 490.44C252.263 490.973 252.51 491.847 252.51 493.06V499.5H250.99V493.48C250.99 492.52 250.83 491.853 250.51 491.48C250.203 491.107 249.723 490.92 249.07 490.92C248.136 490.92 247.203 491.26 246.27 491.94V499.5H244.75V489.82H245.89L246.15 490.8ZM258.959 499.7C257.386 499.7 256.266 499.293 255.599 498.48C254.946 497.653 254.619 496.38 254.619 494.66C254.619 492.927 254.953 491.653 255.619 490.84C256.286 490.027 257.306 489.62 258.679 489.62C260.053 489.62 261.073 490.02 261.739 490.82C262.406 491.607 262.739 492.86 262.739 494.58V495.22H256.179C256.233 496.367 256.479 497.187 256.919 497.68C257.359 498.173 258.046 498.42 258.979 498.42C259.539 498.42 260.086 498.34 260.619 498.18C261.166 498.007 261.673 497.773 262.139 497.48L262.639 498.7C262.133 499.007 261.559 499.253 260.919 499.44C260.293 499.613 259.639 499.7 258.959 499.7ZM261.179 493.98C261.113 492.94 260.879 492.173 260.479 491.68C260.079 491.173 259.479 490.92 258.679 490.92C257.879 490.92 257.279 491.173 256.879 491.68C256.479 492.173 256.246 492.94 256.179 493.98H261.179ZM270.879 489.82L272.419 495.28L273.059 497.68H273.099L273.599 495.28L274.859 489.82H276.379L273.819 499.5H272.339L271.179 495.28L270.199 491.74H270.159L269.199 495.28L268.019 499.5H266.559L263.979 489.82H265.519L266.759 495.28L267.279 497.68H267.319L267.939 495.28L269.479 489.82H270.879ZM52.52 530.42C53.4533 530.42 54.2867 530.187 55.02 529.72L55.46 530.94C55.0733 531.167 54.6267 531.353 54.12 531.5C53.6267 531.633 53.0933 531.7 52.52 531.7C50.9333 531.7 49.7733 531.307 49.04 530.52C48.3067 529.72 47.94 528.433 47.94 526.66C47.94 524.927 48.2933 523.653 49 522.84C49.7067 522.027 50.8133 521.62 52.32 521.62C53.6133 521.62 54.6733 522.013 55.5 522.8L54.66 523.84C54.3667 523.547 54.02 523.32 53.62 523.16C53.2333 522.987 52.8133 522.9 52.36 522.9C51.4 522.9 50.6733 523.193 50.18 523.78C49.7 524.353 49.46 525.313 49.46 526.66C49.46 528.007 49.7133 528.973 50.22 529.56C50.7267 530.133 51.4933 530.42 52.52 530.42ZM56.4528 526.66C56.4528 524.927 56.7995 523.653 57.4928 522.84C58.1995 522.027 59.3195 521.62 60.8528 521.62C62.3728 521.62 63.4795 522.027 64.1728 522.84C64.8795 523.653 65.2328 524.927 65.2328 526.66C65.2328 528.393 64.8795 529.667 64.1728 530.48C63.4661 531.293 62.3595 531.7 60.8528 531.7C59.3328 531.7 58.2195 531.293 57.5128 530.48C56.8061 529.667 56.4528 528.393 56.4528 526.66ZM57.9928 526.66C57.9928 527.98 58.2195 528.94 58.6728 529.54C59.1261 530.127 59.8528 530.42 60.8528 530.42C61.8528 530.42 62.5795 530.127 63.0328 529.54C63.4861 528.94 63.7128 527.98 63.7128 526.66C63.7128 525.367 63.4861 524.42 63.0328 523.82C62.5795 523.22 61.8528 522.92 60.8528 522.92C59.8528 522.92 59.1261 523.22 58.6728 523.82C58.2195 524.42 57.9928 525.367 57.9928 526.66ZM68.8573 522.8C69.3107 522.44 69.8107 522.153 70.3573 521.94C70.904 521.727 71.4773 521.62 72.0773 521.62C73.1973 521.62 73.9973 521.893 74.4773 522.44C74.9707 522.973 75.2173 523.847 75.2173 525.06V531.5H73.6973V525.48C73.6973 524.52 73.5373 523.853 73.2173 523.48C72.9107 523.107 72.4307 522.92 71.7773 522.92C70.844 522.92 69.9107 523.26 68.9773 523.94V531.5H67.4573V521.82H68.5973L68.8573 522.8ZM81.927 530.42C82.8604 530.42 83.6937 530.187 84.427 529.72L84.867 530.94C84.4804 531.167 84.0337 531.353 83.527 531.5C83.0337 531.633 82.5004 531.7 81.927 531.7C80.3404 531.7 79.1804 531.307 78.447 530.52C77.7137 529.72 77.347 528.433 77.347 526.66C77.347 524.927 77.7004 523.653 78.407 522.84C79.1137 522.027 80.2204 521.62 81.727 521.62C83.0204 521.62 84.0804 522.013 84.907 522.8L84.067 523.84C83.7737 523.547 83.427 523.32 83.027 523.16C82.6404 522.987 82.2204 522.9 81.767 522.9C80.807 522.9 80.0804 523.193 79.587 523.78C79.107 524.353 78.867 525.313 78.867 526.66C78.867 528.007 79.1204 528.973 79.627 529.56C80.1337 530.133 80.9004 530.42 81.927 530.42ZM90.1998 531.7C88.6265 531.7 87.5065 531.293 86.8398 530.48C86.1865 529.653 85.8598 528.38 85.8598 526.66C85.8598 524.927 86.1932 523.653 86.8598 522.84C87.5265 522.027 88.5465 521.62 89.9198 521.62C91.2932 521.62 92.3132 522.02 92.9798 522.82C93.6465 523.607 93.9798 524.86 93.9798 526.58V527.22H87.4198C87.4732 528.367 87.7198 529.187 88.1598 529.68C88.5998 530.173 89.2865 530.42 90.2198 530.42C90.7798 530.42 91.3265 530.34 91.8598 530.18C92.4065 530.007 92.9132 529.773 93.3798 529.48L93.8798 530.7C93.3732 531.007 92.7998 531.253 92.1598 531.44C91.5332 531.613 90.8798 531.7 90.1998 531.7ZM92.4198 525.98C92.3532 524.94 92.1198 524.173 91.7198 523.68C91.3198 523.173 90.7198 522.92 89.9198 522.92C89.1198 522.92 88.5198 523.173 88.1198 523.68C87.7198 524.173 87.4865 524.94 87.4198 525.98H92.4198ZM97.3598 521.82L97.6198 522.66C97.9665 522.34 98.3665 522.087 98.8198 521.9C99.2865 521.713 99.7998 521.62 100.36 521.62C101.68 521.62 102.673 522.033 103.34 522.86C104.007 523.673 104.34 524.94 104.34 526.66C104.34 528.393 104.013 529.667 103.36 530.48C102.72 531.293 101.773 531.7 100.52 531.7C99.9865 531.7 99.4732 531.62 98.9798 531.46C98.4865 531.287 98.0798 531.047 97.7598 530.74V535.66H96.2198V521.82H97.3598ZM100.12 522.9C99.6532 522.9 99.2132 522.993 98.7998 523.18C98.3998 523.367 98.0532 523.62 97.7598 523.94V529.4C98.0532 529.72 98.3998 529.973 98.7998 530.16C99.2132 530.347 99.6532 530.44 100.12 530.44C101.04 530.44 101.72 530.147 102.16 529.56C102.6 528.973 102.82 528.007 102.82 526.66C102.82 525.327 102.6 524.367 102.16 523.78C101.72 523.193 101.04 522.9 100.12 522.9ZM108.495 523.12V527.9C108.495 528.34 108.515 528.72 108.555 529.04C108.595 529.36 108.675 529.627 108.795 529.84C108.928 530.04 109.108 530.187 109.335 530.28C109.575 530.373 109.895 530.42 110.295 530.42C110.588 530.42 110.875 530.387 111.155 530.32C111.448 530.253 111.728 530.173 111.995 530.08L112.295 531.24C111.495 531.547 110.688 531.7 109.875 531.7C109.288 531.7 108.801 531.62 108.415 531.46C108.041 531.3 107.741 531.08 107.515 530.8C107.301 530.507 107.155 530.16 107.075 529.76C106.995 529.347 106.955 528.893 106.955 528.4V523.12H105.375V521.82H106.955V519.78L108.495 519.5V521.82H111.915V523.12H108.495Z" fill="#4A4946"/>
</svg>
