<svg width="335" height="614" viewBox="0 0 335 614" fill="none" xmlns="http://www.w3.org/2000/svg">
<path d="M0 10C0 4.47715 4.47715 0 10 0H324C329.523 0 334 4.47715 334 10V307H0V10Z" fill="white"/>
<path d="M76.1391 123.16L80.2751 140.056L84.1471 123.16H88.0631L82.5631 144.5H78.4271L74.5111 128.704L70.5511 144.5H66.4151L60.9151 123.16H64.8311L68.7031 140.056L72.8391 123.16H76.1391ZM91.0029 119.2V114.932H94.9629V119.2H91.0029ZM91.0029 144.5V123.16H94.9629V144.5H91.0029ZM98.2275 123.16H101.615V117.572H105.575V123.16H110.811V126.636H105.575V139.352C105.575 140.76 106.103 141.068 107.555 141.068H110.811V144.5H107.115C104.211 144.5 101.615 143.18 101.615 139.748V126.636H98.2275V123.16ZM118.216 144.5H114.3V114.932H118.216V125.756C119.668 123.776 122 122.588 125.08 122.588C130.36 122.588 133.572 126.328 133.572 131.872V144.5H129.656V131.564C129.656 127.692 127.94 126.152 124.024 126.152C120.064 126.152 118.216 127.692 118.216 131.564V144.5Z" fill="#262626"/>
<path d="M147.263 119.728V114.932H152.147V119.728H147.263ZM147.263 144.5V123.028H152.147V144.5H147.263ZM171.588 131.52C171.588 128.088 170.18 126.724 166.704 126.724C163.228 126.724 161.732 128.088 161.732 131.52V144.5H156.936V123.028H161.116L161.468 125.668C163.008 123.644 165.296 122.456 168.244 122.456C173.216 122.456 176.428 126.196 176.428 131.608V144.5H171.588V131.52ZM193.63 138.648C193.63 137.152 192.706 136.536 190.506 136.008L186.854 135.172C182.586 134.16 180.386 132.4 180.386 128.704C180.386 124.876 184.39 122.456 189.142 122.456C193.894 122.456 197.678 124.876 198.294 129.232H193.498C193.19 127.252 191.87 126.548 189.142 126.548C186.458 126.548 185.226 127.296 185.226 128.704C185.226 129.892 185.798 130.508 188.042 131.036L191.826 132.004C196.182 133.06 198.426 134.644 198.426 138.516C198.426 142.828 194.246 145.116 189.274 145.116C184.654 145.116 180.386 142.96 179.682 137.812H184.478C184.918 140.364 186.326 140.98 189.274 140.98C192.134 140.98 193.63 140.232 193.63 138.648ZM201.932 119.728V114.932H206.816V119.728H201.932ZM201.932 144.5V123.028H206.816V144.5H201.932ZM220.448 144.324C214.728 144.324 210.284 139.924 210.284 133.324C210.284 126.812 214.728 122.456 220.448 122.456C223.308 122.456 225.64 123.512 227.268 125.404L227.576 123.028H231.888V143.532C231.712 149.164 227.488 153.036 221.284 153.036C215.564 153.036 212 150.176 210.812 146.084H215.96C216.796 148.152 218.072 148.988 221.504 148.988C225.112 148.988 227.004 147.272 227.004 144.28V141.684C225.376 143.4 223.132 144.324 220.448 144.324ZM215.124 133.324C215.124 138.252 217.016 140.012 221.152 140.012C225.332 140.012 227.224 138.252 227.224 133.324C227.224 128.484 225.332 126.724 221.152 126.724C217.016 126.724 215.124 128.484 215.124 133.324ZM241.498 144.5H236.702V114.932H241.498V125.316C243.038 123.512 245.282 122.456 248.142 122.456C253.202 122.456 256.414 126.196 256.414 131.608V144.5H251.574V131.52C251.574 128.088 250.166 126.724 246.558 126.724C242.994 126.724 241.498 128.088 241.498 131.52V144.5ZM259.223 123.028H262.479V117.572H267.363V123.028H272.511V127.296H267.363V138.648C267.363 140.056 267.891 140.364 269.343 140.364H272.511V144.5H268.815C265.427 144.5 262.479 143.004 262.479 139.088V127.296H259.223V123.028Z" fill="#FF1C1B"/>
<path d="M17 188.5H317" stroke="#4A4946"/>
<circle cx="301" cy="188.5" r="10" fill="#262626"/>
<path d="M0 307H334V604C334 609.523 329.523 614 324 614H10C4.47716 614 0 609.523 0 604V307Z" fill="#E6E1D6"/>
<path d="M34.2862 381.18C34.2862 381.5 34.2263 381.8 34.1063 382.08C33.9863 382.36 33.8196 382.607 33.6063 382.82C33.4063 383.02 33.1663 383.18 32.8863 383.3C32.6196 383.407 32.3263 383.46 32.0063 383.46C31.6863 383.46 31.3863 383.407 31.1063 383.3C30.8263 383.18 30.5796 383.02 30.3663 382.82C30.1663 382.62 30.0063 382.38 29.8863 382.1C29.7663 381.82 29.7063 381.513 29.7063 381.18C29.7063 380.86 29.7663 380.56 29.8863 380.28C30.0063 380 30.1663 379.76 30.3663 379.56C30.5796 379.347 30.8263 379.187 31.1063 379.08C31.3863 378.96 31.6863 378.9 32.0063 378.9C32.3263 378.9 32.6196 378.96 32.8863 379.08C33.1663 379.187 33.4063 379.347 33.6063 379.56C33.8196 379.76 33.9863 380 34.1063 380.28C34.2263 380.56 34.2862 380.86 34.2862 381.18ZM48.82 374.06H50.36V387.5H48.82V374.06ZM54.8753 378.8C55.3286 378.44 55.8286 378.153 56.3753 377.94C56.922 377.727 57.4953 377.62 58.0953 377.62C59.2153 377.62 60.0153 377.893 60.4953 378.44C60.9886 378.973 61.2353 379.847 61.2353 381.06V387.5H59.7153V381.48C59.7153 380.52 59.5553 379.853 59.2353 379.48C58.9286 379.107 58.4486 378.92 57.7953 378.92C56.862 378.92 55.9286 379.26 54.9953 379.94V387.5H53.4753V377.82H54.6153L54.8753 378.8ZM65.965 379.12V383.9C65.965 384.34 65.985 384.72 66.025 385.04C66.065 385.36 66.145 385.627 66.265 385.84C66.3983 386.04 66.5783 386.187 66.805 386.28C67.045 386.373 67.365 386.42 67.765 386.42C68.0583 386.42 68.345 386.387 68.625 386.32C68.9183 386.253 69.1983 386.173 69.465 386.08L69.765 387.24C68.965 387.547 68.1583 387.7 67.345 387.7C66.7583 387.7 66.2717 387.62 65.885 387.46C65.5117 387.3 65.2117 387.08 64.985 386.8C64.7717 386.507 64.625 386.16 64.545 385.76C64.465 385.347 64.425 384.893 64.425 384.4V379.12H62.845V377.82H64.425V375.78L65.965 375.5V377.82H69.385V379.12H65.965ZM72.658 377.82L72.838 379.1C73.278 378.62 73.7713 378.253 74.318 378C74.8646 377.747 75.418 377.62 75.978 377.62C76.2046 377.62 76.398 377.64 76.558 377.68C76.7313 377.707 76.9113 377.753 77.098 377.82V379.18C76.698 379.02 76.278 378.94 75.838 378.94C75.3313 378.94 74.8246 379.08 74.318 379.36C73.8113 379.64 73.378 379.993 73.018 380.42V387.5H71.498V377.82H72.658ZM77.8716 382.66C77.8716 380.927 78.2182 379.653 78.9116 378.84C79.6182 378.027 80.7382 377.62 82.2716 377.62C83.7916 377.62 84.8982 378.027 85.5916 378.84C86.2982 379.653 86.6516 380.927 86.6516 382.66C86.6516 384.393 86.2982 385.667 85.5916 386.48C84.8849 387.293 83.7782 387.7 82.2716 387.7C80.7516 387.7 79.6382 387.293 78.9316 386.48C78.2249 385.667 77.8716 384.393 77.8716 382.66ZM79.4116 382.66C79.4116 383.98 79.6382 384.94 80.0916 385.54C80.5449 386.127 81.2716 386.42 82.2716 386.42C83.2716 386.42 83.9982 386.127 84.4516 385.54C84.9049 384.94 85.1316 383.98 85.1316 382.66C85.1316 381.367 84.9049 380.42 84.4516 379.82C83.9982 379.22 83.2716 378.92 82.2716 378.92C81.2716 378.92 80.5449 379.22 80.0916 379.82C79.6382 380.42 79.4116 381.367 79.4116 382.66ZM96.5361 373.38V387.5H95.3961L95.1561 386.68C94.8094 387 94.4028 387.253 93.9361 387.44C93.4694 387.613 92.9561 387.7 92.3961 387.7C91.0761 387.7 90.0828 387.293 89.4161 386.48C88.7494 385.667 88.4161 384.393 88.4161 382.66C88.4161 380.94 88.7361 379.673 89.3761 378.86C90.0294 378.033 90.9828 377.62 92.2361 377.62C92.7961 377.62 93.3094 377.707 93.7761 377.88C94.2561 378.053 94.6628 378.293 94.9961 378.6V373.58L96.5361 373.38ZM92.6361 386.44C93.1028 386.44 93.5361 386.347 93.9361 386.16C94.3494 385.973 94.7028 385.72 94.9961 385.4V379.94C94.7028 379.62 94.3494 379.367 93.9361 379.18C93.5361 378.993 93.1028 378.9 92.6361 378.9C91.7161 378.9 91.0361 379.193 90.5961 379.78C90.1694 380.367 89.9561 381.327 89.9561 382.66C89.9561 384.007 90.1694 384.973 90.5961 385.56C91.0361 386.147 91.7161 386.44 92.6361 386.44ZM105.505 386.54C105.052 386.9 104.552 387.187 104.005 387.4C103.459 387.6 102.885 387.7 102.285 387.7C101.165 387.7 100.359 387.433 99.8653 386.9C99.372 386.367 99.1253 385.493 99.1253 384.28V377.82H100.665V383.86C100.665 384.82 100.819 385.487 101.125 385.86C101.445 386.233 101.932 386.42 102.585 386.42C103.519 386.42 104.445 386.08 105.365 385.4V377.82H106.905V387.5H105.745L105.505 386.54ZM113.734 386.42C114.667 386.42 115.501 386.187 116.234 385.72L116.674 386.94C116.287 387.167 115.841 387.353 115.334 387.5C114.841 387.633 114.307 387.7 113.734 387.7C112.147 387.7 110.987 387.307 110.254 386.52C109.521 385.72 109.154 384.433 109.154 382.66C109.154 380.927 109.507 379.653 110.214 378.84C110.921 378.027 112.027 377.62 113.534 377.62C114.827 377.62 115.887 378.013 116.714 378.8L115.874 379.84C115.581 379.547 115.234 379.32 114.834 379.16C114.447 378.987 114.027 378.9 113.574 378.9C112.614 378.9 111.887 379.193 111.394 379.78C110.914 380.353 110.674 381.313 110.674 382.66C110.674 384.007 110.927 384.973 111.434 385.56C111.941 386.133 112.707 386.42 113.734 386.42ZM118.855 377.82H120.375V387.5H118.855V377.82ZM118.835 373.66H120.375V375.66H118.835V373.66ZM124.661 378.8C125.115 378.44 125.615 378.153 126.161 377.94C126.708 377.727 127.281 377.62 127.881 377.62C129.001 377.62 129.801 377.893 130.281 378.44C130.775 378.973 131.021 379.847 131.021 381.06V387.5H129.501V381.48C129.501 380.52 129.341 379.853 129.021 379.48C128.715 379.107 128.235 378.92 127.581 378.92C126.648 378.92 125.715 379.26 124.781 379.94V387.5H123.261V377.82H124.401L124.661 378.8ZM141.251 377.82V387.62C141.251 389.1 140.891 390.173 140.171 390.84C139.464 391.52 138.404 391.86 136.991 391.86C136.431 391.86 135.898 391.813 135.391 391.72C134.884 391.64 134.438 391.527 134.051 391.38L134.371 390.12C135.131 390.413 135.998 390.56 136.971 390.56C137.931 390.56 138.624 390.34 139.051 389.9C139.491 389.46 139.711 388.74 139.711 387.74V386.74C139.378 387.047 138.971 387.287 138.491 387.46C138.024 387.62 137.511 387.7 136.951 387.7C135.698 387.7 134.744 387.293 134.091 386.48C133.451 385.667 133.131 384.393 133.131 382.66C133.131 380.94 133.464 379.673 134.131 378.86C134.798 378.033 135.791 377.62 137.111 377.62C137.671 377.62 138.184 377.713 138.651 377.9C139.118 378.087 139.524 378.34 139.871 378.66L140.111 377.82H141.251ZM137.351 378.9C136.431 378.9 135.751 379.193 135.311 379.78C134.884 380.367 134.671 381.327 134.671 382.66C134.671 384.007 134.884 384.973 135.311 385.56C135.751 386.147 136.431 386.44 137.351 386.44C137.818 386.44 138.251 386.347 138.651 386.16C139.064 385.973 139.418 385.72 139.711 385.4V379.94C139.418 379.62 139.064 379.367 138.651 379.18C138.251 378.993 137.818 378.9 137.351 378.9ZM156.486 387.5H155.346L155.106 386.6C154.706 386.947 154.232 387.22 153.686 387.42C153.152 387.607 152.566 387.7 151.926 387.7C150.926 387.7 150.172 387.447 149.666 386.94C149.172 386.42 148.926 385.68 148.926 384.72C148.926 383.733 149.232 383.007 149.846 382.54C150.459 382.06 151.486 381.82 152.926 381.82C153.352 381.82 153.726 381.827 154.046 381.84C154.379 381.853 154.686 381.88 154.966 381.92V381.38C154.966 380.487 154.792 379.853 154.446 379.48C154.099 379.093 153.486 378.9 152.606 378.9C152.192 378.9 151.739 378.973 151.246 379.12C150.766 379.253 150.279 379.453 149.786 379.72L149.326 378.56C149.859 378.267 150.426 378.04 151.026 377.88C151.626 377.707 152.246 377.62 152.886 377.62C153.566 377.62 154.132 377.687 154.586 377.82C155.052 377.953 155.426 378.173 155.706 378.48C155.986 378.773 156.186 379.153 156.306 379.62C156.426 380.087 156.486 380.66 156.486 381.34V387.5ZM152.346 386.44C152.786 386.44 153.239 386.347 153.706 386.16C154.186 385.96 154.606 385.7 154.966 385.38V383.16C154.619 383.12 154.272 383.093 153.926 383.08C153.579 383.053 153.192 383.04 152.766 383.04C151.926 383.04 151.326 383.167 150.966 383.42C150.619 383.673 150.446 384.1 150.446 384.7C150.446 385.273 150.592 385.707 150.886 386C151.179 386.293 151.666 386.44 152.346 386.44ZM165.958 378.8C166.411 378.44 166.911 378.153 167.458 377.94C168.005 377.727 168.578 377.62 169.178 377.62C170.298 377.62 171.098 377.893 171.578 378.44C172.071 378.973 172.318 379.847 172.318 381.06V387.5H170.798V381.48C170.798 380.52 170.638 379.853 170.318 379.48C170.011 379.107 169.531 378.92 168.878 378.92C167.945 378.92 167.011 379.26 166.078 379.94V387.5H164.558V377.82H165.698L165.958 378.8ZM178.768 387.7C177.194 387.7 176.074 387.293 175.408 386.48C174.754 385.653 174.428 384.38 174.428 382.66C174.428 380.927 174.761 379.653 175.428 378.84C176.094 378.027 177.114 377.62 178.488 377.62C179.861 377.62 180.881 378.02 181.548 378.82C182.214 379.607 182.548 380.86 182.548 382.58V383.22H175.988C176.041 384.367 176.288 385.187 176.728 385.68C177.168 386.173 177.854 386.42 178.788 386.42C179.348 386.42 179.894 386.34 180.428 386.18C180.974 386.007 181.481 385.773 181.948 385.48L182.448 386.7C181.941 387.007 181.368 387.253 180.728 387.44C180.101 387.613 179.448 387.7 178.768 387.7ZM180.988 381.98C180.921 380.94 180.688 380.173 180.288 379.68C179.888 379.173 179.288 378.92 178.488 378.92C177.688 378.92 177.088 379.173 176.688 379.68C176.288 380.173 176.054 380.94 175.988 381.98H180.988ZM190.688 377.82L192.228 383.28L192.868 385.68H192.908L193.408 383.28L194.668 377.82H196.188L193.628 387.5H192.148L190.988 383.28L190.008 379.74H189.968L189.008 383.28L187.828 387.5H186.368L183.788 377.82H185.328L186.568 383.28L187.088 385.68H187.128L187.748 383.28L189.288 377.82H190.688ZM204.497 377.82L204.757 378.66C205.104 378.34 205.504 378.087 205.957 377.9C206.424 377.713 206.937 377.62 207.497 377.62C208.817 377.62 209.811 378.033 210.477 378.86C211.144 379.673 211.477 380.94 211.477 382.66C211.477 384.393 211.151 385.667 210.497 386.48C209.857 387.293 208.911 387.7 207.657 387.7C207.124 387.7 206.611 387.62 206.117 387.46C205.624 387.287 205.217 387.047 204.897 386.74V391.66H203.357V377.82H204.497ZM207.257 378.9C206.791 378.9 206.351 378.993 205.937 379.18C205.537 379.367 205.191 379.62 204.897 379.94V385.4C205.191 385.72 205.537 385.973 205.937 386.16C206.351 386.347 206.791 386.44 207.257 386.44C208.177 386.44 208.857 386.147 209.297 385.56C209.737 384.973 209.957 384.007 209.957 382.66C209.957 381.327 209.737 380.367 209.297 379.78C208.857 379.193 208.177 378.9 207.257 378.9ZM214.867 377.82L215.047 379.1C215.487 378.62 215.98 378.253 216.527 378C217.073 377.747 217.627 377.62 218.187 377.62C218.413 377.62 218.607 377.64 218.767 377.68C218.94 377.707 219.12 377.753 219.307 377.82V379.18C218.907 379.02 218.487 378.94 218.047 378.94C217.54 378.94 217.033 379.08 216.527 379.36C216.02 379.64 215.587 379.993 215.227 380.42V387.5H213.707V377.82H214.867ZM220.08 382.66C220.08 380.927 220.427 379.653 221.12 378.84C221.827 378.027 222.947 377.62 224.48 377.62C226 377.62 227.107 378.027 227.8 378.84C228.507 379.653 228.86 380.927 228.86 382.66C228.86 384.393 228.507 385.667 227.8 386.48C227.093 387.293 225.987 387.7 224.48 387.7C222.96 387.7 221.847 387.293 221.14 386.48C220.433 385.667 220.08 384.393 220.08 382.66ZM221.62 382.66C221.62 383.98 221.847 384.94 222.3 385.54C222.753 386.127 223.48 386.42 224.48 386.42C225.48 386.42 226.207 386.127 226.66 385.54C227.113 384.94 227.34 383.98 227.34 382.66C227.34 381.367 227.113 380.42 226.66 379.82C226.207 379.22 225.48 378.92 224.48 378.92C223.48 378.92 222.753 379.22 222.3 379.82C221.847 380.42 221.62 381.367 221.62 382.66ZM238.745 373.38V387.5H237.605L237.365 386.68C237.018 387 236.611 387.253 236.145 387.44C235.678 387.613 235.165 387.7 234.605 387.7C233.285 387.7 232.291 387.293 231.625 386.48C230.958 385.667 230.625 384.393 230.625 382.66C230.625 380.94 230.945 379.673 231.585 378.86C232.238 378.033 233.191 377.62 234.445 377.62C235.005 377.62 235.518 377.707 235.985 377.88C236.465 378.053 236.871 378.293 237.205 378.6V373.58L238.745 373.38ZM234.845 386.44C235.311 386.44 235.745 386.347 236.145 386.16C236.558 385.973 236.911 385.72 237.205 385.4V379.94C236.911 379.62 236.558 379.367 236.145 379.18C235.745 378.993 235.311 378.9 234.845 378.9C233.925 378.9 233.245 379.193 232.805 379.78C232.378 380.367 232.165 381.327 232.165 382.66C232.165 384.007 232.378 384.973 232.805 385.56C233.245 386.147 233.925 386.44 234.845 386.44ZM247.714 386.54C247.261 386.9 246.761 387.187 246.214 387.4C245.667 387.6 245.094 387.7 244.494 387.7C243.374 387.7 242.567 387.433 242.074 386.9C241.581 386.367 241.334 385.493 241.334 384.28V377.82H242.874V383.86C242.874 384.82 243.027 385.487 243.334 385.86C243.654 386.233 244.141 386.42 244.794 386.42C245.727 386.42 246.654 386.08 247.574 385.4V377.82H249.114V387.5H247.954L247.714 386.54ZM255.943 386.42C256.876 386.42 257.709 386.187 258.443 385.72L258.883 386.94C258.496 387.167 258.049 387.353 257.543 387.5C257.049 387.633 256.516 387.7 255.943 387.7C254.356 387.7 253.196 387.307 252.463 386.52C251.729 385.72 251.363 384.433 251.363 382.66C251.363 380.927 251.716 379.653 252.423 378.84C253.129 378.027 254.236 377.62 255.743 377.62C257.036 377.62 258.096 378.013 258.923 378.8L258.083 379.84C257.789 379.547 257.443 379.32 257.043 379.16C256.656 378.987 256.236 378.9 255.783 378.9C254.823 378.9 254.096 379.193 253.603 379.78C253.123 380.353 252.883 381.313 252.883 382.66C252.883 384.007 253.136 384.973 253.643 385.56C254.149 386.133 254.916 386.42 255.943 386.42ZM263.003 379.12V383.9C263.003 384.34 263.023 384.72 263.063 385.04C263.103 385.36 263.183 385.627 263.303 385.84C263.437 386.04 263.617 386.187 263.843 386.28C264.083 386.373 264.403 386.42 264.803 386.42C265.097 386.42 265.383 386.387 265.663 386.32C265.957 386.253 266.237 386.173 266.503 386.08L266.803 387.24C266.003 387.547 265.197 387.7 264.383 387.7C263.797 387.7 263.31 387.62 262.923 387.46C262.55 387.3 262.25 387.08 262.023 386.8C261.81 386.507 261.663 386.16 261.583 385.76C261.503 385.347 261.463 384.893 261.463 384.4V379.12H259.883V377.82H261.463V375.78L263.003 375.5V377.82H266.423V379.12H263.003ZM273.582 382.66C273.582 380.927 273.928 379.653 274.622 378.84C275.328 378.027 276.448 377.62 277.982 377.62C279.502 377.62 280.608 378.027 281.302 378.84C282.008 379.653 282.362 380.927 282.362 382.66C282.362 384.393 282.008 385.667 281.302 386.48C280.595 387.293 279.488 387.7 277.982 387.7C276.462 387.7 275.348 387.293 274.642 386.48C273.935 385.667 273.582 384.393 273.582 382.66ZM275.122 382.66C275.122 383.98 275.348 384.94 275.802 385.54C276.255 386.127 276.982 386.42 277.982 386.42C278.982 386.42 279.708 386.127 280.162 385.54C280.615 384.94 280.842 383.98 280.842 382.66C280.842 381.367 280.615 380.42 280.162 379.82C279.708 379.22 278.982 378.92 277.982 378.92C276.982 378.92 276.255 379.22 275.802 379.82C275.348 380.42 275.122 381.367 275.122 382.66ZM285.746 377.82L285.926 379.1C286.366 378.62 286.86 378.253 287.406 378C287.953 377.747 288.506 377.62 289.066 377.62C289.293 377.62 289.486 377.64 289.646 377.68C289.82 377.707 290 377.753 290.186 377.82V379.18C289.786 379.02 289.366 378.94 288.926 378.94C288.42 378.94 287.913 379.08 287.406 379.36C286.9 379.64 286.466 379.993 286.106 380.42V387.5H284.586V377.82H285.746ZM50.72 413.5C51.0267 413.62 51.4067 413.753 51.86 413.9C52.3267 414.047 52.7867 414.207 53.24 414.38C54.5333 414.86 55.18 415.72 55.18 416.96C55.18 417.84 54.8733 418.52 54.26 419C53.6467 419.48 52.66 419.72 51.3 419.72C50.54 419.72 49.8933 419.633 49.36 419.46C48.8267 419.287 48.3467 419.08 47.92 418.84L48.42 417.64C48.8067 417.867 49.2467 418.06 49.74 418.22C50.2333 418.38 50.76 418.46 51.32 418.46C52.1733 418.46 52.7733 418.347 53.12 418.12C53.4667 417.88 53.64 417.52 53.64 417.04C53.64 416.4 53.26 415.927 52.5 415.62C52.0733 415.447 51.6267 415.287 51.16 415.14C50.7067 414.993 50.2733 414.847 49.86 414.7C49.3267 414.513 48.9 414.227 48.58 413.84C48.2733 413.44 48.12 412.92 48.12 412.28C48.12 411.507 48.42 410.867 49.02 410.36C49.6333 409.853 50.5467 409.6 51.76 409.6C52.4 409.6 52.9733 409.667 53.48 409.8C53.9867 409.92 54.4133 410.067 54.76 410.24L54.3 411.4C53.9133 411.213 53.5267 411.08 53.14 411C52.7533 410.907 52.28 410.86 51.72 410.86C51.32 410.86 50.9867 410.9 50.72 410.98C50.4533 411.06 50.24 411.167 50.08 411.3C49.9333 411.42 49.8267 411.56 49.76 411.72C49.6933 411.88 49.66 412.04 49.66 412.2C49.66 412.52 49.74 412.78 49.9 412.98C50.06 413.18 50.3333 413.353 50.72 413.5ZM61.203 419.7C59.6296 419.7 58.5096 419.293 57.843 418.48C57.1896 417.653 56.863 416.38 56.863 414.66C56.863 412.927 57.1963 411.653 57.863 410.84C58.5296 410.027 59.5496 409.62 60.923 409.62C62.2963 409.62 63.3163 410.02 63.983 410.82C64.6496 411.607 64.983 412.86 64.983 414.58V415.22H58.423C58.4763 416.367 58.723 417.187 59.163 417.68C59.603 418.173 60.2896 418.42 61.223 418.42C61.783 418.42 62.3296 418.34 62.863 418.18C63.4096 418.007 63.9163 417.773 64.383 417.48L64.883 418.7C64.3763 419.007 63.803 419.253 63.163 419.44C62.5363 419.613 61.883 419.7 61.203 419.7ZM63.423 413.98C63.3563 412.94 63.123 412.173 62.723 411.68C62.323 411.173 61.723 410.92 60.923 410.92C60.123 410.92 59.523 411.173 59.123 411.68C58.723 412.173 58.4896 412.94 58.423 413.98H63.423ZM68.383 409.82L68.563 411.1C69.003 410.62 69.4963 410.253 70.043 410C70.5896 409.747 71.143 409.62 71.703 409.62C71.9296 409.62 72.123 409.64 72.283 409.68C72.4563 409.707 72.6363 409.753 72.823 409.82V411.18C72.423 411.02 72.003 410.94 71.563 410.94C71.0563 410.94 70.5496 411.08 70.043 411.36C69.5363 411.64 69.103 411.993 68.743 412.42V419.5H67.223V409.82H68.383ZM78.275 417.74L79.315 414.62L81.015 409.82H82.635L78.995 419.5H77.535L73.875 409.82H75.495L77.195 414.62L78.235 417.74H78.275ZM84.45 409.82H85.97V419.5H84.45V409.82ZM84.43 405.66H85.97V407.66H84.43V405.66ZM92.9966 418.42C93.9299 418.42 94.7632 418.187 95.4966 417.72L95.9366 418.94C95.5499 419.167 95.1032 419.353 94.5966 419.5C94.1032 419.633 93.5699 419.7 92.9966 419.7C91.4099 419.7 90.2499 419.307 89.5166 418.52C88.7832 417.72 88.4166 416.433 88.4166 414.66C88.4166 412.927 88.7699 411.653 89.4766 410.84C90.1832 410.027 91.2899 409.62 92.7966 409.62C94.0899 409.62 95.1499 410.013 95.9766 410.8L95.1366 411.84C94.8432 411.547 94.4966 411.32 94.0966 411.16C93.7099 410.987 93.2899 410.9 92.8366 410.9C91.8766 410.9 91.1499 411.193 90.6566 411.78C90.1766 412.353 89.9366 413.313 89.9366 414.66C89.9366 416.007 90.1899 416.973 90.6966 417.56C91.2032 418.133 91.9699 418.42 92.9966 418.42ZM101.269 419.7C99.696 419.7 98.576 419.293 97.9094 418.48C97.256 417.653 96.9294 416.38 96.9294 414.66C96.9294 412.927 97.2627 411.653 97.9294 410.84C98.596 410.027 99.616 409.62 100.989 409.62C102.363 409.62 103.383 410.02 104.049 410.82C104.716 411.607 105.049 412.86 105.049 414.58V415.22H98.4894C98.5427 416.367 98.7894 417.187 99.2294 417.68C99.6694 418.173 100.356 418.42 101.289 418.42C101.849 418.42 102.396 418.34 102.929 418.18C103.476 418.007 103.983 417.773 104.449 417.48L104.949 418.7C104.443 419.007 103.869 419.253 103.229 419.44C102.603 419.613 101.949 419.7 101.269 419.7ZM103.489 413.98C103.423 412.94 103.189 412.173 102.789 411.68C102.389 411.173 101.789 410.92 100.989 410.92C100.189 410.92 99.5894 411.173 99.1894 411.68C98.7894 412.173 98.556 412.94 98.4894 413.98H103.489ZM34.2862 445.18C34.2862 445.5 34.2263 445.8 34.1063 446.08C33.9863 446.36 33.8196 446.607 33.6063 446.82C33.4063 447.02 33.1663 447.18 32.8863 447.3C32.6196 447.407 32.3263 447.46 32.0063 447.46C31.6863 447.46 31.3863 447.407 31.1063 447.3C30.8263 447.18 30.5796 447.02 30.3663 446.82C30.1663 446.62 30.0063 446.38 29.8863 446.1C29.7663 445.82 29.7063 445.513 29.7063 445.18C29.7063 444.86 29.7663 444.56 29.8863 444.28C30.0063 444 30.1663 443.76 30.3663 443.56C30.5796 443.347 30.8263 443.187 31.1063 443.08C31.3863 442.96 31.6863 442.9 32.0063 442.9C32.3263 442.9 32.6196 442.96 32.8863 443.08C33.1663 443.187 33.4063 443.347 33.6063 443.56C33.8196 443.76 33.9863 444 34.1063 444.28C34.2263 444.56 34.2862 444.86 34.2862 445.18ZM56.88 450.2V451.5H48.62V438.06H56.68V439.38H50.16V443.84H56.44V445.14H50.16V450.2H56.88ZM62.8342 447.76H62.7742L60.1742 451.5H58.4142L61.9342 446.56L58.5342 441.82H60.2942L62.7742 445.42H62.8342L65.3342 441.82H67.0942L63.6942 446.56L67.1942 451.5H65.4342L62.8342 447.76ZM70.0817 441.82L70.3417 442.66C70.6884 442.34 71.0884 442.087 71.5417 441.9C72.0084 441.713 72.5217 441.62 73.0817 441.62C74.4017 441.62 75.3951 442.033 76.0617 442.86C76.7284 443.673 77.0617 444.94 77.0617 446.66C77.0617 448.393 76.7351 449.667 76.0817 450.48C75.4417 451.293 74.4951 451.7 73.2417 451.7C72.7084 451.7 72.1951 451.62 71.7017 451.46C71.2084 451.287 70.8017 451.047 70.4817 450.74V455.66H68.9417V441.82H70.0817ZM72.8417 442.9C72.3751 442.9 71.9351 442.993 71.5217 443.18C71.1217 443.367 70.7751 443.62 70.4817 443.94V449.4C70.7751 449.72 71.1217 449.973 71.5217 450.16C71.9351 450.347 72.3751 450.44 72.8417 450.44C73.7617 450.44 74.4417 450.147 74.8817 449.56C75.3217 448.973 75.5417 448.007 75.5417 446.66C75.5417 445.327 75.3217 444.367 74.8817 443.78C74.4417 443.193 73.7617 442.9 72.8417 442.9ZM81.9909 451.64C81.9243 451.667 81.8309 451.68 81.7109 451.68C81.5909 451.693 81.4909 451.7 81.4109 451.7C80.7309 451.7 80.2376 451.5 79.9309 451.1C79.6376 450.687 79.4909 450.06 79.4909 449.22V437.62L81.0109 437.38V449C81.0109 449.307 81.0243 449.553 81.0509 449.74C81.0776 449.927 81.1243 450.073 81.1909 450.18C81.2709 450.287 81.3709 450.36 81.4909 450.4C81.6243 450.427 81.7909 450.44 81.9909 450.44V451.64ZM91.3481 451.5H90.2081L89.9681 450.6C89.5681 450.947 89.0948 451.22 88.5481 451.42C88.0148 451.607 87.4281 451.7 86.7881 451.7C85.7881 451.7 85.0348 451.447 84.5281 450.94C84.0348 450.42 83.7881 449.68 83.7881 448.72C83.7881 447.733 84.0948 447.007 84.7081 446.54C85.3215 446.06 86.3481 445.82 87.7881 445.82C88.2148 445.82 88.5881 445.827 88.9081 445.84C89.2415 445.853 89.5481 445.88 89.8281 445.92V445.38C89.8281 444.487 89.6548 443.853 89.3081 443.48C88.9615 443.093 88.3481 442.9 87.4681 442.9C87.0548 442.9 86.6015 442.973 86.1081 443.12C85.6281 443.253 85.1415 443.453 84.6481 443.72L84.1881 442.56C84.7215 442.267 85.2881 442.04 85.8881 441.88C86.4881 441.707 87.1081 441.62 87.7481 441.62C88.4281 441.62 88.9948 441.687 89.4481 441.82C89.9148 441.953 90.2881 442.173 90.5681 442.48C90.8481 442.773 91.0481 443.153 91.1681 443.62C91.2881 444.087 91.3481 444.66 91.3481 445.34V451.5ZM87.2081 450.44C87.6481 450.44 88.1015 450.347 88.5681 450.16C89.0481 449.96 89.4681 449.7 89.8281 449.38V447.16C89.4815 447.12 89.1348 447.093 88.7881 447.08C88.4415 447.053 88.0548 447.04 87.6281 447.04C86.7881 447.04 86.1881 447.167 85.8281 447.42C85.4815 447.673 85.3081 448.1 85.3081 448.7C85.3081 449.273 85.4548 449.707 85.7481 450C86.0415 450.293 86.5281 450.44 87.2081 450.44ZM94.1352 441.82H95.6552V451.5H94.1352V441.82ZM94.1152 437.66H95.6552V439.66H94.1152V437.66ZM99.9417 442.8C100.395 442.44 100.895 442.153 101.442 441.94C101.988 441.727 102.562 441.62 103.162 441.62C104.282 441.62 105.082 441.893 105.562 442.44C106.055 442.973 106.302 443.847 106.302 445.06V451.5H104.782V445.48C104.782 444.52 104.622 443.853 104.302 443.48C103.995 443.107 103.515 442.92 102.862 442.92C101.928 442.92 100.995 443.26 100.062 443.94V451.5H98.5417V441.82H99.6817L99.9417 442.8ZM109.091 441.82H110.611V451.5H109.091V441.82ZM109.071 437.66H110.611V439.66H109.071V437.66ZM114.898 442.8C115.351 442.44 115.851 442.153 116.398 441.94C116.945 441.727 117.518 441.62 118.118 441.62C119.238 441.62 120.038 441.893 120.518 442.44C121.011 442.973 121.258 443.847 121.258 445.06V451.5H119.738V445.48C119.738 444.52 119.578 443.853 119.258 443.48C118.951 443.107 118.471 442.92 117.818 442.92C116.885 442.92 115.951 443.26 115.018 443.94V451.5H113.498V441.82H114.638L114.898 442.8ZM131.488 441.82V451.62C131.488 453.1 131.128 454.173 130.408 454.84C129.701 455.52 128.641 455.86 127.228 455.86C126.668 455.86 126.134 455.813 125.628 455.72C125.121 455.64 124.674 455.527 124.288 455.38L124.608 454.12C125.368 454.413 126.234 454.56 127.208 454.56C128.168 454.56 128.861 454.34 129.288 453.9C129.728 453.46 129.948 452.74 129.948 451.74V450.74C129.614 451.047 129.208 451.287 128.728 451.46C128.261 451.62 127.748 451.7 127.188 451.7C125.934 451.7 124.981 451.293 124.328 450.48C123.688 449.667 123.368 448.393 123.368 446.66C123.368 444.94 123.701 443.673 124.368 442.86C125.034 442.033 126.028 441.62 127.348 441.62C127.908 441.62 128.421 441.713 128.888 441.9C129.354 442.087 129.761 442.34 130.108 442.66L130.348 441.82H131.488ZM127.588 442.9C126.668 442.9 125.988 443.193 125.548 443.78C125.121 444.367 124.908 445.327 124.908 446.66C124.908 448.007 125.121 448.973 125.548 449.56C125.988 450.147 126.668 450.44 127.588 450.44C128.054 450.44 128.488 450.347 128.888 450.16C129.301 449.973 129.654 449.72 129.948 449.4V443.94C129.654 443.62 129.301 443.367 128.888 443.18C128.488 442.993 128.054 442.9 127.588 442.9ZM141.202 442.7C142.122 441.98 143.156 441.62 144.302 441.62C145.422 441.62 146.222 441.887 146.702 442.42C147.196 442.94 147.442 443.82 147.442 445.06V451.5H145.922V445.48C145.922 444.52 145.762 443.853 145.442 443.48C145.136 443.107 144.656 442.92 144.002 442.92C143.069 442.92 142.136 443.26 141.202 443.94V451.5H139.682V437.58L141.202 437.38V442.7ZM149.552 446.66C149.552 444.927 149.899 443.653 150.592 442.84C151.299 442.027 152.419 441.62 153.952 441.62C155.472 441.62 156.579 442.027 157.272 442.84C157.979 443.653 158.332 444.927 158.332 446.66C158.332 448.393 157.979 449.667 157.272 450.48C156.565 451.293 155.459 451.7 153.952 451.7C152.432 451.7 151.319 451.293 150.612 450.48C149.905 449.667 149.552 448.393 149.552 446.66ZM151.092 446.66C151.092 447.98 151.319 448.94 151.772 449.54C152.225 450.127 152.952 450.42 153.952 450.42C154.952 450.42 155.679 450.127 156.132 449.54C156.585 448.94 156.812 447.98 156.812 446.66C156.812 445.367 156.585 444.42 156.132 443.82C155.679 443.22 154.952 442.92 153.952 442.92C152.952 442.92 152.225 443.22 151.772 443.82C151.319 444.42 151.092 445.367 151.092 446.66ZM166.457 441.82L167.997 447.28L168.637 449.68H168.677L169.177 447.28L170.437 441.82H171.957L169.397 451.5H167.917L166.757 447.28L165.777 443.74H165.737L164.777 447.28L163.597 451.5H162.137L159.557 441.82H161.097L162.337 447.28L162.857 449.68H162.897L163.517 447.28L165.057 441.82H166.457ZM181.286 443.12V447.9C181.286 448.34 181.306 448.72 181.346 449.04C181.386 449.36 181.466 449.627 181.586 449.84C181.719 450.04 181.899 450.187 182.126 450.28C182.366 450.373 182.686 450.42 183.086 450.42C183.379 450.42 183.666 450.387 183.946 450.32C184.239 450.253 184.519 450.173 184.786 450.08L185.086 451.24C184.286 451.547 183.479 451.7 182.666 451.7C182.079 451.7 181.593 451.62 181.206 451.46C180.833 451.3 180.533 451.08 180.306 450.8C180.093 450.507 179.946 450.16 179.866 449.76C179.786 449.347 179.746 448.893 179.746 448.4V443.12H178.166V441.82H179.746V439.78L181.286 439.5V441.82H184.706V443.12H181.286ZM186.242 446.66C186.242 444.927 186.589 443.653 187.282 442.84C187.989 442.027 189.109 441.62 190.642 441.62C192.162 441.62 193.269 442.027 193.962 442.84C194.669 443.653 195.022 444.927 195.022 446.66C195.022 448.393 194.669 449.667 193.962 450.48C193.255 451.293 192.149 451.7 190.642 451.7C189.122 451.7 188.009 451.293 187.302 450.48C186.595 449.667 186.242 448.393 186.242 446.66ZM187.782 446.66C187.782 447.98 188.009 448.94 188.462 449.54C188.915 450.127 189.642 450.42 190.642 450.42C191.642 450.42 192.369 450.127 192.822 449.54C193.275 448.94 193.502 447.98 193.502 446.66C193.502 445.367 193.275 444.42 192.822 443.82C192.369 443.22 191.642 442.92 190.642 442.92C189.642 442.92 188.915 443.22 188.462 443.82C188.009 444.42 187.782 445.367 187.782 446.66ZM209.032 450.54C208.579 450.9 208.079 451.187 207.532 451.4C206.985 451.6 206.412 451.7 205.812 451.7C204.692 451.7 203.885 451.433 203.392 450.9C202.899 450.367 202.652 449.493 202.652 448.28V441.82H204.192V447.86C204.192 448.82 204.345 449.487 204.652 449.86C204.972 450.233 205.459 450.42 206.112 450.42C207.045 450.42 207.972 450.08 208.892 449.4V441.82H210.432V451.5H209.272L209.032 450.54ZM215.461 445.5C215.767 445.62 216.147 445.753 216.601 445.9C217.067 446.047 217.527 446.207 217.981 446.38C219.274 446.86 219.921 447.72 219.921 448.96C219.921 449.84 219.614 450.52 219.001 451C218.387 451.48 217.401 451.72 216.041 451.72C215.281 451.72 214.634 451.633 214.101 451.46C213.567 451.287 213.087 451.08 212.661 450.84L213.161 449.64C213.547 449.867 213.987 450.06 214.481 450.22C214.974 450.38 215.501 450.46 216.061 450.46C216.914 450.46 217.514 450.347 217.861 450.12C218.207 449.88 218.381 449.52 218.381 449.04C218.381 448.4 218.001 447.927 217.241 447.62C216.814 447.447 216.367 447.287 215.901 447.14C215.447 446.993 215.014 446.847 214.601 446.7C214.067 446.513 213.641 446.227 213.321 445.84C213.014 445.44 212.861 444.92 212.861 444.28C212.861 443.507 213.161 442.867 213.761 442.36C214.374 441.853 215.287 441.6 216.501 441.6C217.141 441.6 217.714 441.667 218.221 441.8C218.727 441.92 219.154 442.067 219.501 442.24L219.041 443.4C218.654 443.213 218.267 443.08 217.881 443C217.494 442.907 217.021 442.86 216.461 442.86C216.061 442.86 215.727 442.9 215.461 442.98C215.194 443.06 214.981 443.167 214.821 443.3C214.674 443.42 214.567 443.56 214.501 443.72C214.434 443.88 214.401 444.04 214.401 444.2C214.401 444.52 214.481 444.78 214.641 444.98C214.801 445.18 215.074 445.353 215.461 445.5ZM225.944 451.7C224.37 451.7 223.25 451.293 222.584 450.48C221.93 449.653 221.604 448.38 221.604 446.66C221.604 444.927 221.937 443.653 222.604 442.84C223.27 442.027 224.29 441.62 225.664 441.62C227.037 441.62 228.057 442.02 228.724 442.82C229.39 443.607 229.724 444.86 229.724 446.58V447.22H223.164C223.217 448.367 223.464 449.187 223.904 449.68C224.344 450.173 225.03 450.42 225.964 450.42C226.524 450.42 227.07 450.34 227.604 450.18C228.15 450.007 228.657 449.773 229.124 449.48L229.624 450.7C229.117 451.007 228.544 451.253 227.904 451.44C227.277 451.613 226.624 451.7 225.944 451.7ZM228.164 445.98C228.097 444.94 227.864 444.173 227.464 443.68C227.064 443.173 226.464 442.92 225.664 442.92C224.864 442.92 224.264 443.173 223.864 443.68C223.464 444.173 223.23 444.94 223.164 445.98H228.164ZM244.509 451.5H243.369L243.129 450.6C242.729 450.947 242.256 451.22 241.709 451.42C241.176 451.607 240.589 451.7 239.949 451.7C238.949 451.7 238.196 451.447 237.689 450.94C237.196 450.42 236.949 449.68 236.949 448.72C236.949 447.733 237.256 447.007 237.869 446.54C238.482 446.06 239.509 445.82 240.949 445.82C241.376 445.82 241.749 445.827 242.069 445.84C242.402 445.853 242.709 445.88 242.989 445.92V445.38C242.989 444.487 242.816 443.853 242.469 443.48C242.122 443.093 241.509 442.9 240.629 442.9C240.216 442.9 239.762 442.973 239.269 443.12C238.789 443.253 238.302 443.453 237.809 443.72L237.349 442.56C237.882 442.267 238.449 442.04 239.049 441.88C239.649 441.707 240.269 441.62 240.909 441.62C241.589 441.62 242.156 441.687 242.609 441.82C243.076 441.953 243.449 442.173 243.729 442.48C244.009 442.773 244.209 443.153 244.329 443.62C244.449 444.087 244.509 444.66 244.509 445.34V451.5ZM240.369 450.44C240.809 450.44 241.262 450.347 241.729 450.16C242.209 449.96 242.629 449.7 242.989 449.38V447.16C242.642 447.12 242.296 447.093 241.949 447.08C241.602 447.053 241.216 447.04 240.789 447.04C239.949 447.04 239.349 447.167 238.989 447.42C238.642 447.673 238.469 448.1 238.469 448.7C238.469 449.273 238.616 449.707 238.909 450C239.202 450.293 239.689 450.44 240.369 450.44ZM253.982 442.8C254.435 442.44 254.935 442.153 255.482 441.94C256.028 441.727 256.602 441.62 257.202 441.62C258.322 441.62 259.122 441.893 259.602 442.44C260.095 442.973 260.342 443.847 260.342 445.06V451.5H258.822V445.48C258.822 444.52 258.662 443.853 258.342 443.48C258.035 443.107 257.555 442.92 256.902 442.92C255.968 442.92 255.035 443.26 254.102 443.94V451.5H252.582V441.82H253.722L253.982 442.8ZM266.791 451.7C265.218 451.7 264.098 451.293 263.431 450.48C262.778 449.653 262.451 448.38 262.451 446.66C262.451 444.927 262.785 443.653 263.451 442.84C264.118 442.027 265.138 441.62 266.511 441.62C267.885 441.62 268.905 442.02 269.571 442.82C270.238 443.607 270.571 444.86 270.571 446.58V447.22H264.011C264.065 448.367 264.311 449.187 264.751 449.68C265.191 450.173 265.878 450.42 266.811 450.42C267.371 450.42 267.918 450.34 268.451 450.18C268.998 450.007 269.505 449.773 269.971 449.48L270.471 450.7C269.965 451.007 269.391 451.253 268.751 451.44C268.125 451.613 267.471 451.7 266.791 451.7ZM269.011 445.98C268.945 444.94 268.711 444.173 268.311 443.68C267.911 443.173 267.311 442.92 266.511 442.92C265.711 442.92 265.111 443.173 264.711 443.68C264.311 444.173 264.078 444.94 264.011 445.98H269.011ZM278.711 441.82L280.251 447.28L280.891 449.68H280.931L281.431 447.28L282.691 441.82H284.211L281.651 451.5H280.171L279.011 447.28L278.031 443.74H277.991L277.031 447.28L275.851 451.5H274.391L271.811 441.82H273.351L274.591 447.28L275.111 449.68H275.151L275.771 447.28L277.311 441.82H278.711ZM53.88 473.82V475.12H50.42V483.5H48.9V475.12H47.42V473.82H48.88V473.04C48.88 472.36 48.9533 471.787 49.1 471.32C49.26 470.853 49.4867 470.48 49.78 470.2C50.0733 469.907 50.4267 469.7 50.84 469.58C51.2667 469.447 51.7533 469.38 52.3 469.38C52.6733 469.38 53.0267 469.42 53.36 469.5C53.6933 469.567 54 469.653 54.28 469.76L53.94 471C53.38 470.787 52.8267 470.68 52.28 470.68C51.64 470.68 51.1667 470.88 50.86 471.28C50.5667 471.68 50.42 472.347 50.42 473.28V473.82H53.88ZM59.1522 483.7C57.5789 483.7 56.4589 483.293 55.7922 482.48C55.1389 481.653 54.8122 480.38 54.8122 478.66C54.8122 476.927 55.1455 475.653 55.8122 474.84C56.4789 474.027 57.4989 473.62 58.8722 473.62C60.2455 473.62 61.2655 474.02 61.9322 474.82C62.5989 475.607 62.9322 476.86 62.9322 478.58V479.22H56.3722C56.4255 480.367 56.6722 481.187 57.1122 481.68C57.5522 482.173 58.2389 482.42 59.1722 482.42C59.7322 482.42 60.2789 482.34 60.8122 482.18C61.3589 482.007 61.8655 481.773 62.3322 481.48L62.8322 482.7C62.3255 483.007 61.7522 483.253 61.1122 483.44C60.4855 483.613 59.8322 483.7 59.1522 483.7ZM61.3722 477.98C61.3055 476.94 61.0722 476.173 60.6722 475.68C60.2722 475.173 59.6722 474.92 58.8722 474.92C58.0722 474.92 57.4722 475.173 57.0722 475.68C56.6722 476.173 56.4389 476.94 56.3722 477.98H61.3722ZM72.2122 483.5H71.0722L70.8322 482.6C70.4322 482.947 69.9589 483.22 69.4122 483.42C68.8789 483.607 68.2922 483.7 67.6522 483.7C66.6522 483.7 65.8989 483.447 65.3922 482.94C64.8989 482.42 64.6522 481.68 64.6522 480.72C64.6522 479.733 64.9589 479.007 65.5722 478.54C66.1855 478.06 67.2122 477.82 68.6522 477.82C69.0789 477.82 69.4522 477.827 69.7722 477.84C70.1055 477.853 70.4122 477.88 70.6922 477.92V477.38C70.6922 476.487 70.5189 475.853 70.1722 475.48C69.8255 475.093 69.2122 474.9 68.3322 474.9C67.9189 474.9 67.4655 474.973 66.9722 475.12C66.4922 475.253 66.0055 475.453 65.5122 475.72L65.0522 474.56C65.5855 474.267 66.1522 474.04 66.7522 473.88C67.3522 473.707 67.9722 473.62 68.6122 473.62C69.2922 473.62 69.8589 473.687 70.3122 473.82C70.7789 473.953 71.1522 474.173 71.4322 474.48C71.7122 474.773 71.9122 475.153 72.0322 475.62C72.1522 476.087 72.2122 476.66 72.2122 477.34V483.5ZM68.0722 482.44C68.5122 482.44 68.9655 482.347 69.4322 482.16C69.9122 481.96 70.3322 481.7 70.6922 481.38V479.16C70.3455 479.12 69.9989 479.093 69.6522 479.08C69.3055 479.053 68.9189 479.04 68.4922 479.04C67.6522 479.04 67.0522 479.167 66.6922 479.42C66.3455 479.673 66.1722 480.1 66.1722 480.7C66.1722 481.273 66.3189 481.707 66.6122 482C66.9055 482.293 67.3922 482.44 68.0722 482.44ZM76.9392 475.12V479.9C76.9392 480.34 76.9592 480.72 76.9992 481.04C77.0392 481.36 77.1192 481.627 77.2392 481.84C77.3726 482.04 77.5526 482.187 77.7792 482.28C78.0192 482.373 78.3392 482.42 78.7392 482.42C79.0326 482.42 79.3192 482.387 79.5992 482.32C79.8926 482.253 80.1726 482.173 80.4392 482.08L80.7392 483.24C79.9392 483.547 79.1326 483.7 78.3192 483.7C77.7326 483.7 77.2459 483.62 76.8592 483.46C76.4859 483.3 76.1859 483.08 75.9592 482.8C75.7459 482.507 75.5992 482.16 75.5192 481.76C75.4392 481.347 75.3992 480.893 75.3992 480.4V475.12H73.8192V473.82H75.3992V471.78L76.9392 471.5V473.82H80.3592V475.12H76.9392ZM88.7522 482.54C88.2989 482.9 87.7989 483.187 87.2522 483.4C86.7055 483.6 86.1322 483.7 85.5322 483.7C84.4122 483.7 83.6055 483.433 83.1122 482.9C82.6189 482.367 82.3722 481.493 82.3722 480.28V473.82H83.9122V479.86C83.9122 480.82 84.0655 481.487 84.3722 481.86C84.6922 482.233 85.1789 482.42 85.8322 482.42C86.7655 482.42 87.6922 482.08 88.6122 481.4V473.82H90.1522V483.5H88.9922L88.7522 482.54ZM94.0009 473.82L94.1809 475.1C94.6209 474.62 95.1143 474.253 95.6609 474C96.2076 473.747 96.7609 473.62 97.3209 473.62C97.5476 473.62 97.7409 473.64 97.9009 473.68C98.0743 473.707 98.2543 473.753 98.4409 473.82V475.18C98.0409 475.02 97.6209 474.94 97.1809 474.94C96.6743 474.94 96.1676 475.08 95.6609 475.36C95.1543 475.64 94.7209 475.993 94.3609 476.42V483.5H92.8409V473.82H94.0009ZM103.555 483.7C101.981 483.7 100.861 483.293 100.195 482.48C99.5412 481.653 99.2145 480.38 99.2145 478.66C99.2145 476.927 99.5479 475.653 100.215 474.84C100.881 474.027 101.901 473.62 103.275 473.62C104.648 473.62 105.668 474.02 106.335 474.82C107.001 475.607 107.335 476.86 107.335 478.58V479.22H100.775C100.828 480.367 101.075 481.187 101.515 481.68C101.955 482.173 102.641 482.42 103.575 482.42C104.135 482.42 104.681 482.34 105.215 482.18C105.761 482.007 106.268 481.773 106.735 481.48L107.235 482.7C106.728 483.007 106.155 483.253 105.515 483.44C104.888 483.613 104.235 483.7 103.555 483.7ZM105.775 477.98C105.708 476.94 105.475 476.173 105.075 475.68C104.675 475.173 104.075 474.92 103.275 474.92C102.475 474.92 101.875 475.173 101.475 475.68C101.075 476.173 100.841 476.94 100.775 477.98H105.775ZM34.2862 509.18C34.2862 509.5 34.2263 509.8 34.1063 510.08C33.9863 510.36 33.8196 510.607 33.6063 510.82C33.4063 511.02 33.1663 511.18 32.8863 511.3C32.6196 511.407 32.3263 511.46 32.0063 511.46C31.6863 511.46 31.3863 511.407 31.1063 511.3C30.8263 511.18 30.5796 511.02 30.3663 510.82C30.1663 510.62 30.0063 510.38 29.8863 510.1C29.7663 509.82 29.7063 509.513 29.7063 509.18C29.7063 508.86 29.7663 508.56 29.8863 508.28C30.0063 508 30.1663 507.76 30.3663 507.56C30.5796 507.347 30.8263 507.187 31.1063 507.08C31.3863 506.96 31.6863 506.9 32.0063 506.9C32.3263 506.9 32.6196 506.96 32.8863 507.08C33.1663 507.187 33.4063 507.347 33.6063 507.56C33.8196 507.76 33.9863 508 34.1063 508.28C34.2263 508.56 34.2862 508.86 34.2862 509.18ZM50.16 503.38V508.52H53.3C54.3 508.52 55.0267 508.3 55.48 507.86C55.9333 507.42 56.16 506.78 56.16 505.94C56.16 505.06 55.9333 504.413 55.48 504C55.04 503.587 54.3333 503.38 53.36 503.38H50.16ZM48.62 515.5V502.06H53.26C54.82 502.06 55.9533 502.387 56.66 503.04C57.38 503.68 57.74 504.647 57.74 505.94C57.74 507.833 56.8733 509.04 55.14 509.56L58.1 515.5H56.44L53.62 509.82H50.16V515.5H48.62ZM63.8788 515.7C62.3054 515.7 61.1854 515.293 60.5188 514.48C59.8654 513.653 59.5388 512.38 59.5388 510.66C59.5388 508.927 59.8721 507.653 60.5388 506.84C61.2054 506.027 62.2254 505.62 63.5988 505.62C64.9721 505.62 65.9921 506.02 66.6588 506.82C67.3254 507.607 67.6588 508.86 67.6588 510.58V511.22H61.0988C61.1521 512.367 61.3988 513.187 61.8388 513.68C62.2788 514.173 62.9654 514.42 63.8988 514.42C64.4588 514.42 65.0054 514.34 65.5388 514.18C66.0854 514.007 66.5921 513.773 67.0588 513.48L67.5588 514.7C67.0521 515.007 66.4788 515.253 65.8388 515.44C65.2121 515.613 64.5588 515.7 63.8788 515.7ZM66.0988 509.98C66.0321 508.94 65.7988 508.173 65.3988 507.68C64.9988 507.173 64.3988 506.92 63.5988 506.92C62.7988 506.92 62.1988 507.173 61.7988 507.68C61.3988 508.173 61.1654 508.94 61.0988 509.98H66.0988ZM76.9387 515.5H75.7987L75.5587 514.6C75.1587 514.947 74.6854 515.22 74.1387 515.42C73.6054 515.607 73.0187 515.7 72.3787 515.7C71.3787 515.7 70.6254 515.447 70.1187 514.94C69.6254 514.42 69.3787 513.68 69.3787 512.72C69.3787 511.733 69.6854 511.007 70.2987 510.54C70.9121 510.06 71.9387 509.82 73.3787 509.82C73.8054 509.82 74.1787 509.827 74.4987 509.84C74.8321 509.853 75.1387 509.88 75.4187 509.92V509.38C75.4187 508.487 75.2454 507.853 74.8987 507.48C74.5521 507.093 73.9387 506.9 73.0587 506.9C72.6454 506.9 72.1921 506.973 71.6987 507.12C71.2187 507.253 70.7321 507.453 70.2387 507.72L69.7787 506.56C70.3121 506.267 70.8787 506.04 71.4787 505.88C72.0787 505.707 72.6987 505.62 73.3387 505.62C74.0187 505.62 74.5854 505.687 75.0387 505.82C75.5054 505.953 75.8787 506.173 76.1587 506.48C76.4387 506.773 76.6387 507.153 76.7587 507.62C76.8787 508.087 76.9387 508.66 76.9387 509.34V515.5ZM72.7987 514.44C73.2387 514.44 73.6921 514.347 74.1587 514.16C74.6387 513.96 75.0587 513.7 75.4187 513.38V511.16C75.0721 511.12 74.7254 511.093 74.3787 511.08C74.0321 511.053 73.6454 511.04 73.2187 511.04C72.3787 511.04 71.7787 511.167 71.4187 511.42C71.0721 511.673 70.8987 512.1 70.8987 512.7C70.8987 513.273 71.0454 513.707 71.3387 514C71.6321 514.293 72.1187 514.44 72.7987 514.44ZM81.8458 509.5C82.1524 509.62 82.5324 509.753 82.9858 509.9C83.4524 510.047 83.9124 510.207 84.3658 510.38C85.6591 510.86 86.3058 511.72 86.3058 512.96C86.3058 513.84 85.9991 514.52 85.3858 515C84.7724 515.48 83.7858 515.72 82.4258 515.72C81.6658 515.72 81.0191 515.633 80.4858 515.46C79.9524 515.287 79.4724 515.08 79.0458 514.84L79.5458 513.64C79.9324 513.867 80.3724 514.06 80.8658 514.22C81.3591 514.38 81.8858 514.46 82.4458 514.46C83.2991 514.46 83.8991 514.347 84.2458 514.12C84.5924 513.88 84.7658 513.52 84.7658 513.04C84.7658 512.4 84.3858 511.927 83.6258 511.62C83.1991 511.447 82.7524 511.287 82.2858 511.14C81.8324 510.993 81.3991 510.847 80.9858 510.7C80.4524 510.513 80.0258 510.227 79.7058 509.84C79.3991 509.44 79.2458 508.92 79.2458 508.28C79.2458 507.507 79.5458 506.867 80.1458 506.36C80.7591 505.853 81.6724 505.6 82.8858 505.6C83.5258 505.6 84.0991 505.667 84.6058 505.8C85.1124 505.92 85.5391 506.067 85.8858 506.24L85.4258 507.4C85.0391 507.213 84.6524 507.08 84.2658 507C83.8791 506.907 83.4058 506.86 82.8458 506.86C82.4458 506.86 82.1124 506.9 81.8458 506.98C81.5791 507.06 81.3658 507.167 81.2058 507.3C81.0591 507.42 80.9524 507.56 80.8858 507.72C80.8191 507.88 80.7858 508.04 80.7858 508.2C80.7858 508.52 80.8658 508.78 81.0258 508.98C81.1858 509.18 81.4591 509.353 81.8458 509.5ZM90.7887 509.5C91.0954 509.62 91.4754 509.753 91.9287 509.9C92.3954 510.047 92.8554 510.207 93.3087 510.38C94.6021 510.86 95.2487 511.72 95.2487 512.96C95.2487 513.84 94.9421 514.52 94.3287 515C93.7154 515.48 92.7287 515.72 91.3687 515.72C90.6087 515.72 89.9621 515.633 89.4287 515.46C88.8954 515.287 88.4154 515.08 87.9887 514.84L88.4887 513.64C88.8754 513.867 89.3154 514.06 89.8087 514.22C90.3021 514.38 90.8287 514.46 91.3887 514.46C92.2421 514.46 92.8421 514.347 93.1887 514.12C93.5354 513.88 93.7087 513.52 93.7087 513.04C93.7087 512.4 93.3287 511.927 92.5687 511.62C92.1421 511.447 91.6954 511.287 91.2287 511.14C90.7754 510.993 90.3421 510.847 89.9287 510.7C89.3954 510.513 88.9687 510.227 88.6487 509.84C88.3421 509.44 88.1887 508.92 88.1887 508.28C88.1887 507.507 88.4887 506.867 89.0887 506.36C89.7021 505.853 90.6154 505.6 91.8287 505.6C92.4687 505.6 93.0421 505.667 93.5487 505.8C94.0554 505.92 94.4821 506.067 94.8287 506.24L94.3687 507.4C93.9821 507.213 93.5954 507.08 93.2087 507C92.8221 506.907 92.3487 506.86 91.7887 506.86C91.3887 506.86 91.0554 506.9 90.7887 506.98C90.5221 507.06 90.3087 507.167 90.1487 507.3C90.0021 507.42 89.8954 507.56 89.8287 507.72C89.7621 507.88 89.7287 508.04 89.7287 508.2C89.7287 508.52 89.8087 508.78 89.9687 508.98C90.1287 509.18 90.4021 509.353 90.7887 509.5ZM103.672 514.54C103.218 514.9 102.718 515.187 102.172 515.4C101.625 515.6 101.052 515.7 100.452 515.7C99.3317 515.7 98.5251 515.433 98.0317 514.9C97.5384 514.367 97.2917 513.493 97.2917 512.28V505.82H98.8317V511.86C98.8317 512.82 98.9851 513.487 99.2917 513.86C99.6117 514.233 100.098 514.42 100.752 514.42C101.685 514.42 102.612 514.08 103.532 513.4V505.82H105.072V515.5H103.912L103.672 514.54ZM108.92 505.82L109.1 507.1C109.54 506.62 110.034 506.253 110.58 506C111.127 505.747 111.68 505.62 112.24 505.62C112.467 505.62 112.66 505.64 112.82 505.68C112.994 505.707 113.174 505.753 113.36 505.82V507.18C112.96 507.02 112.54 506.94 112.1 506.94C111.594 506.94 111.087 507.08 110.58 507.36C110.074 507.64 109.64 507.993 109.28 508.42V515.5H107.76V505.82H108.92ZM114.97 505.82H116.49V515.5H114.97V505.82ZM114.95 501.66H116.49V503.66H114.95V501.66ZM120.777 506.8C121.23 506.44 121.73 506.153 122.277 505.94C122.824 505.727 123.397 505.62 123.997 505.62C125.117 505.62 125.917 505.893 126.397 506.44C126.89 506.973 127.137 507.847 127.137 509.06V515.5H125.617V509.48C125.617 508.52 125.457 507.853 125.137 507.48C124.83 507.107 124.35 506.92 123.697 506.92C122.764 506.92 121.83 507.26 120.897 507.94V515.5H119.377V505.82H120.517L120.777 506.8ZM137.367 505.82V515.62C137.367 517.1 137.007 518.173 136.287 518.84C135.58 519.52 134.52 519.86 133.107 519.86C132.547 519.86 132.013 519.813 131.507 519.72C131 519.64 130.553 519.527 130.167 519.38L130.487 518.12C131.247 518.413 132.113 518.56 133.087 518.56C134.047 518.56 134.74 518.34 135.167 517.9C135.607 517.46 135.827 516.74 135.827 515.74V514.74C135.493 515.047 135.087 515.287 134.607 515.46C134.14 515.62 133.627 515.7 133.067 515.7C131.813 515.7 130.86 515.293 130.207 514.48C129.567 513.667 129.247 512.393 129.247 510.66C129.247 508.94 129.58 507.673 130.247 506.86C130.913 506.033 131.907 505.62 133.227 505.62C133.787 505.62 134.3 505.713 134.767 505.9C135.233 506.087 135.64 506.34 135.987 506.66L136.227 505.82H137.367ZM133.467 506.9C132.547 506.9 131.867 507.193 131.427 507.78C131 508.367 130.787 509.327 130.787 510.66C130.787 512.007 131 512.973 131.427 513.56C131.867 514.147 132.547 514.44 133.467 514.44C133.933 514.44 134.367 514.347 134.767 514.16C135.18 513.973 135.533 513.72 135.827 513.4V507.94C135.533 507.62 135.18 507.367 134.767 507.18C134.367 506.993 133.933 506.9 133.467 506.9ZM146.701 505.82L146.961 506.66C147.308 506.34 147.708 506.087 148.161 505.9C148.628 505.713 149.141 505.62 149.701 505.62C151.021 505.62 152.015 506.033 152.681 506.86C153.348 507.673 153.681 508.94 153.681 510.66C153.681 512.393 153.355 513.667 152.701 514.48C152.061 515.293 151.115 515.7 149.861 515.7C149.328 515.7 148.815 515.62 148.321 515.46C147.828 515.287 147.421 515.047 147.101 514.74V519.66H145.561V505.82H146.701ZM149.461 506.9C148.995 506.9 148.555 506.993 148.141 507.18C147.741 507.367 147.395 507.62 147.101 507.94V513.4C147.395 513.72 147.741 513.973 148.141 514.16C148.555 514.347 148.995 514.44 149.461 514.44C150.381 514.44 151.061 514.147 151.501 513.56C151.941 512.973 152.161 512.007 152.161 510.66C152.161 509.327 151.941 508.367 151.501 507.78C151.061 507.193 150.381 506.9 149.461 506.9ZM159.79 515.7C158.217 515.7 157.097 515.293 156.43 514.48C155.777 513.653 155.45 512.38 155.45 510.66C155.45 508.927 155.784 507.653 156.45 506.84C157.117 506.027 158.137 505.62 159.51 505.62C160.884 505.62 161.904 506.02 162.57 506.82C163.237 507.607 163.57 508.86 163.57 510.58V511.22H157.01C157.064 512.367 157.31 513.187 157.75 513.68C158.19 514.173 158.877 514.42 159.81 514.42C160.37 514.42 160.917 514.34 161.45 514.18C161.997 514.007 162.504 513.773 162.97 513.48L163.47 514.7C162.964 515.007 162.39 515.253 161.75 515.44C161.124 515.613 160.47 515.7 159.79 515.7ZM162.01 509.98C161.944 508.94 161.71 508.173 161.31 507.68C160.91 507.173 160.31 506.92 159.51 506.92C158.71 506.92 158.11 507.173 157.71 507.68C157.31 508.173 157.077 508.94 157.01 509.98H162.01ZM165.35 510.66C165.35 508.927 165.697 507.653 166.39 506.84C167.097 506.027 168.217 505.62 169.75 505.62C171.27 505.62 172.377 506.027 173.07 506.84C173.777 507.653 174.13 508.927 174.13 510.66C174.13 512.393 173.777 513.667 173.07 514.48C172.364 515.293 171.257 515.7 169.75 515.7C168.23 515.7 167.117 515.293 166.41 514.48C165.704 513.667 165.35 512.393 165.35 510.66ZM166.89 510.66C166.89 511.98 167.117 512.94 167.57 513.54C168.024 514.127 168.75 514.42 169.75 514.42C170.75 514.42 171.477 514.127 171.93 513.54C172.384 512.94 172.61 511.98 172.61 510.66C172.61 509.367 172.384 508.42 171.93 507.82C171.477 507.22 170.75 506.92 169.75 506.92C168.75 506.92 168.024 507.22 167.57 507.82C167.117 508.42 166.89 509.367 166.89 510.66ZM177.495 505.82L177.755 506.66C178.102 506.34 178.502 506.087 178.955 505.9C179.422 505.713 179.935 505.62 180.495 505.62C181.815 505.62 182.808 506.033 183.475 506.86C184.142 507.673 184.475 508.94 184.475 510.66C184.475 512.393 184.148 513.667 183.495 514.48C182.855 515.293 181.908 515.7 180.655 515.7C180.122 515.7 179.608 515.62 179.115 515.46C178.622 515.287 178.215 515.047 177.895 514.74V519.66H176.355V505.82H177.495ZM180.255 506.9C179.788 506.9 179.348 506.993 178.935 507.18C178.535 507.367 178.188 507.62 177.895 507.94V513.4C178.188 513.72 178.535 513.973 178.935 514.16C179.348 514.347 179.788 514.44 180.255 514.44C181.175 514.44 181.855 514.147 182.295 513.56C182.735 512.973 182.955 512.007 182.955 510.66C182.955 509.327 182.735 508.367 182.295 507.78C181.855 507.193 181.175 506.9 180.255 506.9ZM189.404 515.64C189.338 515.667 189.244 515.68 189.124 515.68C189.004 515.693 188.904 515.7 188.824 515.7C188.144 515.7 187.651 515.5 187.344 515.1C187.051 514.687 186.904 514.06 186.904 513.22V501.62L188.424 501.38V513C188.424 513.307 188.438 513.553 188.464 513.74C188.491 513.927 188.538 514.073 188.604 514.18C188.684 514.287 188.784 514.36 188.904 514.4C189.038 514.427 189.204 514.44 189.404 514.44V515.64ZM195.328 515.7C193.755 515.7 192.635 515.293 191.968 514.48C191.315 513.653 190.988 512.38 190.988 510.66C190.988 508.927 191.321 507.653 191.988 506.84C192.655 506.027 193.675 505.62 195.048 505.62C196.421 505.62 197.441 506.02 198.108 506.82C198.775 507.607 199.108 508.86 199.108 510.58V511.22H192.548C192.601 512.367 192.848 513.187 193.288 513.68C193.728 514.173 194.415 514.42 195.348 514.42C195.908 514.42 196.455 514.34 196.988 514.18C197.535 514.007 198.041 513.773 198.508 513.48L199.008 514.7C198.501 515.007 197.928 515.253 197.288 515.44C196.661 515.613 196.008 515.7 195.328 515.7ZM197.548 509.98C197.481 508.94 197.248 508.173 196.848 507.68C196.448 507.173 195.848 506.92 195.048 506.92C194.248 506.92 193.648 507.173 193.248 507.68C192.848 508.173 192.615 508.94 192.548 509.98H197.548ZM213.893 515.5H212.753L212.513 514.6C212.113 514.947 211.64 515.22 211.093 515.42C210.56 515.607 209.973 515.7 209.333 515.7C208.333 515.7 207.58 515.447 207.073 514.94C206.58 514.42 206.333 513.68 206.333 512.72C206.333 511.733 206.64 511.007 207.253 510.54C207.867 510.06 208.893 509.82 210.333 509.82C210.76 509.82 211.133 509.827 211.453 509.84C211.787 509.853 212.093 509.88 212.373 509.92V509.38C212.373 508.487 212.2 507.853 211.853 507.48C211.507 507.093 210.893 506.9 210.013 506.9C209.6 506.9 209.147 506.973 208.653 507.12C208.173 507.253 207.687 507.453 207.193 507.72L206.733 506.56C207.267 506.267 207.833 506.04 208.433 505.88C209.033 505.707 209.653 505.62 210.293 505.62C210.973 505.62 211.54 505.687 211.993 505.82C212.46 505.953 212.833 506.173 213.113 506.48C213.393 506.773 213.593 507.153 213.713 507.62C213.833 508.087 213.893 508.66 213.893 509.34V515.5ZM209.753 514.44C210.193 514.44 210.647 514.347 211.113 514.16C211.593 513.96 212.013 513.7 212.373 513.38V511.16C212.027 511.12 211.68 511.093 211.333 511.08C210.987 511.053 210.6 511.04 210.173 511.04C209.333 511.04 208.733 511.167 208.373 511.42C208.027 511.673 207.853 512.1 207.853 512.7C207.853 513.273 208 513.707 208.293 514C208.587 514.293 209.073 514.44 209.753 514.44ZM218.62 507.12V511.9C218.62 512.34 218.64 512.72 218.68 513.04C218.72 513.36 218.8 513.627 218.92 513.84C219.054 514.04 219.234 514.187 219.46 514.28C219.7 514.373 220.02 514.42 220.42 514.42C220.714 514.42 221 514.387 221.28 514.32C221.574 514.253 221.854 514.173 222.12 514.08L222.42 515.24C221.62 515.547 220.814 515.7 220 515.7C219.414 515.7 218.927 515.62 218.54 515.46C218.167 515.3 217.867 515.08 217.64 514.8C217.427 514.507 217.28 514.16 217.2 513.76C217.12 513.347 217.08 512.893 217.08 512.4V507.12H215.5V505.82H217.08V503.78L218.62 503.5V505.82H222.04V507.12H218.62ZM230.799 505.82L231.059 506.66C231.406 506.34 231.806 506.087 232.259 505.9C232.726 505.713 233.239 505.62 233.799 505.62C235.119 505.62 236.112 506.033 236.779 506.86C237.446 507.673 237.779 508.94 237.779 510.66C237.779 512.393 237.452 513.667 236.799 514.48C236.159 515.293 235.212 515.7 233.959 515.7C233.426 515.7 232.912 515.62 232.419 515.46C231.926 515.287 231.519 515.047 231.199 514.74V519.66H229.659V505.82H230.799ZM233.559 506.9C233.092 506.9 232.652 506.993 232.239 507.18C231.839 507.367 231.492 507.62 231.199 507.94V513.4C231.492 513.72 231.839 513.973 232.239 514.16C232.652 514.347 233.092 514.44 233.559 514.44C234.479 514.44 235.159 514.147 235.599 513.56C236.039 512.973 236.259 512.007 236.259 510.66C236.259 509.327 236.039 508.367 235.599 507.78C235.159 507.193 234.479 506.9 233.559 506.9ZM239.548 510.66C239.548 508.927 239.895 507.653 240.588 506.84C241.295 506.027 242.415 505.62 243.948 505.62C245.468 505.62 246.575 506.027 247.268 506.84C247.975 507.653 248.328 508.927 248.328 510.66C248.328 512.393 247.975 513.667 247.268 514.48C246.561 515.293 245.455 515.7 243.948 515.7C242.428 515.7 241.315 515.293 240.608 514.48C239.901 513.667 239.548 512.393 239.548 510.66ZM241.088 510.66C241.088 511.98 241.315 512.94 241.768 513.54C242.221 514.127 242.948 514.42 243.948 514.42C244.948 514.42 245.675 514.127 246.128 513.54C246.581 512.94 246.808 511.98 246.808 510.66C246.808 509.367 246.581 508.42 246.128 507.82C245.675 507.22 244.948 506.92 243.948 506.92C242.948 506.92 242.221 507.22 241.768 507.82C241.315 508.42 241.088 509.367 241.088 510.66ZM250.773 505.82H252.293V515.5H250.773V505.82ZM250.753 501.66H252.293V503.66H250.753V501.66ZM256.579 506.8C257.033 506.44 257.533 506.153 258.079 505.94C258.626 505.727 259.199 505.62 259.799 505.62C260.919 505.62 261.719 505.893 262.199 506.44C262.693 506.973 262.939 507.847 262.939 509.06V515.5H261.419V509.48C261.419 508.52 261.259 507.853 260.939 507.48C260.633 507.107 260.153 506.92 259.499 506.92C258.566 506.92 257.633 507.26 256.699 507.94V515.5H255.179V505.82H256.319L256.579 506.8ZM267.669 507.12V511.9C267.669 512.34 267.689 512.72 267.729 513.04C267.769 513.36 267.849 513.627 267.969 513.84C268.102 514.04 268.282 514.187 268.509 514.28C268.749 514.373 269.069 514.42 269.469 514.42C269.762 514.42 270.049 514.387 270.329 514.32C270.622 514.253 270.902 514.173 271.169 514.08L271.469 515.24C270.669 515.547 269.862 515.7 269.049 515.7C268.462 515.7 267.976 515.62 267.589 515.46C267.216 515.3 266.916 515.08 266.689 514.8C266.476 514.507 266.329 514.16 266.249 513.76C266.169 513.347 266.129 512.893 266.129 512.4V507.12H264.549V505.82H266.129V503.78L267.669 503.5V505.82H271.089V507.12H267.669ZM278.247 510.66C278.247 508.927 278.594 507.653 279.287 506.84C279.994 506.027 281.114 505.62 282.647 505.62C284.167 505.62 285.274 506.027 285.967 506.84C286.674 507.653 287.027 508.927 287.027 510.66C287.027 512.393 286.674 513.667 285.967 514.48C285.261 515.293 284.154 515.7 282.647 515.7C281.127 515.7 280.014 515.293 279.307 514.48C278.601 513.667 278.247 512.393 278.247 510.66ZM279.787 510.66C279.787 511.98 280.014 512.94 280.467 513.54C280.921 514.127 281.647 514.42 282.647 514.42C283.647 514.42 284.374 514.127 284.827 513.54C285.281 512.94 285.507 511.98 285.507 510.66C285.507 509.367 285.281 508.42 284.827 507.82C284.374 507.22 283.647 506.92 282.647 506.92C281.647 506.92 280.921 507.22 280.467 507.82C280.014 508.42 279.787 509.367 279.787 510.66ZM294.635 505.82V507.12H291.175V515.5H289.655V507.12H288.175V505.82H289.635V505.04C289.635 504.36 289.708 503.787 289.855 503.32C290.015 502.853 290.241 502.48 290.535 502.2C290.828 501.907 291.181 501.7 291.595 501.58C292.021 501.447 292.508 501.38 293.055 501.38C293.428 501.38 293.781 501.42 294.115 501.5C294.448 501.567 294.755 501.653 295.035 501.76L294.695 503C294.135 502.787 293.581 502.68 293.035 502.68C292.395 502.68 291.921 502.88 291.615 503.28C291.321 503.68 291.175 504.347 291.175 505.28V505.82H294.635ZM49.52 537.82L49.78 538.66C50.1267 538.34 50.5267 538.087 50.98 537.9C51.4467 537.713 51.96 537.62 52.52 537.62C53.84 537.62 54.8333 538.033 55.5 538.86C56.1667 539.673 56.5 540.94 56.5 542.66C56.5 544.393 56.1733 545.667 55.52 546.48C54.88 547.293 53.9333 547.7 52.68 547.7C52.1467 547.7 51.6333 547.62 51.14 547.46C50.6467 547.287 50.24 547.047 49.92 546.74V551.66H48.38V537.82H49.52ZM52.28 538.9C51.8133 538.9 51.3733 538.993 50.96 539.18C50.56 539.367 50.2133 539.62 49.92 539.94V545.4C50.2133 545.72 50.56 545.973 50.96 546.16C51.3733 546.347 51.8133 546.44 52.28 546.44C53.2 546.44 53.88 546.147 54.32 545.56C54.76 544.973 54.98 544.007 54.98 542.66C54.98 541.327 54.76 540.367 54.32 539.78C53.88 539.193 53.2 538.9 52.28 538.9ZM65.0092 546.54C64.5559 546.9 64.0559 547.187 63.5092 547.4C62.9626 547.6 62.3892 547.7 61.7892 547.7C60.6692 547.7 59.8626 547.433 59.3692 546.9C58.8759 546.367 58.6292 545.493 58.6292 544.28V537.82H60.1692V543.86C60.1692 544.82 60.3226 545.487 60.6292 545.86C60.9492 546.233 61.4359 546.42 62.0892 546.42C63.0226 546.42 63.9492 546.08 64.8692 545.4V537.82H66.4092V547.5H65.2492L65.0092 546.54ZM70.258 537.82L70.438 539.1C70.878 538.62 71.3713 538.253 71.918 538C72.4646 537.747 73.018 537.62 73.578 537.62C73.8046 537.62 73.998 537.64 74.158 537.68C74.3313 537.707 74.5113 537.753 74.698 537.82V539.18C74.298 539.02 73.878 538.94 73.438 538.94C72.9313 538.94 72.4246 539.08 71.918 539.36C71.4113 539.64 70.978 539.993 70.618 540.42V547.5H69.098V537.82H70.258ZM80.0716 546.42C81.0049 546.42 81.8382 546.187 82.5716 545.72L83.0116 546.94C82.6249 547.167 82.1782 547.353 81.6716 547.5C81.1782 547.633 80.6449 547.7 80.0716 547.7C78.4849 547.7 77.3249 547.307 76.5916 546.52C75.8582 545.72 75.4916 544.433 75.4916 542.66C75.4916 540.927 75.8449 539.653 76.5516 538.84C77.2582 538.027 78.3649 537.62 79.8716 537.62C81.1649 537.62 82.2249 538.013 83.0516 538.8L82.2116 539.84C81.9182 539.547 81.5716 539.32 81.1716 539.16C80.7849 538.987 80.3649 538.9 79.9116 538.9C78.9516 538.9 78.2249 539.193 77.7316 539.78C77.2516 540.353 77.0116 541.313 77.0116 542.66C77.0116 544.007 77.2649 544.973 77.7716 545.56C78.2782 546.133 79.0449 546.42 80.0716 546.42ZM86.4922 538.7C87.4122 537.98 88.4455 537.62 89.5922 537.62C90.7122 537.62 91.5122 537.887 91.9922 538.42C92.4855 538.94 92.7322 539.82 92.7322 541.06V547.5H91.2122V541.48C91.2122 540.52 91.0522 539.853 90.7322 539.48C90.4255 539.107 89.9455 538.92 89.2922 538.92C88.3589 538.92 87.4255 539.26 86.4922 539.94V547.5H84.9722V533.58L86.4922 533.38V538.7ZM102.342 547.5H101.202L100.962 546.6C100.562 546.947 100.089 547.22 99.5419 547.42C99.0085 547.607 98.4219 547.7 97.7819 547.7C96.7819 547.7 96.0285 547.447 95.5219 546.94C95.0285 546.42 94.7819 545.68 94.7819 544.72C94.7819 543.733 95.0885 543.007 95.7019 542.54C96.3152 542.06 97.3419 541.82 98.7819 541.82C99.2085 541.82 99.5819 541.827 99.9019 541.84C100.235 541.853 100.542 541.88 100.822 541.92V541.38C100.822 540.487 100.649 539.853 100.302 539.48C99.9552 539.093 99.3419 538.9 98.4619 538.9C98.0485 538.9 97.5952 538.973 97.1019 539.12C96.6219 539.253 96.1352 539.453 95.6419 539.72L95.1819 538.56C95.7152 538.267 96.2819 538.04 96.8819 537.88C97.4819 537.707 98.1019 537.62 98.7419 537.62C99.4219 537.62 99.9885 537.687 100.442 537.82C100.909 537.953 101.282 538.173 101.562 538.48C101.842 538.773 102.042 539.153 102.162 539.62C102.282 540.087 102.342 540.66 102.342 541.34V547.5ZM98.2019 546.44C98.6419 546.44 99.0952 546.347 99.5619 546.16C100.042 545.96 100.462 545.7 100.822 545.38V543.16C100.475 543.12 100.129 543.093 99.7819 543.08C99.4352 543.053 99.0485 543.04 98.6219 543.04C97.7819 543.04 97.1819 543.167 96.8219 543.42C96.4752 543.673 96.3019 544.1 96.3019 544.7C96.3019 545.273 96.4485 545.707 96.7419 546C97.0352 546.293 97.5219 546.44 98.2019 546.44ZM107.249 541.5C107.556 541.62 107.936 541.753 108.389 541.9C108.856 542.047 109.316 542.207 109.769 542.38C111.062 542.86 111.709 543.72 111.709 544.96C111.709 545.84 111.402 546.52 110.789 547C110.176 547.48 109.189 547.72 107.829 547.72C107.069 547.72 106.422 547.633 105.889 547.46C105.356 547.287 104.876 547.08 104.449 546.84L104.949 545.64C105.336 545.867 105.776 546.06 106.269 546.22C106.762 546.38 107.289 546.46 107.849 546.46C108.702 546.46 109.302 546.347 109.649 546.12C109.996 545.88 110.169 545.52 110.169 545.04C110.169 544.4 109.789 543.927 109.029 543.62C108.602 543.447 108.156 543.287 107.689 543.14C107.236 542.993 106.802 542.847 106.389 542.7C105.856 542.513 105.429 542.227 105.109 541.84C104.802 541.44 104.649 540.92 104.649 540.28C104.649 539.507 104.949 538.867 105.549 538.36C106.162 537.853 107.076 537.6 108.289 537.6C108.929 537.6 109.502 537.667 110.009 537.8C110.516 537.92 110.942 538.067 111.289 538.24L110.829 539.4C110.442 539.213 110.056 539.08 109.669 539C109.282 538.907 108.809 538.86 108.249 538.86C107.849 538.86 107.516 538.9 107.249 538.98C106.982 539.06 106.769 539.167 106.609 539.3C106.462 539.42 106.356 539.56 106.289 539.72C106.222 539.88 106.189 540.04 106.189 540.2C106.189 540.52 106.269 540.78 106.429 540.98C106.589 541.18 106.862 541.353 107.249 541.5ZM117.732 547.7C116.159 547.7 115.039 547.293 114.372 546.48C113.719 545.653 113.392 544.38 113.392 542.66C113.392 540.927 113.725 539.653 114.392 538.84C115.059 538.027 116.079 537.62 117.452 537.62C118.825 537.62 119.845 538.02 120.512 538.82C121.179 539.607 121.512 540.86 121.512 542.58V543.22H114.952C115.005 544.367 115.252 545.187 115.692 545.68C116.132 546.173 116.819 546.42 117.752 546.42C118.312 546.42 118.859 546.34 119.392 546.18C119.939 546.007 120.445 545.773 120.912 545.48L121.412 546.7C120.905 547.007 120.332 547.253 119.692 547.44C119.065 547.613 118.412 547.7 117.732 547.7ZM119.952 541.98C119.885 540.94 119.652 540.173 119.252 539.68C118.852 539.173 118.252 538.92 117.452 538.92C116.652 538.92 116.052 539.173 115.652 539.68C115.252 540.173 115.019 540.94 114.952 541.98H119.952Z" fill="#4A4946"/>
</svg>
