<svg width="492" height="370" viewBox="0 0 492 370" fill="none" xmlns="http://www.w3.org/2000/svg">
<path d="M159.059 13.308L163.847 33.18L168.635 13.308H171.875L176.663 33.18L181.451 13.308H184.907L178.463 37.5H174.863L170.255 19.608L165.647 37.5H162.047L155.603 13.308H159.059ZM187.322 16.8V13.308H190.562V16.8H187.322ZM187.322 37.5V20.04H190.562V37.5H187.322ZM193.233 20.04H196.005V15.468H199.245V20.04H203.529V22.884H199.245V33.288C199.245 34.44 199.677 34.692 200.865 34.692H203.529V37.5H200.505C198.129 37.5 196.005 36.42 196.005 33.612V22.884H193.233V20.04ZM209.587 37.5H206.383V13.308H209.587V22.164C210.775 20.544 212.683 19.572 215.203 19.572C219.523 19.572 222.151 22.632 222.151 27.168V37.5H218.947V26.916C218.947 23.748 217.543 22.488 214.339 22.488C211.099 22.488 209.587 23.748 209.587 26.916V37.5Z" fill="#262626"/>
<path d="M246.025 13.308H250.021V37.5H246.529L246.241 35.484C244.909 37.104 243.001 38.004 240.625 38.004C235.909 38.004 232.273 34.224 232.273 28.68C232.273 23.208 235.909 19.464 240.625 19.464C242.857 19.464 244.693 20.256 246.025 21.696V13.308ZM236.233 28.68C236.233 32.856 237.709 34.476 241.201 34.476C244.729 34.476 246.205 32.856 246.205 28.68C246.205 24.576 244.729 22.956 241.201 22.956C237.709 22.956 236.233 24.576 236.233 28.68ZM270.265 32.388C269.077 35.916 265.801 38.004 261.913 38.004C256.837 38.004 252.913 34.296 252.913 28.68C252.913 23.136 256.837 19.464 261.805 19.464C266.233 19.464 270.589 22.524 270.589 28.752V29.868H256.909C257.197 33.36 258.709 34.476 261.913 34.476C264.361 34.476 265.549 33.9 266.269 32.388H270.265ZM256.981 26.916H266.665C266.341 24.072 264.901 22.956 261.805 22.956C258.889 22.956 257.377 23.964 256.981 26.916ZM283.805 32.712C283.805 31.488 283.049 30.984 281.249 30.552L278.261 29.868C274.769 29.04 272.969 27.6 272.969 24.576C272.969 21.444 276.245 19.464 280.133 19.464C284.021 19.464 287.117 21.444 287.621 25.008H283.697C283.445 23.388 282.365 22.812 280.133 22.812C277.937 22.812 276.929 23.424 276.929 24.576C276.929 25.548 277.397 26.052 279.233 26.484L282.329 27.276C285.893 28.14 287.729 29.436 287.729 32.604C287.729 36.132 284.309 38.004 280.241 38.004C276.461 38.004 272.969 36.24 272.393 32.028H276.317C276.677 34.116 277.829 34.62 280.241 34.62C282.581 34.62 283.805 34.008 283.805 32.712ZM290.598 17.232V13.308H294.594V17.232H290.598ZM290.598 37.5V19.932H294.594V37.5H290.598ZM305.747 37.356C301.067 37.356 297.431 33.756 297.431 28.356C297.431 23.028 301.067 19.464 305.747 19.464C308.087 19.464 309.995 20.328 311.327 21.876L311.579 19.932H315.107V36.708C314.963 41.316 311.507 44.484 306.431 44.484C301.751 44.484 298.835 42.144 297.863 38.796H302.075C302.759 40.488 303.803 41.172 306.611 41.172C309.563 41.172 311.111 39.768 311.111 37.32V35.196C309.779 36.6 307.943 37.356 305.747 37.356ZM301.391 28.356C301.391 32.388 302.939 33.828 306.323 33.828C309.743 33.828 311.291 32.388 311.291 28.356C311.291 24.396 309.743 22.956 306.323 22.956C302.939 22.956 301.391 24.396 301.391 28.356ZM331.034 26.88C331.034 24.072 329.882 22.956 327.038 22.956C324.194 22.956 322.97 24.072 322.97 26.88V37.5H319.046V19.932H322.466L322.754 22.092C324.014 20.436 325.886 19.464 328.298 19.464C332.366 19.464 334.994 22.524 334.994 26.952V37.5H331.034V26.88Z" fill="#FD312E"/>
<rect x="36" y="80.5" width="420" height="1" fill="#4A4946"/>
<circle cx="411" cy="81.5" r="15" fill="#F6F3EB"/>
<circle cx="411" cy="81.5" r="14.5" stroke="#4A4946" stroke-opacity="0.8"/>
<rect y="169.5" width="492" height="200" rx="10" fill="#F9F8F3"/>
<path d="M49.0149 230.548C49.0149 230.9 48.9489 231.23 48.8169 231.538C48.6849 231.846 48.5015 232.117 48.2669 232.352C48.0469 232.572 47.7829 232.748 47.4749 232.88C47.1815 232.997 46.8589 233.056 46.5069 233.056C46.1549 233.056 45.8249 232.997 45.5169 232.88C45.2089 232.748 44.9375 232.572 44.7029 232.352C44.4829 232.132 44.3069 231.868 44.1749 231.56C44.0429 231.252 43.9769 230.915 43.9769 230.548C43.9769 230.196 44.0429 229.866 44.1749 229.558C44.3069 229.25 44.4829 228.986 44.7029 228.766C44.9375 228.531 45.2089 228.355 45.5169 228.238C45.8249 228.106 46.1549 228.04 46.5069 228.04C46.8589 228.04 47.1815 228.106 47.4749 228.238C47.7829 228.355 48.0469 228.531 48.2669 228.766C48.5015 228.986 48.6849 229.25 48.8169 229.558C48.9489 229.866 49.0149 230.196 49.0149 230.548ZM73.538 236.07V237.5H64.782V222.716H66.476V236.07H73.538ZM82.9157 237.5H81.6617L81.3977 236.51C80.9577 236.891 80.437 237.192 79.8357 237.412C79.249 237.617 78.6037 237.72 77.8997 237.72C76.7997 237.72 75.971 237.441 75.4137 236.884C74.871 236.312 74.5997 235.498 74.5997 234.442C74.5997 233.357 74.937 232.557 75.6117 232.044C76.2863 231.516 77.4157 231.252 78.9997 231.252C79.469 231.252 79.8797 231.259 80.2317 231.274C80.5983 231.289 80.9357 231.318 81.2437 231.362V230.768C81.2437 229.785 81.053 229.089 80.6717 228.678C80.2903 228.253 79.6157 228.04 78.6477 228.04C78.193 228.04 77.6943 228.121 77.1517 228.282C76.6237 228.429 76.0883 228.649 75.5457 228.942L75.0397 227.666C75.6263 227.343 76.2497 227.094 76.9097 226.918C77.5697 226.727 78.2517 226.632 78.9557 226.632C79.7037 226.632 80.327 226.705 80.8257 226.852C81.339 226.999 81.7497 227.241 82.0577 227.578C82.3657 227.901 82.5857 228.319 82.7177 228.832C82.8497 229.345 82.9157 229.976 82.9157 230.724V237.5ZM78.3617 236.334C78.8457 236.334 79.3443 236.231 79.8577 236.026C80.3857 235.806 80.8477 235.52 81.2437 235.168V232.726C80.8623 232.682 80.481 232.653 80.0997 232.638C79.7183 232.609 79.293 232.594 78.8237 232.594C77.8997 232.594 77.2397 232.733 76.8437 233.012C76.4623 233.291 76.2717 233.76 76.2717 234.42C76.2717 235.051 76.433 235.527 76.7557 235.85C77.0783 236.173 77.6137 236.334 78.3617 236.334ZM92.6474 236.444C92.1487 236.84 91.5987 237.155 90.9974 237.39C90.3961 237.61 89.7654 237.72 89.1054 237.72C87.8734 237.72 86.9861 237.427 86.4434 236.84C85.9007 236.253 85.6294 235.293 85.6294 233.958V226.852H87.3234V233.496C87.3234 234.552 87.4921 235.285 87.8294 235.696C88.1814 236.107 88.7167 236.312 89.4354 236.312C90.4621 236.312 91.4814 235.938 92.4934 235.19V226.852H94.1874V237.5H92.9114L92.6474 236.444ZM98.685 227.93C99.1837 227.534 99.7337 227.219 100.335 226.984C100.936 226.749 101.567 226.632 102.227 226.632C103.459 226.632 104.339 226.933 104.867 227.534C105.41 228.121 105.681 229.081 105.681 230.416V237.5H104.009V230.878C104.009 229.822 103.833 229.089 103.481 228.678C103.144 228.267 102.616 228.062 101.897 228.062C100.87 228.062 99.8437 228.436 98.817 229.184V237.5H97.145V226.852H98.399L98.685 227.93ZM113.062 236.312C114.088 236.312 115.005 236.055 115.812 235.542L116.296 236.884C115.87 237.133 115.379 237.339 114.822 237.5C114.279 237.647 113.692 237.72 113.062 237.72C111.316 237.72 110.04 237.287 109.234 236.422C108.427 235.542 108.024 234.127 108.024 232.176C108.024 230.269 108.412 228.869 109.19 227.974C109.967 227.079 111.184 226.632 112.842 226.632C114.264 226.632 115.43 227.065 116.34 227.93L115.416 229.074C115.093 228.751 114.712 228.502 114.272 228.326C113.846 228.135 113.384 228.04 112.886 228.04C111.83 228.04 111.03 228.363 110.488 229.008C109.96 229.639 109.696 230.695 109.696 232.176C109.696 233.657 109.974 234.721 110.532 235.366C111.089 235.997 111.932 236.312 113.062 236.312ZM120.124 227.82C121.136 227.028 122.273 226.632 123.534 226.632C124.766 226.632 125.646 226.925 126.174 227.512C126.717 228.084 126.988 229.052 126.988 230.416V237.5H125.316V230.878C125.316 229.822 125.14 229.089 124.788 228.678C124.451 228.267 123.923 228.062 123.204 228.062C122.178 228.062 121.151 228.436 120.124 229.184V237.5H118.452V222.188L120.124 221.968V227.82ZM130.057 226.852H131.729V237.5H130.057V226.852ZM130.035 222.276H131.729V224.476H130.035V222.276ZM136.444 227.93C136.943 227.534 137.493 227.219 138.094 226.984C138.696 226.749 139.326 226.632 139.986 226.632C141.218 226.632 142.098 226.933 142.626 227.534C143.169 228.121 143.44 229.081 143.44 230.416V237.5H141.768V230.878C141.768 229.822 141.592 229.089 141.24 228.678C140.903 228.267 140.375 228.062 139.656 228.062C138.63 228.062 137.603 228.436 136.576 229.184V237.5H134.904V226.852H136.158L136.444 227.93ZM154.693 226.852V237.632C154.693 239.26 154.297 240.441 153.505 241.174C152.728 241.922 151.562 242.296 150.007 242.296C149.391 242.296 148.804 242.245 148.247 242.142C147.69 242.054 147.198 241.929 146.773 241.768L147.125 240.382C147.961 240.705 148.914 240.866 149.985 240.866C151.041 240.866 151.804 240.624 152.273 240.14C152.757 239.656 152.999 238.864 152.999 237.764V236.664C152.632 237.001 152.185 237.265 151.657 237.456C151.144 237.632 150.579 237.72 149.963 237.72C148.584 237.72 147.536 237.273 146.817 236.378C146.113 235.483 145.761 234.083 145.761 232.176C145.761 230.284 146.128 228.891 146.861 227.996C147.594 227.087 148.687 226.632 150.139 226.632C150.755 226.632 151.32 226.735 151.833 226.94C152.346 227.145 152.794 227.424 153.175 227.776L153.439 226.852H154.693ZM150.403 228.04C149.391 228.04 148.643 228.363 148.159 229.008C147.69 229.653 147.455 230.709 147.455 232.176C147.455 233.657 147.69 234.721 148.159 235.366C148.643 236.011 149.391 236.334 150.403 236.334C150.916 236.334 151.393 236.231 151.833 236.026C152.288 235.821 152.676 235.542 152.999 235.19V229.184C152.676 228.832 152.288 228.553 151.833 228.348C151.393 228.143 150.916 228.04 150.403 228.04ZM171.451 237.5H170.197L169.933 236.51C169.493 236.891 168.972 237.192 168.371 237.412C167.784 237.617 167.139 237.72 166.435 237.72C165.335 237.72 164.506 237.441 163.949 236.884C163.406 236.312 163.135 235.498 163.135 234.442C163.135 233.357 163.472 232.557 164.147 232.044C164.822 231.516 165.951 231.252 167.535 231.252C168.004 231.252 168.415 231.259 168.767 231.274C169.134 231.289 169.471 231.318 169.779 231.362V230.768C169.779 229.785 169.588 229.089 169.207 228.678C168.826 228.253 168.151 228.04 167.183 228.04C166.728 228.04 166.23 228.121 165.687 228.282C165.159 228.429 164.624 228.649 164.081 228.942L163.575 227.666C164.162 227.343 164.785 227.094 165.445 226.918C166.105 226.727 166.787 226.632 167.491 226.632C168.239 226.632 168.862 226.705 169.361 226.852C169.874 226.999 170.285 227.241 170.593 227.578C170.901 227.901 171.121 228.319 171.253 228.832C171.385 229.345 171.451 229.976 171.451 230.724V237.5ZM166.897 236.334C167.381 236.334 167.88 236.231 168.393 236.026C168.921 235.806 169.383 235.52 169.779 235.168V232.726C169.398 232.682 169.016 232.653 168.635 232.638C168.254 232.609 167.828 232.594 167.359 232.594C166.435 232.594 165.775 232.733 165.379 233.012C164.998 233.291 164.807 233.76 164.807 234.42C164.807 235.051 164.968 235.527 165.291 235.85C165.614 236.173 166.149 236.334 166.897 236.334ZM181.849 227.842C182.362 227.461 182.89 227.167 183.433 226.962C183.975 226.742 184.555 226.632 185.171 226.632C185.919 226.632 186.513 226.742 186.953 226.962C187.407 227.182 187.745 227.549 187.965 228.062C188.478 227.637 189.035 227.292 189.637 227.028C190.253 226.764 190.891 226.632 191.551 226.632C192.167 226.632 192.68 226.705 193.091 226.852C193.501 226.984 193.831 227.204 194.081 227.512C194.345 227.82 194.528 228.216 194.631 228.7C194.733 229.169 194.785 229.741 194.785 230.416V237.5H193.113V230.878C193.113 229.822 192.966 229.089 192.673 228.678C192.394 228.267 191.917 228.062 191.243 228.062C190.275 228.062 189.299 228.458 188.317 229.25C188.361 229.587 188.383 229.976 188.383 230.416V237.5H186.711V230.878C186.711 229.837 186.579 229.111 186.315 228.7C186.051 228.275 185.559 228.062 184.841 228.062C184.357 228.062 183.887 228.157 183.433 228.348C182.978 228.524 182.501 228.803 182.003 229.184V237.5H180.331V226.852H181.585L181.849 227.842ZM197.844 226.852H199.516V237.5H197.844V226.852ZM197.822 222.276H199.516V224.476H197.822V222.276ZM207.245 236.312C208.272 236.312 209.188 236.055 209.995 235.542L210.479 236.884C210.054 237.133 209.562 237.339 209.005 237.5C208.462 237.647 207.876 237.72 207.245 237.72C205.5 237.72 204.224 237.287 203.417 236.422C202.61 235.542 202.207 234.127 202.207 232.176C202.207 230.269 202.596 228.869 203.373 227.974C204.15 227.079 205.368 226.632 207.025 226.632C208.448 226.632 209.614 227.065 210.523 227.93L209.599 229.074C209.276 228.751 208.895 228.502 208.455 228.326C208.03 228.135 207.568 228.04 207.069 228.04C206.013 228.04 205.214 228.363 204.671 229.008C204.143 229.639 203.879 230.695 203.879 232.176C203.879 233.657 204.158 234.721 204.715 235.366C205.272 235.997 206.116 236.312 207.245 236.312ZM213.912 226.852L214.11 228.26C214.594 227.732 215.136 227.329 215.738 227.05C216.339 226.771 216.948 226.632 217.564 226.632C217.813 226.632 218.026 226.654 218.202 226.698C218.392 226.727 218.59 226.779 218.796 226.852V228.348C218.356 228.172 217.894 228.084 217.41 228.084C216.852 228.084 216.295 228.238 215.738 228.546C215.18 228.854 214.704 229.243 214.308 229.712V237.5H212.636V226.852H213.912ZM219.647 232.176C219.647 230.269 220.028 228.869 220.791 227.974C221.568 227.079 222.8 226.632 224.487 226.632C226.159 226.632 227.376 227.079 228.139 227.974C228.916 228.869 229.305 230.269 229.305 232.176C229.305 234.083 228.916 235.483 228.139 236.378C227.361 237.273 226.144 237.72 224.487 237.72C222.815 237.72 221.59 237.273 220.813 236.378C220.035 235.483 219.647 234.083 219.647 232.176ZM221.341 232.176C221.341 233.628 221.59 234.684 222.089 235.344C222.587 235.989 223.387 236.312 224.487 236.312C225.587 236.312 226.386 235.989 226.885 235.344C227.383 234.684 227.633 233.628 227.633 232.176C227.633 230.753 227.383 229.712 226.885 229.052C226.386 228.392 225.587 228.062 224.487 228.062C223.387 228.062 222.587 228.392 222.089 229.052C221.59 229.712 221.341 230.753 221.341 232.176ZM237.296 231.56H231.686V230.108H237.296V231.56ZM242.745 230.9C243.082 231.032 243.5 231.179 243.999 231.34C244.512 231.501 245.018 231.677 245.517 231.868C246.939 232.396 247.651 233.342 247.651 234.706C247.651 235.674 247.313 236.422 246.639 236.95C245.964 237.478 244.879 237.742 243.383 237.742C242.547 237.742 241.835 237.647 241.249 237.456C240.662 237.265 240.134 237.038 239.665 236.774L240.215 235.454C240.64 235.703 241.124 235.916 241.667 236.092C242.209 236.268 242.789 236.356 243.405 236.356C244.343 236.356 245.003 236.231 245.385 235.982C245.766 235.718 245.957 235.322 245.957 234.794C245.957 234.09 245.539 233.569 244.703 233.232C244.233 233.041 243.742 232.865 243.229 232.704C242.73 232.543 242.253 232.381 241.799 232.22C241.212 232.015 240.743 231.699 240.391 231.274C240.053 230.834 239.885 230.262 239.885 229.558C239.885 228.707 240.215 228.003 240.875 227.446C241.549 226.889 242.554 226.61 243.889 226.61C244.593 226.61 245.223 226.683 245.781 226.83C246.338 226.962 246.807 227.123 247.189 227.314L246.683 228.59C246.257 228.385 245.832 228.238 245.407 228.15C244.981 228.047 244.461 227.996 243.845 227.996C243.405 227.996 243.038 228.04 242.745 228.128C242.451 228.216 242.217 228.333 242.041 228.48C241.879 228.612 241.762 228.766 241.689 228.942C241.615 229.118 241.579 229.294 241.579 229.47C241.579 229.822 241.667 230.108 241.843 230.328C242.019 230.548 242.319 230.739 242.745 230.9ZM250.25 226.852H251.922V237.5H250.25V226.852ZM250.228 222.276H251.922V224.476H250.228V222.276ZM257.473 228.282V233.54C257.473 234.024 257.495 234.442 257.539 234.794C257.583 235.146 257.671 235.439 257.803 235.674C257.95 235.894 258.148 236.055 258.397 236.158C258.661 236.261 259.013 236.312 259.453 236.312C259.776 236.312 260.091 236.275 260.399 236.202C260.722 236.129 261.03 236.041 261.323 235.938L261.653 237.214C260.773 237.551 259.886 237.72 258.991 237.72C258.346 237.72 257.811 237.632 257.385 237.456C256.975 237.28 256.645 237.038 256.395 236.73C256.161 236.407 255.999 236.026 255.911 235.586C255.823 235.131 255.779 234.633 255.779 234.09V228.282H254.041V226.852H255.779V224.608L257.473 224.3V226.852H261.235V228.282H257.473ZM267.699 237.72C265.968 237.72 264.736 237.273 264.003 236.378C263.284 235.469 262.925 234.068 262.925 232.176C262.925 230.269 263.291 228.869 264.025 227.974C264.758 227.079 265.88 226.632 267.391 226.632C268.901 226.632 270.023 227.072 270.757 227.952C271.49 228.817 271.857 230.196 271.857 232.088V232.792H264.641C264.699 234.053 264.971 234.955 265.455 235.498C265.939 236.041 266.694 236.312 267.721 236.312C268.337 236.312 268.938 236.224 269.525 236.048C270.126 235.857 270.683 235.601 271.197 235.278L271.747 236.62C271.189 236.957 270.559 237.229 269.855 237.434C269.165 237.625 268.447 237.72 267.699 237.72ZM270.141 231.428C270.067 230.284 269.811 229.441 269.371 228.898C268.931 228.341 268.271 228.062 267.391 228.062C266.511 228.062 265.851 228.341 265.411 228.898C264.971 229.441 264.714 230.284 264.641 231.428H270.141ZM49.0149 270.548C49.0149 270.9 48.9489 271.23 48.8169 271.538C48.6849 271.846 48.5015 272.117 48.2669 272.352C48.0469 272.572 47.7829 272.748 47.4749 272.88C47.1815 272.997 46.8589 273.056 46.5069 273.056C46.1549 273.056 45.8249 272.997 45.5169 272.88C45.2089 272.748 44.9375 272.572 44.7029 272.352C44.4829 272.132 44.3069 271.868 44.1749 271.56C44.0429 271.252 43.9769 270.915 43.9769 270.548C43.9769 270.196 44.0429 269.866 44.1749 269.558C44.3069 269.25 44.4829 268.986 44.7029 268.766C44.9375 268.531 45.2089 268.355 45.5169 268.238C45.8249 268.106 46.1549 268.04 46.5069 268.04C46.8589 268.04 47.1815 268.106 47.4749 268.238C47.7829 268.355 48.0469 268.531 48.2669 268.766C48.5015 268.986 48.6849 269.25 48.8169 269.558C48.9489 269.866 49.0149 270.196 49.0149 270.548ZM66.476 271.758V277.5H64.782V262.716H69.754C73.0833 262.716 74.748 264.19 74.748 267.138C74.748 268.649 74.352 269.8 73.56 270.592C72.768 271.369 71.5727 271.758 69.974 271.758H66.476ZM66.476 264.168V270.328H70.018C71.0007 270.328 71.7487 270.064 72.262 269.536C72.79 268.993 73.054 268.194 73.054 267.138C73.054 266.17 72.79 265.437 72.262 264.938C71.7487 264.425 71.0007 264.168 70.018 264.168H66.476ZM84.0133 276.444C83.5146 276.84 82.9646 277.155 82.3633 277.39C81.7619 277.61 81.1313 277.72 80.4713 277.72C79.2393 277.72 78.3519 277.427 77.8093 276.84C77.2666 276.253 76.9953 275.293 76.9953 273.958V266.852H78.6893V273.496C78.6893 274.552 78.8579 275.285 79.1953 275.696C79.5473 276.107 80.0826 276.312 80.8013 276.312C81.8279 276.312 82.8473 275.938 83.8593 275.19V266.852H85.5533V277.5H84.2773L84.0133 276.444ZM92.8009 276.334C93.8129 276.334 94.5609 276.011 95.0449 275.366C95.5289 274.721 95.7709 273.657 95.7709 272.176C95.7709 270.709 95.5289 269.653 95.0449 269.008C94.5609 268.363 93.8129 268.04 92.8009 268.04C92.2876 268.04 91.8036 268.143 91.3489 268.348C90.9089 268.553 90.5276 268.832 90.2049 269.184V275.19C90.5276 275.542 90.9089 275.821 91.3489 276.026C91.8036 276.231 92.2876 276.334 92.8009 276.334ZM89.7649 277.5H88.5109V262.166L90.2049 261.968V267.71C90.5716 267.373 91.0116 267.109 91.5249 266.918C92.0529 266.727 92.6249 266.632 93.2409 266.632C94.6196 266.632 95.6609 267.087 96.3649 267.996C97.0836 268.891 97.4429 270.284 97.4429 272.176C97.4429 274.083 97.0762 275.483 96.3429 276.378C95.6096 277.273 94.5169 277.72 93.0649 277.72C92.4489 277.72 91.8842 277.625 91.3709 277.434C90.8722 277.229 90.4322 276.95 90.0509 276.598L89.7649 277.5ZM102.865 277.654C102.792 277.683 102.689 277.698 102.557 277.698C102.425 277.713 102.315 277.72 102.227 277.72C101.479 277.72 100.936 277.5 100.599 277.06C100.276 276.605 100.115 275.916 100.115 274.992V262.232L101.787 261.968V274.75C101.787 275.087 101.802 275.359 101.831 275.564C101.86 275.769 101.912 275.931 101.985 276.048C102.073 276.165 102.183 276.246 102.315 276.29C102.462 276.319 102.645 276.334 102.865 276.334V277.654ZM105.355 266.852H107.027V277.5H105.355V266.852ZM105.333 262.276H107.027V264.476H105.333V262.276ZM112.776 270.9C113.114 271.032 113.532 271.179 114.03 271.34C114.544 271.501 115.05 271.677 115.548 271.868C116.971 272.396 117.682 273.342 117.682 274.706C117.682 275.674 117.345 276.422 116.67 276.95C115.996 277.478 114.91 277.742 113.414 277.742C112.578 277.742 111.867 277.647 111.28 277.456C110.694 277.265 110.166 277.038 109.696 276.774L110.246 275.454C110.672 275.703 111.156 275.916 111.698 276.092C112.241 276.268 112.82 276.356 113.436 276.356C114.375 276.356 115.035 276.231 115.416 275.982C115.798 275.718 115.988 275.322 115.988 274.794C115.988 274.09 115.57 273.569 114.734 273.232C114.265 273.041 113.774 272.865 113.26 272.704C112.762 272.543 112.285 272.381 111.83 272.22C111.244 272.015 110.774 271.699 110.422 271.274C110.085 270.834 109.916 270.262 109.916 269.558C109.916 268.707 110.246 268.003 110.906 267.446C111.581 266.889 112.586 266.61 113.92 266.61C114.624 266.61 115.255 266.683 115.812 266.83C116.37 266.962 116.839 267.123 117.22 267.314L116.714 268.59C116.289 268.385 115.864 268.238 115.438 268.15C115.013 268.047 114.492 267.996 113.876 267.996C113.436 267.996 113.07 268.04 112.776 268.128C112.483 268.216 112.248 268.333 112.072 268.48C111.911 268.612 111.794 268.766 111.72 268.942C111.647 269.118 111.61 269.294 111.61 269.47C111.61 269.822 111.698 270.108 111.874 270.328C112.05 270.548 112.351 270.739 112.776 270.9ZM121.712 267.82C122.724 267.028 123.86 266.632 125.122 266.632C126.354 266.632 127.234 266.925 127.762 267.512C128.304 268.084 128.576 269.052 128.576 270.416V277.5H126.904V270.878C126.904 269.822 126.728 269.089 126.376 268.678C126.038 268.267 125.51 268.062 124.792 268.062C123.765 268.062 122.738 268.436 121.712 269.184V277.5H120.04V262.188L121.712 261.968V267.82ZM131.644 266.852H133.316V277.5H131.644V266.852ZM131.622 262.276H133.316V264.476H131.622V262.276ZM138.032 267.93C138.53 267.534 139.08 267.219 139.682 266.984C140.283 266.749 140.914 266.632 141.574 266.632C142.806 266.632 143.686 266.933 144.214 267.534C144.756 268.121 145.028 269.081 145.028 270.416V277.5H143.356V270.878C143.356 269.822 143.18 269.089 142.828 268.678C142.49 268.267 141.962 268.062 141.244 268.062C140.217 268.062 139.19 268.436 138.164 269.184V277.5H136.492V266.852H137.746L138.032 267.93ZM156.28 266.852V277.632C156.28 279.26 155.884 280.441 155.092 281.174C154.315 281.922 153.149 282.296 151.594 282.296C150.978 282.296 150.392 282.245 149.834 282.142C149.277 282.054 148.786 281.929 148.36 281.768L148.712 280.382C149.548 280.705 150.502 280.866 151.572 280.866C152.628 280.866 153.391 280.624 153.86 280.14C154.344 279.656 154.586 278.864 154.586 277.764V276.664C154.22 277.001 153.772 277.265 153.244 277.456C152.731 277.632 152.166 277.72 151.55 277.72C150.172 277.72 149.123 277.273 148.404 276.378C147.7 275.483 147.348 274.083 147.348 272.176C147.348 270.284 147.715 268.891 148.448 267.996C149.182 267.087 150.274 266.632 151.726 266.632C152.342 266.632 152.907 266.735 153.42 266.94C153.934 267.145 154.381 267.424 154.762 267.776L155.026 266.852H156.28ZM151.99 268.04C150.978 268.04 150.23 268.363 149.746 269.008C149.277 269.653 149.042 270.709 149.042 272.176C149.042 273.657 149.277 274.721 149.746 275.366C150.23 276.011 150.978 276.334 151.99 276.334C152.504 276.334 152.98 276.231 153.42 276.026C153.875 275.821 154.264 275.542 154.586 275.19V269.184C154.264 268.832 153.875 268.553 153.42 268.348C152.98 268.143 152.504 268.04 151.99 268.04ZM173.038 277.5H171.784L171.52 276.51C171.08 276.891 170.56 277.192 169.958 277.412C169.372 277.617 168.726 277.72 168.022 277.72C166.922 277.72 166.094 277.441 165.536 276.884C164.994 276.312 164.722 275.498 164.722 274.442C164.722 273.357 165.06 272.557 165.734 272.044C166.409 271.516 167.538 271.252 169.122 271.252C169.592 271.252 170.002 271.259 170.354 271.274C170.721 271.289 171.058 271.318 171.366 271.362V270.768C171.366 269.785 171.176 269.089 170.794 268.678C170.413 268.253 169.738 268.04 168.77 268.04C168.316 268.04 167.817 268.121 167.274 268.282C166.746 268.429 166.211 268.649 165.668 268.942L165.162 267.666C165.749 267.343 166.372 267.094 167.032 266.918C167.692 266.727 168.374 266.632 169.078 266.632C169.826 266.632 170.45 266.705 170.948 266.852C171.462 266.999 171.872 267.241 172.18 267.578C172.488 267.901 172.708 268.319 172.84 268.832C172.972 269.345 173.038 269.976 173.038 270.724V277.5ZM168.484 276.334C168.968 276.334 169.467 276.231 169.98 276.026C170.508 275.806 170.97 275.52 171.366 275.168V272.726C170.985 272.682 170.604 272.653 170.222 272.638C169.841 272.609 169.416 272.594 168.946 272.594C168.022 272.594 167.362 272.733 166.966 273.012C166.585 273.291 166.394 273.76 166.394 274.42C166.394 275.051 166.556 275.527 166.878 275.85C167.201 276.173 167.736 276.334 168.484 276.334ZM181.918 277.5V262.188L183.612 261.968V271.01H184.646L188.628 266.852H190.674L185.988 271.736L190.806 277.5H188.76L184.624 272.44H183.612V277.5H181.918ZM196.195 277.72C194.465 277.72 193.233 277.273 192.499 276.378C191.781 275.469 191.421 274.068 191.421 272.176C191.421 270.269 191.788 268.869 192.521 267.974C193.255 267.079 194.377 266.632 195.887 266.632C197.398 266.632 198.52 267.072 199.253 267.952C199.987 268.817 200.353 270.196 200.353 272.088V272.792H193.137C193.196 274.053 193.467 274.955 193.951 275.498C194.435 276.041 195.191 276.312 196.217 276.312C196.833 276.312 197.435 276.224 198.021 276.048C198.623 275.857 199.18 275.601 199.693 275.278L200.243 276.62C199.686 276.957 199.055 277.229 198.351 277.434C197.662 277.625 196.943 277.72 196.195 277.72ZM198.637 271.428C198.564 270.284 198.307 269.441 197.867 268.898C197.427 268.341 196.767 268.062 195.887 268.062C195.007 268.062 194.347 268.341 193.907 268.898C193.467 269.441 193.211 270.284 193.137 271.428H198.637ZM201.629 266.852H203.389L206.469 275.19H206.535L209.417 266.852H211.155L206.843 278.864C206.623 279.509 206.381 280.045 206.117 280.47C205.853 280.91 205.553 281.262 205.215 281.526C204.893 281.805 204.519 282.003 204.093 282.12C203.683 282.237 203.206 282.296 202.663 282.296C202.253 282.296 201.93 282.252 201.695 282.164L201.937 280.778C202.172 280.837 202.458 280.866 202.795 280.866C203.103 280.866 203.375 280.815 203.609 280.712C203.859 280.609 204.071 280.477 204.247 280.316C204.438 280.155 204.599 279.971 204.731 279.766C204.863 279.561 204.973 279.348 205.061 279.128L205.721 277.368L201.629 266.852ZM220.443 267.842C220.957 267.461 221.485 267.167 222.027 266.962C222.57 266.742 223.149 266.632 223.765 266.632C224.513 266.632 225.107 266.742 225.547 266.962C226.002 267.182 226.339 267.549 226.559 268.062C227.073 267.637 227.63 267.292 228.231 267.028C228.847 266.764 229.485 266.632 230.145 266.632C230.761 266.632 231.275 266.705 231.685 266.852C232.096 266.984 232.426 267.204 232.675 267.512C232.939 267.82 233.123 268.216 233.225 268.7C233.328 269.169 233.379 269.741 233.379 270.416V277.5H231.707V270.878C231.707 269.822 231.561 269.089 231.267 268.678C230.989 268.267 230.512 268.062 229.837 268.062C228.869 268.062 227.894 268.458 226.911 269.25C226.955 269.587 226.977 269.976 226.977 270.416V277.5H225.305V270.878C225.305 269.837 225.173 269.111 224.909 268.7C224.645 268.275 224.154 268.062 223.435 268.062C222.951 268.062 222.482 268.157 222.027 268.348C221.573 268.524 221.096 268.803 220.597 269.184V277.5H218.925V266.852H220.179L220.443 267.842ZM240.464 277.72C238.734 277.72 237.502 277.273 236.768 276.378C236.05 275.469 235.69 274.068 235.69 272.176C235.69 270.269 236.057 268.869 236.79 267.974C237.524 267.079 238.646 266.632 240.156 266.632C241.667 266.632 242.789 267.072 243.522 267.952C244.256 268.817 244.622 270.196 244.622 272.088V272.792H237.406C237.465 274.053 237.736 274.955 238.22 275.498C238.704 276.041 239.46 276.312 240.486 276.312C241.102 276.312 241.704 276.224 242.29 276.048C242.892 275.857 243.449 275.601 243.962 275.278L244.512 276.62C243.955 276.957 243.324 277.229 242.62 277.434C241.931 277.625 241.212 277.72 240.464 277.72ZM242.906 271.428C242.833 270.284 242.576 269.441 242.136 268.898C241.696 268.341 241.036 268.062 240.156 268.062C239.276 268.062 238.616 268.341 238.176 268.898C237.736 269.441 237.48 270.284 237.406 271.428H242.906ZM249.66 270.9C249.998 271.032 250.416 271.179 250.914 271.34C251.428 271.501 251.934 271.677 252.432 271.868C253.855 272.396 254.566 273.342 254.566 274.706C254.566 275.674 254.229 276.422 253.554 276.95C252.88 277.478 251.794 277.742 250.298 277.742C249.462 277.742 248.751 277.647 248.164 277.456C247.578 277.265 247.05 277.038 246.58 276.774L247.13 275.454C247.556 275.703 248.04 275.916 248.582 276.092C249.125 276.268 249.704 276.356 250.32 276.356C251.259 276.356 251.919 276.231 252.3 275.982C252.682 275.718 252.872 275.322 252.872 274.794C252.872 274.09 252.454 273.569 251.618 273.232C251.149 273.041 250.658 272.865 250.144 272.704C249.646 272.543 249.169 272.381 248.714 272.22C248.128 272.015 247.658 271.699 247.306 271.274C246.969 270.834 246.8 270.262 246.8 269.558C246.8 268.707 247.13 268.003 247.79 267.446C248.465 266.889 249.47 266.61 250.804 266.61C251.508 266.61 252.139 266.683 252.696 266.83C253.254 266.962 253.723 267.123 254.104 267.314L253.598 268.59C253.173 268.385 252.748 268.238 252.322 268.15C251.897 268.047 251.376 267.996 250.76 267.996C250.32 267.996 249.954 268.04 249.66 268.128C249.367 268.216 249.132 268.333 248.956 268.48C248.795 268.612 248.678 268.766 248.604 268.942C248.531 269.118 248.494 269.294 248.494 269.47C248.494 269.822 248.582 270.108 248.758 270.328C248.934 270.548 249.235 270.739 249.66 270.9ZM259.497 270.9C259.835 271.032 260.253 271.179 260.751 271.34C261.265 271.501 261.771 271.677 262.269 271.868C263.692 272.396 264.403 273.342 264.403 274.706C264.403 275.674 264.066 276.422 263.391 276.95C262.717 277.478 261.631 277.742 260.135 277.742C259.299 277.742 258.588 277.647 258.001 277.456C257.415 277.265 256.887 277.038 256.417 276.774L256.967 275.454C257.393 275.703 257.877 275.916 258.419 276.092C258.962 276.268 259.541 276.356 260.157 276.356C261.096 276.356 261.756 276.231 262.137 275.982C262.519 275.718 262.709 275.322 262.709 274.794C262.709 274.09 262.291 273.569 261.455 273.232C260.986 273.041 260.495 272.865 259.981 272.704C259.483 272.543 259.006 272.381 258.551 272.22C257.965 272.015 257.495 271.699 257.143 271.274C256.806 270.834 256.637 270.262 256.637 269.558C256.637 268.707 256.967 268.003 257.627 267.446C258.302 266.889 259.307 266.61 260.641 266.61C261.345 266.61 261.976 266.683 262.533 266.83C263.091 266.962 263.56 267.123 263.941 267.314L263.435 268.59C263.01 268.385 262.585 268.238 262.159 268.15C261.734 268.047 261.213 267.996 260.597 267.996C260.157 267.996 259.791 268.04 259.497 268.128C259.204 268.216 258.969 268.333 258.793 268.48C258.632 268.612 258.515 268.766 258.441 268.942C258.368 269.118 258.331 269.294 258.331 269.47C258.331 269.822 258.419 270.108 258.595 270.328C258.771 270.548 259.072 270.739 259.497 270.9ZM274.505 277.5H273.251L272.987 276.51C272.547 276.891 272.026 277.192 271.425 277.412C270.838 277.617 270.193 277.72 269.489 277.72C268.389 277.72 267.56 277.441 267.003 276.884C266.46 276.312 266.189 275.498 266.189 274.442C266.189 273.357 266.526 272.557 267.201 272.044C267.875 271.516 269.005 271.252 270.589 271.252C271.058 271.252 271.469 271.259 271.821 271.274C272.187 271.289 272.525 271.318 272.833 271.362V270.768C272.833 269.785 272.642 269.089 272.261 268.678C271.879 268.253 271.205 268.04 270.237 268.04C269.782 268.04 269.283 268.121 268.741 268.282C268.213 268.429 267.677 268.649 267.135 268.942L266.629 267.666C267.215 267.343 267.839 267.094 268.499 266.918C269.159 266.727 269.841 266.632 270.545 266.632C271.293 266.632 271.916 266.705 272.415 266.852C272.928 266.999 273.339 267.241 273.647 267.578C273.955 267.901 274.175 268.319 274.307 268.832C274.439 269.345 274.505 269.976 274.505 270.724V277.5ZM269.951 276.334C270.435 276.334 270.933 276.231 271.447 276.026C271.975 275.806 272.437 275.52 272.833 275.168V272.726C272.451 272.682 272.07 272.653 271.689 272.638C271.307 272.609 270.882 272.594 270.413 272.594C269.489 272.594 268.829 272.733 268.433 273.012C268.051 273.291 267.861 273.76 267.861 274.42C267.861 275.051 268.022 275.527 268.345 275.85C268.667 276.173 269.203 276.334 269.951 276.334ZM285.754 266.852V277.632C285.754 279.26 285.358 280.441 284.566 281.174C283.789 281.922 282.623 282.296 281.068 282.296C280.452 282.296 279.866 282.245 279.308 282.142C278.751 282.054 278.26 281.929 277.834 281.768L278.186 280.382C279.022 280.705 279.976 280.866 281.046 280.866C282.102 280.866 282.865 280.624 283.334 280.14C283.818 279.656 284.06 278.864 284.06 277.764V276.664C283.694 277.001 283.246 277.265 282.718 277.456C282.205 277.632 281.64 277.72 281.024 277.72C279.646 277.72 278.597 277.273 277.878 276.378C277.174 275.483 276.822 274.083 276.822 272.176C276.822 270.284 277.189 268.891 277.922 267.996C278.656 267.087 279.748 266.632 281.2 266.632C281.816 266.632 282.381 266.735 282.894 266.94C283.408 267.145 283.855 267.424 284.236 267.776L284.5 266.852H285.754ZM281.464 268.04C280.452 268.04 279.704 268.363 279.22 269.008C278.751 269.653 278.516 270.709 278.516 272.176C278.516 273.657 278.751 274.721 279.22 275.366C279.704 276.011 280.452 276.334 281.464 276.334C281.978 276.334 282.454 276.231 282.894 276.026C283.349 275.821 283.738 275.542 284.06 275.19V269.184C283.738 268.832 283.349 268.553 282.894 268.348C282.454 268.143 281.978 268.04 281.464 268.04ZM292.981 277.72C291.25 277.72 290.018 277.273 289.285 276.378C288.566 275.469 288.207 274.068 288.207 272.176C288.207 270.269 288.573 268.869 289.307 267.974C290.04 267.079 291.162 266.632 292.673 266.632C294.183 266.632 295.305 267.072 296.039 267.952C296.772 268.817 297.139 270.196 297.139 272.088V272.792H289.923C289.981 274.053 290.253 274.955 290.737 275.498C291.221 276.041 291.976 276.312 293.003 276.312C293.619 276.312 294.22 276.224 294.807 276.048C295.408 275.857 295.965 275.601 296.479 275.278L297.029 276.62C296.471 276.957 295.841 277.229 295.137 277.434C294.447 277.625 293.729 277.72 292.981 277.72ZM295.423 271.428C295.349 270.284 295.093 269.441 294.653 268.898C294.213 268.341 293.553 268.062 292.673 268.062C291.793 268.062 291.133 268.341 290.693 268.898C290.253 269.441 289.996 270.284 289.923 271.428H295.423ZM312.149 266.852L313.843 272.858L314.547 275.498H314.591L315.141 272.858L316.527 266.852H318.199L315.383 277.5H313.755L312.479 272.858L311.401 268.964H311.357L310.301 272.858L309.003 277.5H307.397L304.559 266.852H306.253L307.617 272.858L308.189 275.498H308.233L308.915 272.858L310.609 266.852H312.149ZM319.523 272.176C319.523 270.269 319.904 268.869 320.667 267.974C321.444 267.079 322.676 266.632 324.363 266.632C326.035 266.632 327.252 267.079 328.015 267.974C328.792 268.869 329.181 270.269 329.181 272.176C329.181 274.083 328.792 275.483 328.015 276.378C327.238 277.273 326.02 277.72 324.363 277.72C322.691 277.72 321.466 277.273 320.689 276.378C319.912 275.483 319.523 274.083 319.523 272.176ZM321.217 272.176C321.217 273.628 321.466 274.684 321.965 275.344C322.464 275.989 323.263 276.312 324.363 276.312C325.463 276.312 326.262 275.989 326.761 275.344C327.26 274.684 327.509 273.628 327.509 272.176C327.509 270.753 327.26 269.712 326.761 269.052C326.262 268.392 325.463 268.062 324.363 268.062C323.263 268.062 322.464 268.392 321.965 269.052C321.466 269.712 321.217 270.753 321.217 272.176ZM332.904 266.852L333.102 268.26C333.586 267.732 334.129 267.329 334.73 267.05C335.331 266.771 335.94 266.632 336.556 266.632C336.805 266.632 337.018 266.654 337.194 266.698C337.385 266.727 337.583 266.779 337.788 266.852V268.348C337.348 268.172 336.886 268.084 336.402 268.084C335.845 268.084 335.287 268.238 334.73 268.546C334.173 268.854 333.696 269.243 333.3 269.712V277.5H331.628V266.852H332.904ZM342.273 268.282V273.54C342.273 274.024 342.295 274.442 342.339 274.794C342.383 275.146 342.471 275.439 342.603 275.674C342.75 275.894 342.948 276.055 343.197 276.158C343.461 276.261 343.813 276.312 344.253 276.312C344.576 276.312 344.891 276.275 345.199 276.202C345.522 276.129 345.83 276.041 346.123 275.938L346.453 277.214C345.573 277.551 344.686 277.72 343.791 277.72C343.146 277.72 342.61 277.632 342.185 277.456C341.774 277.28 341.444 277.038 341.195 276.73C340.96 276.407 340.799 276.026 340.711 275.586C340.623 275.131 340.579 274.633 340.579 274.09V268.282H338.841V266.852H340.579V264.608L342.273 264.3V266.852H346.035V268.282H342.273ZM350.031 267.82C351.043 267.028 352.18 266.632 353.441 266.632C354.673 266.632 355.553 266.925 356.081 267.512C356.624 268.084 356.895 269.052 356.895 270.416V277.5H355.223V270.878C355.223 269.822 355.047 269.089 354.695 268.678C354.358 268.267 353.83 268.062 353.111 268.062C352.085 268.062 351.058 268.436 350.031 269.184V277.5H348.359V262.188L350.031 261.968V267.82ZM370.332 276.312C371.359 276.312 372.275 276.055 373.082 275.542L373.566 276.884C373.141 277.133 372.649 277.339 372.092 277.5C371.549 277.647 370.963 277.72 370.332 277.72C368.587 277.72 367.311 277.287 366.504 276.422C365.697 275.542 365.294 274.127 365.294 272.176C365.294 270.269 365.683 268.869 366.46 267.974C367.237 267.079 368.455 266.632 370.112 266.632C371.535 266.632 372.701 267.065 373.61 267.93L372.686 269.074C372.363 268.751 371.982 268.502 371.542 268.326C371.117 268.135 370.655 268.04 370.156 268.04C369.1 268.04 368.301 268.363 367.758 269.008C367.23 269.639 366.966 270.695 366.966 272.176C366.966 273.657 367.245 274.721 367.802 275.366C368.359 275.997 369.203 276.312 370.332 276.312ZM383.209 277.5H381.955L381.691 276.51C381.251 276.891 380.73 277.192 380.129 277.412C379.542 277.617 378.897 277.72 378.193 277.72C377.093 277.72 376.264 277.441 375.707 276.884C375.164 276.312 374.893 275.498 374.893 274.442C374.893 273.357 375.23 272.557 375.905 272.044C376.579 271.516 377.709 271.252 379.293 271.252C379.762 271.252 380.173 271.259 380.525 271.274C380.891 271.289 381.229 271.318 381.537 271.362V270.768C381.537 269.785 381.346 269.089 380.965 268.678C380.583 268.253 379.909 268.04 378.941 268.04C378.486 268.04 377.987 268.121 377.445 268.282C376.917 268.429 376.381 268.649 375.839 268.942L375.333 267.666C375.919 267.343 376.543 267.094 377.203 266.918C377.863 266.727 378.545 266.632 379.249 266.632C379.997 266.632 380.62 266.705 381.119 266.852C381.632 266.999 382.043 267.241 382.351 267.578C382.659 267.901 382.879 268.319 383.011 268.832C383.143 269.345 383.209 269.976 383.209 270.724V277.5ZM378.655 276.334C379.139 276.334 379.637 276.231 380.151 276.026C380.679 275.806 381.141 275.52 381.537 275.168V272.726C381.155 272.682 380.774 272.653 380.393 272.638C380.011 272.609 379.586 272.594 379.117 272.594C378.193 272.594 377.533 272.733 377.137 273.012C376.755 273.291 376.565 273.76 376.565 274.42C376.565 275.051 376.726 275.527 377.049 275.85C377.371 276.173 377.907 276.334 378.655 276.334ZM387.287 266.852L387.573 267.776C387.954 267.424 388.394 267.145 388.893 266.94C389.406 266.735 389.971 266.632 390.587 266.632C392.039 266.632 393.131 267.087 393.865 267.996C394.598 268.891 394.965 270.284 394.965 272.176C394.965 274.083 394.605 275.483 393.887 276.378C393.183 277.273 392.141 277.72 390.763 277.72C390.176 277.72 389.611 277.632 389.069 277.456C388.526 277.265 388.079 277.001 387.727 276.664V282.076H386.033V266.852H387.287ZM390.323 268.04C389.809 268.04 389.325 268.143 388.871 268.348C388.431 268.553 388.049 268.832 387.727 269.184V275.19C388.049 275.542 388.431 275.821 388.871 276.026C389.325 276.231 389.809 276.334 390.323 276.334C391.335 276.334 392.083 276.011 392.567 275.366C393.051 274.721 393.293 273.657 393.293 272.176C393.293 270.709 393.051 269.653 392.567 269.008C392.083 268.363 391.335 268.04 390.323 268.04ZM399.535 268.282V273.54C399.535 274.024 399.557 274.442 399.601 274.794C399.645 275.146 399.733 275.439 399.865 275.674C400.012 275.894 400.21 276.055 400.459 276.158C400.723 276.261 401.075 276.312 401.515 276.312C401.838 276.312 402.153 276.275 402.461 276.202C402.784 276.129 403.092 276.041 403.385 275.938L403.715 277.214C402.835 277.551 401.948 277.72 401.053 277.72C400.408 277.72 399.872 277.632 399.447 277.456C399.036 277.28 398.706 277.038 398.457 276.73C398.222 276.407 398.061 276.026 397.973 275.586C397.885 275.131 397.841 274.633 397.841 274.09V268.282H396.103V266.852H397.841V264.608L399.535 264.3V266.852H403.297V268.282H399.535ZM412.529 276.444C412.03 276.84 411.48 277.155 410.879 277.39C410.278 277.61 409.647 277.72 408.987 277.72C407.755 277.72 406.868 277.427 406.325 276.84C405.782 276.253 405.511 275.293 405.511 273.958V266.852H407.205V273.496C407.205 274.552 407.374 275.285 407.711 275.696C408.063 276.107 408.598 276.312 409.317 276.312C410.344 276.312 411.363 275.938 412.375 275.19V266.852H414.069V277.5H412.793L412.529 276.444ZM418.303 266.852L418.501 268.26C418.985 267.732 419.527 267.329 420.129 267.05C420.73 266.771 421.339 266.632 421.955 266.632C422.204 266.632 422.417 266.654 422.593 266.698C422.783 266.727 422.981 266.779 423.187 266.852V268.348C422.747 268.172 422.285 268.084 421.801 268.084C421.243 268.084 420.686 268.238 420.129 268.546C419.571 268.854 419.095 269.243 418.699 269.712V277.5H417.027V266.852H418.303ZM428.812 277.72C427.081 277.72 425.849 277.273 425.116 276.378C424.397 275.469 424.038 274.068 424.038 272.176C424.038 270.269 424.404 268.869 425.138 267.974C425.871 267.079 426.993 266.632 428.504 266.632C430.014 266.632 431.136 267.072 431.87 267.952C432.603 268.817 432.97 270.196 432.97 272.088V272.792H425.754C425.812 274.053 426.084 274.955 426.568 275.498C427.052 276.041 427.807 276.312 428.834 276.312C429.45 276.312 430.051 276.224 430.638 276.048C431.239 275.857 431.796 275.601 432.31 275.278L432.86 276.62C432.302 276.957 431.672 277.229 430.968 277.434C430.278 277.625 429.56 277.72 428.812 277.72ZM431.254 271.428C431.18 270.284 430.924 269.441 430.484 268.898C430.044 268.341 429.384 268.062 428.504 268.062C427.624 268.062 426.964 268.341 426.524 268.898C426.084 269.441 425.827 270.284 425.754 271.428H431.254ZM435.676 266.852H437.348V277.5H435.676V266.852ZM435.654 262.276H437.348V264.476H435.654V262.276ZM442.063 267.93C442.562 267.534 443.112 267.219 443.713 266.984C444.314 266.749 444.945 266.632 445.605 266.632C446.837 266.632 447.717 266.933 448.245 267.534C448.788 268.121 449.059 269.081 449.059 270.416V277.5H447.387V270.878C447.387 269.822 447.211 269.089 446.859 268.678C446.522 268.267 445.994 268.062 445.275 268.062C444.248 268.062 443.222 268.436 442.195 269.184V277.5H440.523V266.852H441.777L442.063 267.93ZM460.312 266.852V277.632C460.312 279.26 459.916 280.441 459.124 281.174C458.346 281.922 457.18 282.296 455.626 282.296C455.01 282.296 454.423 282.245 453.866 282.142C453.308 282.054 452.817 281.929 452.392 281.768L452.744 280.382C453.58 280.705 454.533 280.866 455.604 280.866C456.66 280.866 457.422 280.624 457.892 280.14C458.376 279.656 458.618 278.864 458.618 277.764V276.664C458.251 277.001 457.804 277.265 457.276 277.456C456.762 277.632 456.198 277.72 455.582 277.72C454.203 277.72 453.154 277.273 452.436 276.378C451.732 275.483 451.38 274.083 451.38 272.176C451.38 270.284 451.746 268.891 452.48 267.996C453.213 267.087 454.306 266.632 455.758 266.632C456.374 266.632 456.938 266.735 457.452 266.94C457.965 267.145 458.412 267.424 458.794 267.776L459.058 266.852H460.312ZM456.022 268.04C455.01 268.04 454.262 268.363 453.778 269.008C453.308 269.653 453.074 270.709 453.074 272.176C453.074 273.657 453.308 274.721 453.778 275.366C454.262 276.011 455.01 276.334 456.022 276.334C456.535 276.334 457.012 276.231 457.452 276.026C457.906 275.821 458.295 275.542 458.618 275.19V269.184C458.295 268.832 457.906 268.553 457.452 268.348C457.012 268.143 456.535 268.04 456.022 268.04ZM49.0149 310.548C49.0149 310.9 48.9489 311.23 48.8169 311.538C48.6849 311.846 48.5015 312.117 48.2669 312.352C48.0469 312.572 47.7829 312.748 47.4749 312.88C47.1815 312.997 46.8589 313.056 46.5069 313.056C46.1549 313.056 45.8249 312.997 45.5169 312.88C45.2089 312.748 44.9375 312.572 44.7029 312.352C44.4829 312.132 44.3069 311.868 44.1749 311.56C44.0429 311.252 43.9769 310.915 43.9769 310.548C43.9769 310.196 44.0429 309.866 44.1749 309.558C44.3069 309.25 44.4829 308.986 44.7029 308.766C44.9375 308.531 45.2089 308.355 45.5169 308.238C45.8249 308.106 46.1549 308.04 46.5069 308.04C46.8589 308.04 47.1815 308.106 47.4749 308.238C47.7829 308.355 48.0469 308.531 48.2669 308.766C48.5015 308.986 48.6849 309.25 48.8169 309.558C48.9489 309.866 49.0149 310.196 49.0149 310.548ZM65.002 302.716H66.696V317.5H65.002V302.716ZM71.6628 307.93C72.1615 307.534 72.7115 307.219 73.3128 306.984C73.9142 306.749 74.5448 306.632 75.2048 306.632C76.4368 306.632 77.3168 306.933 77.8448 307.534C78.3875 308.121 78.6588 309.081 78.6588 310.416V317.5H76.9868V310.878C76.9868 309.822 76.8108 309.089 76.4588 308.678C76.1215 308.267 75.5935 308.062 74.8748 308.062C73.8482 308.062 72.8215 308.436 71.7948 309.184V317.5H70.1228V306.852H71.3768L71.6628 307.93ZM83.8615 308.282V313.54C83.8615 314.024 83.8835 314.442 83.9275 314.794C83.9715 315.146 84.0595 315.439 84.1915 315.674C84.3382 315.894 84.5362 316.055 84.7855 316.158C85.0495 316.261 85.4015 316.312 85.8415 316.312C86.1642 316.312 86.4795 316.275 86.7875 316.202C87.1102 316.129 87.4182 316.041 87.7115 315.938L88.0415 317.214C87.1615 317.551 86.2742 317.72 85.3795 317.72C84.7342 317.72 84.1988 317.632 83.7735 317.456C83.3628 317.28 83.0328 317.038 82.7835 316.73C82.5488 316.407 82.3875 316.026 82.2995 315.586C82.2115 315.131 82.1675 314.633 82.1675 314.09V308.282H80.4295V306.852H82.1675V304.608L83.8615 304.3V306.852H87.6235V308.282H83.8615ZM91.2238 306.852L91.4218 308.26C91.9058 307.732 92.4484 307.329 93.0498 307.05C93.6511 306.771 94.2598 306.632 94.8758 306.632C95.1251 306.632 95.3378 306.654 95.5138 306.698C95.7044 306.727 95.9024 306.779 96.1078 306.852V308.348C95.6678 308.172 95.2058 308.084 94.7218 308.084C94.1644 308.084 93.6071 308.238 93.0498 308.546C92.4924 308.854 92.0158 309.243 91.6198 309.712V317.5H89.9478V306.852H91.2238ZM96.9587 312.176C96.9587 310.269 97.34 308.869 98.1027 307.974C98.88 307.079 100.112 306.632 101.799 306.632C103.471 306.632 104.688 307.079 105.451 307.974C106.228 308.869 106.617 310.269 106.617 312.176C106.617 314.083 106.228 315.483 105.451 316.378C104.673 317.273 103.456 317.72 101.799 317.72C100.127 317.72 98.902 317.273 98.1247 316.378C97.3474 315.483 96.9587 314.083 96.9587 312.176ZM98.6527 312.176C98.6527 313.628 98.902 314.684 99.4007 315.344C99.8994 315.989 100.699 316.312 101.799 316.312C102.899 316.312 103.698 315.989 104.197 315.344C104.695 314.684 104.945 313.628 104.945 312.176C104.945 310.753 104.695 309.712 104.197 309.052C103.698 308.392 102.899 308.062 101.799 308.062C100.699 308.062 99.8994 308.392 99.4007 309.052C98.902 309.712 98.6527 310.753 98.6527 312.176ZM117.49 301.968V317.5H116.236L115.972 316.598C115.59 316.95 115.143 317.229 114.63 317.434C114.116 317.625 113.552 317.72 112.936 317.72C111.484 317.72 110.391 317.273 109.658 316.378C108.924 315.483 108.558 314.083 108.558 312.176C108.558 310.284 108.91 308.891 109.614 307.996C110.332 307.087 111.381 306.632 112.76 306.632C113.376 306.632 113.94 306.727 114.454 306.918C114.982 307.109 115.429 307.373 115.796 307.71V302.188L117.49 301.968ZM113.2 316.334C113.713 316.334 114.19 316.231 114.63 316.026C115.084 315.821 115.473 315.542 115.796 315.19V309.184C115.473 308.832 115.084 308.553 114.63 308.348C114.19 308.143 113.713 308.04 113.2 308.04C112.188 308.04 111.44 308.363 110.956 309.008C110.486 309.653 110.252 310.709 110.252 312.176C110.252 313.657 110.486 314.721 110.956 315.366C111.44 316.011 112.188 316.334 113.2 316.334ZM127.356 316.444C126.857 316.84 126.307 317.155 125.706 317.39C125.105 317.61 124.474 317.72 123.814 317.72C122.582 317.72 121.695 317.427 121.152 316.84C120.609 316.253 120.338 315.293 120.338 313.958V306.852H122.032V313.496C122.032 314.552 122.201 315.285 122.538 315.696C122.89 316.107 123.425 316.312 124.144 316.312C125.171 316.312 126.19 315.938 127.202 315.19V306.852H128.896V317.5H127.62L127.356 316.444ZM136.407 316.312C137.434 316.312 138.351 316.055 139.157 315.542L139.641 316.884C139.216 317.133 138.725 317.339 138.167 317.5C137.625 317.647 137.038 317.72 136.407 317.72C134.662 317.72 133.386 317.287 132.579 316.422C131.773 315.542 131.369 314.127 131.369 312.176C131.369 310.269 131.758 308.869 132.535 307.974C133.313 307.079 134.53 306.632 136.187 306.632C137.61 306.632 138.776 307.065 139.685 307.93L138.761 309.074C138.439 308.751 138.057 308.502 137.617 308.326C137.192 308.135 136.73 308.04 136.231 308.04C135.175 308.04 134.376 308.363 133.833 309.008C133.305 309.639 133.041 310.695 133.041 312.176C133.041 313.657 133.32 314.721 133.877 315.366C134.435 315.997 135.278 316.312 136.407 316.312ZM142.04 306.852H143.712V317.5H142.04V306.852ZM142.018 302.276H143.712V304.476H142.018V302.276ZM148.427 307.93C148.926 307.534 149.476 307.219 150.077 306.984C150.679 306.749 151.309 306.632 151.969 306.632C153.201 306.632 154.081 306.933 154.609 307.534C155.152 308.121 155.423 309.081 155.423 310.416V317.5H153.751V310.878C153.751 309.822 153.575 309.089 153.223 308.678C152.886 308.267 152.358 308.062 151.639 308.062C150.613 308.062 149.586 308.436 148.559 309.184V317.5H146.887V306.852H148.141L148.427 307.93ZM166.676 306.852V317.632C166.676 319.26 166.28 320.441 165.488 321.174C164.711 321.922 163.545 322.296 161.99 322.296C161.374 322.296 160.787 322.245 160.23 322.142C159.673 322.054 159.181 321.929 158.756 321.768L159.108 320.382C159.944 320.705 160.897 320.866 161.968 320.866C163.024 320.866 163.787 320.624 164.256 320.14C164.74 319.656 164.982 318.864 164.982 317.764V316.664C164.615 317.001 164.168 317.265 163.64 317.456C163.127 317.632 162.562 317.72 161.946 317.72C160.567 317.72 159.519 317.273 158.8 316.378C158.096 315.483 157.744 314.083 157.744 312.176C157.744 310.284 158.111 308.891 158.844 307.996C159.577 307.087 160.67 306.632 162.122 306.632C162.738 306.632 163.303 306.735 163.816 306.94C164.329 307.145 164.777 307.424 165.158 307.776L165.422 306.852H166.676ZM162.386 308.04C161.374 308.04 160.626 308.363 160.142 309.008C159.673 309.653 159.438 310.709 159.438 312.176C159.438 313.657 159.673 314.721 160.142 315.366C160.626 316.011 161.374 316.334 162.386 316.334C162.899 316.334 163.376 316.231 163.816 316.026C164.271 315.821 164.659 315.542 164.982 315.19V309.184C164.659 308.832 164.271 308.553 163.816 308.348C163.376 308.143 162.899 308.04 162.386 308.04ZM183.434 317.5H182.18L181.916 316.51C181.476 316.891 180.956 317.192 180.354 317.412C179.768 317.617 179.122 317.72 178.418 317.72C177.318 317.72 176.49 317.441 175.932 316.884C175.39 316.312 175.118 315.498 175.118 314.442C175.118 313.357 175.456 312.557 176.13 312.044C176.805 311.516 177.934 311.252 179.518 311.252C179.988 311.252 180.398 311.259 180.75 311.274C181.117 311.289 181.454 311.318 181.762 311.362V310.768C181.762 309.785 181.572 309.089 181.19 308.678C180.809 308.253 180.134 308.04 179.166 308.04C178.712 308.04 178.213 308.121 177.67 308.282C177.142 308.429 176.607 308.649 176.064 308.942L175.558 307.666C176.145 307.343 176.768 307.094 177.428 306.918C178.088 306.727 178.77 306.632 179.474 306.632C180.222 306.632 180.846 306.705 181.344 306.852C181.858 306.999 182.268 307.241 182.576 307.578C182.884 307.901 183.104 308.319 183.236 308.832C183.368 309.345 183.434 309.976 183.434 310.724V317.5ZM178.88 316.334C179.364 316.334 179.863 316.231 180.376 316.026C180.904 315.806 181.366 315.52 181.762 315.168V312.726C181.381 312.682 181 312.653 180.618 312.638C180.237 312.609 179.812 312.594 179.342 312.594C178.418 312.594 177.758 312.733 177.362 313.012C176.981 313.291 176.79 313.76 176.79 314.42C176.79 315.051 176.952 315.527 177.274 315.85C177.597 316.173 178.132 316.334 178.88 316.334ZM195.966 315.564L197.11 312.132L198.98 306.852H200.762L196.758 317.5H195.152L191.126 306.852H192.908L194.778 312.132L195.922 315.564H195.966ZM202.758 306.852H204.43V317.5H202.758V306.852ZM202.736 302.276H204.43V304.476H202.736V302.276ZM210.18 310.9C210.517 311.032 210.935 311.179 211.434 311.34C211.947 311.501 212.453 311.677 212.952 311.868C214.374 312.396 215.086 313.342 215.086 314.706C215.086 315.674 214.748 316.422 214.074 316.95C213.399 317.478 212.314 317.742 210.818 317.742C209.982 317.742 209.27 317.647 208.684 317.456C208.097 317.265 207.569 317.038 207.1 316.774L207.65 315.454C208.075 315.703 208.559 315.916 209.102 316.092C209.644 316.268 210.224 316.356 210.84 316.356C211.778 316.356 212.438 316.231 212.82 315.982C213.201 315.718 213.392 315.322 213.392 314.794C213.392 314.09 212.974 313.569 212.138 313.232C211.668 313.041 211.177 312.865 210.664 312.704C210.165 312.543 209.688 312.381 209.234 312.22C208.647 312.015 208.178 311.699 207.826 311.274C207.488 310.834 207.32 310.262 207.32 309.558C207.32 308.707 207.65 308.003 208.31 307.446C208.984 306.889 209.989 306.61 211.324 306.61C212.028 306.61 212.658 306.683 213.216 306.83C213.773 306.962 214.242 307.123 214.624 307.314L214.118 308.59C213.692 308.385 213.267 308.238 212.842 308.15C212.416 308.047 211.896 307.996 211.28 307.996C210.84 307.996 210.473 308.04 210.18 308.128C209.886 308.216 209.652 308.333 209.476 308.48C209.314 308.612 209.197 308.766 209.124 308.942C209.05 309.118 209.014 309.294 209.014 309.47C209.014 309.822 209.102 310.108 209.278 310.328C209.454 310.548 209.754 310.739 210.18 310.9ZM217.685 306.852H219.357V317.5H217.685V306.852ZM217.663 302.276H219.357V304.476H217.663V302.276ZM222.026 312.176C222.026 310.269 222.407 308.869 223.17 307.974C223.947 307.079 225.179 306.632 226.866 306.632C228.538 306.632 229.755 307.079 230.518 307.974C231.295 308.869 231.684 310.269 231.684 312.176C231.684 314.083 231.295 315.483 230.518 316.378C229.741 317.273 228.523 317.72 226.866 317.72C225.194 317.72 223.969 317.273 223.192 316.378C222.415 315.483 222.026 314.083 222.026 312.176ZM223.72 312.176C223.72 313.628 223.969 314.684 224.468 315.344C224.967 315.989 225.766 316.312 226.866 316.312C227.966 316.312 228.765 315.989 229.264 315.344C229.763 314.684 230.012 313.628 230.012 312.176C230.012 310.753 229.763 309.712 229.264 309.052C228.765 308.392 227.966 308.062 226.866 308.062C225.766 308.062 224.967 308.392 224.468 309.052C223.969 309.712 223.72 310.753 223.72 312.176ZM235.671 307.93C236.17 307.534 236.72 307.219 237.321 306.984C237.922 306.749 238.553 306.632 239.213 306.632C240.445 306.632 241.325 306.933 241.853 307.534C242.396 308.121 242.667 309.081 242.667 310.416V317.5H240.995V310.878C240.995 309.822 240.819 309.089 240.467 308.678C240.13 308.267 239.602 308.062 238.883 308.062C237.856 308.062 236.83 308.436 235.803 309.184V317.5H234.131V306.852H235.385L235.671 307.93ZM253.238 317.5H251.984L251.72 316.51C251.28 316.891 250.759 317.192 250.158 317.412C249.571 317.617 248.926 317.72 248.222 317.72C247.122 317.72 246.293 317.441 245.736 316.884C245.193 316.312 244.922 315.498 244.922 314.442C244.922 313.357 245.259 312.557 245.934 312.044C246.608 311.516 247.738 311.252 249.322 311.252C249.791 311.252 250.202 311.259 250.554 311.274C250.92 311.289 251.258 311.318 251.566 311.362V310.768C251.566 309.785 251.375 309.089 250.994 308.678C250.612 308.253 249.938 308.04 248.97 308.04C248.515 308.04 248.016 308.121 247.474 308.282C246.946 308.429 246.41 308.649 245.868 308.942L245.362 307.666C245.948 307.343 246.572 307.094 247.232 306.918C247.892 306.727 248.574 306.632 249.278 306.632C250.026 306.632 250.649 306.705 251.148 306.852C251.661 306.999 252.072 307.241 252.38 307.578C252.688 307.901 252.908 308.319 253.04 308.832C253.172 309.345 253.238 309.976 253.238 310.724V317.5ZM248.684 316.334C249.168 316.334 249.666 316.231 250.18 316.026C250.708 315.806 251.17 315.52 251.566 315.168V312.726C251.184 312.682 250.803 312.653 250.422 312.638C250.04 312.609 249.615 312.594 249.146 312.594C248.222 312.594 247.562 312.733 247.166 313.012C246.784 313.291 246.594 313.76 246.594 314.42C246.594 315.051 246.755 315.527 247.078 315.85C247.4 316.173 247.936 316.334 248.684 316.334ZM257.338 306.852L257.536 308.26C258.02 307.732 258.562 307.329 259.164 307.05C259.765 306.771 260.374 306.632 260.99 306.632C261.239 306.632 261.452 306.654 261.628 306.698C261.818 306.727 262.016 306.779 262.222 306.852V308.348C261.782 308.172 261.32 308.084 260.836 308.084C260.278 308.084 259.721 308.238 259.164 308.546C258.606 308.854 258.13 309.243 257.734 309.712V317.5H256.062V306.852H257.338ZM263.228 306.852H264.988L268.068 315.19H268.134L271.016 306.852H272.754L268.442 318.864C268.222 319.509 267.98 320.045 267.716 320.47C267.452 320.91 267.152 321.262 266.814 321.526C266.492 321.805 266.118 322.003 265.692 322.12C265.282 322.237 264.805 322.296 264.262 322.296C263.852 322.296 263.529 322.252 263.294 322.164L263.536 320.778C263.771 320.837 264.057 320.866 264.394 320.866C264.702 320.866 264.974 320.815 265.208 320.712C265.458 320.609 265.67 320.477 265.846 320.316C266.037 320.155 266.198 319.971 266.33 319.766C266.462 319.561 266.572 319.348 266.66 319.128L267.32 317.368L263.228 306.852ZM282.064 307.93C282.563 307.534 283.113 307.219 283.714 306.984C284.316 306.749 284.946 306.632 285.606 306.632C286.838 306.632 287.718 306.933 288.246 307.534C288.789 308.121 289.06 309.081 289.06 310.416V317.5H287.388V310.878C287.388 309.822 287.212 309.089 286.86 308.678C286.523 308.267 285.995 308.062 285.276 308.062C284.25 308.062 283.223 308.436 282.196 309.184V317.5H280.524V306.852H281.778L282.064 307.93ZM296.155 317.72C294.424 317.72 293.192 317.273 292.459 316.378C291.74 315.469 291.381 314.068 291.381 312.176C291.381 310.269 291.748 308.869 292.481 307.974C293.214 307.079 294.336 306.632 295.847 306.632C297.358 306.632 298.48 307.072 299.213 307.952C299.946 308.817 300.313 310.196 300.313 312.088V312.792H293.097C293.156 314.053 293.427 314.955 293.911 315.498C294.395 316.041 295.15 316.312 296.177 316.312C296.793 316.312 297.394 316.224 297.981 316.048C298.582 315.857 299.14 315.601 299.653 315.278L300.203 316.62C299.646 316.957 299.015 317.229 298.311 317.434C297.622 317.625 296.903 317.72 296.155 317.72ZM298.597 311.428C298.524 310.284 298.267 309.441 297.827 308.898C297.387 308.341 296.727 308.062 295.847 308.062C294.967 308.062 294.307 308.341 293.867 308.898C293.427 309.441 293.17 310.284 293.097 311.428H298.597ZM309.267 306.852L310.961 312.858L311.665 315.498H311.709L312.259 312.858L313.645 306.852H315.317L312.501 317.5H310.873L309.597 312.858L308.519 308.964H308.475L307.419 312.858L306.121 317.5H304.515L301.677 306.852H303.371L304.735 312.858L305.307 315.498H305.351L306.033 312.858L307.727 306.852H309.267ZM327.758 316.312C328.784 316.312 329.701 316.055 330.508 315.542L330.992 316.884C330.566 317.133 330.075 317.339 329.518 317.5C328.975 317.647 328.388 317.72 327.758 317.72C326.012 317.72 324.736 317.287 323.93 316.422C323.123 315.542 322.72 314.127 322.72 312.176C322.72 310.269 323.108 308.869 323.886 307.974C324.663 307.079 325.88 306.632 327.538 306.632C328.96 306.632 330.126 307.065 331.036 307.93L330.112 309.074C329.789 308.751 329.408 308.502 328.968 308.326C328.542 308.135 328.08 308.04 327.582 308.04C326.526 308.04 325.726 308.363 325.184 309.008C324.656 309.639 324.392 310.695 324.392 312.176C324.392 313.657 324.67 314.721 325.228 315.366C325.785 315.997 326.628 316.312 327.758 316.312ZM332.084 312.176C332.084 310.269 332.465 308.869 333.228 307.974C334.005 307.079 335.237 306.632 336.924 306.632C338.596 306.632 339.813 307.079 340.576 307.974C341.353 308.869 341.742 310.269 341.742 312.176C341.742 314.083 341.353 315.483 340.576 316.378C339.798 317.273 338.581 317.72 336.924 317.72C335.252 317.72 334.027 317.273 333.25 316.378C332.472 315.483 332.084 314.083 332.084 312.176ZM333.778 312.176C333.778 313.628 334.027 314.684 334.526 315.344C335.024 315.989 335.824 316.312 336.924 316.312C338.024 316.312 338.823 315.989 339.322 315.344C339.82 314.684 340.07 313.628 340.07 312.176C340.07 310.753 339.82 309.712 339.322 309.052C338.823 308.392 338.024 308.062 336.924 308.062C335.824 308.062 335.024 308.392 334.526 309.052C334.027 309.712 333.778 310.753 333.778 312.176ZM345.729 307.93C346.227 307.534 346.777 307.219 347.379 306.984C347.98 306.749 348.611 306.632 349.271 306.632C350.503 306.632 351.383 306.933 351.911 307.534C352.453 308.121 352.725 309.081 352.725 310.416V317.5H351.053V310.878C351.053 309.822 350.877 309.089 350.525 308.678C350.187 308.267 349.659 308.062 348.941 308.062C347.914 308.062 346.887 308.436 345.861 309.184V317.5H344.189V306.852H345.443L345.729 307.93ZM360.105 316.312C361.132 316.312 362.049 316.055 362.855 315.542L363.339 316.884C362.914 317.133 362.423 317.339 361.865 317.5C361.323 317.647 360.736 317.72 360.105 317.72C358.36 317.72 357.084 317.287 356.277 316.422C355.471 315.542 355.067 314.127 355.067 312.176C355.067 310.269 355.456 308.869 356.233 307.974C357.011 307.079 358.228 306.632 359.885 306.632C361.308 306.632 362.474 307.065 363.383 307.93L362.459 309.074C362.137 308.751 361.755 308.502 361.315 308.326C360.89 308.135 360.428 308.04 359.929 308.04C358.873 308.04 358.074 308.363 357.531 309.008C357.003 309.639 356.739 310.695 356.739 312.176C356.739 313.657 357.018 314.721 357.575 315.366C358.133 315.997 358.976 316.312 360.105 316.312ZM369.205 317.72C367.475 317.72 366.243 317.273 365.509 316.378C364.791 315.469 364.431 314.068 364.431 312.176C364.431 310.269 364.798 308.869 365.531 307.974C366.265 307.079 367.387 306.632 368.897 306.632C370.408 306.632 371.53 307.072 372.263 307.952C372.997 308.817 373.363 310.196 373.363 312.088V312.792H366.147C366.206 314.053 366.477 314.955 366.961 315.498C367.445 316.041 368.201 316.312 369.227 316.312C369.843 316.312 370.445 316.224 371.031 316.048C371.633 315.857 372.19 315.601 372.703 315.278L373.253 316.62C372.696 316.957 372.065 317.229 371.361 317.434C370.672 317.625 369.953 317.72 369.205 317.72ZM371.647 311.428C371.574 310.284 371.317 309.441 370.877 308.898C370.437 308.341 369.777 308.062 368.897 308.062C368.017 308.062 367.357 308.341 366.917 308.898C366.477 309.441 366.221 310.284 366.147 311.428H371.647ZM377.081 306.852L377.367 307.776C377.749 307.424 378.189 307.145 378.687 306.94C379.201 306.735 379.765 306.632 380.381 306.632C381.833 306.632 382.926 307.087 383.659 307.996C384.393 308.891 384.759 310.284 384.759 312.176C384.759 314.083 384.4 315.483 383.681 316.378C382.977 317.273 381.936 317.72 380.557 317.72C379.971 317.72 379.406 317.632 378.863 317.456C378.321 317.265 377.873 317.001 377.521 316.664V322.076H375.827V306.852H377.081ZM380.117 308.04C379.604 308.04 379.12 308.143 378.665 308.348C378.225 308.553 377.844 308.832 377.521 309.184V315.19C377.844 315.542 378.225 315.821 378.665 316.026C379.12 316.231 379.604 316.334 380.117 316.334C381.129 316.334 381.877 316.011 382.361 315.366C382.845 314.721 383.087 313.657 383.087 312.176C383.087 310.709 382.845 309.653 382.361 309.008C381.877 308.363 381.129 308.04 380.117 308.04ZM389.33 308.282V313.54C389.33 314.024 389.352 314.442 389.396 314.794C389.44 315.146 389.528 315.439 389.66 315.674C389.806 315.894 390.004 316.055 390.254 316.158C390.518 316.261 390.87 316.312 391.31 316.312C391.632 316.312 391.948 316.275 392.256 316.202C392.578 316.129 392.886 316.041 393.18 315.938L393.51 317.214C392.63 317.551 391.742 317.72 390.848 317.72C390.202 317.72 389.667 317.632 389.242 317.456C388.831 317.28 388.501 317.038 388.252 316.73C388.017 316.407 387.856 316.026 387.768 315.586C387.68 315.131 387.636 314.633 387.636 314.09V308.282H385.898V306.852H387.636V304.608L389.33 304.3V306.852H393.092V308.282H389.33Z" fill="#4A4946"/>
</svg>
