<svg width="335" height="614" viewBox="0 0 335 614" fill="none" xmlns="http://www.w3.org/2000/svg">
<path d="M0 10C0 4.47715 4.47715 0 10 0H324C329.523 0 334 4.47715 334 10V307H0V10Z" fill="white"/>
<path d="M73.9477 123.16L78.0837 140.056L81.9557 123.16H85.8717L80.3717 144.5H76.2357L72.3197 128.704L68.3597 144.5H64.2237L58.7237 123.16H62.6397L66.5117 140.056L70.6477 123.16H73.9477ZM88.8115 119.2V114.932H92.7715V119.2H88.8115ZM88.8115 144.5V123.16H92.7715V144.5H88.8115ZM96.0361 123.16H99.4241V117.572H103.384V123.16H108.62V126.636H103.384V139.352C103.384 140.76 103.912 141.068 105.364 141.068H108.62V144.5H104.924C102.02 144.5 99.4241 143.18 99.4241 139.748V126.636H96.0361V123.16ZM116.025 144.5H112.109V114.932H116.025V125.756C117.477 123.776 119.809 122.588 122.889 122.588C128.169 122.588 131.381 126.328 131.381 131.872V144.5H127.465V131.564C127.465 127.692 125.749 126.152 121.833 126.152C117.873 126.152 116.025 127.692 116.025 131.564V144.5Z" fill="#262626"/>
<path d="M153.96 145.116C148.196 145.116 143.752 140.496 143.752 133.72C143.752 127.032 148.196 122.456 153.96 122.456C156.688 122.456 158.932 123.424 160.56 125.184V123.028H165.444V144.5H161.176L160.824 142.036C159.196 144.016 156.864 145.116 153.96 145.116ZM148.592 133.72C148.592 138.824 150.44 140.804 154.664 140.804C158.932 140.804 160.78 138.824 160.78 133.72C160.78 128.704 158.932 126.724 154.664 126.724C150.44 126.724 148.592 128.704 148.592 133.72ZM191.911 138.648C191.911 137.152 190.987 136.536 188.787 136.008L185.135 135.172C180.867 134.16 178.667 132.4 178.667 128.704C178.667 124.876 182.671 122.456 187.423 122.456C192.175 122.456 195.959 124.876 196.575 129.232H191.779C191.471 127.252 190.151 126.548 187.423 126.548C184.739 126.548 183.507 127.296 183.507 128.704C183.507 129.892 184.079 130.508 186.323 131.036L190.107 132.004C194.463 133.06 196.707 134.644 196.707 138.516C196.707 142.828 192.527 145.116 187.555 145.116C182.935 145.116 178.667 142.96 177.963 137.812H182.759C183.199 140.364 184.607 140.98 187.555 140.98C190.415 140.98 191.911 140.232 191.911 138.648ZM205.009 144.5H200.213V123.028H204.393L204.701 125.404C205.977 123.512 207.781 122.456 210.333 122.456C213.281 122.456 215.305 124.04 216.405 126.372C217.681 123.908 219.705 122.456 222.653 122.456C227.229 122.456 229.649 125.888 229.649 131.212V144.5H224.853V130.772C224.853 128.088 223.929 126.724 221.113 126.724C218.341 126.724 217.329 128.088 217.329 130.772V130.904V144.5H212.533V130.772C212.533 128.088 211.609 126.724 208.793 126.724C206.021 126.724 205.009 128.088 205.009 130.772V144.5ZM234.249 119.728V114.932H239.133V119.728H234.249ZM234.249 144.5V123.028H239.133V144.5H234.249ZM249.465 144.94C246.077 144.94 243.921 143.576 243.921 139.924V114.932H248.805V139.088C248.805 140.496 249.245 140.804 250.521 140.804H251.357V144.94H249.465ZM274.039 138.252C272.587 142.564 268.583 145.116 263.831 145.116C257.627 145.116 252.831 140.584 252.831 133.72C252.831 126.944 257.627 122.456 263.699 122.456C269.111 122.456 274.435 126.196 274.435 133.808V135.172H257.715C258.067 139.44 259.915 140.804 263.831 140.804C266.823 140.804 268.275 140.1 269.155 138.252H274.039ZM257.803 131.564H269.639C269.243 128.088 267.483 126.724 263.699 126.724C260.135 126.724 258.287 127.956 257.803 131.564Z" fill="#FF1C1B"/>
<path d="M17 188.5H317" stroke="#4A4946"/>
<circle cx="301" cy="188.5" r="10" fill="#FD312E"/>
<path d="M0 307H335V604C335 609.523 330.523 614 325 614H9.99999C4.47714 614 0 609.523 0 604V307Z" fill="#E6E1D6"/>
<path d="M35.2862 391.68C35.2862 392 35.2263 392.3 35.1063 392.58C34.9863 392.86 34.8196 393.107 34.6063 393.32C34.4063 393.52 34.1663 393.68 33.8863 393.8C33.6196 393.907 33.3263 393.96 33.0063 393.96C32.6863 393.96 32.3863 393.907 32.1063 393.8C31.8263 393.68 31.5796 393.52 31.3663 393.32C31.1663 393.12 31.0063 392.88 30.8863 392.6C30.7663 392.32 30.7063 392.013 30.7063 391.68C30.7063 391.36 30.7663 391.06 30.8863 390.78C31.0063 390.5 31.1663 390.26 31.3663 390.06C31.5796 389.847 31.8263 389.687 32.1063 389.58C32.3863 389.46 32.6863 389.4 33.0063 389.4C33.3263 389.4 33.6196 389.46 33.8863 389.58C34.1663 389.687 34.4063 389.847 34.6063 390.06C34.8196 390.26 34.9863 390.5 35.1063 390.78C35.2263 391.06 35.2862 391.36 35.2862 391.68ZM56.62 394.76C56.62 394.44 56.5733 394.153 56.48 393.9C56.3867 393.647 56.22 393.413 55.98 393.2C55.74 392.987 55.4067 392.78 54.98 392.58C54.5667 392.38 54.04 392.167 53.4 391.94C52.6133 391.66 51.9533 391.387 51.42 391.12C50.8867 390.84 50.46 390.54 50.14 390.22C49.82 389.9 49.5867 389.547 49.44 389.16C49.3067 388.773 49.24 388.327 49.24 387.82C49.24 386.767 49.6267 385.927 50.4 385.3C51.1733 384.673 52.3067 384.36 53.8 384.36C54.5333 384.36 55.2067 384.453 55.82 384.64C56.4333 384.813 57.02 385.06 57.58 385.38L56.98 386.62C56.4867 386.313 55.9733 386.08 55.44 385.92C54.9067 385.747 54.36 385.66 53.8 385.66C52.76 385.66 51.9933 385.847 51.5 386.22C51.02 386.58 50.78 387.08 50.78 387.72C50.78 388.053 50.8333 388.347 50.94 388.6C51.0467 388.853 51.22 389.087 51.46 389.3C51.7133 389.513 52.0467 389.727 52.46 389.94C52.8733 390.14 53.3933 390.36 54.02 390.6C54.7933 390.893 55.44 391.167 55.96 391.42C56.4933 391.673 56.92 391.953 57.24 392.26C57.5733 392.553 57.8067 392.893 57.94 393.28C58.0867 393.653 58.16 394.107 58.16 394.64C58.16 395.733 57.76 396.6 56.96 397.24C56.1733 397.88 54.9533 398.2 53.3 398.2C52.46 398.2 51.66 398.1 50.9 397.9C50.14 397.7 49.4933 397.44 48.96 397.12L49.52 395.92C50.0933 396.227 50.6867 396.473 51.3 396.66C51.9133 396.833 52.56 396.92 53.24 396.92C54.3733 396.92 55.22 396.733 55.78 396.36C56.34 395.973 56.62 395.44 56.62 394.76ZM61.5138 388.32L61.7738 389.16C62.1204 388.84 62.5204 388.587 62.9738 388.4C63.4404 388.213 63.9538 388.12 64.5138 388.12C65.8338 388.12 66.8271 388.533 67.4938 389.36C68.1604 390.173 68.4938 391.44 68.4938 393.16C68.4938 394.893 68.1671 396.167 67.5138 396.98C66.8738 397.793 65.9271 398.2 64.6738 398.2C64.1404 398.2 63.6271 398.12 63.1338 397.96C62.6404 397.787 62.2338 397.547 61.9138 397.24V402.16H60.3738V388.32H61.5138ZM64.2738 389.4C63.8071 389.4 63.3671 389.493 62.9538 389.68C62.5538 389.867 62.2071 390.12 61.9138 390.44V395.9C62.2071 396.22 62.5538 396.473 62.9538 396.66C63.3671 396.847 63.8071 396.94 64.2738 396.94C65.1938 396.94 65.8738 396.647 66.3138 396.06C66.7538 395.473 66.9738 394.507 66.9738 393.16C66.9738 391.827 66.7538 390.867 66.3138 390.28C65.8738 389.693 65.1938 389.4 64.2738 389.4ZM74.603 398.2C73.0296 398.2 71.9096 397.793 71.243 396.98C70.5896 396.153 70.263 394.88 70.263 393.16C70.263 391.427 70.5963 390.153 71.263 389.34C71.9296 388.527 72.9496 388.12 74.323 388.12C75.6963 388.12 76.7163 388.52 77.383 389.32C78.0496 390.107 78.383 391.36 78.383 393.08V393.72H71.823C71.8763 394.867 72.123 395.687 72.563 396.18C73.003 396.673 73.6896 396.92 74.623 396.92C75.183 396.92 75.7296 396.84 76.263 396.68C76.8096 396.507 77.3163 396.273 77.783 395.98L78.283 397.2C77.7763 397.507 77.203 397.753 76.563 397.94C75.9363 398.113 75.283 398.2 74.603 398.2ZM76.823 392.48C76.7563 391.44 76.523 390.673 76.123 390.18C75.723 389.673 75.123 389.42 74.323 389.42C73.523 389.42 72.923 389.673 72.523 390.18C72.123 390.673 71.8896 391.44 71.823 392.48H76.823ZM87.663 398H86.523L86.283 397.1C85.883 397.447 85.4096 397.72 84.863 397.92C84.3296 398.107 83.743 398.2 83.103 398.2C82.103 398.2 81.3496 397.947 80.843 397.44C80.3496 396.92 80.103 396.18 80.103 395.22C80.103 394.233 80.4096 393.507 81.023 393.04C81.6363 392.56 82.663 392.32 84.103 392.32C84.5296 392.32 84.903 392.327 85.223 392.34C85.5563 392.353 85.863 392.38 86.143 392.42V391.88C86.143 390.987 85.9696 390.353 85.623 389.98C85.2763 389.593 84.663 389.4 83.783 389.4C83.3696 389.4 82.9163 389.473 82.423 389.62C81.943 389.753 81.4563 389.953 80.963 390.22L80.503 389.06C81.0363 388.767 81.603 388.54 82.203 388.38C82.803 388.207 83.423 388.12 84.063 388.12C84.743 388.12 85.3096 388.187 85.763 388.32C86.2296 388.453 86.603 388.673 86.883 388.98C87.163 389.273 87.363 389.653 87.483 390.12C87.603 390.587 87.663 391.16 87.663 391.84V398ZM83.523 396.94C83.963 396.94 84.4163 396.847 84.883 396.66C85.363 396.46 85.783 396.2 86.143 395.88V393.66C85.7963 393.62 85.4496 393.593 85.103 393.58C84.7563 393.553 84.3696 393.54 83.943 393.54C83.103 393.54 82.503 393.667 82.143 393.92C81.7963 394.173 81.623 394.6 81.623 395.2C81.623 395.773 81.7696 396.207 82.063 396.5C82.3563 396.793 82.843 396.94 83.523 396.94ZM90.23 398V384.08L91.77 383.88V392.1H92.71L96.33 388.32H98.19L93.93 392.76L98.31 398H96.45L92.69 393.4H91.77V398H90.23ZM100.057 388.32H101.577V398H100.057V388.32ZM100.037 384.16H101.577V386.16H100.037V384.16ZM105.864 389.3C106.317 388.94 106.817 388.653 107.364 388.44C107.91 388.227 108.484 388.12 109.084 388.12C110.204 388.12 111.004 388.393 111.484 388.94C111.977 389.473 112.224 390.347 112.224 391.56V398H110.704V391.98C110.704 391.02 110.544 390.353 110.224 389.98C109.917 389.607 109.437 389.42 108.784 389.42C107.85 389.42 106.917 389.76 105.984 390.44V398H104.464V388.32H105.604L105.864 389.3ZM122.453 388.32V398.12C122.453 399.6 122.093 400.673 121.373 401.34C120.667 402.02 119.607 402.36 118.193 402.36C117.633 402.36 117.1 402.313 116.593 402.22C116.087 402.14 115.64 402.027 115.253 401.88L115.573 400.62C116.333 400.913 117.2 401.06 118.173 401.06C119.133 401.06 119.827 400.84 120.253 400.4C120.693 399.96 120.913 399.24 120.913 398.24V397.24C120.58 397.547 120.173 397.787 119.693 397.96C119.227 398.12 118.713 398.2 118.153 398.2C116.9 398.2 115.947 397.793 115.293 396.98C114.653 396.167 114.333 394.893 114.333 393.16C114.333 391.44 114.667 390.173 115.333 389.36C116 388.533 116.993 388.12 118.313 388.12C118.873 388.12 119.387 388.213 119.853 388.4C120.32 388.587 120.727 388.84 121.073 389.16L121.313 388.32H122.453ZM118.553 389.4C117.633 389.4 116.953 389.693 116.513 390.28C116.087 390.867 115.873 391.827 115.873 393.16C115.873 394.507 116.087 395.473 116.513 396.06C116.953 396.647 117.633 396.94 118.553 396.94C119.02 396.94 119.453 396.847 119.853 396.66C120.267 396.473 120.62 396.22 120.913 395.9V390.44C120.62 390.12 120.267 389.867 119.853 389.68C119.453 389.493 119.02 389.4 118.553 389.4ZM132.808 389.62V394.4C132.808 394.84 132.828 395.22 132.868 395.54C132.908 395.86 132.988 396.127 133.108 396.34C133.241 396.54 133.421 396.687 133.648 396.78C133.888 396.873 134.208 396.92 134.608 396.92C134.901 396.92 135.188 396.887 135.468 396.82C135.761 396.753 136.041 396.673 136.308 396.58L136.608 397.74C135.808 398.047 135.001 398.2 134.188 398.2C133.601 398.2 133.115 398.12 132.728 397.96C132.355 397.8 132.055 397.58 131.828 397.3C131.615 397.007 131.468 396.66 131.388 396.26C131.308 395.847 131.268 395.393 131.268 394.9V389.62H129.688V388.32H131.268V386.28L132.808 386V388.32H136.228V389.62H132.808ZM137.764 393.16C137.764 391.427 138.11 390.153 138.804 389.34C139.51 388.527 140.63 388.12 142.164 388.12C143.684 388.12 144.79 388.527 145.484 389.34C146.19 390.153 146.544 391.427 146.544 393.16C146.544 394.893 146.19 396.167 145.484 396.98C144.777 397.793 143.67 398.2 142.164 398.2C140.644 398.2 139.53 397.793 138.824 396.98C138.117 396.167 137.764 394.893 137.764 393.16ZM139.304 393.16C139.304 394.48 139.53 395.44 139.984 396.04C140.437 396.627 141.164 396.92 142.164 396.92C143.164 396.92 143.89 396.627 144.344 396.04C144.797 395.44 145.024 394.48 145.024 393.16C145.024 391.867 144.797 390.92 144.344 390.32C143.89 389.72 143.164 389.42 142.164 389.42C141.164 389.42 140.437 389.72 139.984 390.32C139.53 390.92 139.304 391.867 139.304 393.16ZM160.114 396.9C160.647 396.9 161.16 396.867 161.654 396.8C162.16 396.72 162.64 396.607 163.094 396.46V392.42H159.654V391.12H164.614V397.34C164.014 397.567 163.307 397.767 162.494 397.94C161.68 398.113 160.874 398.2 160.074 398.2C158.967 398.2 158.02 398.053 157.234 397.76C156.46 397.453 155.827 397.013 155.334 396.44C154.84 395.853 154.48 395.133 154.254 394.28C154.04 393.413 153.934 392.413 153.934 391.28C153.934 388.907 154.42 387.16 155.394 386.04C156.38 384.92 157.834 384.36 159.754 384.36C160.834 384.36 161.767 384.527 162.554 384.86C163.34 385.18 163.994 385.62 164.514 386.18L163.594 387.22C163.1 386.7 162.547 386.313 161.934 386.06C161.32 385.807 160.594 385.68 159.754 385.68C158.327 385.68 157.254 386.133 156.534 387.04C155.827 387.933 155.474 389.347 155.474 391.28C155.474 393.2 155.834 394.62 156.554 395.54C157.274 396.447 158.46 396.9 160.114 396.9ZM171.335 398.2C169.762 398.2 168.642 397.793 167.975 396.98C167.322 396.153 166.995 394.88 166.995 393.16C166.995 391.427 167.328 390.153 167.995 389.34C168.662 388.527 169.682 388.12 171.055 388.12C172.428 388.12 173.448 388.52 174.115 389.32C174.782 390.107 175.115 391.36 175.115 393.08V393.72H168.555C168.608 394.867 168.855 395.687 169.295 396.18C169.735 396.673 170.422 396.92 171.355 396.92C171.915 396.92 172.462 396.84 172.995 396.68C173.542 396.507 174.048 396.273 174.515 395.98L175.015 397.2C174.508 397.507 173.935 397.753 173.295 397.94C172.668 398.113 172.015 398.2 171.335 398.2ZM173.555 392.48C173.488 391.44 173.255 390.673 172.855 390.18C172.455 389.673 171.855 389.42 171.055 389.42C170.255 389.42 169.655 389.673 169.255 390.18C168.855 390.673 168.622 391.44 168.555 392.48H173.555ZM178.755 389.3C179.208 388.94 179.708 388.653 180.255 388.44C180.802 388.227 181.375 388.12 181.975 388.12C183.095 388.12 183.895 388.393 184.375 388.94C184.868 389.473 185.115 390.347 185.115 391.56V398H183.595V391.98C183.595 391.02 183.435 390.353 183.115 389.98C182.808 389.607 182.328 389.42 181.675 389.42C180.742 389.42 179.808 389.76 178.875 390.44V398H177.355V388.32H178.495L178.755 389.3ZM202.23 385.6L194.39 396.72H202.21V398H192.43V396.96L200.27 385.86H192.91V384.56H202.23V385.6ZM35.2862 423.68C35.2862 424 35.2263 424.3 35.1063 424.58C34.9863 424.86 34.8196 425.107 34.6063 425.32C34.4063 425.52 34.1663 425.68 33.8863 425.8C33.6196 425.907 33.3263 425.96 33.0063 425.96C32.6863 425.96 32.3863 425.907 32.1063 425.8C31.8263 425.68 31.5796 425.52 31.3663 425.32C31.1663 425.12 31.0063 424.88 30.8863 424.6C30.7663 424.32 30.7063 424.013 30.7063 423.68C30.7063 423.36 30.7663 423.06 30.8863 422.78C31.0063 422.5 31.1663 422.26 31.3663 422.06C31.5796 421.847 31.8263 421.687 32.1063 421.58C32.3863 421.46 32.6863 421.4 33.0063 421.4C33.3263 421.4 33.6196 421.46 33.8863 421.58C34.1663 421.687 34.4063 421.847 34.6063 422.06C34.8196 422.26 34.9863 422.5 35.1063 422.78C35.2263 423.06 35.2862 423.36 35.2862 423.68ZM49.82 416.56H51.36V430H49.82V416.56ZM55.8753 421.3C56.3286 420.94 56.8286 420.653 57.3753 420.44C57.922 420.227 58.4953 420.12 59.0953 420.12C60.2153 420.12 61.0153 420.393 61.4953 420.94C61.9886 421.473 62.2353 422.347 62.2353 423.56V430H60.7153V423.98C60.7153 423.02 60.5553 422.353 60.2353 421.98C59.9286 421.607 59.4486 421.42 58.7953 421.42C57.862 421.42 56.9286 421.76 55.9953 422.44V430H54.4753V420.32H55.6153L55.8753 421.3ZM66.965 421.62V426.4C66.965 426.84 66.985 427.22 67.025 427.54C67.065 427.86 67.145 428.127 67.265 428.34C67.3983 428.54 67.5783 428.687 67.805 428.78C68.045 428.873 68.365 428.92 68.765 428.92C69.0583 428.92 69.345 428.887 69.625 428.82C69.9183 428.753 70.1983 428.673 70.465 428.58L70.765 429.74C69.965 430.047 69.1583 430.2 68.345 430.2C67.7583 430.2 67.2717 430.12 66.885 429.96C66.5117 429.8 66.2117 429.58 65.985 429.3C65.7717 429.007 65.625 428.66 65.545 428.26C65.465 427.847 65.425 427.393 65.425 426.9V421.62H63.845V420.32H65.425V418.28L66.965 418V420.32H70.385V421.62H66.965ZM73.658 420.32L73.838 421.6C74.278 421.12 74.7713 420.753 75.318 420.5C75.8646 420.247 76.418 420.12 76.978 420.12C77.2046 420.12 77.398 420.14 77.558 420.18C77.7313 420.207 77.9113 420.253 78.098 420.32V421.68C77.698 421.52 77.278 421.44 76.838 421.44C76.3313 421.44 75.8246 421.58 75.318 421.86C74.8113 422.14 74.378 422.493 74.018 422.92V430H72.498V420.32H73.658ZM78.8716 425.16C78.8716 423.427 79.2182 422.153 79.9116 421.34C80.6182 420.527 81.7382 420.12 83.2716 420.12C84.7916 420.12 85.8982 420.527 86.5916 421.34C87.2982 422.153 87.6516 423.427 87.6516 425.16C87.6516 426.893 87.2982 428.167 86.5916 428.98C85.8849 429.793 84.7782 430.2 83.2716 430.2C81.7516 430.2 80.6382 429.793 79.9316 428.98C79.2249 428.167 78.8716 426.893 78.8716 425.16ZM80.4116 425.16C80.4116 426.48 80.6382 427.44 81.0916 428.04C81.5449 428.627 82.2716 428.92 83.2716 428.92C84.2716 428.92 84.9982 428.627 85.4516 428.04C85.9049 427.44 86.1316 426.48 86.1316 425.16C86.1316 423.867 85.9049 422.92 85.4516 422.32C84.9982 421.72 84.2716 421.42 83.2716 421.42C82.2716 421.42 81.5449 421.72 81.0916 422.32C80.6382 422.92 80.4116 423.867 80.4116 425.16ZM96.1561 429.04C95.7028 429.4 95.2028 429.687 94.6561 429.9C94.1094 430.1 93.5361 430.2 92.9361 430.2C91.8161 430.2 91.0094 429.933 90.5161 429.4C90.0228 428.867 89.7761 427.993 89.7761 426.78V420.32H91.3161V426.36C91.3161 427.32 91.4694 427.987 91.7761 428.36C92.0961 428.733 92.5828 428.92 93.2361 428.92C94.1694 428.92 95.0961 428.58 96.0161 427.9V420.32H97.5561V430H96.3961L96.1561 429.04ZM104.385 428.92C105.318 428.92 106.152 428.687 106.885 428.22L107.325 429.44C106.938 429.667 106.492 429.853 105.985 430C105.492 430.133 104.958 430.2 104.385 430.2C102.798 430.2 101.638 429.807 100.905 429.02C100.172 428.22 99.8048 426.933 99.8048 425.16C99.8048 423.427 100.158 422.153 100.865 421.34C101.572 420.527 102.678 420.12 104.185 420.12C105.478 420.12 106.538 420.513 107.365 421.3L106.525 422.34C106.232 422.047 105.885 421.82 105.485 421.66C105.098 421.487 104.678 421.4 104.225 421.4C103.265 421.4 102.538 421.693 102.045 422.28C101.565 422.853 101.325 423.813 101.325 425.16C101.325 426.507 101.578 427.473 102.085 428.06C102.592 428.633 103.358 428.92 104.385 428.92ZM109.505 420.32H111.025V430H109.505V420.32ZM109.485 416.16H111.025V418.16H109.485V416.16ZM115.312 421.3C115.765 420.94 116.265 420.653 116.812 420.44C117.359 420.227 117.932 420.12 118.532 420.12C119.652 420.12 120.452 420.393 120.932 420.94C121.425 421.473 121.672 422.347 121.672 423.56V430H120.152V423.98C120.152 423.02 119.992 422.353 119.672 421.98C119.365 421.607 118.885 421.42 118.232 421.42C117.299 421.42 116.365 421.76 115.432 422.44V430H113.912V420.32H115.052L115.312 421.3ZM131.902 420.32V430.12C131.902 431.6 131.542 432.673 130.822 433.34C130.115 434.02 129.055 434.36 127.642 434.36C127.082 434.36 126.548 434.313 126.042 434.22C125.535 434.14 125.088 434.027 124.702 433.88L125.022 432.62C125.782 432.913 126.648 433.06 127.622 433.06C128.582 433.06 129.275 432.84 129.702 432.4C130.142 431.96 130.362 431.24 130.362 430.24V429.24C130.028 429.547 129.622 429.787 129.142 429.96C128.675 430.12 128.162 430.2 127.602 430.2C126.348 430.2 125.395 429.793 124.742 428.98C124.102 428.167 123.782 426.893 123.782 425.16C123.782 423.44 124.115 422.173 124.782 421.36C125.448 420.533 126.442 420.12 127.762 420.12C128.322 420.12 128.835 420.213 129.302 420.4C129.768 420.587 130.175 420.84 130.522 421.16L130.762 420.32H131.902ZM128.002 421.4C127.082 421.4 126.402 421.693 125.962 422.28C125.535 422.867 125.322 423.827 125.322 425.16C125.322 426.507 125.535 427.473 125.962 428.06C126.402 428.647 127.082 428.94 128.002 428.94C128.468 428.94 128.902 428.847 129.302 428.66C129.715 428.473 130.068 428.22 130.362 427.9V422.44C130.068 422.12 129.715 421.867 129.302 421.68C128.902 421.493 128.468 421.4 128.002 421.4ZM139.636 425.16C139.636 423.427 139.983 422.153 140.676 421.34C141.383 420.527 142.503 420.12 144.036 420.12C145.556 420.12 146.663 420.527 147.356 421.34C148.063 422.153 148.416 423.427 148.416 425.16C148.416 426.893 148.063 428.167 147.356 428.98C146.65 429.793 145.543 430.2 144.036 430.2C142.516 430.2 141.403 429.793 140.696 428.98C139.99 428.167 139.636 426.893 139.636 425.16ZM141.176 425.16C141.176 426.48 141.403 427.44 141.856 428.04C142.31 428.627 143.036 428.92 144.036 428.92C145.036 428.92 145.763 428.627 146.216 428.04C146.67 427.44 146.896 426.48 146.896 425.16C146.896 423.867 146.67 422.92 146.216 422.32C145.763 421.72 145.036 421.42 144.036 421.42C143.036 421.42 142.31 421.72 141.856 422.32C141.403 422.92 141.176 423.867 141.176 425.16ZM156.921 429.04C156.468 429.4 155.968 429.687 155.421 429.9C154.874 430.1 154.301 430.2 153.701 430.2C152.581 430.2 151.774 429.933 151.281 429.4C150.788 428.867 150.541 427.993 150.541 426.78V420.32H152.081V426.36C152.081 427.32 152.234 427.987 152.541 428.36C152.861 428.733 153.348 428.92 154.001 428.92C154.934 428.92 155.861 428.58 156.781 427.9V420.32H158.321V430H157.161L156.921 429.04ZM162.17 420.32L162.35 421.6C162.79 421.12 163.283 420.753 163.83 420.5C164.376 420.247 164.93 420.12 165.49 420.12C165.716 420.12 165.91 420.14 166.07 420.18C166.243 420.207 166.423 420.253 166.61 420.32V421.68C166.21 421.52 165.79 421.44 165.35 421.44C164.843 421.44 164.336 421.58 163.83 421.86C163.323 422.14 162.89 422.493 162.53 422.92V430H161.01V420.32H162.17ZM177.639 428.94C178.559 428.94 179.239 428.647 179.679 428.06C180.119 427.473 180.339 426.507 180.339 425.16C180.339 423.827 180.119 422.867 179.679 422.28C179.239 421.693 178.559 421.4 177.639 421.4C177.173 421.4 176.733 421.493 176.319 421.68C175.919 421.867 175.573 422.12 175.279 422.44V427.9C175.573 428.22 175.919 428.473 176.319 428.66C176.733 428.847 177.173 428.94 177.639 428.94ZM174.879 430H173.739V416.06L175.279 415.88V421.1C175.613 420.793 176.013 420.553 176.479 420.38C176.959 420.207 177.479 420.12 178.039 420.12C179.293 420.12 180.239 420.533 180.879 421.36C181.533 422.173 181.859 423.44 181.859 425.16C181.859 426.893 181.526 428.167 180.859 428.98C180.193 429.793 179.199 430.2 177.879 430.2C177.319 430.2 176.806 430.113 176.339 429.94C175.886 429.753 175.486 429.5 175.139 429.18L174.879 430ZM185.249 420.32L185.429 421.6C185.869 421.12 186.362 420.753 186.909 420.5C187.455 420.247 188.009 420.12 188.569 420.12C188.795 420.12 188.989 420.14 189.149 420.18C189.322 420.207 189.502 420.253 189.689 420.32V421.68C189.289 421.52 188.869 421.44 188.429 421.44C187.922 421.44 187.415 421.58 186.909 421.86C186.402 422.14 185.969 422.493 185.609 422.92V430H184.089V420.32H185.249ZM197.982 430H196.842L196.602 429.1C196.202 429.447 195.728 429.72 195.182 429.92C194.648 430.107 194.062 430.2 193.422 430.2C192.422 430.2 191.668 429.947 191.162 429.44C190.668 428.92 190.422 428.18 190.422 427.22C190.422 426.233 190.728 425.507 191.342 425.04C191.955 424.56 192.982 424.32 194.422 424.32C194.848 424.32 195.222 424.327 195.542 424.34C195.875 424.353 196.182 424.38 196.462 424.42V423.88C196.462 422.987 196.288 422.353 195.942 421.98C195.595 421.593 194.982 421.4 194.102 421.4C193.688 421.4 193.235 421.473 192.742 421.62C192.262 421.753 191.775 421.953 191.282 422.22L190.822 421.06C191.355 420.767 191.922 420.54 192.522 420.38C193.122 420.207 193.742 420.12 194.382 420.12C195.062 420.12 195.628 420.187 196.082 420.32C196.548 420.453 196.922 420.673 197.202 420.98C197.482 421.273 197.682 421.653 197.802 422.12C197.922 422.587 197.982 423.16 197.982 423.84V430ZM193.842 428.94C194.282 428.94 194.735 428.847 195.202 428.66C195.682 428.46 196.102 428.2 196.462 427.88V425.66C196.115 425.62 195.768 425.593 195.422 425.58C195.075 425.553 194.688 425.54 194.262 425.54C193.422 425.54 192.822 425.667 192.462 425.92C192.115 426.173 191.942 426.6 191.942 427.2C191.942 427.773 192.088 428.207 192.382 428.5C192.675 428.793 193.162 428.94 193.842 428.94ZM201.949 421.3C202.402 420.94 202.902 420.653 203.449 420.44C203.995 420.227 204.569 420.12 205.169 420.12C206.289 420.12 207.089 420.393 207.569 420.94C208.062 421.473 208.309 422.347 208.309 423.56V430H206.789V423.98C206.789 423.02 206.629 422.353 206.309 421.98C206.002 421.607 205.522 421.42 204.869 421.42C203.935 421.42 203.002 421.76 202.069 422.44V430H200.549V420.32H201.689L201.949 421.3ZM218.538 415.88V430H217.398L217.158 429.18C216.812 429.5 216.405 429.753 215.938 429.94C215.472 430.113 214.958 430.2 214.398 430.2C213.078 430.2 212.085 429.793 211.418 428.98C210.752 428.167 210.418 426.893 210.418 425.16C210.418 423.44 210.738 422.173 211.378 421.36C212.032 420.533 212.985 420.12 214.238 420.12C214.798 420.12 215.312 420.207 215.778 420.38C216.258 420.553 216.665 420.793 216.998 421.1V416.08L218.538 415.88ZM214.638 428.94C215.105 428.94 215.538 428.847 215.938 428.66C216.352 428.473 216.705 428.22 216.998 427.9V422.44C216.705 422.12 216.352 421.867 215.938 421.68C215.538 421.493 215.105 421.4 214.638 421.4C213.718 421.4 213.038 421.693 212.598 422.28C212.172 422.867 211.958 423.827 211.958 425.16C211.958 426.507 212.172 427.473 212.598 428.06C213.038 428.647 213.718 428.94 214.638 428.94ZM232.233 420.32V421.62H228.773V430H227.253V421.62H225.773V420.32H227.233V419.54C227.233 418.86 227.306 418.287 227.453 417.82C227.613 417.353 227.84 416.98 228.133 416.7C228.426 416.407 228.78 416.2 229.193 416.08C229.62 415.947 230.106 415.88 230.653 415.88C231.026 415.88 231.38 415.92 231.713 416C232.046 416.067 232.353 416.153 232.633 416.26L232.293 417.5C231.733 417.287 231.18 417.18 230.633 417.18C229.993 417.18 229.52 417.38 229.213 417.78C228.92 418.18 228.773 418.847 228.773 419.78V420.32H232.233ZM233.165 425.16C233.165 423.427 233.512 422.153 234.205 421.34C234.912 420.527 236.032 420.12 237.565 420.12C239.085 420.12 240.192 420.527 240.885 421.34C241.592 422.153 241.945 423.427 241.945 425.16C241.945 426.893 241.592 428.167 240.885 428.98C240.179 429.793 239.072 430.2 237.565 430.2C236.045 430.2 234.932 429.793 234.225 428.98C233.519 428.167 233.165 426.893 233.165 425.16ZM234.705 425.16C234.705 426.48 234.932 427.44 235.385 428.04C235.839 428.627 236.565 428.92 237.565 428.92C238.565 428.92 239.292 428.627 239.745 428.04C240.199 427.44 240.425 426.48 240.425 425.16C240.425 423.867 240.199 422.92 239.745 422.32C239.292 421.72 238.565 421.42 237.565 421.42C236.565 421.42 235.839 421.72 235.385 422.32C234.932 422.92 234.705 423.867 234.705 425.16ZM245.33 420.32L245.51 421.6C245.95 421.12 246.443 420.753 246.99 420.5C247.537 420.247 248.09 420.12 248.65 420.12C248.877 420.12 249.07 420.14 249.23 420.18C249.403 420.207 249.583 420.253 249.77 420.32V421.68C249.37 421.52 248.95 421.44 248.51 421.44C248.003 421.44 247.497 421.58 246.99 421.86C246.483 422.14 246.05 422.493 245.69 422.92V430H244.17V420.32H245.33ZM259.06 421.62V426.4C259.06 426.84 259.08 427.22 259.12 427.54C259.16 427.86 259.24 428.127 259.36 428.34C259.493 428.54 259.673 428.687 259.9 428.78C260.14 428.873 260.46 428.92 260.86 428.92C261.153 428.92 261.44 428.887 261.72 428.82C262.013 428.753 262.293 428.673 262.56 428.58L262.86 429.74C262.06 430.047 261.253 430.2 260.44 430.2C259.853 430.2 259.366 430.12 258.98 429.96C258.606 429.8 258.306 429.58 258.08 429.3C257.866 429.007 257.72 428.66 257.64 428.26C257.56 427.847 257.52 427.393 257.52 426.9V421.62H255.94V420.32H257.52V418.28L259.06 418V420.32H262.48V421.62H259.06ZM266.112 421.2C267.032 420.48 268.066 420.12 269.212 420.12C270.332 420.12 271.132 420.387 271.612 420.92C272.106 421.44 272.352 422.32 272.352 423.56V430H270.832V423.98C270.832 423.02 270.672 422.353 270.352 421.98C270.046 421.607 269.566 421.42 268.912 421.42C267.979 421.42 267.046 421.76 266.112 422.44V430H264.592V416.08L266.112 415.88V421.2ZM278.802 430.2C277.229 430.2 276.109 429.793 275.442 428.98C274.789 428.153 274.462 426.88 274.462 425.16C274.462 423.427 274.796 422.153 275.462 421.34C276.129 420.527 277.149 420.12 278.522 420.12C279.896 420.12 280.916 420.52 281.582 421.32C282.249 422.107 282.582 423.36 282.582 425.08V425.72H276.022C276.076 426.867 276.322 427.687 276.762 428.18C277.202 428.673 277.889 428.92 278.822 428.92C279.382 428.92 279.929 428.84 280.462 428.68C281.009 428.507 281.516 428.273 281.982 427.98L282.482 429.2C281.976 429.507 281.402 429.753 280.762 429.94C280.136 430.113 279.482 430.2 278.802 430.2ZM281.022 424.48C280.956 423.44 280.722 422.673 280.322 422.18C279.922 421.673 279.322 421.42 278.522 421.42C277.722 421.42 277.122 421.673 276.722 422.18C276.322 422.673 276.089 423.44 276.022 424.48H281.022ZM54.88 452.32V453.62H51.42V462H49.9V453.62H48.42V452.32H49.88V451.54C49.88 450.86 49.9533 450.287 50.1 449.82C50.26 449.353 50.4867 448.98 50.78 448.7C51.0733 448.407 51.4267 448.2 51.84 448.08C52.2667 447.947 52.7533 447.88 53.3 447.88C53.6733 447.88 54.0267 447.92 54.36 448C54.6933 448.067 55 448.153 55.28 448.26L54.94 449.5C54.38 449.287 53.8267 449.18 53.28 449.18C52.64 449.18 52.1667 449.38 51.86 449.78C51.5667 450.18 51.42 450.847 51.42 451.78V452.32H54.88ZM56.4922 452.32H58.0122V462H56.4922V452.32ZM56.4722 448.16H58.0122V450.16H56.4722V448.16ZM62.0587 452.32L62.2387 453.6C62.6787 453.12 63.1721 452.753 63.7187 452.5C64.2654 452.247 64.8187 452.12 65.3787 452.12C65.6054 452.12 65.7987 452.14 65.9587 452.18C66.1321 452.207 66.3121 452.253 66.4987 452.32V453.68C66.0987 453.52 65.6787 453.44 65.2387 453.44C64.7321 453.44 64.2254 453.58 63.7187 453.86C63.2121 454.14 62.7787 454.493 62.4187 454.92V462H60.8987V452.32H62.0587ZM70.17 456C70.4767 456.12 70.8567 456.253 71.31 456.4C71.7767 456.547 72.2367 456.707 72.69 456.88C73.9833 457.36 74.63 458.22 74.63 459.46C74.63 460.34 74.3233 461.02 73.71 461.5C73.0967 461.98 72.11 462.22 70.75 462.22C69.99 462.22 69.3433 462.133 68.81 461.96C68.2767 461.787 67.7967 461.58 67.37 461.34L67.87 460.14C68.2567 460.367 68.6967 460.56 69.19 460.72C69.6833 460.88 70.21 460.96 70.77 460.96C71.6233 460.96 72.2233 460.847 72.57 460.62C72.9167 460.38 73.09 460.02 73.09 459.54C73.09 458.9 72.71 458.427 71.95 458.12C71.5233 457.947 71.0767 457.787 70.61 457.64C70.1567 457.493 69.7233 457.347 69.31 457.2C68.7767 457.013 68.35 456.727 68.03 456.34C67.7233 455.94 67.57 455.42 67.57 454.78C67.57 454.007 67.87 453.367 68.47 452.86C69.0833 452.353 69.9967 452.1 71.21 452.1C71.85 452.1 72.4233 452.167 72.93 452.3C73.4367 452.42 73.8633 452.567 74.21 452.74L73.75 453.9C73.3633 453.713 72.9767 453.58 72.59 453.5C72.2033 453.407 71.73 453.36 71.17 453.36C70.77 453.36 70.4367 453.4 70.17 453.48C69.9033 453.56 69.69 453.667 69.53 453.8C69.3833 453.92 69.2767 454.06 69.21 454.22C69.1433 454.38 69.11 454.54 69.11 454.7C69.11 455.02 69.19 455.28 69.35 455.48C69.51 455.68 69.7833 455.853 70.17 456ZM78.933 453.62V458.4C78.933 458.84 78.953 459.22 78.993 459.54C79.033 459.86 79.113 460.127 79.233 460.34C79.3663 460.54 79.5463 460.687 79.773 460.78C80.013 460.873 80.333 460.92 80.733 460.92C81.0263 460.92 81.313 460.887 81.593 460.82C81.8863 460.753 82.1663 460.673 82.433 460.58L82.733 461.74C81.933 462.047 81.1263 462.2 80.313 462.2C79.7263 462.2 79.2396 462.12 78.853 461.96C78.4796 461.8 78.1796 461.58 77.953 461.3C77.7396 461.007 77.593 460.66 77.513 460.26C77.433 459.847 77.393 459.393 77.393 458.9V453.62H75.813V452.32H77.393V450.28L78.933 450V452.32H82.353V453.62H78.933ZM92.1314 453.62V458.4C92.1314 458.84 92.1514 459.22 92.1914 459.54C92.2314 459.86 92.3114 460.127 92.4314 460.34C92.5647 460.54 92.7447 460.687 92.9714 460.78C93.2114 460.873 93.5314 460.92 93.9314 460.92C94.2247 460.92 94.5114 460.887 94.7914 460.82C95.0847 460.753 95.3647 460.673 95.6314 460.58L95.9314 461.74C95.1314 462.047 94.3247 462.2 93.5114 462.2C92.9247 462.2 92.4381 462.12 92.0514 461.96C91.6781 461.8 91.3781 461.58 91.1514 461.3C90.9381 461.007 90.7914 460.66 90.7114 460.26C90.6314 459.847 90.5914 459.393 90.5914 458.9V453.62H89.0114V452.32H90.5914V450.28L92.1314 450V452.32H95.5514V453.62H92.1314ZM97.8844 452.32H99.4044V462H97.8844V452.32ZM97.8644 448.16H99.4044V450.16H97.8644V448.16ZM103.671 453.22C104.138 452.873 104.618 452.607 105.111 452.42C105.604 452.22 106.131 452.12 106.691 452.12C107.371 452.12 107.911 452.22 108.311 452.42C108.724 452.62 109.031 452.953 109.231 453.42C109.698 453.033 110.204 452.72 110.751 452.48C111.311 452.24 111.891 452.12 112.491 452.12C113.051 452.12 113.518 452.187 113.891 452.32C114.264 452.44 114.564 452.64 114.791 452.92C115.031 453.2 115.198 453.56 115.291 454C115.384 454.427 115.431 454.947 115.431 455.56V462H113.911V455.98C113.911 455.02 113.778 454.353 113.511 453.98C113.258 453.607 112.824 453.42 112.211 453.42C111.331 453.42 110.444 453.78 109.551 454.5C109.591 454.807 109.611 455.16 109.611 455.56V462H108.091V455.98C108.091 455.033 107.971 454.373 107.731 454C107.491 453.613 107.044 453.42 106.391 453.42C105.951 453.42 105.524 453.507 105.111 453.68C104.698 453.84 104.264 454.093 103.811 454.44V462H102.291V452.32H103.431L103.671 453.22ZM121.872 462.2C120.298 462.2 119.178 461.793 118.512 460.98C117.858 460.153 117.532 458.88 117.532 457.16C117.532 455.427 117.865 454.153 118.532 453.34C119.198 452.527 120.218 452.12 121.592 452.12C122.965 452.12 123.985 452.52 124.652 453.32C125.318 454.107 125.652 455.36 125.652 457.08V457.72H119.092C119.145 458.867 119.392 459.687 119.832 460.18C120.272 460.673 120.958 460.92 121.892 460.92C122.452 460.92 122.998 460.84 123.532 460.68C124.078 460.507 124.585 460.273 125.052 459.98L125.552 461.2C125.045 461.507 124.472 461.753 123.832 461.94C123.205 462.113 122.552 462.2 121.872 462.2ZM124.092 456.48C124.025 455.44 123.792 454.673 123.392 454.18C122.992 453.673 122.392 453.42 121.592 453.42C120.792 453.42 120.192 453.673 119.792 454.18C119.392 454.673 119.158 455.44 119.092 456.48H124.092ZM35.2862 487.68C35.2862 488 35.2263 488.3 35.1063 488.58C34.9863 488.86 34.8196 489.107 34.6063 489.32C34.4063 489.52 34.1663 489.68 33.8863 489.8C33.6196 489.907 33.3263 489.96 33.0063 489.96C32.6863 489.96 32.3863 489.907 32.1063 489.8C31.8263 489.68 31.5796 489.52 31.3663 489.32C31.1663 489.12 31.0063 488.88 30.8863 488.6C30.7663 488.32 30.7063 488.013 30.7063 487.68C30.7063 487.36 30.7663 487.06 30.8863 486.78C31.0063 486.5 31.1663 486.26 31.3663 486.06C31.5796 485.847 31.8263 485.687 32.1063 485.58C32.3863 485.46 32.6863 485.4 33.0063 485.4C33.3263 485.4 33.6196 485.46 33.8863 485.58C34.1663 485.687 34.4063 485.847 34.6063 486.06C34.8196 486.26 34.9863 486.5 35.1063 486.78C35.2263 487.06 35.2862 487.36 35.2862 487.68ZM65.5 480.56L61.64 494H60.06L57.98 486.26L56.98 482.26H56.94L55.94 486.26L53.84 494H52.28L48.4 480.56H50.06L52.28 489.08L53.02 491.96H53.06L53.78 489.08L56.12 480.56H57.8L60.14 489.08L60.88 491.96H60.92L61.64 489.08L63.86 480.56H65.5ZM68.3697 484.32L68.5497 485.6C68.9897 485.12 69.483 484.753 70.0297 484.5C70.5764 484.247 71.1297 484.12 71.6897 484.12C71.9164 484.12 72.1097 484.14 72.2697 484.18C72.443 484.207 72.623 484.253 72.8097 484.32V485.68C72.4097 485.52 71.9897 485.44 71.5497 485.44C71.043 485.44 70.5364 485.58 70.0297 485.86C69.523 486.14 69.0897 486.493 68.7297 486.92V494H67.2097V484.32H68.3697ZM74.4195 484.32H75.9395V494H74.4195V484.32ZM74.3995 480.16H75.9395V482.16H74.3995V480.16ZM80.9861 485.62V490.4C80.9861 490.84 81.0061 491.22 81.0461 491.54C81.0861 491.86 81.1661 492.127 81.2861 492.34C81.4194 492.54 81.5994 492.687 81.8261 492.78C82.0661 492.873 82.3861 492.92 82.7861 492.92C83.0794 492.92 83.3661 492.887 83.6461 492.82C83.9394 492.753 84.2194 492.673 84.4861 492.58L84.7861 493.74C83.9861 494.047 83.1794 494.2 82.3661 494.2C81.7794 494.2 81.2928 494.12 80.9061 493.96C80.5328 493.8 80.2328 493.58 80.0061 493.3C79.7928 493.007 79.6461 492.66 79.5661 492.26C79.4861 491.847 79.4461 491.393 79.4461 490.9V485.62H77.8661V484.32H79.4461V482.28L80.9861 482V484.32H84.4061V485.62H80.9861ZM86.7391 484.32H88.2591V494H86.7391V484.32ZM86.7191 480.16H88.2591V482.16H86.7191V480.16ZM92.5456 485.3C92.999 484.94 93.499 484.653 94.0456 484.44C94.5923 484.227 95.1656 484.12 95.7656 484.12C96.8856 484.12 97.6856 484.393 98.1656 484.94C98.659 485.473 98.9056 486.347 98.9056 487.56V494H97.3856V487.98C97.3856 487.02 97.2256 486.353 96.9056 485.98C96.599 485.607 96.119 485.42 95.4656 485.42C94.5323 485.42 93.599 485.76 92.6656 486.44V494H91.1456V484.32H92.2856L92.5456 485.3ZM109.135 484.32V494.12C109.135 495.6 108.775 496.673 108.055 497.34C107.349 498.02 106.289 498.36 104.875 498.36C104.315 498.36 103.782 498.313 103.275 498.22C102.769 498.14 102.322 498.027 101.935 497.88L102.255 496.62C103.015 496.913 103.882 497.06 104.855 497.06C105.815 497.06 106.509 496.84 106.935 496.4C107.375 495.96 107.595 495.24 107.595 494.24V493.24C107.262 493.547 106.855 493.787 106.375 493.96C105.909 494.12 105.395 494.2 104.835 494.2C103.582 494.2 102.629 493.793 101.975 492.98C101.335 492.167 101.015 490.893 101.015 489.16C101.015 487.44 101.349 486.173 102.015 485.36C102.682 484.533 103.675 484.12 104.995 484.12C105.555 484.12 106.069 484.213 106.535 484.4C107.002 484.587 107.409 484.84 107.755 485.16L107.995 484.32H109.135ZM105.235 485.4C104.315 485.4 103.635 485.693 103.195 486.28C102.769 486.867 102.555 487.827 102.555 489.16C102.555 490.507 102.769 491.473 103.195 492.06C103.635 492.647 104.315 492.94 105.235 492.94C105.702 492.94 106.135 492.847 106.535 492.66C106.949 492.473 107.302 492.22 107.595 491.9V486.44C107.302 486.12 106.949 485.867 106.535 485.68C106.135 485.493 105.702 485.4 105.235 485.4ZM117.55 484.32H119.07V494H117.55V484.32ZM117.53 480.16H119.07V482.16H117.53V480.16ZM123.357 485.3C123.81 484.94 124.31 484.653 124.857 484.44C125.403 484.227 125.977 484.12 126.577 484.12C127.697 484.12 128.497 484.393 128.977 484.94C129.47 485.473 129.717 486.347 129.717 487.56V494H128.197V487.98C128.197 487.02 128.037 486.353 127.717 485.98C127.41 485.607 126.93 485.42 126.277 485.42C125.343 485.42 124.41 485.76 123.477 486.44V494H121.957V484.32H123.097L123.357 485.3ZM139.952 485.62V490.4C139.952 490.84 139.972 491.22 140.012 491.54C140.052 491.86 140.132 492.127 140.252 492.34C140.385 492.54 140.565 492.687 140.792 492.78C141.032 492.873 141.352 492.92 141.752 492.92C142.045 492.92 142.332 492.887 142.612 492.82C142.905 492.753 143.185 492.673 143.452 492.58L143.752 493.74C142.952 494.047 142.145 494.2 141.332 494.2C140.745 494.2 140.258 494.12 139.872 493.96C139.498 493.8 139.198 493.58 138.972 493.3C138.758 493.007 138.612 492.66 138.532 492.26C138.452 491.847 138.412 491.393 138.412 490.9V485.62H136.832V484.32H138.412V482.28L139.952 482V484.32H143.372V485.62H139.952ZM147.005 485.2C147.925 484.48 148.958 484.12 150.105 484.12C151.225 484.12 152.025 484.387 152.505 484.92C152.998 485.44 153.245 486.32 153.245 487.56V494H151.725V487.98C151.725 487.02 151.565 486.353 151.245 485.98C150.938 485.607 150.458 485.42 149.805 485.42C148.871 485.42 147.938 485.76 147.005 486.44V494H145.485V480.08L147.005 479.88V485.2ZM159.694 494.2C158.121 494.2 157.001 493.793 156.334 492.98C155.681 492.153 155.354 490.88 155.354 489.16C155.354 487.427 155.688 486.153 156.354 485.34C157.021 484.527 158.041 484.12 159.414 484.12C160.788 484.12 161.808 484.52 162.474 485.32C163.141 486.107 163.474 487.36 163.474 489.08V489.72H156.914C156.968 490.867 157.214 491.687 157.654 492.18C158.094 492.673 158.781 492.92 159.714 492.92C160.274 492.92 160.821 492.84 161.354 492.68C161.901 492.507 162.408 492.273 162.874 491.98L163.374 493.2C162.868 493.507 162.294 493.753 161.654 493.94C161.028 494.113 160.374 494.2 159.694 494.2ZM161.914 488.48C161.848 487.44 161.614 486.673 161.214 486.18C160.814 485.673 160.214 485.42 159.414 485.42C158.614 485.42 158.014 485.673 157.614 486.18C157.214 486.673 156.981 487.44 156.914 488.48H161.914ZM174.54 492.24L175.58 489.12L177.28 484.32H178.9L175.26 494H173.8L170.14 484.32H171.76L173.46 489.12L174.5 492.24H174.54ZM179.8 489.16C179.8 487.427 180.147 486.153 180.84 485.34C181.547 484.527 182.667 484.12 184.2 484.12C185.72 484.12 186.827 484.527 187.52 485.34C188.227 486.153 188.58 487.427 188.58 489.16C188.58 490.893 188.227 492.167 187.52 492.98C186.814 493.793 185.707 494.2 184.2 494.2C182.68 494.2 181.567 493.793 180.86 492.98C180.154 492.167 179.8 490.893 179.8 489.16ZM181.34 489.16C181.34 490.48 181.567 491.44 182.02 492.04C182.474 492.627 183.2 492.92 184.2 492.92C185.2 492.92 185.927 492.627 186.38 492.04C186.834 491.44 187.06 490.48 187.06 489.16C187.06 487.867 186.834 486.92 186.38 486.32C185.927 485.72 185.2 485.42 184.2 485.42C183.2 485.42 182.474 485.72 182.02 486.32C181.567 486.92 181.34 487.867 181.34 489.16ZM191.025 484.32H192.545V494H191.025V484.32ZM191.005 480.16H192.545V482.16H191.005V480.16ZM199.572 492.92C200.505 492.92 201.338 492.687 202.072 492.22L202.512 493.44C202.125 493.667 201.678 493.853 201.172 494C200.678 494.133 200.145 494.2 199.572 494.2C197.985 494.2 196.825 493.807 196.092 493.02C195.358 492.22 194.992 490.933 194.992 489.16C194.992 487.427 195.345 486.153 196.052 485.34C196.758 484.527 197.865 484.12 199.372 484.12C200.665 484.12 201.725 484.513 202.552 485.3L201.712 486.34C201.418 486.047 201.072 485.82 200.672 485.66C200.285 485.487 199.865 485.4 199.412 485.4C198.452 485.4 197.725 485.693 197.232 486.28C196.752 486.853 196.512 487.813 196.512 489.16C196.512 490.507 196.765 491.473 197.272 492.06C197.778 492.633 198.545 492.92 199.572 492.92ZM207.844 494.2C206.271 494.2 205.151 493.793 204.484 492.98C203.831 492.153 203.504 490.88 203.504 489.16C203.504 487.427 203.838 486.153 204.504 485.34C205.171 484.527 206.191 484.12 207.564 484.12C208.938 484.12 209.958 484.52 210.624 485.32C211.291 486.107 211.624 487.36 211.624 489.08V489.72H205.064C205.118 490.867 205.364 491.687 205.804 492.18C206.244 492.673 206.931 492.92 207.864 492.92C208.424 492.92 208.971 492.84 209.504 492.68C210.051 492.507 210.558 492.273 211.024 491.98L211.524 493.2C211.018 493.507 210.444 493.753 209.804 493.94C209.178 494.113 208.524 494.2 207.844 494.2ZM210.064 488.48C209.998 487.44 209.764 486.673 209.364 486.18C208.964 485.673 208.364 485.42 207.564 485.42C206.764 485.42 206.164 485.673 205.764 486.18C205.364 486.673 205.131 487.44 205.064 488.48H210.064ZM218.91 489.16C218.91 487.427 219.257 486.153 219.95 485.34C220.657 484.527 221.777 484.12 223.31 484.12C224.83 484.12 225.937 484.527 226.63 485.34C227.337 486.153 227.69 487.427 227.69 489.16C227.69 490.893 227.337 492.167 226.63 492.98C225.923 493.793 224.817 494.2 223.31 494.2C221.79 494.2 220.677 493.793 219.97 492.98C219.263 492.167 218.91 490.893 218.91 489.16ZM220.45 489.16C220.45 490.48 220.677 491.44 221.13 492.04C221.583 492.627 222.31 492.92 223.31 492.92C224.31 492.92 225.037 492.627 225.49 492.04C225.943 491.44 226.17 490.48 226.17 489.16C226.17 487.867 225.943 486.92 225.49 486.32C225.037 485.72 224.31 485.42 223.31 485.42C222.31 485.42 221.583 485.72 221.13 486.32C220.677 486.92 220.45 487.867 220.45 489.16ZM235.297 484.32V485.62H231.837V494H230.317V485.62H228.837V484.32H230.297V483.54C230.297 482.86 230.371 482.287 230.517 481.82C230.677 481.353 230.904 480.98 231.197 480.7C231.491 480.407 231.844 480.2 232.257 480.08C232.684 479.947 233.171 479.88 233.717 479.88C234.091 479.88 234.444 479.92 234.777 480C235.111 480.067 235.417 480.153 235.697 480.26L235.357 481.5C234.797 481.287 234.244 481.18 233.697 481.18C233.057 481.18 232.584 481.38 232.277 481.78C231.984 482.18 231.837 482.847 231.837 483.78V484.32H235.297ZM241.735 489.16C241.735 487.427 242.082 486.153 242.775 485.34C243.482 484.527 244.602 484.12 246.135 484.12C247.655 484.12 248.762 484.527 249.455 485.34C250.162 486.153 250.515 487.427 250.515 489.16C250.515 490.893 250.162 492.167 249.455 492.98C248.748 493.793 247.642 494.2 246.135 494.2C244.615 494.2 243.502 493.793 242.795 492.98C242.088 492.167 241.735 490.893 241.735 489.16ZM243.275 489.16C243.275 490.48 243.502 491.44 243.955 492.04C244.408 492.627 245.135 492.92 246.135 492.92C247.135 492.92 247.862 492.627 248.315 492.04C248.768 491.44 248.995 490.48 248.995 489.16C248.995 487.867 248.768 486.92 248.315 486.32C247.862 485.72 247.135 485.42 246.135 485.42C245.135 485.42 244.408 485.72 243.955 486.32C243.502 486.92 243.275 487.867 243.275 489.16ZM259.019 493.04C258.566 493.4 258.066 493.687 257.519 493.9C256.973 494.1 256.399 494.2 255.799 494.2C254.679 494.2 253.873 493.933 253.379 493.4C252.886 492.867 252.639 491.993 252.639 490.78V484.32H254.179V490.36C254.179 491.32 254.333 491.987 254.639 492.36C254.959 492.733 255.446 492.92 256.099 492.92C257.033 492.92 257.959 492.58 258.879 491.9V484.32H260.419V494H259.259L259.019 493.04ZM264.268 484.32L264.448 485.6C264.888 485.12 265.381 484.753 265.928 484.5C266.475 484.247 267.028 484.12 267.588 484.12C267.815 484.12 268.008 484.14 268.168 484.18C268.341 484.207 268.521 484.253 268.708 484.32V485.68C268.308 485.52 267.888 485.44 267.448 485.44C266.941 485.44 266.435 485.58 265.928 485.86C265.421 486.14 264.988 486.493 264.628 486.92V494H263.108V484.32H264.268ZM50.52 516.32L50.78 517.16C51.1267 516.84 51.5267 516.587 51.98 516.4C52.4467 516.213 52.96 516.12 53.52 516.12C54.84 516.12 55.8333 516.533 56.5 517.36C57.1667 518.173 57.5 519.44 57.5 521.16C57.5 522.893 57.1733 524.167 56.52 524.98C55.88 525.793 54.9333 526.2 53.68 526.2C53.1467 526.2 52.6333 526.12 52.14 525.96C51.6467 525.787 51.24 525.547 50.92 525.24V530.16H49.38V516.32H50.52ZM53.28 517.4C52.8133 517.4 52.3733 517.493 51.96 517.68C51.56 517.867 51.2133 518.12 50.92 518.44V523.9C51.2133 524.22 51.56 524.473 51.96 524.66C52.3733 524.847 52.8133 524.94 53.28 524.94C54.2 524.94 54.88 524.647 55.32 524.06C55.76 523.473 55.98 522.507 55.98 521.16C55.98 519.827 55.76 518.867 55.32 518.28C54.88 517.693 54.2 517.4 53.28 517.4ZM63.6092 526.2C62.0359 526.2 60.9159 525.793 60.2492 524.98C59.5959 524.153 59.2692 522.88 59.2692 521.16C59.2692 519.427 59.6026 518.153 60.2692 517.34C60.9359 516.527 61.9559 516.12 63.3292 516.12C64.7026 516.12 65.7226 516.52 66.3892 517.32C67.0559 518.107 67.3892 519.36 67.3892 521.08V521.72H60.8292C60.8826 522.867 61.1292 523.687 61.5692 524.18C62.0092 524.673 62.6959 524.92 63.6292 524.92C64.1892 524.92 64.7359 524.84 65.2692 524.68C65.8159 524.507 66.3226 524.273 66.7892 523.98L67.2892 525.2C66.7826 525.507 66.2092 525.753 65.5692 525.94C64.9426 526.113 64.2892 526.2 63.6092 526.2ZM65.8292 520.48C65.7626 519.44 65.5292 518.673 65.1292 518.18C64.7292 517.673 64.1292 517.42 63.3292 517.42C62.5292 517.42 61.9292 517.673 61.5292 518.18C61.1292 518.673 60.8959 519.44 60.8292 520.48H65.8292ZM69.1692 521.16C69.1692 519.427 69.5159 518.153 70.2092 517.34C70.9159 516.527 72.0359 516.12 73.5692 516.12C75.0892 516.12 76.1959 516.527 76.8892 517.34C77.5959 518.153 77.9492 519.427 77.9492 521.16C77.9492 522.893 77.5959 524.167 76.8892 524.98C76.1826 525.793 75.0759 526.2 73.5692 526.2C72.0492 526.2 70.9359 525.793 70.2292 524.98C69.5226 524.167 69.1692 522.893 69.1692 521.16ZM70.7092 521.16C70.7092 522.48 70.9359 523.44 71.3892 524.04C71.8426 524.627 72.5692 524.92 73.5692 524.92C74.5692 524.92 75.2959 524.627 75.7492 524.04C76.2026 523.44 76.4292 522.48 76.4292 521.16C76.4292 519.867 76.2026 518.92 75.7492 518.32C75.2959 517.72 74.5692 517.42 73.5692 517.42C72.5692 517.42 71.8426 517.72 71.3892 518.32C70.9359 518.92 70.7092 519.867 70.7092 521.16ZM81.3138 516.32L81.5738 517.16C81.9204 516.84 82.3204 516.587 82.7738 516.4C83.2404 516.213 83.7538 516.12 84.3138 516.12C85.6338 516.12 86.6271 516.533 87.2938 517.36C87.9604 518.173 88.2938 519.44 88.2938 521.16C88.2938 522.893 87.9671 524.167 87.3138 524.98C86.6738 525.793 85.7271 526.2 84.4738 526.2C83.9404 526.2 83.4271 526.12 82.9338 525.96C82.4404 525.787 82.0338 525.547 81.7138 525.24V530.16H80.1738V516.32H81.3138ZM84.0738 517.4C83.6071 517.4 83.1671 517.493 82.7538 517.68C82.3538 517.867 82.0071 518.12 81.7138 518.44V523.9C82.0071 524.22 82.3538 524.473 82.7538 524.66C83.1671 524.847 83.6071 524.94 84.0738 524.94C84.9938 524.94 85.6738 524.647 86.1138 524.06C86.5538 523.473 86.7738 522.507 86.7738 521.16C86.7738 519.827 86.5538 518.867 86.1138 518.28C85.6738 517.693 84.9938 517.4 84.0738 517.4ZM93.223 526.14C93.1563 526.167 93.063 526.18 92.943 526.18C92.823 526.193 92.723 526.2 92.643 526.2C91.963 526.2 91.4696 526 91.163 525.6C90.8696 525.187 90.723 524.56 90.723 523.72V512.12L92.243 511.88V523.5C92.243 523.807 92.2563 524.053 92.283 524.24C92.3096 524.427 92.3563 524.573 92.423 524.68C92.503 524.787 92.603 524.86 92.723 524.9C92.8563 524.927 93.023 524.94 93.223 524.94V526.14ZM99.1467 526.2C97.5734 526.2 96.4534 525.793 95.7867 524.98C95.1334 524.153 94.8067 522.88 94.8067 521.16C94.8067 519.427 95.1401 518.153 95.8067 517.34C96.4734 516.527 97.4934 516.12 98.8667 516.12C100.24 516.12 101.26 516.52 101.927 517.32C102.593 518.107 102.927 519.36 102.927 521.08V521.72H96.3667C96.4201 522.867 96.6667 523.687 97.1067 524.18C97.5467 524.673 98.2334 524.92 99.1667 524.92C99.7267 524.92 100.273 524.84 100.807 524.68C101.353 524.507 101.86 524.273 102.327 523.98L102.827 525.2C102.32 525.507 101.747 525.753 101.107 525.94C100.48 526.113 99.8267 526.2 99.1467 526.2ZM101.367 520.48C101.3 519.44 101.067 518.673 100.667 518.18C100.267 517.673 99.6667 517.42 98.8667 517.42C98.0667 517.42 97.4667 517.673 97.0667 518.18C96.6667 518.673 96.4334 519.44 96.3667 520.48H101.367Z" fill="#4A4946"/>
</svg>
