<svg width="370" height="277" viewBox="0 0 370 277" fill="none" xmlns="http://www.w3.org/2000/svg">
<path d="M103.004 12.152L107.526 30.92L112.048 12.152H115.108L119.63 30.92L124.152 12.152H127.416L121.33 35H117.93L113.578 18.102L109.226 35H105.826L99.7398 12.152H103.004ZM129.696 15.45V12.152H132.756V15.45H129.696ZM129.696 35V18.51H132.756V35H129.696ZM135.279 18.51H137.897V14.192H140.957V18.51H145.003V21.196H140.957V31.022C140.957 32.11 141.365 32.348 142.487 32.348H145.003V35H142.147C139.903 35 137.897 33.98 137.897 31.328V21.196H135.279V18.51ZM150.725 35H147.699V12.152H150.725V20.516C151.847 18.986 153.649 18.068 156.029 18.068C160.109 18.068 162.591 20.958 162.591 25.242V35H159.565V25.004C159.565 22.012 158.239 20.822 155.213 20.822C152.153 20.822 150.725 22.012 150.725 25.004V35Z" fill="#262626"/>
<path d="M173.171 15.858V12.152H176.945V15.858H173.171ZM173.171 35V18.408H176.945V35H173.171ZM191.966 24.97C191.966 22.318 190.878 21.264 188.192 21.264C185.506 21.264 184.35 22.318 184.35 24.97V35H180.644V18.408H183.874L184.146 20.448C185.336 18.884 187.104 17.966 189.382 17.966C193.224 17.966 195.706 20.856 195.706 25.038V35H191.966V24.97ZM208.999 30.478C208.999 29.322 208.285 28.846 206.585 28.438L203.763 27.792C200.465 27.01 198.765 25.65 198.765 22.794C198.765 19.836 201.859 17.966 205.531 17.966C209.203 17.966 212.127 19.836 212.603 23.202H208.897C208.659 21.672 207.639 21.128 205.531 21.128C203.457 21.128 202.505 21.706 202.505 22.794C202.505 23.712 202.947 24.188 204.681 24.596L207.605 25.344C210.971 26.16 212.705 27.384 212.705 30.376C212.705 33.708 209.475 35.476 205.633 35.476C202.063 35.476 198.765 33.81 198.221 29.832H201.927C202.267 31.804 203.355 32.28 205.633 32.28C207.843 32.28 208.999 31.702 208.999 30.478ZM215.414 15.858V12.152H219.188V15.858H215.414ZM215.414 35V18.408H219.188V35H215.414ZM229.722 34.864C225.302 34.864 221.868 31.464 221.868 26.364C221.868 21.332 225.302 17.966 229.722 17.966C231.932 17.966 233.734 18.782 234.992 20.244L235.23 18.408H238.562V34.252C238.426 38.604 235.162 41.596 230.368 41.596C225.948 41.596 223.194 39.386 222.276 36.224H226.254C226.9 37.822 227.886 38.468 230.538 38.468C233.326 38.468 234.788 37.142 234.788 34.83V32.824C233.53 34.15 231.796 34.864 229.722 34.864ZM225.608 26.364C225.608 30.172 227.07 31.532 230.266 31.532C233.496 31.532 234.958 30.172 234.958 26.364C234.958 22.624 233.496 21.264 230.266 21.264C227.07 21.264 225.608 22.624 225.608 26.364ZM245.988 35H242.282V12.152H245.988V20.176C247.178 18.782 248.912 17.966 251.122 17.966C255.032 17.966 257.514 20.856 257.514 25.038V35H253.774V24.97C253.774 22.318 252.686 21.264 249.898 21.264C247.144 21.264 245.988 22.318 245.988 24.97V35ZM259.685 18.408H262.201V14.192H265.975V18.408H269.953V21.706H265.975V30.478C265.975 31.566 266.383 31.804 267.505 31.804H269.953V35H267.097C264.479 35 262.201 33.844 262.201 30.818V21.706H259.685V18.408Z" fill="#FD312E"/>
<rect x="27.5" y="71" width="315" height="1" fill="#4A4946"/>
<circle cx="309" cy="72.5" r="11.5" fill="#262626"/>
<circle cx="309" cy="72.5" r="11.125" stroke="#4A4946" stroke-opacity="0.8" stroke-width="0.75"/>
<rect x="0.5" y="127" width="369" height="150" rx="10" fill="#F9F8F3"/>
<path d="M38.5576 173.312C38.5576 173.6 38.5036 173.87 38.3956 174.122C38.2876 174.374 38.1376 174.596 37.9456 174.788C37.7656 174.968 37.5496 175.112 37.2976 175.22C37.0576 175.316 36.7936 175.364 36.5056 175.364C36.2176 175.364 35.9476 175.316 35.6956 175.22C35.4436 175.112 35.2216 174.968 35.0296 174.788C34.8496 174.608 34.7056 174.392 34.5976 174.14C34.4896 173.888 34.4356 173.612 34.4356 173.312C34.4356 173.024 34.4896 172.754 34.5976 172.502C34.7056 172.25 34.8496 172.034 35.0296 171.854C35.2216 171.662 35.4436 171.518 35.6956 171.422C35.9476 171.314 36.2176 171.26 36.5056 171.26C36.7936 171.26 37.0576 171.314 37.2976 171.422C37.5496 171.518 37.7656 171.662 37.9456 171.854C38.1376 172.034 38.2876 172.25 38.3956 172.502C38.5036 172.754 38.5576 173.024 38.5576 173.312ZM51.638 166.904H53.024V179H51.638V166.904ZM57.0878 171.17C57.4958 170.846 57.9458 170.588 58.4378 170.396C58.9298 170.204 59.4458 170.108 59.9858 170.108C60.9938 170.108 61.7138 170.354 62.1458 170.846C62.5898 171.326 62.8118 172.112 62.8118 173.204V179H61.4438V173.582C61.4438 172.718 61.2998 172.118 61.0118 171.782C60.7358 171.446 60.3038 171.278 59.7158 171.278C58.8758 171.278 58.0358 171.584 57.1958 172.196V179H55.8278V170.288H56.8538L57.0878 171.17ZM67.0685 171.458V175.76C67.0685 176.156 67.0865 176.498 67.1225 176.786C67.1585 177.074 67.2305 177.314 67.3385 177.506C67.4585 177.686 67.6205 177.818 67.8245 177.902C68.0405 177.986 68.3285 178.028 68.6885 178.028C68.9525 178.028 69.2105 177.998 69.4625 177.938C69.7265 177.878 69.9785 177.806 70.2185 177.722L70.4885 178.766C69.7685 179.042 69.0425 179.18 68.3105 179.18C67.7825 179.18 67.3445 179.108 66.9965 178.964C66.6605 178.82 66.3905 178.622 66.1865 178.37C65.9945 178.106 65.8625 177.794 65.7905 177.434C65.7185 177.062 65.6825 176.654 65.6825 176.21V171.458H64.2605V170.288H65.6825V168.452L67.0685 168.2V170.288H70.1465V171.458H67.0685ZM73.0922 170.288L73.2542 171.44C73.6502 171.008 74.0942 170.678 74.5862 170.45C75.0782 170.222 75.5762 170.108 76.0802 170.108C76.2842 170.108 76.4582 170.126 76.6022 170.162C76.7582 170.186 76.9202 170.228 77.0882 170.288V171.512C76.7282 171.368 76.3502 171.296 75.9542 171.296C75.4982 171.296 75.0422 171.422 74.5862 171.674C74.1302 171.926 73.7402 172.244 73.4162 172.628V179H72.0482V170.288H73.0922ZM77.7844 174.644C77.7844 173.084 78.0964 171.938 78.7204 171.206C79.3564 170.474 80.3644 170.108 81.7444 170.108C83.1124 170.108 84.1084 170.474 84.7324 171.206C85.3684 171.938 85.6864 173.084 85.6864 174.644C85.6864 176.204 85.3684 177.35 84.7324 178.082C84.0964 178.814 83.1004 179.18 81.7444 179.18C80.3764 179.18 79.3744 178.814 78.7384 178.082C78.1024 177.35 77.7844 176.204 77.7844 174.644ZM79.1704 174.644C79.1704 175.832 79.3744 176.696 79.7824 177.236C80.1904 177.764 80.8444 178.028 81.7444 178.028C82.6444 178.028 83.2984 177.764 83.7064 177.236C84.1144 176.696 84.3184 175.832 84.3184 174.644C84.3184 173.48 84.1144 172.628 83.7064 172.088C83.2984 171.548 82.6444 171.278 81.7444 171.278C80.8444 171.278 80.1904 171.548 79.7824 172.088C79.3744 172.628 79.1704 173.48 79.1704 174.644ZM94.5825 166.292V179H93.5565L93.3405 178.262C93.0285 178.55 92.6625 178.778 92.2425 178.946C91.8225 179.102 91.3605 179.18 90.8565 179.18C89.6685 179.18 88.7745 178.814 88.1745 178.082C87.5745 177.35 87.2745 176.204 87.2745 174.644C87.2745 173.096 87.5625 171.956 88.1385 171.224C88.7265 170.48 89.5845 170.108 90.7125 170.108C91.2165 170.108 91.6785 170.186 92.0985 170.342C92.5305 170.498 92.8965 170.714 93.1965 170.99V166.472L94.5825 166.292ZM91.0725 178.046C91.4925 178.046 91.8825 177.962 92.2425 177.794C92.6145 177.626 92.9325 177.398 93.1965 177.11V172.196C92.9325 171.908 92.6145 171.68 92.2425 171.512C91.8825 171.344 91.4925 171.26 91.0725 171.26C90.2445 171.26 89.6325 171.524 89.2365 172.052C88.8525 172.58 88.6605 173.444 88.6605 174.644C88.6605 175.856 88.8525 176.726 89.2365 177.254C89.6325 177.782 90.2445 178.046 91.0725 178.046ZM102.655 178.136C102.247 178.46 101.797 178.718 101.305 178.91C100.813 179.09 100.297 179.18 99.7568 179.18C98.7488 179.18 98.0228 178.94 97.5788 178.46C97.1348 177.98 96.9128 177.194 96.9128 176.102V170.288H98.2988V175.724C98.2988 176.588 98.4368 177.188 98.7128 177.524C99.0008 177.86 99.4388 178.028 100.027 178.028C100.867 178.028 101.701 177.722 102.529 177.11V170.288H103.915V179H102.871L102.655 178.136ZM110.061 178.028C110.901 178.028 111.651 177.818 112.311 177.398L112.707 178.496C112.359 178.7 111.957 178.868 111.501 179C111.057 179.12 110.577 179.18 110.061 179.18C108.633 179.18 107.589 178.826 106.929 178.118C106.269 177.398 105.939 176.24 105.939 174.644C105.939 173.084 106.257 171.938 106.893 171.206C107.529 170.474 108.525 170.108 109.881 170.108C111.045 170.108 111.999 170.462 112.743 171.17L111.987 172.106C111.723 171.842 111.411 171.638 111.051 171.494C110.703 171.338 110.325 171.26 109.917 171.26C109.053 171.26 108.399 171.524 107.955 172.052C107.523 172.568 107.307 173.432 107.307 174.644C107.307 175.856 107.535 176.726 107.991 177.254C108.447 177.77 109.137 178.028 110.061 178.028ZM114.669 170.288H116.037V179H114.669V170.288ZM114.651 166.544H116.037V168.344H114.651V166.544ZM119.895 171.17C120.303 170.846 120.753 170.588 121.245 170.396C121.737 170.204 122.253 170.108 122.793 170.108C123.801 170.108 124.521 170.354 124.953 170.846C125.397 171.326 125.619 172.112 125.619 173.204V179H124.251V173.582C124.251 172.718 124.107 172.118 123.819 171.782C123.543 171.446 123.111 171.278 122.523 171.278C121.683 171.278 120.843 171.584 120.003 172.196V179H118.635V170.288H119.661L119.895 171.17ZM134.826 170.288V179.108C134.826 180.44 134.502 181.406 133.854 182.006C133.218 182.618 132.264 182.924 130.992 182.924C130.488 182.924 130.008 182.882 129.552 182.798C129.096 182.726 128.694 182.624 128.346 182.492L128.634 181.358C129.318 181.622 130.098 181.754 130.974 181.754C131.838 181.754 132.462 181.556 132.846 181.16C133.242 180.764 133.44 180.116 133.44 179.216V178.316C133.14 178.592 132.774 178.808 132.342 178.964C131.922 179.108 131.46 179.18 130.956 179.18C129.828 179.18 128.97 178.814 128.382 178.082C127.806 177.35 127.518 176.204 127.518 174.644C127.518 173.096 127.818 171.956 128.418 171.224C129.018 170.48 129.912 170.108 131.1 170.108C131.604 170.108 132.066 170.192 132.486 170.36C132.906 170.528 133.272 170.756 133.584 171.044L133.8 170.288H134.826ZM131.316 171.26C130.488 171.26 129.876 171.524 129.48 172.052C129.096 172.58 128.904 173.444 128.904 174.644C128.904 175.856 129.096 176.726 129.48 177.254C129.876 177.782 130.488 178.046 131.316 178.046C131.736 178.046 132.126 177.962 132.486 177.794C132.858 177.626 133.176 177.398 133.44 177.11V172.196C133.176 171.908 132.858 171.68 132.486 171.512C132.126 171.344 131.736 171.26 131.316 171.26ZM148.537 179H147.511L147.295 178.19C146.935 178.502 146.509 178.748 146.017 178.928C145.537 179.096 145.009 179.18 144.433 179.18C143.533 179.18 142.855 178.952 142.399 178.496C141.955 178.028 141.733 177.362 141.733 176.498C141.733 175.61 142.009 174.956 142.561 174.536C143.113 174.104 144.037 173.888 145.333 173.888C145.717 173.888 146.053 173.894 146.341 173.906C146.641 173.918 146.917 173.942 147.169 173.978V173.492C147.169 172.688 147.013 172.118 146.701 171.782C146.389 171.434 145.837 171.26 145.045 171.26C144.673 171.26 144.265 171.326 143.821 171.458C143.389 171.578 142.951 171.758 142.507 171.998L142.093 170.954C142.573 170.69 143.083 170.486 143.623 170.342C144.163 170.186 144.721 170.108 145.297 170.108C145.909 170.108 146.419 170.168 146.827 170.288C147.247 170.408 147.583 170.606 147.835 170.882C148.087 171.146 148.267 171.488 148.375 171.908C148.483 172.328 148.537 172.844 148.537 173.456V179ZM144.811 178.046C145.207 178.046 145.615 177.962 146.035 177.794C146.467 177.614 146.845 177.38 147.169 177.092V175.094C146.857 175.058 146.545 175.034 146.233 175.022C145.921 174.998 145.573 174.986 145.189 174.986C144.433 174.986 143.893 175.1 143.569 175.328C143.257 175.556 143.101 175.94 143.101 176.48C143.101 176.996 143.233 177.386 143.497 177.65C143.761 177.914 144.199 178.046 144.811 178.046ZM157.062 171.17C157.47 170.846 157.92 170.588 158.412 170.396C158.904 170.204 159.42 170.108 159.96 170.108C160.968 170.108 161.688 170.354 162.12 170.846C162.564 171.326 162.786 172.112 162.786 173.204V179H161.418V173.582C161.418 172.718 161.274 172.118 160.986 171.782C160.71 171.446 160.278 171.278 159.69 171.278C158.85 171.278 158.01 171.584 157.17 172.196V179H155.802V170.288H156.828L157.062 171.17ZM168.591 179.18C167.175 179.18 166.167 178.814 165.567 178.082C164.979 177.338 164.685 176.192 164.685 174.644C164.685 173.084 164.985 171.938 165.585 171.206C166.185 170.474 167.103 170.108 168.339 170.108C169.575 170.108 170.493 170.468 171.093 171.188C171.693 171.896 171.993 173.024 171.993 174.572V175.148H166.089C166.137 176.18 166.359 176.918 166.755 177.362C167.151 177.806 167.769 178.028 168.609 178.028C169.113 178.028 169.605 177.956 170.085 177.812C170.577 177.656 171.033 177.446 171.453 177.182L171.903 178.28C171.447 178.556 170.931 178.778 170.355 178.946C169.791 179.102 169.203 179.18 168.591 179.18ZM170.589 174.032C170.529 173.096 170.319 172.406 169.959 171.962C169.599 171.506 169.059 171.278 168.339 171.278C167.619 171.278 167.079 171.506 166.719 171.962C166.359 172.406 166.149 173.096 166.089 174.032H170.589ZM179.319 170.288L180.705 175.202L181.281 177.362H181.317L181.767 175.202L182.901 170.288H184.269L181.965 179H180.633L179.589 175.202L178.707 172.016H178.671L177.807 175.202L176.745 179H175.431L173.109 170.288H174.495L175.611 175.202L176.079 177.362H176.115L176.673 175.202L178.059 170.288H179.319ZM191.748 170.288L191.982 171.044C192.294 170.756 192.654 170.528 193.062 170.36C193.482 170.192 193.944 170.108 194.448 170.108C195.636 170.108 196.53 170.48 197.13 171.224C197.73 171.956 198.03 173.096 198.03 174.644C198.03 176.204 197.736 177.35 197.148 178.082C196.572 178.814 195.72 179.18 194.592 179.18C194.112 179.18 193.65 179.108 193.206 178.964C192.762 178.808 192.396 178.592 192.108 178.316V182.744H190.722V170.288H191.748ZM194.232 171.26C193.812 171.26 193.416 171.344 193.044 171.512C192.684 171.68 192.372 171.908 192.108 172.196V177.11C192.372 177.398 192.684 177.626 193.044 177.794C193.416 177.962 193.812 178.046 194.232 178.046C195.06 178.046 195.672 177.782 196.068 177.254C196.464 176.726 196.662 175.856 196.662 174.644C196.662 173.444 196.464 172.58 196.068 172.052C195.672 171.524 195.06 171.26 194.232 171.26ZM201.08 170.288L201.242 171.44C201.638 171.008 202.082 170.678 202.574 170.45C203.066 170.222 203.564 170.108 204.068 170.108C204.272 170.108 204.446 170.126 204.59 170.162C204.746 170.186 204.908 170.228 205.076 170.288V171.512C204.716 171.368 204.338 171.296 203.942 171.296C203.486 171.296 203.03 171.422 202.574 171.674C202.118 171.926 201.728 172.244 201.404 172.628V179H200.036V170.288H201.08ZM205.772 174.644C205.772 173.084 206.084 171.938 206.708 171.206C207.344 170.474 208.352 170.108 209.732 170.108C211.1 170.108 212.096 170.474 212.72 171.206C213.356 171.938 213.674 173.084 213.674 174.644C213.674 176.204 213.356 177.35 212.72 178.082C212.084 178.814 211.088 179.18 209.732 179.18C208.364 179.18 207.362 178.814 206.726 178.082C206.09 177.35 205.772 176.204 205.772 174.644ZM207.158 174.644C207.158 175.832 207.362 176.696 207.77 177.236C208.178 177.764 208.832 178.028 209.732 178.028C210.632 178.028 211.286 177.764 211.694 177.236C212.102 176.696 212.306 175.832 212.306 174.644C212.306 173.48 212.102 172.628 211.694 172.088C211.286 171.548 210.632 171.278 209.732 171.278C208.832 171.278 208.178 171.548 207.77 172.088C207.362 172.628 207.158 173.48 207.158 174.644ZM222.57 166.292V179H221.544L221.328 178.262C221.016 178.55 220.65 178.778 220.23 178.946C219.81 179.102 219.348 179.18 218.844 179.18C217.656 179.18 216.762 178.814 216.162 178.082C215.562 177.35 215.262 176.204 215.262 174.644C215.262 173.096 215.55 171.956 216.126 171.224C216.714 170.48 217.572 170.108 218.7 170.108C219.204 170.108 219.666 170.186 220.086 170.342C220.518 170.498 220.884 170.714 221.184 170.99V166.472L222.57 166.292ZM219.06 178.046C219.48 178.046 219.87 177.962 220.23 177.794C220.602 177.626 220.92 177.398 221.184 177.11V172.196C220.92 171.908 220.602 171.68 220.23 171.512C219.87 171.344 219.48 171.26 219.06 171.26C218.232 171.26 217.62 171.524 217.224 172.052C216.84 172.58 216.648 173.444 216.648 174.644C216.648 175.856 216.84 176.726 217.224 177.254C217.62 177.782 218.232 178.046 219.06 178.046ZM230.643 178.136C230.235 178.46 229.785 178.718 229.293 178.91C228.801 179.09 228.285 179.18 227.745 179.18C226.737 179.18 226.011 178.94 225.567 178.46C225.123 177.98 224.901 177.194 224.901 176.102V170.288H226.287V175.724C226.287 176.588 226.425 177.188 226.701 177.524C226.989 177.86 227.427 178.028 228.015 178.028C228.855 178.028 229.689 177.722 230.517 177.11V170.288H231.903V179H230.859L230.643 178.136ZM238.048 178.028C238.888 178.028 239.638 177.818 240.298 177.398L240.694 178.496C240.346 178.7 239.944 178.868 239.488 179C239.044 179.12 238.564 179.18 238.048 179.18C236.62 179.18 235.576 178.826 234.916 178.118C234.256 177.398 233.926 176.24 233.926 174.644C233.926 173.084 234.244 171.938 234.88 171.206C235.516 170.474 236.512 170.108 237.868 170.108C239.032 170.108 239.986 170.462 240.73 171.17L239.974 172.106C239.71 171.842 239.398 171.638 239.038 171.494C238.69 171.338 238.312 171.26 237.904 171.26C237.04 171.26 236.386 171.524 235.942 172.052C235.51 172.568 235.294 173.432 235.294 174.644C235.294 175.856 235.522 176.726 235.978 177.254C236.434 177.77 237.124 178.028 238.048 178.028ZM244.403 171.458V175.76C244.403 176.156 244.421 176.498 244.457 176.786C244.493 177.074 244.565 177.314 244.673 177.506C244.793 177.686 244.955 177.818 245.159 177.902C245.375 177.986 245.663 178.028 246.023 178.028C246.287 178.028 246.545 177.998 246.797 177.938C247.061 177.878 247.313 177.806 247.553 177.722L247.823 178.766C247.103 179.042 246.377 179.18 245.645 179.18C245.117 179.18 244.679 179.108 244.331 178.964C243.995 178.82 243.725 178.622 243.521 178.37C243.329 178.106 243.197 177.794 243.125 177.434C243.053 177.062 243.017 176.654 243.017 176.21V171.458H241.595V170.288H243.017V168.452L244.403 168.2V170.288H247.481V171.458H244.403ZM253.924 174.644C253.924 173.084 254.236 171.938 254.86 171.206C255.496 170.474 256.504 170.108 257.884 170.108C259.252 170.108 260.248 170.474 260.872 171.206C261.508 171.938 261.826 173.084 261.826 174.644C261.826 176.204 261.508 177.35 260.872 178.082C260.236 178.814 259.24 179.18 257.884 179.18C256.516 179.18 255.514 178.814 254.878 178.082C254.242 177.35 253.924 176.204 253.924 174.644ZM255.31 174.644C255.31 175.832 255.514 176.696 255.922 177.236C256.33 177.764 256.984 178.028 257.884 178.028C258.784 178.028 259.438 177.764 259.846 177.236C260.254 176.696 260.458 175.832 260.458 174.644C260.458 173.48 260.254 172.628 259.846 172.088C259.438 171.548 258.784 171.278 257.884 171.278C256.984 171.278 256.33 171.548 255.922 172.088C255.514 172.628 255.31 173.48 255.31 174.644ZM264.872 170.288L265.034 171.44C265.43 171.008 265.874 170.678 266.366 170.45C266.858 170.222 267.356 170.108 267.86 170.108C268.064 170.108 268.238 170.126 268.382 170.162C268.538 170.186 268.7 170.228 268.868 170.288V171.512C268.508 171.368 268.13 171.296 267.734 171.296C267.278 171.296 266.822 171.422 266.366 171.674C265.91 171.926 265.52 172.244 265.196 172.628V179H263.828V170.288H264.872ZM277.39 173.6C277.666 173.708 278.008 173.828 278.416 173.96C278.836 174.092 279.25 174.236 279.658 174.392C280.822 174.824 281.404 175.598 281.404 176.714C281.404 177.506 281.128 178.118 280.576 178.55C280.024 178.982 279.136 179.198 277.912 179.198C277.228 179.198 276.646 179.12 276.166 178.964C275.686 178.808 275.254 178.622 274.87 178.406L275.32 177.326C275.668 177.53 276.064 177.704 276.508 177.848C276.952 177.992 277.426 178.064 277.93 178.064C278.698 178.064 279.238 177.962 279.55 177.758C279.862 177.542 280.018 177.218 280.018 176.786C280.018 176.21 279.676 175.784 278.992 175.508C278.608 175.352 278.206 175.208 277.786 175.076C277.378 174.944 276.988 174.812 276.616 174.68C276.136 174.512 275.752 174.254 275.464 173.906C275.188 173.546 275.05 173.078 275.05 172.502C275.05 171.806 275.32 171.23 275.86 170.774C276.412 170.318 277.234 170.09 278.326 170.09C278.902 170.09 279.418 170.15 279.874 170.27C280.33 170.378 280.714 170.51 281.026 170.666L280.612 171.71C280.264 171.542 279.916 171.422 279.568 171.35C279.22 171.266 278.794 171.224 278.29 171.224C277.93 171.224 277.63 171.26 277.39 171.332C277.15 171.404 276.958 171.5 276.814 171.62C276.682 171.728 276.586 171.854 276.526 171.998C276.466 172.142 276.436 172.286 276.436 172.43C276.436 172.718 276.508 172.952 276.652 173.132C276.796 173.312 277.042 173.468 277.39 173.6ZM286.825 179.18C285.409 179.18 284.401 178.814 283.801 178.082C283.213 177.338 282.919 176.192 282.919 174.644C282.919 173.084 283.219 171.938 283.819 171.206C284.419 170.474 285.337 170.108 286.573 170.108C287.809 170.108 288.727 170.468 289.327 171.188C289.927 171.896 290.227 173.024 290.227 174.572V175.148H284.323C284.371 176.18 284.593 176.918 284.989 177.362C285.385 177.806 286.003 178.028 286.843 178.028C287.347 178.028 287.839 177.956 288.319 177.812C288.811 177.656 289.267 177.446 289.687 177.182L290.137 178.28C289.681 178.556 289.165 178.778 288.589 178.946C288.025 179.102 287.437 179.18 286.825 179.18ZM288.823 174.032C288.763 173.096 288.553 172.406 288.193 171.962C287.833 171.506 287.293 171.278 286.573 171.278C285.853 171.278 285.313 171.506 284.953 171.962C284.593 172.406 284.383 173.096 284.323 174.032H288.823ZM293.287 170.288L293.449 171.44C293.845 171.008 294.289 170.678 294.781 170.45C295.273 170.222 295.771 170.108 296.275 170.108C296.479 170.108 296.653 170.126 296.797 170.162C296.953 170.186 297.115 170.228 297.283 170.288V171.512C296.923 171.368 296.545 171.296 296.149 171.296C295.693 171.296 295.237 171.422 294.781 171.674C294.325 171.926 293.935 172.244 293.611 172.628V179H292.243V170.288H293.287ZM302.19 177.416L303.126 174.608L304.656 170.288H306.114L302.838 179H301.524L298.23 170.288H299.688L301.218 174.608L302.154 177.416H302.19ZM307.747 170.288H309.115V179H307.747V170.288ZM307.729 166.544H309.115V168.344H307.729V166.544ZM315.439 178.028C316.279 178.028 317.029 177.818 317.689 177.398L318.085 178.496C317.737 178.7 317.335 178.868 316.879 179C316.435 179.12 315.955 179.18 315.439 179.18C314.011 179.18 312.967 178.826 312.307 178.118C311.647 177.398 311.317 176.24 311.317 174.644C311.317 173.084 311.635 171.938 312.271 171.206C312.907 170.474 313.903 170.108 315.259 170.108C316.423 170.108 317.377 170.462 318.121 171.17L317.365 172.106C317.101 171.842 316.789 171.638 316.429 171.494C316.081 171.338 315.703 171.26 315.295 171.26C314.431 171.26 313.777 171.524 313.333 172.052C312.901 172.568 312.685 173.432 312.685 174.644C312.685 175.856 312.913 176.726 313.369 177.254C313.825 177.77 314.515 178.028 315.439 178.028ZM322.885 179.18C321.469 179.18 320.461 178.814 319.861 178.082C319.273 177.338 318.979 176.192 318.979 174.644C318.979 173.084 319.279 171.938 319.879 171.206C320.479 170.474 321.397 170.108 322.633 170.108C323.869 170.108 324.787 170.468 325.387 171.188C325.987 171.896 326.287 173.024 326.287 174.572V175.148H320.383C320.431 176.18 320.653 176.918 321.049 177.362C321.445 177.806 322.063 178.028 322.903 178.028C323.407 178.028 323.899 177.956 324.379 177.812C324.871 177.656 325.327 177.446 325.747 177.182L326.197 178.28C325.741 178.556 325.225 178.778 324.649 178.946C324.085 179.102 323.497 179.18 322.885 179.18ZM324.883 174.032C324.823 173.096 324.613 172.406 324.253 171.962C323.893 171.506 323.353 171.278 322.633 171.278C321.913 171.278 321.373 171.506 321.013 171.962C320.653 172.406 320.443 173.096 320.383 174.032H324.883ZM38.5576 203.312C38.5576 203.6 38.5036 203.87 38.3956 204.122C38.2876 204.374 38.1376 204.596 37.9456 204.788C37.7656 204.968 37.5496 205.112 37.2976 205.22C37.0576 205.316 36.7936 205.364 36.5056 205.364C36.2176 205.364 35.9476 205.316 35.6956 205.22C35.4436 205.112 35.2216 204.968 35.0296 204.788C34.8496 204.608 34.7056 204.392 34.5976 204.14C34.4896 203.888 34.4356 203.612 34.4356 203.312C34.4356 203.024 34.4896 202.754 34.5976 202.502C34.7056 202.25 34.8496 202.034 35.0296 201.854C35.2216 201.662 35.4436 201.518 35.6956 201.422C35.9476 201.314 36.2176 201.26 36.5056 201.26C36.7936 201.26 37.0576 201.314 37.2976 201.422C37.5496 201.518 37.7656 201.662 37.9456 201.854C38.1376 202.034 38.2876 202.25 38.3956 202.502C38.5036 202.754 38.5576 203.024 38.5576 203.312ZM58.892 207.83V209H51.458V196.904H58.712V198.092H52.844V202.106H58.496V203.276H52.844V207.83H58.892ZM64.2508 205.634H64.1968L61.8568 209H60.2728L63.4408 204.554L60.3808 200.288H61.9648L64.1968 203.528H64.2508L66.5008 200.288H68.0848L65.0248 204.554L68.1748 209H66.5908L64.2508 205.634ZM70.7735 200.288L71.0075 201.044C71.3195 200.756 71.6795 200.528 72.0875 200.36C72.5075 200.192 72.9695 200.108 73.4735 200.108C74.6615 200.108 75.5555 200.48 76.1555 201.224C76.7555 201.956 77.0555 203.096 77.0555 204.644C77.0555 206.204 76.7615 207.35 76.1735 208.082C75.5975 208.814 74.7455 209.18 73.6175 209.18C73.1375 209.18 72.6755 209.108 72.2315 208.964C71.7875 208.808 71.4215 208.592 71.1335 208.316V212.744H69.7475V200.288H70.7735ZM73.2575 201.26C72.8375 201.26 72.4415 201.344 72.0695 201.512C71.7095 201.68 71.3975 201.908 71.1335 202.196V207.11C71.3975 207.398 71.7095 207.626 72.0695 207.794C72.4415 207.962 72.8375 208.046 73.2575 208.046C74.0855 208.046 74.6975 207.782 75.0935 207.254C75.4895 206.726 75.6875 205.856 75.6875 204.644C75.6875 203.444 75.4895 202.58 75.0935 202.052C74.6975 201.524 74.0855 201.26 73.2575 201.26ZM81.4918 209.126C81.4318 209.15 81.3478 209.162 81.2398 209.162C81.1318 209.174 81.0418 209.18 80.9698 209.18C80.3578 209.18 79.9138 209 79.6378 208.64C79.3738 208.268 79.2418 207.704 79.2418 206.948V196.508L80.6098 196.292V206.75C80.6098 207.026 80.6218 207.248 80.6458 207.416C80.6698 207.584 80.7118 207.716 80.7718 207.812C80.8438 207.908 80.9338 207.974 81.0418 208.01C81.1618 208.034 81.3118 208.046 81.4918 208.046V209.126ZM89.9133 209H88.8873L88.6713 208.19C88.3113 208.502 87.8853 208.748 87.3933 208.928C86.9133 209.096 86.3853 209.18 85.8093 209.18C84.9093 209.18 84.2313 208.952 83.7753 208.496C83.3313 208.028 83.1093 207.362 83.1093 206.498C83.1093 205.61 83.3853 204.956 83.9373 204.536C84.4893 204.104 85.4133 203.888 86.7093 203.888C87.0933 203.888 87.4293 203.894 87.7173 203.906C88.0173 203.918 88.2933 203.942 88.5453 203.978V203.492C88.5453 202.688 88.3893 202.118 88.0773 201.782C87.7653 201.434 87.2133 201.26 86.4213 201.26C86.0493 201.26 85.6413 201.326 85.1973 201.458C84.7653 201.578 84.3273 201.758 83.8833 201.998L83.4693 200.954C83.9493 200.69 84.4593 200.486 84.9993 200.342C85.5393 200.186 86.0973 200.108 86.6733 200.108C87.2853 200.108 87.7953 200.168 88.2033 200.288C88.6233 200.408 88.9593 200.606 89.2113 200.882C89.4633 201.146 89.6433 201.488 89.7513 201.908C89.8593 202.328 89.9133 202.844 89.9133 203.456V209ZM86.1873 208.046C86.5833 208.046 86.9913 207.962 87.4113 207.794C87.8433 207.614 88.2213 207.38 88.5453 207.092V205.094C88.2333 205.058 87.9213 205.034 87.6093 205.022C87.2973 204.998 86.9493 204.986 86.5653 204.986C85.8093 204.986 85.2693 205.1 84.9453 205.328C84.6333 205.556 84.4773 205.94 84.4773 206.48C84.4773 206.996 84.6093 207.386 84.8733 207.65C85.1373 207.914 85.5753 208.046 86.1873 208.046ZM92.4216 200.288H93.7896V209H92.4216V200.288ZM92.4036 196.544H93.7896V198.344H92.4036V196.544ZM97.6475 201.17C98.0555 200.846 98.5055 200.588 98.9975 200.396C99.4895 200.204 100.006 200.108 100.546 200.108C101.554 200.108 102.274 200.354 102.706 200.846C103.15 201.326 103.372 202.112 103.372 203.204V209H102.004V203.582C102.004 202.718 101.86 202.118 101.572 201.782C101.296 201.446 100.864 201.278 100.276 201.278C99.4355 201.278 98.5955 201.584 97.7555 202.196V209H96.3875V200.288H97.4135L97.6475 201.17ZM105.882 200.288H107.25V209H105.882V200.288ZM105.864 196.544H107.25V198.344H105.864V196.544ZM111.108 201.17C111.516 200.846 111.966 200.588 112.458 200.396C112.95 200.204 113.466 200.108 114.006 200.108C115.014 200.108 115.734 200.354 116.166 200.846C116.61 201.326 116.832 202.112 116.832 203.204V209H115.464V203.582C115.464 202.718 115.32 202.118 115.032 201.782C114.756 201.446 114.324 201.278 113.736 201.278C112.896 201.278 112.056 201.584 111.216 202.196V209H109.848V200.288H110.874L111.108 201.17ZM126.039 200.288V209.108C126.039 210.44 125.715 211.406 125.067 212.006C124.431 212.618 123.477 212.924 122.205 212.924C121.701 212.924 121.221 212.882 120.765 212.798C120.309 212.726 119.907 212.624 119.559 212.492L119.847 211.358C120.531 211.622 121.311 211.754 122.187 211.754C123.051 211.754 123.675 211.556 124.059 211.16C124.455 210.764 124.653 210.116 124.653 209.216V208.316C124.353 208.592 123.987 208.808 123.555 208.964C123.135 209.108 122.673 209.18 122.169 209.18C121.041 209.18 120.183 208.814 119.595 208.082C119.019 207.35 118.731 206.204 118.731 204.644C118.731 203.096 119.031 201.956 119.631 201.224C120.231 200.48 121.125 200.108 122.313 200.108C122.817 200.108 123.279 200.192 123.699 200.36C124.119 200.528 124.485 200.756 124.797 201.044L125.013 200.288H126.039ZM122.529 201.26C121.701 201.26 121.089 201.524 120.693 202.052C120.309 202.58 120.117 203.444 120.117 204.644C120.117 205.856 120.309 206.726 120.693 207.254C121.089 207.782 121.701 208.046 122.529 208.046C122.949 208.046 123.339 207.962 123.699 207.794C124.071 207.626 124.389 207.398 124.653 207.11V202.196C124.389 201.908 124.071 201.68 123.699 201.512C123.339 201.344 122.949 201.26 122.529 201.26ZM134.782 201.08C135.61 200.432 136.54 200.108 137.572 200.108C138.58 200.108 139.3 200.348 139.732 200.828C140.176 201.296 140.398 202.088 140.398 203.204V209H139.03V203.582C139.03 202.718 138.886 202.118 138.598 201.782C138.322 201.446 137.89 201.278 137.302 201.278C136.462 201.278 135.622 201.584 134.782 202.196V209H133.414V196.472L134.782 196.292V201.08ZM142.297 204.644C142.297 203.084 142.609 201.938 143.233 201.206C143.869 200.474 144.877 200.108 146.257 200.108C147.625 200.108 148.621 200.474 149.245 201.206C149.881 201.938 150.199 203.084 150.199 204.644C150.199 206.204 149.881 207.35 149.245 208.082C148.609 208.814 147.613 209.18 146.257 209.18C144.889 209.18 143.887 208.814 143.251 208.082C142.615 207.35 142.297 206.204 142.297 204.644ZM143.683 204.644C143.683 205.832 143.887 206.696 144.295 207.236C144.703 207.764 145.357 208.028 146.257 208.028C147.157 208.028 147.811 207.764 148.219 207.236C148.627 206.696 148.831 205.832 148.831 204.644C148.831 203.48 148.627 202.628 148.219 202.088C147.811 201.548 147.157 201.278 146.257 201.278C145.357 201.278 144.703 201.548 144.295 202.088C143.887 202.628 143.683 203.48 143.683 204.644ZM157.511 200.288L158.897 205.202L159.473 207.362H159.509L159.959 205.202L161.093 200.288H162.461L160.157 209H158.825L157.781 205.202L156.899 202.016H156.863L155.999 205.202L154.937 209H153.623L151.301 200.288H152.687L153.803 205.202L154.271 207.362H154.307L154.865 205.202L156.251 200.288H157.511ZM170.857 201.458V205.76C170.857 206.156 170.875 206.498 170.911 206.786C170.947 207.074 171.019 207.314 171.127 207.506C171.247 207.686 171.409 207.818 171.613 207.902C171.829 207.986 172.117 208.028 172.477 208.028C172.741 208.028 172.999 207.998 173.251 207.938C173.515 207.878 173.767 207.806 174.007 207.722L174.277 208.766C173.557 209.042 172.831 209.18 172.099 209.18C171.571 209.18 171.133 209.108 170.785 208.964C170.449 208.82 170.179 208.622 169.975 208.37C169.783 208.106 169.651 207.794 169.579 207.434C169.507 207.062 169.471 206.654 169.471 206.21V201.458H168.049V200.288H169.471V198.452L170.857 198.2V200.288H173.935V201.458H170.857ZM175.318 204.644C175.318 203.084 175.63 201.938 176.254 201.206C176.89 200.474 177.898 200.108 179.278 200.108C180.646 200.108 181.642 200.474 182.266 201.206C182.902 201.938 183.22 203.084 183.22 204.644C183.22 206.204 182.902 207.35 182.266 208.082C181.63 208.814 180.634 209.18 179.278 209.18C177.91 209.18 176.908 208.814 176.272 208.082C175.636 207.35 175.318 206.204 175.318 204.644ZM176.704 204.644C176.704 205.832 176.908 206.696 177.316 207.236C177.724 207.764 178.378 208.028 179.278 208.028C180.178 208.028 180.832 207.764 181.24 207.236C181.648 206.696 181.852 205.832 181.852 204.644C181.852 203.48 181.648 202.628 181.24 202.088C180.832 201.548 180.178 201.278 179.278 201.278C178.378 201.278 177.724 201.548 177.316 202.088C176.908 202.628 176.704 203.48 176.704 204.644ZM195.829 208.136C195.421 208.46 194.971 208.718 194.479 208.91C193.987 209.09 193.471 209.18 192.931 209.18C191.923 209.18 191.197 208.94 190.753 208.46C190.309 207.98 190.087 207.194 190.087 206.102V200.288H191.473V205.724C191.473 206.588 191.611 207.188 191.887 207.524C192.175 207.86 192.613 208.028 193.201 208.028C194.041 208.028 194.875 207.722 195.703 207.11V200.288H197.089V209H196.045L195.829 208.136ZM201.615 203.6C201.891 203.708 202.233 203.828 202.641 203.96C203.061 204.092 203.475 204.236 203.883 204.392C205.047 204.824 205.629 205.598 205.629 206.714C205.629 207.506 205.353 208.118 204.801 208.55C204.249 208.982 203.361 209.198 202.137 209.198C201.453 209.198 200.871 209.12 200.391 208.964C199.911 208.808 199.479 208.622 199.095 208.406L199.545 207.326C199.893 207.53 200.289 207.704 200.733 207.848C201.177 207.992 201.651 208.064 202.155 208.064C202.923 208.064 203.463 207.962 203.775 207.758C204.087 207.542 204.243 207.218 204.243 206.786C204.243 206.21 203.901 205.784 203.217 205.508C202.833 205.352 202.431 205.208 202.011 205.076C201.603 204.944 201.213 204.812 200.841 204.68C200.361 204.512 199.977 204.254 199.689 203.906C199.413 203.546 199.275 203.078 199.275 202.502C199.275 201.806 199.545 201.23 200.085 200.774C200.637 200.318 201.459 200.09 202.551 200.09C203.127 200.09 203.643 200.15 204.099 200.27C204.555 200.378 204.939 200.51 205.251 200.666L204.837 201.71C204.489 201.542 204.141 201.422 203.793 201.35C203.445 201.266 203.019 201.224 202.515 201.224C202.155 201.224 201.855 201.26 201.615 201.332C201.375 201.404 201.183 201.5 201.039 201.62C200.907 201.728 200.811 201.854 200.751 201.998C200.691 202.142 200.661 202.286 200.661 202.43C200.661 202.718 200.733 202.952 200.877 203.132C201.021 203.312 201.267 203.468 201.615 203.6ZM211.049 209.18C209.633 209.18 208.625 208.814 208.025 208.082C207.437 207.338 207.143 206.192 207.143 204.644C207.143 203.084 207.443 201.938 208.043 201.206C208.643 200.474 209.561 200.108 210.797 200.108C212.033 200.108 212.951 200.468 213.551 201.188C214.151 201.896 214.451 203.024 214.451 204.572V205.148H208.547C208.595 206.18 208.817 206.918 209.213 207.362C209.609 207.806 210.227 208.028 211.067 208.028C211.571 208.028 212.063 207.956 212.543 207.812C213.035 207.656 213.491 207.446 213.911 207.182L214.361 208.28C213.905 208.556 213.389 208.778 212.813 208.946C212.249 209.102 211.661 209.18 211.049 209.18ZM213.047 204.032C212.987 203.096 212.777 202.406 212.417 201.962C212.057 201.506 211.517 201.278 210.797 201.278C210.077 201.278 209.537 201.506 209.177 201.962C208.817 202.406 208.607 203.096 208.547 204.032H213.047ZM227.758 209H226.732L226.516 208.19C226.156 208.502 225.73 208.748 225.238 208.928C224.758 209.096 224.23 209.18 223.654 209.18C222.754 209.18 222.076 208.952 221.62 208.496C221.176 208.028 220.954 207.362 220.954 206.498C220.954 205.61 221.23 204.956 221.782 204.536C222.334 204.104 223.258 203.888 224.554 203.888C224.938 203.888 225.274 203.894 225.562 203.906C225.862 203.918 226.138 203.942 226.39 203.978V203.492C226.39 202.688 226.234 202.118 225.922 201.782C225.61 201.434 225.058 201.26 224.266 201.26C223.894 201.26 223.486 201.326 223.042 201.458C222.61 201.578 222.172 201.758 221.728 201.998L221.314 200.954C221.794 200.69 222.304 200.486 222.844 200.342C223.384 200.186 223.942 200.108 224.518 200.108C225.13 200.108 225.64 200.168 226.048 200.288C226.468 200.408 226.804 200.606 227.056 200.882C227.308 201.146 227.488 201.488 227.596 201.908C227.704 202.328 227.758 202.844 227.758 203.456V209ZM224.032 208.046C224.428 208.046 224.836 207.962 225.256 207.794C225.688 207.614 226.066 207.38 226.39 207.092V205.094C226.078 205.058 225.766 205.034 225.454 205.022C225.142 204.998 224.794 204.986 224.41 204.986C223.654 204.986 223.114 205.1 222.79 205.328C222.478 205.556 222.322 205.94 222.322 206.48C222.322 206.996 222.454 207.386 222.718 207.65C222.982 207.914 223.42 208.046 224.032 208.046ZM236.283 201.17C236.691 200.846 237.141 200.588 237.633 200.396C238.125 200.204 238.641 200.108 239.181 200.108C240.189 200.108 240.909 200.354 241.341 200.846C241.785 201.326 242.007 202.112 242.007 203.204V209H240.639V203.582C240.639 202.718 240.495 202.118 240.207 201.782C239.931 201.446 239.499 201.278 238.911 201.278C238.071 201.278 237.231 201.584 236.391 202.196V209H235.023V200.288H236.049L236.283 201.17ZM247.812 209.18C246.396 209.18 245.388 208.814 244.788 208.082C244.2 207.338 243.906 206.192 243.906 204.644C243.906 203.084 244.206 201.938 244.806 201.206C245.406 200.474 246.324 200.108 247.56 200.108C248.796 200.108 249.714 200.468 250.314 201.188C250.914 201.896 251.214 203.024 251.214 204.572V205.148H245.31C245.358 206.18 245.58 206.918 245.976 207.362C246.372 207.806 246.99 208.028 247.83 208.028C248.334 208.028 248.826 207.956 249.306 207.812C249.798 207.656 250.254 207.446 250.674 207.182L251.124 208.28C250.668 208.556 250.152 208.778 249.576 208.946C249.012 209.102 248.424 209.18 247.812 209.18ZM249.81 204.032C249.75 203.096 249.54 202.406 249.18 201.962C248.82 201.506 248.28 201.278 247.56 201.278C246.84 201.278 246.3 201.506 245.94 201.962C245.58 202.406 245.37 203.096 245.31 204.032H249.81ZM258.54 200.288L259.926 205.202L260.502 207.362H260.538L260.988 205.202L262.122 200.288H263.49L261.186 209H259.854L258.81 205.202L257.928 202.016H257.892L257.028 205.202L255.966 209H254.652L252.33 200.288H253.716L254.832 205.202L255.3 207.362H255.336L255.894 205.202L257.28 200.288H258.54ZM274.893 200.288V201.458H271.779V209H270.411V201.458H269.079V200.288H270.393V199.586C270.393 198.974 270.459 198.458 270.591 198.038C270.735 197.618 270.939 197.282 271.203 197.03C271.467 196.766 271.785 196.58 272.157 196.472C272.541 196.352 272.979 196.292 273.471 196.292C273.807 196.292 274.125 196.328 274.425 196.4C274.725 196.46 275.001 196.538 275.253 196.634L274.947 197.75C274.443 197.558 273.945 197.462 273.453 197.462C272.877 197.462 272.451 197.642 272.175 198.002C271.911 198.362 271.779 198.962 271.779 199.802V200.288H274.893ZM279.638 209.18C278.222 209.18 277.214 208.814 276.614 208.082C276.026 207.338 275.732 206.192 275.732 204.644C275.732 203.084 276.032 201.938 276.632 201.206C277.232 200.474 278.15 200.108 279.386 200.108C280.622 200.108 281.54 200.468 282.14 201.188C282.74 201.896 283.04 203.024 283.04 204.572V205.148H277.136C277.184 206.18 277.406 206.918 277.802 207.362C278.198 207.806 278.816 208.028 279.656 208.028C280.16 208.028 280.652 207.956 281.132 207.812C281.624 207.656 282.08 207.446 282.5 207.182L282.95 208.28C282.494 208.556 281.978 208.778 281.402 208.946C280.838 209.102 280.25 209.18 279.638 209.18ZM281.636 204.032C281.576 203.096 281.366 202.406 281.006 201.962C280.646 201.506 280.106 201.278 279.386 201.278C278.666 201.278 278.126 201.506 277.766 201.962C277.406 202.406 277.196 203.096 277.136 204.032H281.636ZM291.392 209H290.366L290.15 208.19C289.79 208.502 289.364 208.748 288.872 208.928C288.392 209.096 287.864 209.18 287.288 209.18C286.388 209.18 285.71 208.952 285.254 208.496C284.81 208.028 284.588 207.362 284.588 206.498C284.588 205.61 284.864 204.956 285.416 204.536C285.968 204.104 286.892 203.888 288.188 203.888C288.572 203.888 288.908 203.894 289.196 203.906C289.496 203.918 289.772 203.942 290.024 203.978V203.492C290.024 202.688 289.868 202.118 289.556 201.782C289.244 201.434 288.692 201.26 287.9 201.26C287.528 201.26 287.12 201.326 286.676 201.458C286.244 201.578 285.806 201.758 285.362 201.998L284.948 200.954C285.428 200.69 285.938 200.486 286.478 200.342C287.018 200.186 287.576 200.108 288.152 200.108C288.764 200.108 289.274 200.168 289.682 200.288C290.102 200.408 290.438 200.606 290.69 200.882C290.942 201.146 291.122 201.488 291.23 201.908C291.338 202.328 291.392 202.844 291.392 203.456V209ZM287.666 208.046C288.062 208.046 288.47 207.962 288.89 207.794C289.322 207.614 289.7 207.38 290.024 207.092V205.094C289.712 205.058 289.4 205.034 289.088 205.022C288.776 204.998 288.428 204.986 288.044 204.986C287.288 204.986 286.748 205.1 286.424 205.328C286.112 205.556 285.956 205.94 285.956 206.48C285.956 206.996 286.088 207.386 286.352 207.65C286.616 207.914 287.054 208.046 287.666 208.046ZM295.646 201.458V205.76C295.646 206.156 295.664 206.498 295.7 206.786C295.736 207.074 295.808 207.314 295.916 207.506C296.036 207.686 296.198 207.818 296.402 207.902C296.618 207.986 296.906 208.028 297.266 208.028C297.53 208.028 297.788 207.998 298.04 207.938C298.304 207.878 298.556 207.806 298.796 207.722L299.066 208.766C298.346 209.042 297.62 209.18 296.888 209.18C296.36 209.18 295.922 209.108 295.574 208.964C295.238 208.82 294.968 208.622 294.764 208.37C294.572 208.106 294.44 207.794 294.368 207.434C294.296 207.062 294.26 206.654 294.26 206.21V201.458H292.838V200.288H294.26V198.452L295.646 198.2V200.288H298.724V201.458H295.646ZM306.278 208.136C305.87 208.46 305.42 208.718 304.928 208.91C304.436 209.09 303.92 209.18 303.38 209.18C302.372 209.18 301.646 208.94 301.202 208.46C300.758 207.98 300.536 207.194 300.536 206.102V200.288H301.922V205.724C301.922 206.588 302.06 207.188 302.336 207.524C302.624 207.86 303.062 208.028 303.65 208.028C304.49 208.028 305.324 207.722 306.152 207.11V200.288H307.538V209H306.494L306.278 208.136ZM311.002 200.288L311.164 201.44C311.56 201.008 312.004 200.678 312.496 200.45C312.988 200.222 313.486 200.108 313.99 200.108C314.194 200.108 314.368 200.126 314.512 200.162C314.668 200.186 314.83 200.228 314.998 200.288V201.512C314.638 201.368 314.26 201.296 313.864 201.296C313.408 201.296 312.952 201.422 312.496 201.674C312.04 201.926 311.65 202.244 311.326 202.628V209H309.958V200.288H311.002ZM319.6 209.18C318.184 209.18 317.176 208.814 316.576 208.082C315.988 207.338 315.694 206.192 315.694 204.644C315.694 203.084 315.994 201.938 316.594 201.206C317.194 200.474 318.112 200.108 319.348 200.108C320.584 200.108 321.502 200.468 322.102 201.188C322.702 201.896 323.002 203.024 323.002 204.572V205.148H317.098C317.146 206.18 317.368 206.918 317.764 207.362C318.16 207.806 318.778 208.028 319.618 208.028C320.122 208.028 320.614 207.956 321.094 207.812C321.586 207.656 322.042 207.446 322.462 207.182L322.912 208.28C322.456 208.556 321.94 208.778 321.364 208.946C320.8 209.102 320.212 209.18 319.6 209.18ZM321.598 204.032C321.538 203.096 321.328 202.406 320.968 201.962C320.608 201.506 320.068 201.278 319.348 201.278C318.628 201.278 318.088 201.506 317.728 201.962C317.368 202.406 317.158 203.096 317.098 204.032H321.598ZM38.5576 233.312C38.5576 233.6 38.5036 233.87 38.3956 234.122C38.2876 234.374 38.1376 234.596 37.9456 234.788C37.7656 234.968 37.5496 235.112 37.2976 235.22C37.0576 235.316 36.7936 235.364 36.5056 235.364C36.2176 235.364 35.9476 235.316 35.6956 235.22C35.4436 235.112 35.2216 234.968 35.0296 234.788C34.8496 234.608 34.7056 234.392 34.5976 234.14C34.4896 233.888 34.4356 233.612 34.4356 233.312C34.4356 233.024 34.4896 232.754 34.5976 232.502C34.7056 232.25 34.8496 232.034 35.0296 231.854C35.2216 231.662 35.4436 231.518 35.6956 231.422C35.9476 231.314 36.2176 231.26 36.5056 231.26C36.7936 231.26 37.0576 231.314 37.2976 231.422C37.5496 231.518 37.7656 231.662 37.9456 231.854C38.1376 232.034 38.2876 232.25 38.3956 232.502C38.5036 232.754 38.5576 233.024 38.5576 233.312ZM52.844 228.092V232.718H55.67C56.57 232.718 57.224 232.52 57.632 232.124C58.04 231.728 58.244 231.152 58.244 230.396C58.244 229.604 58.04 229.022 57.632 228.65C57.236 228.278 56.6 228.092 55.724 228.092H52.844ZM51.458 239V226.904H55.634C57.038 226.904 58.058 227.198 58.694 227.786C59.342 228.362 59.666 229.232 59.666 230.396C59.666 232.1 58.886 233.186 57.326 233.654L59.99 239H58.496L55.958 233.888H52.844V239H51.458ZM65.1909 239.18C63.7749 239.18 62.7669 238.814 62.1669 238.082C61.5789 237.338 61.2849 236.192 61.2849 234.644C61.2849 233.084 61.5849 231.938 62.1849 231.206C62.7849 230.474 63.7029 230.108 64.9389 230.108C66.1749 230.108 67.0929 230.468 67.6929 231.188C68.2929 231.896 68.5929 233.024 68.5929 234.572V235.148H62.6889C62.7369 236.18 62.9589 236.918 63.3549 237.362C63.7509 237.806 64.3689 238.028 65.2089 238.028C65.7129 238.028 66.2049 237.956 66.6849 237.812C67.1769 237.656 67.6329 237.446 68.0529 237.182L68.5029 238.28C68.0469 238.556 67.5309 238.778 66.9549 238.946C66.3909 239.102 65.8029 239.18 65.1909 239.18ZM67.1889 234.032C67.1289 233.096 66.9189 232.406 66.5589 231.962C66.1989 231.506 65.6589 231.278 64.9389 231.278C64.2189 231.278 63.6789 231.506 63.3189 231.962C62.9589 232.406 62.7489 233.096 62.6889 234.032H67.1889ZM76.9449 239H75.9189L75.7029 238.19C75.3429 238.502 74.9169 238.748 74.4249 238.928C73.9449 239.096 73.4169 239.18 72.8409 239.18C71.9409 239.18 71.2629 238.952 70.8069 238.496C70.3629 238.028 70.1409 237.362 70.1409 236.498C70.1409 235.61 70.4169 234.956 70.9689 234.536C71.5209 234.104 72.4449 233.888 73.7409 233.888C74.1249 233.888 74.4609 233.894 74.7489 233.906C75.0489 233.918 75.3249 233.942 75.5769 233.978V233.492C75.5769 232.688 75.4209 232.118 75.1089 231.782C74.7969 231.434 74.2449 231.26 73.4529 231.26C73.0809 231.26 72.6729 231.326 72.2289 231.458C71.7969 231.578 71.3589 231.758 70.9149 231.998L70.5009 230.954C70.9809 230.69 71.4909 230.486 72.0309 230.342C72.5709 230.186 73.1289 230.108 73.7049 230.108C74.3169 230.108 74.8269 230.168 75.2349 230.288C75.6549 230.408 75.9909 230.606 76.2429 230.882C76.4949 231.146 76.6749 231.488 76.7829 231.908C76.8909 232.328 76.9449 232.844 76.9449 233.456V239ZM73.2189 238.046C73.6149 238.046 74.0229 237.962 74.4429 237.794C74.8749 237.614 75.2529 237.38 75.5769 237.092V235.094C75.2649 235.058 74.9529 235.034 74.6409 235.022C74.3289 234.998 73.9809 234.986 73.5969 234.986C72.8409 234.986 72.3009 235.1 71.9769 235.328C71.6649 235.556 71.5089 235.94 71.5089 236.48C71.5089 236.996 71.6409 237.386 71.9049 237.65C72.1689 237.914 72.6069 238.046 73.2189 238.046ZM81.3612 233.6C81.6372 233.708 81.9792 233.828 82.3872 233.96C82.8072 234.092 83.2212 234.236 83.6292 234.392C84.7932 234.824 85.3752 235.598 85.3752 236.714C85.3752 237.506 85.0992 238.118 84.5472 238.55C83.9952 238.982 83.1072 239.198 81.8832 239.198C81.1992 239.198 80.6172 239.12 80.1372 238.964C79.6572 238.808 79.2252 238.622 78.8412 238.406L79.2912 237.326C79.6392 237.53 80.0352 237.704 80.4792 237.848C80.9232 237.992 81.3972 238.064 81.9012 238.064C82.6692 238.064 83.2092 237.962 83.5212 237.758C83.8332 237.542 83.9892 237.218 83.9892 236.786C83.9892 236.21 83.6472 235.784 82.9632 235.508C82.5792 235.352 82.1772 235.208 81.7572 235.076C81.3492 234.944 80.9592 234.812 80.5872 234.68C80.1072 234.512 79.7232 234.254 79.4352 233.906C79.1592 233.546 79.0212 233.078 79.0212 232.502C79.0212 231.806 79.2912 231.23 79.8312 230.774C80.3832 230.318 81.2052 230.09 82.2972 230.09C82.8732 230.09 83.3892 230.15 83.8452 230.27C84.3012 230.378 84.6852 230.51 84.9972 230.666L84.5832 231.71C84.2352 231.542 83.8872 231.422 83.5392 231.35C83.1912 231.266 82.7652 231.224 82.2612 231.224C81.9012 231.224 81.6012 231.26 81.3612 231.332C81.1212 231.404 80.9292 231.5 80.7852 231.62C80.6532 231.728 80.5572 231.854 80.4972 231.998C80.4372 232.142 80.4072 232.286 80.4072 232.43C80.4072 232.718 80.4792 232.952 80.6232 233.132C80.7672 233.312 81.0132 233.468 81.3612 233.6ZM89.4099 233.6C89.6859 233.708 90.0279 233.828 90.4359 233.96C90.8559 234.092 91.2699 234.236 91.6779 234.392C92.8419 234.824 93.4239 235.598 93.4239 236.714C93.4239 237.506 93.1479 238.118 92.5959 238.55C92.0439 238.982 91.1559 239.198 89.9319 239.198C89.2479 239.198 88.6659 239.12 88.1859 238.964C87.7059 238.808 87.2739 238.622 86.8899 238.406L87.3399 237.326C87.6879 237.53 88.0839 237.704 88.5279 237.848C88.9719 237.992 89.4459 238.064 89.9499 238.064C90.7179 238.064 91.2579 237.962 91.5699 237.758C91.8819 237.542 92.0379 237.218 92.0379 236.786C92.0379 236.21 91.6959 235.784 91.0119 235.508C90.6279 235.352 90.2259 235.208 89.8059 235.076C89.3979 234.944 89.0079 234.812 88.6359 234.68C88.1559 234.512 87.7719 234.254 87.4839 233.906C87.2079 233.546 87.0699 233.078 87.0699 232.502C87.0699 231.806 87.3399 231.23 87.8799 230.774C88.4319 230.318 89.2539 230.09 90.3459 230.09C90.9219 230.09 91.4379 230.15 91.8939 230.27C92.3499 230.378 92.7339 230.51 93.0459 230.666L92.6319 231.71C92.2839 231.542 91.9359 231.422 91.5879 231.35C91.2399 231.266 90.8139 231.224 90.3099 231.224C89.9499 231.224 89.6499 231.26 89.4099 231.332C89.1699 231.404 88.9779 231.5 88.8339 231.62C88.7019 231.728 88.6059 231.854 88.5459 231.998C88.4859 232.142 88.4559 232.286 88.4559 232.43C88.4559 232.718 88.5279 232.952 88.6719 233.132C88.8159 233.312 89.0619 233.468 89.4099 233.6ZM101.005 238.136C100.597 238.46 100.147 238.718 99.6546 238.91C99.1626 239.09 98.6466 239.18 98.1066 239.18C97.0986 239.18 96.3726 238.94 95.9285 238.46C95.4845 237.98 95.2625 237.194 95.2625 236.102V230.288H96.6485V235.724C96.6485 236.588 96.7865 237.188 97.0626 237.524C97.3506 237.86 97.7886 238.028 98.3766 238.028C99.2166 238.028 100.051 237.722 100.879 237.11V230.288H102.265V239H101.221L101.005 238.136ZM105.728 230.288L105.89 231.44C106.286 231.008 106.73 230.678 107.222 230.45C107.714 230.222 108.212 230.108 108.716 230.108C108.92 230.108 109.094 230.126 109.238 230.162C109.394 230.186 109.556 230.228 109.724 230.288V231.512C109.364 231.368 108.986 231.296 108.59 231.296C108.134 231.296 107.678 231.422 107.222 231.674C106.766 231.926 106.376 232.244 106.052 232.628V239H104.684V230.288H105.728ZM111.173 230.288H112.541V239H111.173V230.288ZM111.155 226.544H112.541V228.344H111.155V226.544ZM116.399 231.17C116.807 230.846 117.257 230.588 117.749 230.396C118.241 230.204 118.757 230.108 119.297 230.108C120.305 230.108 121.025 230.354 121.457 230.846C121.901 231.326 122.123 232.112 122.123 233.204V239H120.755V233.582C120.755 232.718 120.611 232.118 120.323 231.782C120.047 231.446 119.615 231.278 119.027 231.278C118.187 231.278 117.347 231.584 116.507 232.196V239H115.139V230.288H116.165L116.399 231.17ZM131.33 230.288V239.108C131.33 240.44 131.006 241.406 130.358 242.006C129.722 242.618 128.768 242.924 127.496 242.924C126.992 242.924 126.512 242.882 126.056 242.798C125.6 242.726 125.198 242.624 124.85 242.492L125.138 241.358C125.822 241.622 126.602 241.754 127.478 241.754C128.342 241.754 128.966 241.556 129.35 241.16C129.746 240.764 129.944 240.116 129.944 239.216V238.316C129.644 238.592 129.278 238.808 128.846 238.964C128.426 239.108 127.964 239.18 127.46 239.18C126.332 239.18 125.474 238.814 124.886 238.082C124.31 237.35 124.022 236.204 124.022 234.644C124.022 233.096 124.322 231.956 124.922 231.224C125.522 230.48 126.416 230.108 127.604 230.108C128.108 230.108 128.57 230.192 128.99 230.36C129.41 230.528 129.776 230.756 130.088 231.044L130.304 230.288H131.33ZM127.82 231.26C126.992 231.26 126.38 231.524 125.984 232.052C125.6 232.58 125.408 233.444 125.408 234.644C125.408 235.856 125.6 236.726 125.984 237.254C126.38 237.782 126.992 238.046 127.82 238.046C128.24 238.046 128.63 237.962 128.99 237.794C129.362 237.626 129.68 237.398 129.944 237.11V232.196C129.68 231.908 129.362 231.68 128.99 231.512C128.63 231.344 128.24 231.26 127.82 231.26ZM139.731 230.288L139.965 231.044C140.277 230.756 140.637 230.528 141.045 230.36C141.465 230.192 141.927 230.108 142.431 230.108C143.619 230.108 144.513 230.48 145.113 231.224C145.713 231.956 146.013 233.096 146.013 234.644C146.013 236.204 145.719 237.35 145.131 238.082C144.555 238.814 143.703 239.18 142.575 239.18C142.095 239.18 141.633 239.108 141.189 238.964C140.745 238.808 140.379 238.592 140.091 238.316V242.744H138.705V230.288H139.731ZM142.215 231.26C141.795 231.26 141.399 231.344 141.027 231.512C140.667 231.68 140.355 231.908 140.091 232.196V237.11C140.355 237.398 140.667 237.626 141.027 237.794C141.399 237.962 141.795 238.046 142.215 238.046C143.043 238.046 143.655 237.782 144.051 237.254C144.447 236.726 144.645 235.856 144.645 234.644C144.645 233.444 144.447 232.58 144.051 232.052C143.655 231.524 143.043 231.26 142.215 231.26ZM151.511 239.18C150.095 239.18 149.087 238.814 148.487 238.082C147.899 237.338 147.605 236.192 147.605 234.644C147.605 233.084 147.905 231.938 148.505 231.206C149.105 230.474 150.023 230.108 151.259 230.108C152.495 230.108 153.413 230.468 154.013 231.188C154.613 231.896 154.913 233.024 154.913 234.572V235.148H149.009C149.057 236.18 149.279 236.918 149.675 237.362C150.071 237.806 150.689 238.028 151.529 238.028C152.033 238.028 152.525 237.956 153.005 237.812C153.497 237.656 153.953 237.446 154.373 237.182L154.823 238.28C154.367 238.556 153.851 238.778 153.275 238.946C152.711 239.102 152.123 239.18 151.511 239.18ZM153.509 234.032C153.449 233.096 153.239 232.406 152.879 231.962C152.519 231.506 151.979 231.278 151.259 231.278C150.539 231.278 149.999 231.506 149.639 231.962C149.279 232.406 149.069 233.096 149.009 234.032H153.509ZM156.515 234.644C156.515 233.084 156.827 231.938 157.451 231.206C158.087 230.474 159.095 230.108 160.475 230.108C161.843 230.108 162.839 230.474 163.463 231.206C164.099 231.938 164.417 233.084 164.417 234.644C164.417 236.204 164.099 237.35 163.463 238.082C162.827 238.814 161.831 239.18 160.475 239.18C159.107 239.18 158.105 238.814 157.469 238.082C156.833 237.35 156.515 236.204 156.515 234.644ZM157.901 234.644C157.901 235.832 158.105 236.696 158.513 237.236C158.921 237.764 159.575 238.028 160.475 238.028C161.375 238.028 162.029 237.764 162.437 237.236C162.845 236.696 163.049 235.832 163.049 234.644C163.049 233.48 162.845 232.628 162.437 232.088C162.029 231.548 161.375 231.278 160.475 231.278C159.575 231.278 158.921 231.548 158.513 232.088C158.105 232.628 157.901 233.48 157.901 234.644ZM167.446 230.288L167.68 231.044C167.992 230.756 168.352 230.528 168.76 230.36C169.18 230.192 169.642 230.108 170.146 230.108C171.334 230.108 172.228 230.48 172.828 231.224C173.428 231.956 173.728 233.096 173.728 234.644C173.728 236.204 173.434 237.35 172.846 238.082C172.27 238.814 171.418 239.18 170.29 239.18C169.81 239.18 169.348 239.108 168.904 238.964C168.46 238.808 168.094 238.592 167.806 238.316V242.744H166.42V230.288H167.446ZM169.93 231.26C169.51 231.26 169.114 231.344 168.742 231.512C168.382 231.68 168.07 231.908 167.806 232.196V237.11C168.07 237.398 168.382 237.626 168.742 237.794C169.114 237.962 169.51 238.046 169.93 238.046C170.758 238.046 171.37 237.782 171.766 237.254C172.162 236.726 172.36 235.856 172.36 234.644C172.36 233.444 172.162 232.58 171.766 232.052C171.37 231.524 170.758 231.26 169.93 231.26ZM178.164 239.126C178.104 239.15 178.02 239.162 177.912 239.162C177.804 239.174 177.714 239.18 177.642 239.18C177.03 239.18 176.586 239 176.31 238.64C176.046 238.268 175.914 237.704 175.914 236.948V226.508L177.282 226.292V236.75C177.282 237.026 177.294 237.248 177.318 237.416C177.342 237.584 177.384 237.716 177.444 237.812C177.516 237.908 177.606 237.974 177.714 238.01C177.834 238.034 177.984 238.046 178.164 238.046V239.126ZM183.495 239.18C182.079 239.18 181.071 238.814 180.471 238.082C179.883 237.338 179.589 236.192 179.589 234.644C179.589 233.084 179.889 231.938 180.489 231.206C181.089 230.474 182.007 230.108 183.243 230.108C184.479 230.108 185.397 230.468 185.997 231.188C186.597 231.896 186.897 233.024 186.897 234.572V235.148H180.993C181.041 236.18 181.263 236.918 181.659 237.362C182.055 237.806 182.673 238.028 183.513 238.028C184.017 238.028 184.509 237.956 184.989 237.812C185.481 237.656 185.937 237.446 186.357 237.182L186.807 238.28C186.351 238.556 185.835 238.778 185.259 238.946C184.695 239.102 184.107 239.18 183.495 239.18ZM185.493 234.032C185.433 233.096 185.223 232.406 184.863 231.962C184.503 231.506 183.963 231.278 183.243 231.278C182.523 231.278 181.983 231.506 181.623 231.962C181.263 232.406 181.053 233.096 180.993 234.032H185.493ZM200.204 239H199.178L198.962 238.19C198.602 238.502 198.176 238.748 197.684 238.928C197.204 239.096 196.676 239.18 196.1 239.18C195.2 239.18 194.522 238.952 194.066 238.496C193.622 238.028 193.4 237.362 193.4 236.498C193.4 235.61 193.676 234.956 194.228 234.536C194.78 234.104 195.704 233.888 197 233.888C197.384 233.888 197.72 233.894 198.008 233.906C198.308 233.918 198.584 233.942 198.836 233.978V233.492C198.836 232.688 198.68 232.118 198.368 231.782C198.056 231.434 197.504 231.26 196.712 231.26C196.34 231.26 195.932 231.326 195.488 231.458C195.056 231.578 194.618 231.758 194.174 231.998L193.76 230.954C194.24 230.69 194.75 230.486 195.29 230.342C195.83 230.186 196.388 230.108 196.964 230.108C197.576 230.108 198.086 230.168 198.494 230.288C198.914 230.408 199.25 230.606 199.502 230.882C199.754 231.146 199.934 231.488 200.042 231.908C200.15 232.328 200.204 232.844 200.204 233.456V239ZM196.478 238.046C196.874 238.046 197.282 237.962 197.702 237.794C198.134 237.614 198.512 237.38 198.836 237.092V235.094C198.524 235.058 198.212 235.034 197.9 235.022C197.588 234.998 197.24 234.986 196.856 234.986C196.1 234.986 195.56 235.1 195.236 235.328C194.924 235.556 194.768 235.94 194.768 236.48C194.768 236.996 194.9 237.386 195.164 237.65C195.428 237.914 195.866 238.046 196.478 238.046ZM204.458 231.458V235.76C204.458 236.156 204.476 236.498 204.512 236.786C204.548 237.074 204.62 237.314 204.728 237.506C204.848 237.686 205.01 237.818 205.214 237.902C205.43 237.986 205.718 238.028 206.078 238.028C206.342 238.028 206.6 237.998 206.852 237.938C207.116 237.878 207.368 237.806 207.608 237.722L207.878 238.766C207.158 239.042 206.432 239.18 205.7 239.18C205.172 239.18 204.734 239.108 204.386 238.964C204.05 238.82 203.78 238.622 203.576 238.37C203.384 238.106 203.252 237.794 203.18 237.434C203.108 237.062 203.072 236.654 203.072 236.21V231.458H201.65V230.288H203.072V228.452L204.458 228.2V230.288H207.536V231.458H204.458ZM215.419 230.288L215.653 231.044C215.965 230.756 216.325 230.528 216.733 230.36C217.153 230.192 217.615 230.108 218.119 230.108C219.307 230.108 220.201 230.48 220.801 231.224C221.401 231.956 221.701 233.096 221.701 234.644C221.701 236.204 221.407 237.35 220.819 238.082C220.243 238.814 219.391 239.18 218.263 239.18C217.783 239.18 217.321 239.108 216.877 238.964C216.433 238.808 216.067 238.592 215.779 238.316V242.744H214.393V230.288H215.419ZM217.903 231.26C217.483 231.26 217.087 231.344 216.715 231.512C216.355 231.68 216.043 231.908 215.779 232.196V237.11C216.043 237.398 216.355 237.626 216.715 237.794C217.087 237.962 217.483 238.046 217.903 238.046C218.731 238.046 219.343 237.782 219.739 237.254C220.135 236.726 220.333 235.856 220.333 234.644C220.333 233.444 220.135 232.58 219.739 232.052C219.343 231.524 218.731 231.26 217.903 231.26ZM223.293 234.644C223.293 233.084 223.605 231.938 224.229 231.206C224.865 230.474 225.873 230.108 227.253 230.108C228.621 230.108 229.617 230.474 230.241 231.206C230.877 231.938 231.195 233.084 231.195 234.644C231.195 236.204 230.877 237.35 230.241 238.082C229.605 238.814 228.609 239.18 227.253 239.18C225.885 239.18 224.883 238.814 224.247 238.082C223.611 237.35 223.293 236.204 223.293 234.644ZM224.679 234.644C224.679 235.832 224.883 236.696 225.291 237.236C225.699 237.764 226.353 238.028 227.253 238.028C228.153 238.028 228.807 237.764 229.215 237.236C229.623 236.696 229.827 235.832 229.827 234.644C229.827 233.48 229.623 232.628 229.215 232.088C228.807 231.548 228.153 231.278 227.253 231.278C226.353 231.278 225.699 231.548 225.291 232.088C224.883 232.628 224.679 233.48 224.679 234.644ZM233.395 230.288H234.763V239H233.395V230.288ZM233.377 226.544H234.763V228.344H233.377V226.544ZM238.621 231.17C239.029 230.846 239.479 230.588 239.971 230.396C240.463 230.204 240.979 230.108 241.519 230.108C242.527 230.108 243.247 230.354 243.679 230.846C244.123 231.326 244.345 232.112 244.345 233.204V239H242.977V233.582C242.977 232.718 242.833 232.118 242.545 231.782C242.269 231.446 241.837 231.278 241.249 231.278C240.409 231.278 239.569 231.584 238.729 232.196V239H237.361V230.288H238.387L238.621 231.17ZM248.602 231.458V235.76C248.602 236.156 248.62 236.498 248.656 236.786C248.692 237.074 248.764 237.314 248.872 237.506C248.992 237.686 249.154 237.818 249.358 237.902C249.574 237.986 249.862 238.028 250.222 238.028C250.486 238.028 250.744 237.998 250.996 237.938C251.26 237.878 251.512 237.806 251.752 237.722L252.022 238.766C251.302 239.042 250.576 239.18 249.844 239.18C249.316 239.18 248.878 239.108 248.53 238.964C248.194 238.82 247.924 238.622 247.72 238.37C247.528 238.106 247.396 237.794 247.324 237.434C247.252 237.062 247.216 236.654 247.216 236.21V231.458H245.794V230.288H247.216V228.452L248.602 228.2V230.288H251.68V231.458H248.602ZM258.123 234.644C258.123 233.084 258.435 231.938 259.059 231.206C259.695 230.474 260.703 230.108 262.083 230.108C263.451 230.108 264.447 230.474 265.071 231.206C265.707 231.938 266.025 233.084 266.025 234.644C266.025 236.204 265.707 237.35 265.071 238.082C264.435 238.814 263.439 239.18 262.083 239.18C260.715 239.18 259.713 238.814 259.077 238.082C258.441 237.35 258.123 236.204 258.123 234.644ZM259.509 234.644C259.509 235.832 259.713 236.696 260.121 237.236C260.529 237.764 261.183 238.028 262.083 238.028C262.983 238.028 263.637 237.764 264.045 237.236C264.453 236.696 264.657 235.832 264.657 234.644C264.657 233.48 264.453 232.628 264.045 232.088C263.637 231.548 262.983 231.278 262.083 231.278C261.183 231.278 260.529 231.548 260.121 232.088C259.713 232.628 259.509 233.48 259.509 234.644ZM272.871 230.288V231.458H269.757V239H268.389V231.458H267.057V230.288H268.371V229.586C268.371 228.974 268.437 228.458 268.569 228.038C268.713 227.618 268.917 227.282 269.181 227.03C269.445 226.766 269.763 226.58 270.135 226.472C270.519 226.352 270.957 226.292 271.449 226.292C271.785 226.292 272.103 226.328 272.403 226.4C272.703 226.46 272.979 226.538 273.231 226.634L272.925 227.75C272.421 227.558 271.923 227.462 271.431 227.462C270.855 227.462 270.429 227.642 270.153 228.002C269.889 228.362 269.757 228.962 269.757 229.802V230.288H272.871ZM280.105 230.288L280.339 231.044C280.651 230.756 281.011 230.528 281.419 230.36C281.839 230.192 282.301 230.108 282.805 230.108C283.993 230.108 284.887 230.48 285.487 231.224C286.087 231.956 286.387 233.096 286.387 234.644C286.387 236.204 286.093 237.35 285.505 238.082C284.929 238.814 284.077 239.18 282.949 239.18C282.469 239.18 282.007 239.108 281.563 238.964C281.119 238.808 280.753 238.592 280.465 238.316V242.744H279.079V230.288H280.105ZM282.589 231.26C282.169 231.26 281.773 231.344 281.401 231.512C281.041 231.68 280.729 231.908 280.465 232.196V237.11C280.729 237.398 281.041 237.626 281.401 237.794C281.773 237.962 282.169 238.046 282.589 238.046C283.417 238.046 284.029 237.782 284.425 237.254C284.821 236.726 285.019 235.856 285.019 234.644C285.019 233.444 284.821 232.58 284.425 232.052C284.029 231.524 283.417 231.26 282.589 231.26ZM294.045 238.136C293.637 238.46 293.187 238.718 292.695 238.91C292.203 239.09 291.687 239.18 291.147 239.18C290.139 239.18 289.413 238.94 288.969 238.46C288.525 237.98 288.303 237.194 288.303 236.102V230.288H289.689V235.724C289.689 236.588 289.827 237.188 290.103 237.524C290.391 237.86 290.829 238.028 291.417 238.028C292.257 238.028 293.091 237.722 293.919 237.11V230.288H295.305V239H294.261L294.045 238.136ZM298.769 230.288L298.931 231.44C299.327 231.008 299.771 230.678 300.263 230.45C300.755 230.222 301.253 230.108 301.757 230.108C301.961 230.108 302.135 230.126 302.279 230.162C302.435 230.186 302.597 230.228 302.765 230.288V231.512C302.405 231.368 302.027 231.296 301.631 231.296C301.175 231.296 300.719 231.422 300.263 231.674C299.807 231.926 299.417 232.244 299.093 232.628V239H297.725V230.288H298.769ZM307.602 238.028C308.442 238.028 309.192 237.818 309.852 237.398L310.248 238.496C309.9 238.7 309.498 238.868 309.042 239C308.598 239.12 308.118 239.18 307.602 239.18C306.174 239.18 305.13 238.826 304.47 238.118C303.81 237.398 303.48 236.24 303.48 234.644C303.48 233.084 303.798 231.938 304.434 231.206C305.07 230.474 306.066 230.108 307.422 230.108C308.586 230.108 309.54 230.462 310.284 231.17L309.528 232.106C309.264 231.842 308.952 231.638 308.592 231.494C308.244 231.338 307.866 231.26 307.458 231.26C306.594 231.26 305.94 231.524 305.496 232.052C305.064 232.568 304.848 233.432 304.848 234.644C304.848 235.856 305.076 236.726 305.532 237.254C305.988 237.77 306.678 238.028 307.602 238.028ZM313.38 231.08C314.208 230.432 315.138 230.108 316.17 230.108C317.178 230.108 317.898 230.348 318.33 230.828C318.774 231.296 318.996 232.088 318.996 233.204V239H317.628V233.582C317.628 232.718 317.484 232.118 317.196 231.782C316.92 231.446 316.488 231.278 315.9 231.278C315.06 231.278 314.22 231.584 313.38 232.196V239H312.012V226.472L313.38 226.292V231.08ZM327.645 239H326.619L326.403 238.19C326.043 238.502 325.617 238.748 325.125 238.928C324.645 239.096 324.117 239.18 323.541 239.18C322.641 239.18 321.963 238.952 321.507 238.496C321.063 238.028 320.841 237.362 320.841 236.498C320.841 235.61 321.117 234.956 321.669 234.536C322.221 234.104 323.145 233.888 324.441 233.888C324.825 233.888 325.161 233.894 325.449 233.906C325.749 233.918 326.025 233.942 326.277 233.978V233.492C326.277 232.688 326.121 232.118 325.809 231.782C325.497 231.434 324.945 231.26 324.153 231.26C323.781 231.26 323.373 231.326 322.929 231.458C322.497 231.578 322.059 231.758 321.615 231.998L321.201 230.954C321.681 230.69 322.191 230.486 322.731 230.342C323.271 230.186 323.829 230.108 324.405 230.108C325.017 230.108 325.527 230.168 325.935 230.288C326.355 230.408 326.691 230.606 326.943 230.882C327.195 231.146 327.375 231.488 327.483 231.908C327.591 232.328 327.645 232.844 327.645 233.456V239ZM323.919 238.046C324.315 238.046 324.723 237.962 325.143 237.794C325.575 237.614 325.953 237.38 326.277 237.092V235.094C325.965 235.058 325.653 235.034 325.341 235.022C325.029 234.998 324.681 234.986 324.297 234.986C323.541 234.986 323.001 235.1 322.677 235.328C322.365 235.556 322.209 235.94 322.209 236.48C322.209 236.996 322.341 237.386 322.605 237.65C322.869 237.914 323.307 238.046 323.919 238.046ZM332.061 233.6C332.337 233.708 332.679 233.828 333.087 233.96C333.507 234.092 333.921 234.236 334.329 234.392C335.493 234.824 336.075 235.598 336.075 236.714C336.075 237.506 335.799 238.118 335.247 238.55C334.695 238.982 333.807 239.198 332.583 239.198C331.899 239.198 331.317 239.12 330.837 238.964C330.357 238.808 329.925 238.622 329.541 238.406L329.991 237.326C330.339 237.53 330.735 237.704 331.179 237.848C331.623 237.992 332.097 238.064 332.601 238.064C333.369 238.064 333.909 237.962 334.221 237.758C334.533 237.542 334.689 237.218 334.689 236.786C334.689 236.21 334.347 235.784 333.663 235.508C333.279 235.352 332.877 235.208 332.457 235.076C332.049 234.944 331.659 234.812 331.287 234.68C330.807 234.512 330.423 234.254 330.135 233.906C329.859 233.546 329.721 233.078 329.721 232.502C329.721 231.806 329.991 231.23 330.531 230.774C331.083 230.318 331.905 230.09 332.997 230.09C333.573 230.09 334.089 230.15 334.545 230.27C335.001 230.378 335.385 230.51 335.697 230.666L335.283 231.71C334.935 231.542 334.587 231.422 334.239 231.35C333.891 231.266 333.465 231.224 332.961 231.224C332.601 231.224 332.301 231.26 332.061 231.332C331.821 231.404 331.629 231.5 331.485 231.62C331.353 231.728 331.257 231.854 331.197 231.998C331.137 232.142 331.107 232.286 331.107 232.43C331.107 232.718 331.179 232.952 331.323 233.132C331.467 233.312 331.713 233.468 332.061 233.6ZM341.496 239.18C340.08 239.18 339.072 238.814 338.472 238.082C337.884 237.338 337.59 236.192 337.59 234.644C337.59 233.084 337.89 231.938 338.49 231.206C339.09 230.474 340.008 230.108 341.244 230.108C342.48 230.108 343.398 230.468 343.998 231.188C344.598 231.896 344.898 233.024 344.898 234.572V235.148H338.994C339.042 236.18 339.264 236.918 339.66 237.362C340.056 237.806 340.674 238.028 341.514 238.028C342.018 238.028 342.51 237.956 342.99 237.812C343.482 237.656 343.938 237.446 344.358 237.182L344.808 238.28C344.352 238.556 343.836 238.778 343.26 238.946C342.696 239.102 342.108 239.18 341.496 239.18ZM343.494 234.032C343.434 233.096 343.224 232.406 342.864 231.962C342.504 231.506 341.964 231.278 341.244 231.278C340.524 231.278 339.984 231.506 339.624 231.962C339.264 232.406 339.054 233.096 338.994 234.032H343.494Z" fill="#4A4946"/>
</svg>
